<svg xmlns="http://www.w3.org/2000/svg" enable-background="new 0 0 580.3 791.3" viewBox="0 0 580.3 791.3" id="Advertising">
<g id="advertising-svg">
<g fill="#ffffff" class="colorffffff svgShape"><path d="M324.7 732.2c12.6 5.5 25.6 9.8 39 13 12.7 3 25.8 4.7 38.9 4.1 7-.3 14-1.4 20.8-3.2.8-.4 1.5-1 1.9-1.8.4-.8.7-1.6.9-2.5.2-1.1 0-3.4-1.7-3.2-1.9.2-3 2.3-3.4 4-.2 1-.3 2.4.5 3.2.3.3.7.5 1.1.7 1.1.5 2.3 1 3.4 1.4 4.7 1.9 9.3 3.7 14 5.6l11.2 4.3c1.7.6 3.2-1.6 3.7-2.8.4-.9.6-1.9.4-2.9 0-.7-.5-1.4-1.1-1.7-9.1-3.5-18.2-6.9-27.2-10.7-.7-.3-1.4-.6-2.1-1l.5.4.4.6.2 1.6-.5 2-1.7 2.4c-.7.3-.9.5-.7.4l-.7.2 1.1-7.4-1.8.5.7-.2c-11.2 2.6-22.8 3.4-34.2 2.2-3.4-.3-6.7-.7-10.1-1.2l.6.1c-13.8-2.3-27.2-6-40.3-11-3.7-1.4-7.4-2.9-11.1-4.4-.7-.2-1.5 0-2 .5-.8.6-1.3 1.4-1.7 2.4-.1 1.1-.6 3.7 1 4.4zM509.1 585.7l-24-7.8-6.8-2.2c-1.7-.5-3.2 1.5-3.7 2.8-.4.9-.6 1.9-.4 2.9.1.6.4 1.5 1.1 1.7l24.1 7.8 6.8 2.2c1.7.5 3.2-1.5 3.7-2.8.4-.9.5-1.9.4-2.9-.2-.6-.5-1.4-1.2-1.7zM526.5 296.4l.8.2-.5-.1c5.7 1.7 11.6 4.1 15.7 8.6l-.3-.4c1 1.1 1.8 2.3 2.5 3.6.4.7.7 1.4.9 2.2.2.5.3 1 .4 1.4 0 0 .1.4.1.2v.2c.1.3.2.5.2.8.5 2 .9 4 1.1 6 .1 1 .2 2 .2 3.1V323.1c0 .5 0 1-.1 1.5-.2 2.1-.6 4.1-1 6.1l-1 6c-.7 4-1.4 8.1-2.1 12.1-1.5 8.1-3 16.1-4.7 24.1l-.1.8v-.2c0 .1 0 .2-.1.4-.1.5-.2 1-.3 1.6-.2 1-.5 2.1-.7 3.2-.2.7-.4 1.3-.6 2-.1.2.4-.9.1-.3-.1.1-.1.3-.2.4-.1.3-.3.6-.4.9-.3.6.5-.9.2-.4l-.2.4-.6.9c-.1.1.7-.9.4-.6l-.1.2-.3.4c-.2.2-.4.5-.6.7l.3-.3-.3.3c-.2.2-.5.4-.7.6l-.3.3-.2.1c-.3.2.7-.5.3-.3s-.5.4-.8.5c-.5.3-1 .7-1.6.9l-.2.1s.6-.3.3-.2l-.4.2-.9.4c-1.2.4-2.4.8-3.6 1h.2-.2l-.4.1c-.4.1-.7.1-1 .1-.6 0-1.3.1-1.9.1-1.3 0-2.6-.1-3.9-.4-.6-.1-1.3-.3-1.9-.5l.5.1c-1.3-.4-2.6-.9-3.8-1.5-1.4-.7-3.1 1.4-3.7 2.4-.5.8-.9 1.7-1 2.7 0 .5-.1 1.4.5 1.7 10.5 5.5 23.5 1.6 29.3-8.7 1.2-2.1 2.2-4.3 2.7-6.7.6-2.8 1.2-5.7 1.8-8.6 2.2-10.4 4.1-20.9 5.9-31.3.5-2.6.9-5.3 1.4-7.9.4-2.6 1-5.3 1.2-7.9.3-5.6-.5-11.3-2.3-16.6-1.4-3.7-3.9-6.9-7.2-9.1-3.2-2.2-6.7-3.9-10.4-5l-3-.9c-.6-.2-1.6.7-1.9 1-.8.7-1.4 1.6-1.8 2.5-.4.8-.6 1.6-.5 2.5-.2.8.3 1.3.8 1.4zM313.1 390.4c-17-2.9-34.2-4.7-51.5-5.2-17.6-.6-35.2 0-52.8 1.6-17.7 1.7-35.3 4.4-52.6 8-17.4 3.6-34.6 8.1-51.5 13.5-16.8 5.4-33.4 11.6-49.5 18.6-2 .8-3.9 1.7-5.9 2.6-1.7.9-3 2.4-3.5 4.3-.3 1-.3 3.3 1.4 2.6 16-7.2 32.4-13.6 49-19.1 16.7-5.6 33.8-10.3 51-14.1 17.3-3.8 34.7-6.7 52.3-8.6 17.4-1.9 34.9-2.7 52.3-2.4 17.3.2 34.6 1.7 51.7 4.3 2.1.3 4.2.7 6.2 1 2.6.4 6.3-6.6 3.4-7.1z" fill="#ffffff" class="colorffffff svgShape"></path><path d="M476.6 241.2c8.3 3.2 16.1 7.6 23.1 13.1 6.3 4.9 12 10.5 15.7 17.6 3.1 6.3 5 13.1 5.4 20.1.2 1.9.2 3.8.3 5.7v5.3c-.1 4-.4 7.9-.7 11.9-.7 9.1-1.5 18.2-2.5 27.3-.5 4.7-1.1 9.4-1.9 14.1-.4 2.3-.8 4.7-1.3 7 0 .2-.1.5-.1.7 0 0-.2 1.1-.1.5l-.3 1.5-.9 3.6c-1.1 4.4-2.4 8.7-4 13-.2.7 0 0 0-.1l-.3.8-.5 1.2c-.4 1-.8 1.9-1.2 2.9-.8 1.8-1.7 3.6-2.6 5.4l-.3.5c-.5.9.4-.8-.1.1-.2.4-.4.8-.7 1.2-.5.9-1 1.8-1.6 2.7s-1 1.7-1.6 2.5l-.7 1.1-.4.6c-.6.8.5-.7-.1.1-1.1 1.5-2.3 3.1-3.6 4.5-.3.4-.6.7-.9 1.1l-.4.4-.1.1c-.6.7-1.3 1.4-2 2-1.3 1.3-2.8 2.5-4.2 3.7.5-.4 0 0-.1.1l-.6.4c-.4.3-.7.5-1.1.8-.8.5-1.5 1-2.3 1.5-3.4 2.1-7 3.8-10.8 4.9-8.7 2.7-17.8 2.9-26.8 2.4-2.4-.2-4.8-.4-7.3-.7s-6.1 6.7-3.2 7.1c9.6 1.1 19.3 1.4 28.8-.3 8.7-1.6 16.8-5.3 23.8-10.9 13.4-10.6 22.1-26.4 27.3-42.3 6.1-18.8 7.7-38.6 9.4-58.2 1.3-15.5 3.2-32-2.3-46.9-2.8-7.3-7.4-13.9-13.2-19.1-6.7-6.2-14.4-11.3-22.7-15.2-2-.9-4-1.8-6-2.6-1.5-.6-3 1.2-3.7 2.4-.5.8-.9 1.7-1 2.7-.1.5-.2 1.5.4 1.7zM135 49.7c12.2 13.4 24.9 26.3 38 38.7 12.8 12.1 26.1 23.6 39.9 34.6 13.5 10.8 27.5 20.9 41.9 30.5 14.4 9.5 29.3 18.4 44.6 26.5 15.4 8.2 31.1 15.7 47.2 22.5 2 .8 4 1.7 6 2.5 1.5.6 3-1.3 3.7-2.4.4-.7 2-3.8.5-4.4-16.2-6.6-32-13.9-47.5-22-15.3-8-30.3-16.7-44.8-26-14.5-9.3-28.6-19.3-42.2-30-13.9-10.8-27.3-22.2-40.2-34.1-13.3-12.2-26-24.9-38.3-38.2-1.5-1.7-3.1-3.3-4.6-5-.4-.4-1.4.1-1.8.3-.8.5-1.5 1.3-2 2.1-.6 1.2-1.5 3.1-.4 4.4zM441 216.1c-1.8-4.4-5-8-9.3-10.1-4.2-2.2-9-3.3-13.7-4.4-2.6-.6-5.2-1.2-7.8-1.9l.5.2c-2.6-.7-5.1-1.7-7.5-3-1.6-.7-3.3-.8-5-.4-1.8.4-3.5 1.4-4.8 2.7-2.2 2.3-3.8 5.2-4.3 8.3-.2.6 0 1.3.5 1.7.6.2 1.3.1 1.8-.3 1.6-1.1 2.7-2.9 3-4.8 0 .1-.2.7-.1.3 0-.1.1-.2.1-.4s.3-.7 0 0-.1.2 0 0 .5-.9.1-.2-.1.2 0 0l-.3.5c.2-.1.3-.3.4-.5 0 0-.7.7-.3.4l.3-.3c.5-.5-.6.4-.1.1.2-.1.4-.2.6-.4 0 .1-.6.3-.2.1l.3-.1c.2-.1.4-.1.6-.2.2-.1.4-.1.7-.2s-.4 0-.1 0h.3c.9-.1 1.8 0 2.7.2l-.5-.2c5.3 3 11.4 4.2 17.3 5.5 1.7.4 3.3.8 5 1.3l-.5-.2c4.7 1.3 9.3 3.3 12.7 6.9l-.3-.4c1.5 1.6 2.6 3.5 3.4 5.6.2.6 1 .6 1.4.4.8-.3 1.5-.9 2-1.6.7-1 1.8-3 1.1-4.6z" fill="#ffffff" class="colorffffff svgShape"></path><path d="M88.7 45.8c3.5-4.7 8.5-7.9 14.2-9.1 5.7-1.2 11.6-.8 17.1 1.2 5.6 2 10.5 5.7 14 10.5 3.9 5.6 4.8 11.7 5.5 18.4 3 29.5 2.3 59.3.1 88.8-2.6 34.2-7.5 68.1-14.7 101.7-7 33.1-16.2 66-28.5 97.5-5.7 14.4-12.1 28.5-19.4 42.2-3.4 6.3-7.1 13-12.1 18.5-5.4 6-12.2 11.2-19.7 14-7.1 2.7-15.9 3.3-22.6-1-5.7-3.7-6.2-11-6-17.2.4-8 1.9-16 2-24v-12.2c.1-8.8.4-19 .7-28.3.5-12 1.2-24.1 2-36.1 2-28.5 5-56.9 9.2-85.1 4.5-30.1 10.3-60.1 18.6-89.4 3.8-13.7 8.3-27.1 13.4-40.4 4.7-12.3 10.4-24.1 16.9-35.6 1.5-2.5 3-5.1 4.6-7.5.8-1.3 1.7-2.5 2.5-3.8l1.2-1.7.7-1c.7-1.1-.5.6.3-.4.7-1.1 2.4-3.5 1.5-4.9s-2.9.3-3.4 1.1c-16.3 22.6-27.4 48.5-36.1 74.8-9.8 29.6-16.6 60.2-21.9 90.8-5.1 29.8-8.8 59.8-11.3 89.8-2 24-3.4 48-3.9 72-.2 9.8.3 19.6-.6 29.3-.7 7.9-2.2 16-1.3 23.9.3 3.3 1.4 6.5 3.3 9.2 2.3 2.8 5.4 4.8 8.9 5.6 17.1 5 34.2-7.8 44.7-20.1 5.3-6.2 9.2-13.4 13-20.6 3.7-7 7.2-14.1 10.4-21.3 14.1-31.3 24.6-64.3 32.8-97.6 8.5-34.6 14.7-69.8 18.4-105.2 3.3-31.7 4.9-63.8 3-95.7-.4-6.7-1-13.4-1.7-20.1-.7-6.7-3.5-13-8-18-8.8-9.1-22-12.4-34-8.5C96 32.7 90.6 36.7 86.7 42c-.8 1.1-2.4 3.4-1.5 4.9s2.9-.4 3.5-1.1z" fill="#ffffff" class="colorffffff svgShape"></path><path fill="#ffffff" d="M85.2 47c15-20.7 39.8-17.5 43 9.3 11 93.3-13.9 255-67.5 347.8-9.7 16.7-25.8 34.8-41.6 26.9-13.7-6.8-16.3-28-16.4-45.4-.6-60 19.7-251.9 82.5-338.6z" class="colorffffff svgShape"></path><path d="M86.2 48.9c3.7-5.1 8.5-9.3 14.7-11 5.1-1.5 10.6-.7 15 2.2 5.2 3.5 8 9.5 9.2 15.5 1.3 6.3 1.6 13 2 19.4 2.1 29.2 1 58.6-1.6 87.7-2.9 32.9-8 65.6-15.1 97.8-7 31.8-16 63.3-28 93.6-5.4 13.9-11.6 27.4-18.6 40.6-3.5 6.5-7.4 13.6-12.1 19.6s-11 12.3-18.7 14.5c-6.9 1.9-14.1-1.1-18.5-6.5-4.6-5.7-6.7-13.1-7.8-20.3-1-6.9-1.5-13.9-1.4-20.9v-4.8c0-2.1.1-4.1.1-6.1.7-21.5 2.6-42.9 5-64.2 3.1-27.8 7.4-55.5 12.8-83 5.5-29.1 12.8-57.8 21.8-86 8.3-25.5 18.4-51.2 32-73.8 1.5-2.5 3.1-5.1 4.7-7.6.8-1.2 1.5-2.3 2.3-3.5.4-.6.8-1.1 1.2-1.7l.7-1 .3-.5c.8-1.1 2.4-3.4 1.5-4.8s-2.9.3-3.5 1.1C68.1 67.5 56.6 92.8 47 118.5c-10.5 28.4-18.4 57.7-24.9 87.2-6.3 28.9-11.3 58-15 87.4-3 23.5-5.4 47.2-6.5 70.9-.4 8.7-.7 17.5-.6 26.2.2 8 .8 16.1 2.9 23.8 1.9 7 5 14 10.9 18.5 15.2 11.4 32-4.2 40.9-16 5.1-7 9.6-14.4 13.5-22.1 3.5-6.6 6.8-13.3 9.9-20.1 13.6-30 23.8-61.5 31.9-93.4 8.5-33.4 14.7-67.3 18.7-101.5 3.6-31.1 5.5-62.6 4.5-94-.2-6.8-.6-13.5-1.2-20.3-.6-6.8-.9-13.9-3.3-20.4-2.1-5.6-6.1-10.9-11.8-13.2-5.3-2.1-11.2-2-16.4.3-6.6 2.7-12 7.7-16.2 13.3-.8 1.1-2.4 3.4-1.5 4.9s2.8-.3 3.4-1.1zM409 465.2c2.5-9.8 5.1-19.6 7.7-29.4.8-2.8 1.5-5.6 2.3-8.4.3-.7.3-1.5 0-2.2-.3-.5-.9-.7-1.4-.4-1.7.9-3 2.4-3.5 4.3-2.6 9.8-5.2 19.6-7.8 29.3-.7 2.8-1.5 5.6-2.2 8.4-.3.7-.3 1.5 0 2.2.3.5.9.7 1.4.4 1.8-.8 3-2.3 3.5-4.2zM249.2 722.3c-1.9 10.5-1.5 22.1 3 31.9 2.1 4.6 5.2 8.7 9.2 11.8 2.1 1.6 4.4 2.9 6.8 3.9 1.3.5 2.7 1 4.1 1.3 1.4.3 2.8.3 4.1.1 10.2-.8 19.8-4.9 27.5-11.7 7.8-6.8 13.8-15.6 18.7-24.7 5-9.3 9.2-18.9 13.5-28.6 1.6-3.6 3.4-7.1 4.9-10.7.7-1.7 1.3-3.4 1.9-5.1 2.4-6.8 4.8-13.5 7.1-20.3 3.4-9.8 6.7-19.6 10-29.5 3.5-10.3 6.9-20.6 10.2-30.9 1.4-4.5 2.9-9 4.2-13.5 2.2-7.1 4-14.2 6-21.4 1-3.9 2.1-7.7 3.1-11.6.3-1.1.3-3.1-1.4-2.6s-3 2.7-3.5 4.3c-3.5 13.1-7 26.2-11 39.2-3.1 9.8-6.3 19.6-9.5 29.3l-10.2 30.3-8.1 23.4c-.8 2.3-1.6 4.6-2.5 7l-.4 1.1c-.1.1-.1.3-.2.4 0-.3.5-1.2.2-.5-.4.9-.8 1.7-1.2 2.6-4.2 9-7.9 18.2-12.2 27.1-1.1 2.3-2.2 4.5-3.4 6.8-.1.3-.3.5-.4.8s-.7 1.2-.1.2c-.3.5-.6 1.1-.9 1.7-.6 1.1-1.2 2.2-1.9 3.2-1.3 2.1-2.6 4.2-4.1 6.3-.1.1-.7.9-.2.4l-.2.3-1.2 1.5c-.7.9-1.5 1.9-2.2 2.8-.3.4-.7.8-1.1 1.2l-.6.7c-.1.1-.4.4 0 0l-.2.2c-.8.8-1.6 1.7-2.5 2.4s-1.7 1.5-2.6 2.3l-.4.3.1-.1-.6.5c-.5.3-.9.7-1.4 1-.9.6-1.9 1.3-2.9 1.8-.5.3-1 .6-1.5.8-.2.1-.8.4-.3.1l-.9.4c-2.1 1-4.3 1.8-6.6 2.4-2.3.6-4.6 1-7 1.2-1.3.2-2.6.2-3.9.2-1.3-.2-2.6-.6-3.8-1.2-4.6-1.8-8.6-4.7-11.7-8.6-1.5-1.9-2.7-4-3.8-6.2-1-2.2-1.8-4.4-2.4-6.7-.6-2.5-1-5.1-1.3-7.7-.1-1.3-.2-2.6-.2-3.9v-.9c0-.6 0-.2 0 0v-.5c0-.7 0-1.3.1-2 .2-2.6.5-5.1.9-7.7.3-.7 0-1.5-.7-1.8-.5-.2-1.2-.1-1.6.4a7.67 7.67 0 0 0-2.8 4.8zM334.5 435.8c-2.7 9.1-5.3 18.1-8 27.2-2.7 9.1-5.3 18.1-7.8 27.1-1.5 5.1-2.9 10.2-4.3 15.2-.3.7-.3 1.5 0 2.2.3.5.9.7 1.4.4 1.7-.9 3-2.4 3.5-4.3 2.6-9 5.2-18.1 7.8-27.1 2.6-9 5.2-18.1 7.9-27.2l4.5-15.3c.3-.7.3-1.5 0-2.2-.3-.5-.9-.7-1.4-.4-1.8.7-3.1 2.7-3.6 4.4z" fill="#ffffff" class="colorffffff svgShape"></path><path d="M333 402.1c-2.3 3.4-4.5 6.9-6.9 10.3l-1.8 2.5-.8 1.2c-.5.7.6-.8 0 0-.2.2-.3.5-.5.7-1.2 1.7-2.5 3.3-3.7 4.9-.8.9-1.3 2-1.6 3.1-.1.5-.3 1.8.4 2.1l31.1 11.4 8.9 3.2c.9.2 1.8-.1 2.4-.8 1-.9 1.7-2.1 2.1-3.4l7.5-21.7c.4-1.1.2-3.2-1.4-2.6s-2.9 2.6-3.5 4.3l-7.5 21.7 4.6-4.2-31.1-11.4-8.9-3.2-1.2 5.2c5.4-6.8 10.1-14.1 15-21.4.5-.8.9-1.7 1-2.7 0-.5 0-1.4-.5-1.7-1.3-.7-2.9 1.5-3.6 2.5z" fill="#ffffff" class="colorffffff svgShape"></path><path d="M467.7 236c1.4.3 2.8.6 4.2 1l-1-1.1c.4 26.5-1.5 53-5.9 79.2-4.3 25.7-10.9 50.9-19.8 75.3-2.4 6.5-5 13.3-8 20-1.5 3.4-3.1 6.8-4.7 10.1-.9 1.8-1.5 2.8-2.3 4.3s-1.8 3.2-2.8 4.7l3.2-2.5c-14.6-3-28.7-7.9-42.8-12.7-14.2-5-28.5-9.7-43.1-13.4-8.3-2.1-16.7-4-25.2-5.6l-.6 5.4c16.4-21.3 29.1-45.2 37.7-70.7 9.1-27.1 13.7-55.6 13.6-84.2 0-16.3-1.5-32.6-4.5-48.6l-4.8 5.8c26.9 11.5 54.7 20.8 83.1 27.8 7.8 1.9 15.8 3.7 23.7 5.2.6.1 1.5-.6 1.9-1 .8-.7 1.4-1.6 1.8-2.5.5-1 1.2-3.3-.5-3.6-28.3-5.5-56-13.4-83-23.6-7.7-2.9-15.3-6-22.9-9.2-1.2-.5-2.4.7-3.1 1.5-.9 1.1-1.9 2.8-1.7 4.3 5.2 27.8 5.9 56.3 2 84.4-1.9 13.5-4.9 26.8-9 39.9-2 6.3-4.1 12.2-6.5 18s-5 11.7-7.9 17.4c-.8 1.6-1.7 3.3-2.5 4.9l-.6 1c.4-.7-.4.7-.4.8-.4.8-.9 1.6-1.3 2.4-1.7 3.1-3.5 6.1-5.4 9.1-1.9 3-3.8 5.9-5.8 8.8l-.7 1-.5.7-1.6 2.2c-1.1 1.4-2.2 2.9-3.2 4.3-.8 1-3.1 4.9-.7 5.4 14.9 2.8 29.6 6.5 44.1 11 14.3 4.4 28.2 9.8 42.5 14.3 8 2.6 16.2 4.8 24.5 6.5 1.2.2 2.7-1.7 3.2-2.5 7.1-11.5 12.4-24.1 17.2-36.7s9-25.4 12.6-38.3c7.2-26 11.9-52.6 14.2-79.5 1.3-15.2 1.8-30.5 1.5-45.8 0-.7-.5-1-1-1.1-1.4-.4-2.8-.7-4.2-1-.6-.1-1.5.6-1.9 1-.8.7-1.4 1.6-1.8 2.5-.2.9-.9 3.1.7 3.4zM65.2 195.4c15.9-14.3 40.7-14.4 57-.7-4.1 30.6-10 60.9-17.7 90.8-19.5 4.7-41.5-6.1-51-25.7-10.1-20.9-4.9-49.5 11.7-64.4z" fill="#ffffff" class="colorffffff svgShape"></path><path d="M65.5 197.7c.6-.5 1.1-1 1.7-1.5 0 0 .5-.4.1-.1l.1-.1 1-.8c1.1-.8 2.3-1.6 3.5-2.3.6-.4 1.3-.7 1.9-1-.1 0-.5.2-.1 0l.5-.2c.4-.2.8-.4 1.2-.5 1.3-.6 2.6-1.1 3.9-1.5 1.4-.4 2.7-.8 4.2-1.1l.9-.2.5-.1s.6-.1.2 0l2.1-.3c5.9-.7 12-.2 17.7 1.4l-.4-.1c5.8 1.7 11.2 4.5 15.8 8.4l-.4-1.5c-1.6 11.8-3.5 23.7-5.6 35.4-1.1 6-2.2 12-3.5 17.9-.3 1.4-.6 2.8-.9 4.3-.1.4-.2.8-.2 1.2 0-.1.1-.6 0 0 0 .2-.1.3-.1.5l-.5 2.3c-.7 2.9-1.3 5.8-2 8.8-1.5 6.6-3.1 13.2-4.8 19.7l3-3.8-1.3.3-.7.1-.3.1c.2 0 .2 0 0 0-.9.1-1.8.3-2.7.3-1.7.2-3.5.2-5.2.2-3.5-.1-7-.7-10.4-1.7l.4.1c-6.6-1.9-12.7-5.3-17.9-9.8-1.5-1.3-2.9-2.7-4.2-4.1l.3.3c-3.7-4.1-6.6-8.7-8.7-13.8-.5-1.2-1-2.5-1.4-3.8-.1-.3-.2-.6-.3-.8s-.1-.3-.2-.5c.1.5 0-.1 0-.2-.2-.6-.3-1.2-.5-1.9-.6-2.7-1.1-5.3-1.3-8.1-.1-1.3-.2-2.6-.2-3.9v-1.5c0-.7 0-1.4.1-2.1.1-2.7.4-5.4.9-8 .1-.3.1-.7.2-1l.1-.4c.1-.4-.2.7 0 .1s.3-1.4.5-2.1c.3-1.3.7-2.6 1.1-3.9l.6-1.8.2-.4c-.3 1-.1.3 0 .1s.3-.7.4-1c.5-1.2 1.1-2.5 1.7-3.7.2-.3.3-.6.5-.9l.2-.5c-.6 1.1-.2.3 0 .1.3-.6.7-1.2 1-1.8s.8-1.3 1.2-1.9l.6-.8c.4-.6-.5.7-.1.2l.4-.5c.8-1.1 1.8-2.2 2.7-3.3l.3-.4c.4-.5-.6.6-.1.1l.8-.8c.5-.4 1-.9 1.5-1.4.7-.6 1.3-1.4 1.6-2.2.4-.7.5-1.4.5-2.2-.3-1.5-1.8-.8-2.6-.1-7 6.5-12.3 14.7-15.3 23.7-3 8.7-4.2 17.9-3.3 27 .8 9 3.8 17.6 8.9 25.1 5.1 7.2 12 13 20 16.6 7.8 3.6 16.5 4.8 25 3.5 1.1-.2 2.2-.4 3.3-.7.7-.3 1.3-.8 1.8-1.4.6-.7 1-1.5 1.3-2.4 2.9-11.4 5.6-22.8 8-34.3 2.4-11.3 4.5-22.7 6.4-34.2.9-5.6 1.8-11.2 2.6-16.9l.6-4.3c.2-.8.3-1.7.3-2.5-.2-.8-.9-1.2-1.5-1.7-1.7-1.4-3.6-2.6-5.5-3.7-15.8-8.8-35.2-7.4-49.6 3.5-1 .8-2 1.6-3 2.5-.7.6-1.2 1.4-1.6 2.2-.3.7-.5 1.4-.5 2.2.3 1.7 1.8 1 2.6.3zM379.4 244l29 7.5 28.8 7.5 16.3 4.2c.6.2 1.6-.7 1.9-1 .8-.7 1.4-1.6 1.8-2.5.4-.8.6-1.6.5-2.5 0-.6-.4-1-1-1.1l-29-7.5-28.8-7.5-16.3-4.2c-.6-.2-1.6.7-1.9 1-.8.7-1.4 1.6-1.8 2.5-.4.8-.6 1.6-.5 2.5 0 .5.5 1 1 1.1zM349.6 380.8l25.9 6.4 26 6.4 14.6 3.6c.6.1 1.6-.6 1.9-1 .8-.7 1.4-1.6 1.8-2.5.4-.8.6-1.6.5-2.5 0-.6-.4-1-1-1.1l-25.9-6.3-26-6.4-14.7-3.5c-.6-.2-1.6.6-1.9 1-.8.7-1.4 1.6-1.8 2.5-.4.8-.6 1.6-.5 2.5 0 .6.4 1 1 1.1l.1-.2zM380.4 277.8l26.3 6.6L433 291l14.8 3.7c.6.1 1.6-.7 1.9-1 .8-.7 1.4-1.6 1.8-2.5.4-.8.6-1.6.5-2.5 0-.6-.5-1-1-1.1l-26.3-6.6-26.3-6.6-14.8-3.7c-.6-.2-1.6.6-1.9 1-.8.7-1.4 1.6-1.8 2.5-.4.8-.6 1.6-.5 2.5 0 .5.4 1 1 1.1zM377.2 313.2l25.7 6 25.5 6 14.5 3.4c.6.1 1.6-.6 1.9-1 .8-.7 1.4-1.6 1.8-2.5.5-1.1 1.2-3.2-.5-3.6l-25.7-6-25.5-6-14.5-3.4c-.6-.1-1.6.6-1.9 1-.8.7-1.4 1.6-1.8 2.5-.5 1.2-1.2 3.3.5 3.6zM367 344l47.7 13.9 13.4 3.9c.6.2 1.3.1 1.8-.3.8-.5 1.5-1.3 2-2.1s.9-1.7 1-2.7c0-.5.1-1.5-.5-1.7l-47.7-13.9-13.4-3.9c-.6-.2-1.3-.1-1.8.3-.8.5-1.5 1.3-2 2.1s-.9 1.7-1 2.7c0 .4-.1 1.5.5 1.7zM288.2 510.8c7.6 1.7 15.4 3 22.9 5.1 7.1 1.9 13.9 4.6 20.4 7.9 3.6 1.8 7.1 3.9 10.4 6.2l-.5-.4c1.5 1 2.9 2.1 4.2 3.4 1.2 1.2 2.2 2.5 3 3.9l-.4-.6c.8 1.2 1.4 2.5 2 3.9.2.6.5 1.2.7 1.8.1.3.2.7.3 1s.2.8 0-.1c0 .2.1.5.2.7.3 1.4.6 2.8.7 4.2 0 .3 0 .7.1 1.1-.1-1.2 0 0 0 .3 0 .8 0 1.5-.1 2.2 0 .3-.1.7-.1 1-.1.7.1-.8.1-.4 0 .1 0 .3-.1.4-.1.7-.3 1.4-.5 2.1l-.2.5c.4-1.3.2-.6.1-.3s-.2.7-.3 1-.3.6-.4.9c-.1.1-.1.2-.2.4-.2.3.6-1.1.1-.3-.3.6-.6 1.1-1 1.6l-.1.1.3-.4-.3.4c-.2.3-.4.5-.7.8l-.6.6c-.6.6.6-.6 0 0-.5.4-.9.8-1.4 1.2-.3.2-.5.4-.8.6l-.4.2c.9-.6.3-.2.1 0-.5.3-1.1.6-1.7.8-1.2.5-2.5 1-3.8 1.3l.7-.2c-7.7 1.9-15.7.7-23.4-.2-3.1-.3-6.1-.7-9.2-1.2l.6.1c-6.3-1.1-12.6-2.5-18.7-4.3-5.1-1.3-10.1-3-14.9-5-2.6-1.1-5.1-2.5-7.5-4.1l.5.4c-3-2.1-5.6-4.8-7.7-7.9l.4.6c-.8-1.2-1.5-2.5-2-3.9-.2-.7-.5-1.3-.7-2-.1-.2-.1-.8 0 .1 0-.2-.1-.3-.1-.5-.1-.4-.2-.8-.2-1.2l-.3-2.1c0-.3-.1-.7-.1-1v.2-.7c0-.7 0-1.4.1-2.1 0-.3.1-.7.1-1 0-.2 0-.3.1-.5-.1 1.3-.1.4 0 .1.1-.7.3-1.4.4-2 .1-.3.2-.7.3-1s.3-1-.1.3l.2-.7c.2-.7.5-1.3.8-2 .2-.3.8-1.5 0-.2.2-.4.4-.7.6-1.1.3-.6.7-1.2 1.1-1.8l.1-.1c.2-.3.1-.2-.3.4l.3-.4c.2-.3.5-.6.8-1 .5-.5 1-1 1.4-1.5-.8.9 0 0 .2-.2s.8-.6 1.1-.9c.8-.7 1.7-1.3 2.6-1.8l.6-.3c-.8.4.1 0 .2-.1.4-.2.9-.5 1.3-.7 1.7-.8 3.4-1.5 5.2-1.9l-.7.2c3.6-.9 7.3-1 11-.4l-.6-.1c1.4 0 2.6.3 3.8.6 1.6.5 3-1.4 3.6-2.8.4-.9.5-1.9.4-2.9-.1-.6-.4-1.5-1.1-1.7-4.1-1.2-8.4-1.5-12.6-.9-5 .8-9.7 2.8-13.7 5.8-7.7 5.9-12.3 15-12.4 24.7-.3 8.7 3.6 17 10.5 22.2 6.6 5.1 14.6 7.8 22.5 10 4.6 1.3 9.2 2.6 13.9 3.6 5.4 1.1 10.9 1.9 16.4 2.5 7.6.8 15.5 2 23.1.2 3.6-.7 7-2.3 9.9-4.6 3.6-3.1 6.2-7.2 7.5-11.8 2.5-8.7 1.1-18-3.9-25.5-2.5-3.7-6.1-6.2-9.8-8.7-4.2-2.7-8.6-5-13.1-7-4.7-2.1-9.6-3.9-14.5-5.3-5.2-1.5-10.5-2.5-15.8-3.6-2.6-.5-5.2-1.1-7.8-1.7-1.7-.4-3.1 1.4-3.7 2.8-.4.9-.5 1.9-.4 2.9 0 .7.2 1.6 1 1.8zM256.8 617.2c7.6 1.7 15.4 3 22.9 5.1 7.1 1.9 13.9 4.6 20.4 7.9 3.6 1.8 7.1 3.9 10.4 6.2l-.5-.4c1.5 1 2.9 2.1 4.2 3.3 1.2 1.2 2.2 2.5 3 3.9l-.4-.6c.8 1.2 1.4 2.5 2 3.9.2.6.5 1.2.7 1.8.1.3.2.7.3 1 .1.2.2.8 0-.1 0 .2.1.5.2.7.3 1.4.5 2.8.7 4.2 0 .3 0 .7.1 1.1-.1-1.2 0 0 0 .3 0 .8 0 1.5-.1 2.2 0 .3-.1.7-.1 1-.1.7.1-.8 0-.4l-.1.4c-.1.7-.3 1.4-.5 2.1l-.2.5c.4-1.3.2-.6.1-.3s-.2.7-.3 1-.3.6-.4.9c-.1.1-.1.2-.2.4-.2.3.6-1.1.1-.3-.3.6-.6 1.1-1 1.6l-.1.1.3-.4c-.1.1-.2.2-.3.4s-.4.5-.7.8l-.6.6c-.6.6.6-.6 0 0-.5.4-.9.8-1.5 1.2-.3.2-.5.4-.8.6l-.4.2c.9-.6.3-.2.1 0-.5.3-1.1.6-1.7.8-1.2.5-2.5 1-3.8 1.3l.7-.2c-7.7 1.9-15.7.7-23.4-.2-3.1-.3-6.1-.7-9.2-1.2l.6.1c-6.3-1.1-12.6-2.5-18.7-4.3-5.1-1.3-10.1-3-14.9-5-2.6-1.1-5.1-2.5-7.5-4.1l.5.4c-3-2.1-5.6-4.8-7.7-7.9l.4.6c-.8-1.2-1.5-2.5-2-3.9-.2-.7-.5-1.3-.7-2-.1-.2-.1-.8 0 .1 0-.2-.1-.3-.1-.5-.1-.4-.2-.8-.2-1.2l-.3-2.1c0-.3-.1-.7-.1-1v.2-.7c0-.7 0-1.4.1-2.1 0-.3.1-.7.1-1 0-.2 0-.3.1-.5-.1 1.3-.1.4 0 .1.1-.7.3-1.4.4-2 .1-.3.2-.7.3-1s.3-1-.1.3l.2-.7c.2-.7.5-1.3.8-2 .2-.3.8-1.5 0-.2.2-.4.4-.7.6-1.1.3-.6.7-1.2 1.1-1.8l.1-.1c.2-.3.1-.2-.3.4.1-.1.2-.3.3-.4.2-.3.5-.6.8-1 .5-.5 1-1 1.4-1.5-.8.9 0 0 .3-.2s.8-.6 1.1-.9c.8-.7 1.7-1.3 2.6-1.8l.6-.3.2-.1c.4-.2.9-.5 1.3-.7 1.7-.8 3.4-1.5 5.2-1.9l-.7.2c3.6-.9 7.3-1 11-.5l-.6-.1c1.4.3 2.6.6 3.9.8 1.6.5 3-1.4 3.6-2.8.4-.9.5-1.9.4-2.9-.1-.6-.4-1.5-1.1-1.7-4.1-1.2-8.4-1.5-12.6-.9-5 .8-9.7 2.8-13.7 5.8-7.7 5.9-12.3 15-12.4 24.7-.3 8.7 3.6 17 10.5 22.2 6.6 5.1 14.6 7.8 22.5 10 4.6 1.3 9.2 2.6 13.9 3.6 5.4 1.1 10.9 1.9 16.4 2.5 7.6.8 15.5 2 23.1.2 3.6-.8 7-2.3 9.9-4.6 3.6-3.1 6.2-7.2 7.5-11.8 2.5-8.7 1.1-18-3.9-25.5-2.5-3.7-6.1-6.2-9.8-8.7-4.2-2.7-8.6-5-13.1-7-4.7-2.1-9.6-3.9-14.5-5.3-5.2-1.5-10.5-2.5-15.8-3.6-2.6-.5-5.2-1.1-7.8-1.7-1.7-.4-3.1 1.4-3.7 2.8-.4.9-.5 1.9-.4 2.9-.1.8.2 1.7 1 1.8z" fill="#ffffff" class="colorffffff svgShape"></path><path d="M244.6 669.8c6.5 1.5 13 2.6 19.4 4.3 6.1 1.6 11.9 3.9 17.5 6.8 3 1.5 5.9 3.3 8.7 5.2l-.5-.4c1.3.8 2.5 1.8 3.6 2.8 1 1 1.8 2.1 2.6 3.2l-.4-.6c.6 1 1.2 2.1 1.7 3.3.2.5.4 1.1.6 1.7.1.3.2.6.3.8 0 .1.1.2.1.3-.3-.8-.1-.2 0 0 .3 1.2.5 2.4.6 3.6 0 .3 0 .6.1.9v-.2.3c0 .6 0 1.3-.1 1.9 0 .3 0 .6-.1.8v.3c.1-1.2.1-.6 0-.3-.1.6-.2 1.2-.4 1.7l-.1.4c-.2.6.2-.5.2-.5-.1.3-.2.5-.3.8-.1.3-.2.5-.3.8l-.2.4.2-.4c-.3.6-.5.9-.8 1.3-.5.8.6-.8 0-.1-.2.2-.4.5-.6.7l-.5.5c-.6.6.6-.5.1-.1-.4.3-.8.7-1.2 1l-.8 1-.3.2c-.2.1.7-.4.1-.1-.5.3-.9.5-1.4.7-1.1.5-2.2.8-3.3 1.1l.7-.2c-6.5 1.6-13.4.6-20-.1-2.6-.3-5.3-.6-7.9-1l.6.1c-5.3-.9-10.6-2.1-15.8-3.6-4.3-1.1-8.5-2.5-12.5-4.2-2.2-1-4.4-2.2-6.4-3.5l.5.4c-2.6-1.8-4.9-4.1-6.6-6.8l.4.6c-.6-1-1.2-2.1-1.6-3.3-.2-.6-.4-1.2-.6-1.7-.1-.4.2.8 0 .2 0-.1-.1-.3-.1-.4-.1-.3-.1-.6-.2-.9-.1-.6-.2-1.2-.2-1.8 0-.3 0-.6-.1-.9s0 .9 0 .3v-.5c0-.6 0-1.2.1-1.8l.1-.9.1-.4c-.1 1.2-.1.6 0 .3.1-.6.2-1.2.4-1.8.1-.3.2-.6.2-.8s.3-.8-.1.4c.1-.2.1-.3.2-.5.2-.6.4-1.2.7-1.7.1-.2.5-1.2.2-.4s.2-.2.3-.4c.3-.5.6-1 1-1.6.2-.2.5-.6-.2.3l.3-.3c.2-.3.4-.6.7-.8.4-.4.8-.9 1.2-1.3s-.7.6-.2.2l.3-.3c.3-.3.6-.6 1-.8l2.1-1.5c.1-.1.7-.5.1-.1l.6-.3c.4-.2.8-.4 1.1-.6 1.4-.7 2.9-1.3 4.5-1.7l-.7.2c3-.7 6.2-.8 9.2-.4l-.6-.1c.7-.1 1.7.1 2.7.3 1.7.5 3.1-1.4 3.6-2.8.4-.9.5-1.9.4-2.9-.1-.6-.4-1.5-1.1-1.7-7.8-2.3-16.2-.8-22.6 4.2-6.7 5.2-10.7 13.1-10.8 21.6-.1 3.9.7 7.7 2.3 11.2 1.6 3.2 3.8 5.9 6.6 8.1 5.6 4.4 12.5 6.7 19.3 8.6 3.9 1.1 7.9 2.2 11.9 3 4.6 1 9.2 1.6 13.9 2.1 6.5.7 13.3 1.7 19.7.2 3.2-.6 6.1-2 8.7-4.1 3.2-2.8 5.4-6.4 6.6-10.5 2.2-7.5.9-15.6-3.3-22.1-2.1-3.2-5.2-5.3-8.3-7.4-3.6-2.3-7.4-4.3-11.3-6.1-4-1.8-8.1-3.3-12.3-4.5-4.4-1.2-9-2.2-13.5-3.1-2.2-.5-4.4-.9-6.7-1.4-1.7-.4-3.1 1.4-3.7 2.8-.4.9-.5 1.9-.4 2.9 0 .8.3 1.8 1 1.9zM268.9 561.1c8.1 1.8 16.2 3.2 24.2 5.4 7.5 2.1 14.8 4.9 21.8 8.5 3.8 1.9 7.5 4.1 11 6.5l-.5-.4c1.6 1.1 3.1 2.2 4.4 3.5 1.2 1.2 2.3 2.6 3.2 4.1l-.4-.6c.8 1.3 1.5 2.6 2.1 4 .3.7.6 1.4.8 2.2.1.3.2.7.3 1 0 .1 0 .2.1.3l-.1-.3c0 .2.1.5.2.7.4 1.5.6 3 .7 4.6 0 .3 0 .7.1 1.1v-.2.7c0 .7 0 1.5-.1 2.2 0 .4-.1.7-.1 1.1v.2c0 .4.1-.6.1-.5s-.1.4-.1.6c-.1.7-.3 1.4-.5 2.1-.1.2-.1.4-.2.6s.3-1 .2-.6c0 .1 0 .2-.1.2-.1.3-.2.7-.4 1s-.3.7-.4 1c-.1.1-.2.3-.2.4 0 .1.5-.9.3-.6l-.1.3c-.3.6-.7 1.2-1 1.7-.1.1-.5.6 0 0s0 0-.1.1-.4.5-.6.8-.4.4-.6.7c-.1 0-.3.3-.4.4l.4-.4c-.1.1-.2.1-.2.2-.5.4-.9.8-1.4 1.2-.3.2-.5.4-.8.6-.1.1-.7.4-.2.1s0 0-.2.1c-.6.3-1.2.7-1.8.9-1.3.6-2.6 1-4 1.4l.7-.2c-8.2 2-16.8.8-25-.2-3.3-.4-6.5-.8-9.8-1.3l.6.1c-6.7-1.1-13.3-2.6-19.8-4.5-5.4-1.4-10.6-3.1-15.7-5.3-2.8-1.2-5.4-2.7-7.9-4.4l.5.4c-3.3-2.3-6.1-5.1-8.2-8.5l.4.6c-.8-1.3-1.5-2.7-2.1-4.1-.3-.7-.5-1.5-.7-2.2-.2-.5.2.6 0 .1l-.1-.5c-.1-.4-.2-.8-.2-1.2-.1-.8-.2-1.5-.3-2.3 0-.3 0-.7-.1-1v.1-.6c0-.8 0-1.6.1-2.3 0-.3.1-.7.1-1 0-.2.1-.9 0-.2s0 0 0-.2c.1-.8.3-1.5.5-2.3.1-.3.2-.7.3-1 .2-.8-.3.9-.1.3.1-.2.1-.4.2-.6.3-.7.6-1.5.9-2.2.1-.2.2-.3.2-.5l.1-.2c.2-.3-.3.6-.3.6.2-.1.5-.9.6-1.1.4-.7.8-1.3 1.2-2 0-.1.1-.1.1-.2s-.6.8-.3.5l.3-.5c.2-.3.5-.6.8-1s.5-.6.8-.8l.4-.4c.1-.1.5-.3.5-.5s-.6.5-.3.3l.2-.2.4-.4c.4-.3.8-.6 1.1-.9.9-.7 1.8-1.4 2.8-2l.3-.2.1-.1c-.3.2 0 0 0 0l.5-.3c.5-.2.9-.5 1.4-.7 1.8-.9 3.7-1.6 5.6-2.1l-.7.2c3.8-.9 7.7-1.1 11.6-.4l-.6-.1c1.1 0 2.3.2 3.5.6 1.7.4 3.1-1.5 3.6-2.9.4-.9.6-1.9.4-2.9-.1-.6-.4-1.5-1.1-1.7-4.3-1.2-8.9-1.6-13.3-1-5.3.8-10.2 2.9-14.5 6.2-8.1 6.2-12.9 15.8-13 26-.1 4.7.9 9.3 2.9 13.5 2 3.8 4.7 7.2 8.2 9.9 7 5.4 15.5 8.2 23.8 10.6 4.8 1.4 9.7 2.7 14.5 3.7 5.8 1.2 11.6 2 17.4 2.7 8 .9 16.5 2.2 24.5.3 3.8-.8 7.4-2.4 10.5-4.8 3.5-3 6.1-6.9 7.5-11.3 3-9.4 1.6-19.6-3.7-27.8-1.1-1.7-2.5-3.3-4-4.6-2-1.6-4.1-3.2-6.3-4.5-4.5-2.9-9.1-5.4-14-7.5-5-2.2-10.2-4.1-15.4-5.6-5.5-1.5-11.2-2.7-16.8-3.9-2.8-.6-5.6-1.2-8.3-1.8-1.7-.4-3.1 1.4-3.7 2.8-.4.9-.5 1.9-.4 2.9.3.6.5 1.5 1.2 1.7zM396.4 579.5c-1.9-2.1-3.6-4.3-5.2-6.6-.4-.5-.7-1.1-1.1-1.6-.2-.3-.3-.5-.5-.8s.3.5 0-.1l-.3-.5c-.7-1.2-1.4-2.4-2-3.6-1.3-2.4-2.4-5-3.4-7.5-.5-1.3-1-2.6-1.4-4-.2-.6-.4-1.2-.6-1.9l-.3-.9c-.1-.3-.1-.3-.2-.5l.1.3c0-.1-.1-.3-.1-.4-.7-2.6-1.2-5.3-1.6-8-.2-1.4-.3-2.8-.5-4.2-.1-.7-.1-1.4-.1-2v-.4c.1.9 0 .4 0 .2v-1.3c-.1-2.7.1-5.3.4-7.9l.1-.4c-.1 1.2-.1.4 0 .2s.1-.5.1-.8c.1-.7.3-1.3.4-2 .1-.3.2-.6.3-1-.3 1.3-.1.3 0 0 .2-.6.5-1.2.8-1.8s-.5 1-.2.3c.1-.2.2-.3.3-.5s.3-.6.5-.8c.1-.1.5-.7 0-.1s0 0 .1-.2c.2-.3.5-.6.7-.8l.3-.3.3-.3-.3.3c.2-.2.5-.4.7-.6s.4-.3.7-.5c.5-.3-.5.3-.2.1.2-.1.3-.2.4-.2.5-.3 1-.5 1.5-.6.1 0 .3-.1.4-.1l.2-.1h-.2c.3 0 .5-.1.8-.2 1.1-.2 2.3-.2 3.5 0l-.6-.1c1.3.2 2.6.7 3.7 1.4l-.5-.4c.4.3.8.6 1.2 1 .2.2.3.4.5.6.1.1.1.2.2.3-.2-.2-.3-.5 0 0l.2-3.6c-.4.8.5-.8.1-.3-.1.1-.2.3-.2.4l-.2.4c-.3.5.7-.8.2-.3-.2.2-.4.5-.6.7l-.3.3c.8-.9.3-.3.1-.1-.2.2-.4.4-.7.5l-.4.3c-.6.4.6-.3.1-.1-.5.3-1.1.6-1.7.8l-.9.3c-.2 0-.3.1-.5.1.7-.2.3-.1.1 0-.6.1-1.3.2-1.9.3-1.4.1-2.8.1-4.2-.2l.6.1c-2.7-.4-5.2-1.4-7.4-2.9l.5.4c-1.9-1.4-3.6-3.2-4.9-5.2l-.3-.1s-.4-.6-.1-.2-.1-.2-.1-.2l-.2-.3c-.3-.6-.7-1.2-.9-1.8-.6-1.2-1.1-2.5-1.6-3.7-.4-1.2-.8-2.5-1.2-3.7-.2-.5 0 .1 0 .2-.1-.2-.1-.4-.2-.6-.1-.3-.1-.5-.2-.8-.2-.7-.3-1.3-.5-2-.6-2.7-1.1-5.5-1.5-8.3-.5-3.2-1-6.4-1.3-9.6-.1-.8-.1-1.5-.2-2.2V477c0-1.6.1-3.2.3-4.8 0-.2.1-.4.1-.6 0 0-.2 1 0 .2.1-.4.1-.8.2-1.2.2-.8.3-1.5.5-2.2 0-.1.1-.2.1-.4.2-.7-.3.9-.1.4.1-.3.2-.5.3-.8.2-.6.5-1.2.7-1.8.1-.3.7-1.4 0-.1.1-.2.3-.5.4-.8.3-.5.6-1.1 1-1.6l.5-.7c.4-.6-.5.7-.2.3.1-.1.2-.3.3-.4.4-.5.8-1 1.2-1.4.2-.2.4-.5.6-.7l.1-.1.2-.2 1.5-1.2c.3-.2.5-.4.8-.6l.3-.2c.5-.3-.5.3 0 0s1.2-.6 1.8-.9c.6-.3 1.2-.5 1.9-.7.1 0 .2-.1.4-.1h.1c.2 0 .7-.1 1-.2 1.5-.2 3-.2 4.6.1l-.6-.1c4.2.7 8.1 2.8 11.6 5.2l-.6-.4c3.8 2.7 7.4 5.6 10.9 8.6s7 6.1 10.4 9.2c7.2 6.8 14.1 14 20.5 21.6 3.3 3.9 6.5 7.9 9.5 12l4.5 6.3c.7 1.1 1.4 2.2 2.1 3.2l1 1.6.5.7.3.4c.2.3-.2-.4 0 0 5.4 8.7 10 17.9 13.7 27.4.9 2.3 1.7 4.7 2.5 7.1.4 1.2.7 2.4 1 3.6l.2.9c0-.1-.2-.7 0-.2 0 .1.1.3.1.4.2.7.3 1.3.5 2 1.2 4.8 2 9.7 2.4 14.6l.3 3.6c0 .7.4 1.4 1.1 1.7.7.2 1.5 0 2-.5 1.5-1.3 2.3-3.3 2.1-5.2-.8-12.5-3.7-24.9-8.5-36.5-4.9-11.9-11.2-23.3-18.7-33.8-7.2-10.3-15.3-20-24.1-29.1-8-8.3-16.6-16.1-25.7-23.2-5.3-4.2-11-8.4-17.9-9.2-6.5-.8-12.6 2.7-16.8 7.5-4.9 5.6-7.4 12.8-7.9 20.2-.5 7.6.9 15.2 2.3 22.7 2 11.1 5.9 25.5 18.6 28.3 5 1.1 10.7.5 14.7-2.9 1.3-1.1 2.3-2.3 3.2-3.7.7-1 1.1-2 1.4-3.2.3-1 .2-2-.2-2.9-.3-.5-.6-.9-.9-1.3-1.7-2-4.2-3.2-6.8-3.4-2.6-.2-5.3.3-7.6 1.6-3.3 2-5.9 5-7.4 8.5-3.1 6.3-3.3 13.7-3 20.6.6 13.6 4.9 26.8 12.5 38.2 1.8 2.6 3.7 5.1 5.8 7.5 1.2 1.4 3.1-.5 3.7-1.5.6-1.1 1.4-3.5.1-4.9z" fill="#ffffff" class="colorffffff svgShape"></path><path d="M264.1 557.3 309 571l12.7 3.9c1.7.5 3.1-1.5 3.7-2.8.4-.9.5-1.9.4-2.9-.1-.6-.4-1.5-1.1-1.7l-44.9-13.6-12.7-3.8c-1.7-.5-3.1 1.5-3.7 2.8-.4.9-.6 1.9-.4 2.9.1.5.4 1.3 1.1 1.5zM245.7 615.1l44.9 11.7 12.8 3.3c1.7.5 3.1-1.4 3.7-2.8.4-.9.5-1.9.4-2.9-.1-.6-.4-1.5-1.1-1.7L261.5 611l-12.8-3.3c-1.7-.5-3.1 1.4-3.7 2.8-.4.9-.5 1.9-.4 2.9.1.6.4 1.5 1.1 1.7zM237.3 667.4c12.9 2.5 25.6 5.6 38.1 9.5 3.5 1.1 7 2.2 10.6 3.4 1.7.6 3.2-1.5 3.7-2.8.4-.9.5-1.9.4-2.9-.1-.7-.4-1.5-1.1-1.7-12.4-4.2-25-7.8-37.8-10.6-3.6-.8-7.2-1.6-10.9-2.3-.7-.2-1.5 0-2 .5-.8.6-1.3 1.4-1.7 2.4-.4.9-.5 1.9-.4 2.9.1.5.4 1.5 1.1 1.6zM290.2 682.6c-5.6 1-10.5 4.4-13.5 9.2-3.4 5.3-4.2 11.7-2.4 17.7.9 2.8 2.5 5.4 4.6 7.5 1.3 1.2 3-.3 3.7-1.5.6-.9.9-1.9.9-2.9.1-.8-.1-1.6-.6-2.2-1-.9-1.9-2-2.6-3.2l.4.6c-.5-.8-.9-1.6-1.3-2.5-.2-.4-.3-.9-.5-1.3 0-.1 0-.2-.1-.3-.2-.5.1.2 0 .2 0-.2-.1-.5-.2-.7-.1-.5-.2-.9-.2-1.4 0-.2 0-.4-.1-.7v-.4.2-1.3c0-.2 0-.4.1-.7v-.4c0 .2-.2.9 0 .3.1-.4.2-.8.3-1.3 0-.1.1-.2.1-.4-.1.2-.1.4-.2.6.1-.2.2-.5.3-.8l.2-.6c.1-.3.6-1.1-.1.1.2-.4.4-.8.7-1.2l.3-.5c.3-.5-.3.4-.2.4.1-.1.1-.2.2-.3.3-.3.6-.7.9-1 .1-.2.3-.3.4-.5l-.2.2c.1-.1.2-.2.3-.2.4-.3.7-.6 1.1-.9s.8-.6 1.2-.8l-.2.1c.1-.1.3-.1.4-.2l.6-.3c1-.5 2-.8 3-1.1l-.7.2c.5-.1.9-.2 1.4-.3 1.8-.3 3-2.3 3.3-4 .2-.9.2-1.8-.1-2.6.1-.4-.5-.8-1.2-.8zM305 632.6c-13.1 1.6-22.1 15.7-19.1 28.3.8 3.4 2.4 6.6 4.7 9.3 1.2 1.4 3.1-.4 3.7-1.5.8-1.4 1.6-3.8.3-5.2-.7-.8-1.3-1.6-1.8-2.4l.4.6c-.6-1-1.1-2-1.5-3-.2-.5-.3-1-.5-1.4 0-.1-.1-.3-.1-.4.2.2.2.6.1.2s-.2-.6-.2-.9c-.1-.5-.2-1.1-.2-1.6 0-.3 0-.6-.1-.8v-.4.5-1.9c0-.2 0-.5.1-.8s.1-.8 0-.1 0 .1 0-.1c.1-.5.2-1 .3-1.6 0-.2.1-.3.1-.5 0 0-.4 1.1-.2.5l.3-.9c.1-.3.2-.5.3-.7s.1-.2.2-.3c-.5 1.1-.4.7-.2.5.2-.5.5-1 .8-1.4.1-.1.7-1 .2-.3s.2-.2.3-.3c.3-.4.7-.8 1.1-1.2l.5-.5c-.8.8-.2.2 0 0 .4-.4.8-.7 1.3-1s1-.7 1.5-1c-.5.4-.4.2-.2.1l.5-.3.8-.4c1.1-.5 2.2-.9 3.4-1.2l-.7.2c.7-.2 1.4-.3 2.2-.4 1.8-.2 3-2.3 3.3-4 .1-1.1.2-3.9-1.6-3.7zM319.2 577.3c-5.7 0-10.3 4.5-13 9.2-4.8 8.9-5.3 19.5-1.5 28.9.7 1.7 2.6.9 3.5-.1 1.1-1.4 2-3.6 1.3-5.4-.2-.5-.4-1.1-.6-1.7-.1-.3-.2-.6-.3-.8s-.2-1-.3-1.1c0 0 .2.7 0 .1 0-.1-.1-.3-.1-.4s-.1-.6-.2-.9c-.1-.6-.2-1.2-.3-1.9s-.2-1.2-.2-1.8c0-.3 0-.7-.1-1v.2-.5c0-1.2.1-2.4.2-3.7v-.4c.1-.6 0 .3 0 .3 0-.3.1-.6.2-.9.1-.7.3-1.3.4-2 .1-.3.1-.5.2-.8 0-.1.1-.2.1-.3s-.4 1.1-.2.5.3-1 .5-1.5c.1-.2.2-.5.3-.7 0-.1.1-.2.2-.3.2-.4-.5.9-.2.5s.5-.9.8-1.4c.1-.2.3-.4.4-.6s.1-.2.2-.3l-.2.3c.3-.4.7-.8 1-1.2.2-.2 1-.9.1-.2l.6-.5c.4-.4.9-.7 1.3-1 .2-.2.3 0-.2.1.1 0 .2-.2.4-.2l.7-.3c.5-.2 1.1-.4 1.6-.5l-.7.2c.7-.2 1.5-.3 2.2-.3.8-.1 1.5-.6 2-1.2.7-.8 1.1-1.7 1.4-2.8.2-1.2.2-3.6-1.5-3.6zM336.5 522.4c-5.5 1.9-10.2 5.5-13.4 10.3-3.7 5.4-5.3 11.8-4.8 18.3.3 3.4 1.2 6.7 2.8 9.7.3.6.8 1 1.5 1 .8-.1 1.5-.5 2-1.2.7-.8 1.2-1.7 1.4-2.8.2-.9.2-1.8-.1-2.6-.6-1.2-1.2-2.4-1.6-3.6-.1-.3-.2-.5-.2-.8-.2-.7.1.5 0 0l-.1-.5c-.1-.7-.3-1.3-.4-2-.1-.6-.1-1.2-.2-1.8 0-.1-.1-.8 0-.2s0-.1 0-.2v-1c0-.6.1-1.2.2-1.9s-.1.3-.1.3c0-.1 0-.3.1-.4.1-.4.1-.8.2-1.1s.1-.6.2-.9.4-1.2.1-.5.1-.3.2-.5.2-.6.4-.9.2-.5.3-.8c.2-.5-.5 1-.2.4 0-.1.1-.2.2-.3.3-.5.6-1.1 1-1.6l.4-.6c.4-.6-.5.7-.2.3.1-.1.2-.2.3-.4.3-.5.7-.9 1.1-1.3.2-.2.4-.5.6-.7l.3-.3-.2.2c.4-.4.9-.9 1.4-1.2.5-.4 1-.8 1.5-1.1l.4-.3.2-.1.2-.1.5-.3c1.2-.6 2.4-1.1 3.6-1.5.8-.4 1.5-1 1.9-1.8.5-.9.9-1.9.9-2.9 0-1.3-.6-2.9-2.4-2.3zM457.6 764.1l60-174.7 47.7 14.3c9.4 2.8 14.8 12.8 11.9 22.2l-45.6 150.3c-2.7 8.8-12 13.8-20.8 11.1-.6-.2-1.3-.4-1.9-.7l-51.3-22.5z" fill="#ffffff" class="colorffffff svgShape"></path><path d="m459.5 764.8 1.6-4.7 4.4-12.7 6.5-18.8 7.9-23 8.6-25.1 8.7-25.3 8.1-23.6 6.8-20 5-14.4c.8-2.3 1.6-4.5 2.3-6.8l.1-.3-3.2 2.5 9.3 2.8 19.3 5.8 16.2 4.9c1 .3 1.9.6 2.8.9 4.2 1.2 7.7 4.1 9.9 7.9.5 1 1 2.1 1.3 3.3.1.3 0 0 0 0 0 .2.1.3.1.5.1.2.1.5.2.8.1.6.2 1.2.2 1.8V622.5c0 .3 0 .6-.1 1v.4c0 .5.1-.5 0 0-.1.8-.3 1.5-.5 2.3-.1.4-.2.7-.3 1.1l-2.1 6.9-3.7 12.1-4.9 16.1-5.7 18.7-6.1 20-6.1 20.1-5.7 18.8-4.9 16.2-3.7 12.2-2.1 7c-.1.4-.2.7-.3 1.1.2-.4.1-.3 0 0s-.3.7-.4 1l-.2.4.1-.2c-.2.3-.3.5-.5.8s-.3.4-.4.7-.2.2-.2.3c-.2.3.4-.5 0 0s-.7.8-1.1 1.3l-.3.3.1-.1-.7.6c-.4.3-.9.7-1.3 1-.1.1-.8.5-.4.2l-.8.4c-4 2.1-8.7 2.3-12.8.5-.8-.3-1.7-.7-2.5-1.1l-14.1-6.2-19-8.3-14-6.2-2.1-.9c-1.4-.6-2.8 1.4-3.2 2.5s-.9 3.4.6 4l8.3 3.7 18 7.9 17.7 7.8 5.6 2.4c1.2.6 2.5 1.1 3.7 1.5 4.7 1.4 9.7.8 14-1.5 4.9-2.9 8.6-7.5 10.1-13 .4-1.2.7-2.4 1.1-3.6l2.9-9.6 4.4-14.4 5.3-17.6 6-19.7 6.2-20.5 6-19.7 5.4-17.8 4.3-14.3 2.9-9.5c.4-1.3.8-2.5 1.2-3.8 1.5-5.2.9-10.8-1.6-15.6-2.4-4.5-6.4-7.8-11.3-9.3-3.2-1-6.4-1.9-9.6-2.9l-19.6-5.9-16.1-4.8-2.5-.8c-1.5-.4-2.8 1.3-3.2 2.5l-1.6 4.7-4.4 12.7-6.5 18.8-7.9 23-8.6 25.1-8.7 25.3-8.1 23.6-6.9 20-4.9 14.4c-.8 2.3-1.6 4.5-2.3 6.8 0 .1-.1.2-.1.3-.4 1.1-.9 3.4.6 4s3.1-1.8 3.5-2.9z" fill="#ffffff" class="colorffffff svgShape"></path></g><g fill="#ffffff" class="colorffffff svgShape"><path fill="#ffffff" d="M90.7 507.8c-9.4-7.2-22.1-8.7-32.9-3.8-10.5 4.9-18.2 18.2-15.7 30.8 1.4 7.1 5.6 13.3 11.7 17.2 5.7 3.5 12.5 4.9 19.2 3.9 9.5-1.3 19-7.3 23-17.1s2.5-25-5.3-31z" class="colorffffff svgShape"></path><path d="M92.8 504.4c-10.5-7.9-24.6-9-36.2-2.7-6 3.3-10.5 8.8-13.7 14.8-3.2 5.8-4.5 12.5-3.8 19.1 1.7 13.6 13.1 23.8 26.7 24.2 6.4.2 12.7-1.4 18.2-4.6 6.1-3.6 10.9-9 13.8-15.5 2.4-5.6 3.4-11.7 2.9-17.8-.4-5.2-1.9-10.7-5.2-14.8-.8-1.1-1.7-2-2.7-2.7-.5-.4-1.3 0-1.8.3-.8.5-1.5 1.3-2 2.1s-.9 1.7-1 2.7c-.1.6.1 1.3.5 1.7.6.5 1.3 1.1 1.8 1.7l-.3-.4c1.3 1.5 2.4 3.2 3.2 5.1.4 1 .8 2 1.1 3 0 0 .2.6 0 .2s0 .2 0 .2c.1.2.1.5.2.7.1.6.3 1.2.4 1.7.2 1.1.3 2.1.4 3.2 0 .6.1 1.1.1 1.7v1.2c0 .2 0 .8 0 0 0 1.1-.1 2.2-.2 3.3-.1.5-.1 1.1-.2 1.6 0 .2-.1.5-.1.7s0 .3-.1.4c-.1.6.2-.8 0-.2-.2 1-.5 2-.9 3 0 .1-.1.2-.1.4l.2-.5c-.1.2-.2.5-.3.8-.2.6-.5 1.2-.8 1.7-.1.1-.4.7 0 0s0-.1 0 0-.3.5-.4.7l-.5.7c-.2.3-1.1 1.4-.1.2-.3.4-.7.9-1 1.3l-.6.7-.2.3.2-.2c-.9.9-1.8 1.7-2.7 2.5-.4.3.2-.2.2-.2-.2.1-.3.2-.4.3l-.6.4c-.5.4-1 .7-1.6 1s-1 .6-1.5.8l-.3.2c-.6.3.6-.3 0 0l-.8.4c-1.1.5-2.2.9-3.3 1.3-1.2.4-2.5.7-3.8.9.6-.1-.3 0-.5.1-.4.1-.8.1-1.2.2-.8.1-1.5.1-2.3.2-3.1.1-6.2-.3-9.2-1.1l.5.1c-4.7-1.4-8.9-4-12.2-7.6l.4.4c-1.6-1.8-3-3.8-4.1-6-.5-1.1-1-2.2-1.4-3.4-.1-.2-.2-.5-.2-.8-.2-.6.1.3 0-.1 0-.2-.1-.3-.1-.5-.1-.6-.3-1.2-.4-1.8-.2-1.1-.3-2.3-.4-3.4v-.9.2-.4c0-.6.1-1.2.1-1.8s.1-1.1.2-1.7c0-.3.1-.6.2-.9l-.1.3c0-.2.1-.4.1-.5.2-1.1.6-2.3 1-3.3 0 0-.4.9-.1.4l.1-.3.4-.8c.2-.5.5-1 .8-1.6.1-.1.1-.3.2-.4s-.5 1-.2.5l.4-.7.9-1.5.5-.8c-.8 1.2-.2.3 0 .1.4-.5.7-.9 1.1-1.3l.6-.7.2-.3-.3.3c.4-.4.8-.8 1.3-1.2s.8-.7 1.2-1c.1-.1.2-.1.3-.2-.7.6-.4.3-.2.2l.8-.6c.9-.6 1.8-1.2 2.8-1.7.2-.1.5-.2-.1.1l.3-.2.9-.4c.6-.2 1.1-.5 1.7-.7 1.1-.4 2.3-.7 3.4-1l1-.2.5-.1c.5-.1-.4 0 .2 0 .5 0 1.3-.2 1.9-.2 1.3-.1 2.7-.2 4-.2 2.8.1 5.5.5 8.2 1.3l-.5-.2c3.8 1.1 7.4 2.9 10.6 5.4.5.4 1.3 0 1.8-.3.8-.5 1.5-1.3 2-2.1s.9-1.7 1-2.7c-.1-.7-.3-1.4-.8-1.8zM185.1 475.5c-4.3-3.2-10.1-3.4-14.7-.7-2.8 1.8-5 4.3-6.5 7.3-1.4 2.6-2 5.6-1.8 8.5.3 2.6 1.5 5.1 3.5 6.9 2 1.8 4.6 2.8 7.2 2.9 6.2.2 11.5-4.2 14-9.6 1.3-2.8 1.8-5.8 1.4-8.9-.1-2.4-1.3-4.8-3.1-6.4-.5-.4-1.4 0-1.8.3-.8.5-1.5 1.3-2 2.1s-.9 1.7-1 2.7c-.1.6 0 1.3.5 1.7.3.2.5.4.7.7l-.3-.4c.5.5.8 1.1 1.1 1.8.1.3.2.7.4 1s-.1-.4 0-.1c0 .1 0 .2.1.2s.1.4.1.7c.1.8.2 1.6.2 2.4v-.3.8c0 .2 0 .4-.1.6s-.2.8 0 .2 0 .1 0 .2-.1.4-.2.5c0 .1-.1.1-.1.2.1-.2.2-.4.2-.5-.1.2-.2.5-.3.7-.2.4.5-.8.2-.4l-.1.2c-.1.2-.6.8-.1.2s0-.1-.1.1l-.2.3.3-.3-.9.8c.7-.7.2-.2 0 0l-.6.4-.6.3s.5-.2.2-.1l-.2.1c-.4.2-.8.3-1.3.5l-.6.2c-.2 0-.8.2-.3.1-.5.1-1.1.2-1.6.2-1.1 0-2.3-.1-3.3-.4l.5.1c-1.7-.5-3.3-1.5-4.5-2.8l.3.4c-.6-.6-1.1-1.3-1.5-2.1-.2-.4-.4-.8-.5-1.2-.1-.2-.1-.4-.2-.5.1.5 0-.2-.1-.4-.1-.4-.1-.8-.2-1.2v-.3c0 .4 0 .1 0 0v-.5c0-.2 0-.4.1-.5 0-.3.2-.9 0 0 .1-.2.1-.4.1-.5.1-.2.2-.5.2-.7 0 0-.3.8-.2.5l.1-.3c.1-.2.2-.3.2-.5.3-.6-.5.9-.1.2.1-.2.2-.4.3-.5.3-.6-.6.8-.2.2.1-.1.2-.3.3-.4l.1-.2-.3.3c.2-.1.3-.3.5-.4.1-.1.4-.4.5-.4s-.6.5-.3.3l.2-.2c.3-.2.7-.4 1-.6 0 0-.6.3-.3.1.1 0 .2-.1.3-.1s.4-.2.6-.2c.4-.2.9-.3 1.3-.4.2 0 .7-.1.2-.1.3 0 .5-.1.8-.1h1.4c1 0 2 .2 2.9.5l-.5-.2c1.4.4 2.8 1.1 4 2 .5.4 1.3 0 1.8-.3.8-.5 1.5-1.3 2-2.1s.9-1.7 1-2.7c.5-.8.3-1.5-.1-1.9z" fill="#ffffff" class="colorffffff svgShape"></path><path fill="#ffffff" d="M144.6 702.5c-5.1-3.9-11.9-4.6-17.7-2-5.7 2.7-9.8 9.8-8.5 16.5.8 3.8 3 7.1 6.3 9.2 3.1 1.9 6.7 2.6 10.3 2.1 5.4-.7 10.1-4.1 12.4-9.2 2.2-5.2 1.4-13.3-2.8-16.6z" class="colorffffff svgShape"></path><path d="M146.7 699.1c-5.9-4.4-14-4.9-20.4-1.2-3.6 2.3-6.5 5.5-8.4 9.3-1.8 3.5-2.6 7.4-2.2 11.3.5 3.7 2.2 7 4.9 9.5 2.8 2.5 6.3 3.9 10 4 8.1.3 15.4-5.1 18.7-12.3 1.5-3.3 2.1-7 1.8-10.6-.1-3-1.1-6-2.9-8.4-.4-.6-1-1.1-1.5-1.6-.5-.4-1.4 0-1.8.3-.8.5-1.5 1.3-2 2.1s-.9 1.7-1 2.7c-.1.6.1 1.3.5 1.7.3.3.7.6 1 .9l-.3-.4c.7.8 1.3 1.7 1.7 2.7l.6 1.5c.2.5-.1-.4 0 0 0 .1.1.3.1.4.1.3.2.7.2 1 .1.6.2 1.1.2 1.7v2.1c0 .3 0 .6-.1.8s0 .5-.1.8-.3 1.4 0 .3c-.1.5-.3 1-.4 1.6-.3.9.4-.9 0 0-.2.4-.3.7-.5 1 .5-1.3.2-.3 0 0s-.9 1.2 0 .1l-.6.7-.2.3c-.6.7.5-.5 0 0-.4.4-.9.8-1.3 1.2 0 0 .7-.5.2-.2-.1.1-.2.2-.4.3s-.5.4-.8.5-.5.3-.8.4c-.6.3.6-.3 0 0l-.3.2c-.6.3-1.2.5-1.8.7-.3.1-.7.2-1 .3l-.3.1c-.1 0-.9.2-.3.1-.7.1-1.5.2-2.2.2-1.7.1-3.4-.1-5-.6l.5.2c-2.5-.7-4.7-2.1-6.5-4l.3.4c-.9-.9-1.6-2-2.2-3.2-.3-.5-.5-1.1-.7-1.7 0-.1-.3-.9-.2-.4l-.3-1.2c-.1-.5-.2-1.1-.2-1.7v-.6c0-.2.1-.4 0 .2 0-.3 0-.7.1-1s.1-.5.1-.8.3-1.3 0-.2c.2-.6.3-1.2.5-1.8s-.4.9-.1.2l.1-.3c.1-.3.2-.6.4-.8l.2-.3c-.6 1.2-.3.7-.2.4l.5-.8c.1-.1.5-.7 0 0s-.1.1 0 0 .3-.4.5-.6l.3-.3-.3.3c.2-.3.5-.5.8-.7l.6-.5c.3-.3-.7.5-.2.2l.3-.2c.5-.4 1-.7 1.5-1 .3-.2-.7.3-.1.1l.3-.2c.3-.1.6-.3.9-.4l1.8-.6.6-.1c.5-.1-.4 0 .2 0l1-.1c.7-.1 1.4-.1 2.1-.1 1.5 0 3 .3 4.4.7l-.5-.1c2.1.6 4 1.6 5.7 2.9.5.4 1.3 0 1.8-.3.8-.5 1.5-1.3 2-2.1s.9-1.7 1-2.7c.4-1.1.2-1.8-.3-2.3zM568.9 84.4c-6.2 1.9-12 4.9-17.3 8.7-5.2 3.8-9.8 8.3-13.6 13.5-3.9 5.4-7.1 11.3-9.3 17.6-2 5.6-3.1 11.4-3.4 17.3-.3 5.9.3 11.7 1.7 17.4.2.8.5 1.6.7 2.5.2.6 1 .6 1.5.4.6-.3 1.2-.7 1.7-1.2 1.1-1.2 2.2-3 2-4.6-.7-6.1-2.5-12.3-6.2-17.3-3.2-4.2-7.4-7.5-12.2-9.5-5.1-2.1-10.6-3.2-16.1-3.5-5.8-.3-11.5-.2-17.3.5-5.7.6-11.4 1.5-17 2.5l-1.9.3c-.8.3-1.5.9-2 1.6-.5.7-1 1.4-1.3 2.3-.3.8-.9 3.2.7 3.1 6.7 0 13.3-1.6 19.2-4.6 5.4-3 9.8-7.3 13-12.5 3.2-5.3 5.4-11.3 6.3-17.4.9-6 1-12.2.4-18.2-.7-6.3-2-12.6-3.9-18.6-.2-.7-.5-1.5-.7-2.2l-4.9 6c3.5 9.2 9.4 17.4 17.1 23.6 8.3 6.7 18.8 10.1 29.5 9.5 7.6-.6 14.9-2.8 21.6-6.4.8-.5 1.5-1.3 2-2.1s.9-1.7 1-2.7c0-.5.1-1.4-.5-1.7-.6-.2-1.3-.1-1.8.3l-.4.2c.5-.3.1 0-.1 0l-.9.5c-.6.3-1.2.6-1.8.8-1.2.5-2.4 1-3.6 1.4-2.3.8-4.6 1.5-6.9 1.9l-.9.2c-.1 0-.4.1 0 0l-.4.1c-.6.1-1.1.2-1.7.2l-3.3.3c-2.1.1-4.2 0-6.3-.2-2.3-.3-4.5-.7-6.7-1.3l.5.1c-6.4-1.9-12.4-5.3-17.3-9.8-1.4-1.2-2.7-2.6-3.9-3.9l.3.4c-3.6-4-6.6-8.5-8.9-13.4-.6-1.3-1.2-2.6-1.7-4-.2-.6-1-.6-1.4-.4-.8.3-1.5.9-2 1.6-1 1.3-2.1 3.2-1.5 4.9.2.7.5 1.4.7 2.1l.3 1.1c0 .1.1.4.2.5s-.2-.5 0-.1c0 .1 0 .2.1.3.4 1.5.8 3 1.1 4.4.7 2.9 1.2 5.9 1.6 8.8.4 2.9.6 5.9.7 8.8v2.1-.3 1.8l-.3 4.2c-.1 1.4-.4 2.8-.6 4.1l-.1.5c0 .1 0 .2-.1.3 0-.2.1-.3.1-.5-.1.3-.2.7-.2 1-.2.6-.3 1.3-.5 1.9s-.4 1.2-.6 1.9l-.3.9c-.1.3-.3.8 0 0s0 0-.1.1c-.5 1.2-1 2.3-1.6 3.5-.2.5.6-1.1.2-.4l-.2.4c-.2.3-.3.6-.5.9-.3.5-.7 1-1 1.6l-.2.2c-.1.1.7-.9.4-.6-.1.1-.2.2-.3.4l-.6.8c-.4.5-.8 1-1.2 1.4l-.2.2.4-.4-.3.3c-.2.2-.4.5-.7.7-.5.4-.9.9-1.4 1.3l-.4.3c-.1 0-.1.1-.2.2s.7-.5.4-.3l-.8.6c-.5.4-1.1.7-1.6 1.1s-1.1.7-1.7 1l-.4.2h.1l-.9.4c-1.3.6-2.6 1.1-4 1.5-.7.2-1.4.4-2.2.6l-1 .2-.5.1c-.2 0-.9.3-.2 0-.8.2-1.6.3-2.4.3-.8.1-1.7.2-2.5.2s-1.7.1-2.6.1l-2.6 7 1-.2.5-.1.3-.1h-.2l2.2-.4c1.5-.2 2.9-.5 4.4-.7 3.1-.5 6.2-.9 9.3-1.2 6.3-.7 12.6-.8 18.8-.4 3.4.3 6.7.9 9.9 1.8l-.5-.1c4.3 1.2 8.4 3.2 11.9 6.1 1 .8 1.9 1.7 2.8 2.6l-.3-.4c1.6 1.8 2.9 3.7 4 5.9.6 1.1 1.1 2.3 1.5 3.5.2.6.4 1.3.6 1.9.1.4-.1-.5 0 .1 0 .2.1.3.1.5.1.4.2.7.3 1 .4 1.7.6 3.5.8 5.2l5.1-5.4c0-.1-.1-.3-.1-.5-.1-.4.1.4 0-.1l-.3-1c-.2-.7-.3-1.4-.5-2-.3-1.3-.5-2.7-.7-4-.3-2.7-.5-5.5-.5-8.2v.3-1.8c0-.7.1-1.3.1-2 .1-1.4.3-2.7.5-4.1.1-.7.2-1.4.4-2.1.1-.3.1-.6.2-.9-.2 1.2 0-.1.1-.4.3-1.4.7-2.7 1.1-4 .2-.7.4-1.3.7-2l.3-.9.1-.2-.2.5c.1-.2.1-.3.2-.5.5-1.3 1.1-2.6 1.7-3.8l.9-1.8c.1-.2.2-.3.3-.5l-.3.6.1-.2c.2-.3.4-.6.5-1 .7-1.2 1.4-2.4 2.2-3.6l.5-.8.1-.2c.3-.5-.4.5-.3.5l.3-.5c.4-.6.9-1.1 1.3-1.7.9-1.1 1.8-2.1 2.7-3.2.1-.1.2-.1.2-.2l-.4.4.3-.4.8-.8 1.5-1.5c1-1 2.1-1.9 3.3-2.8.1 0-.6.5-.3.3l.2-.1c.2-.1.3-.2.5-.4s.6-.5.9-.7l1.8-1.2c1.2-.8 2.5-1.6 3.8-2.3l1-.5.5-.2.2-.1c.3-.2-.1 0-.2.1.7-.3 1.4-.7 2.1-1 1.4-.7 2.9-1.2 4.3-1.7.7-.3 1.5-.5 2.2-.7.8-.3 1.5-.9 2-1.6.7-.8 1.2-1.7 1.5-2.7.2-1.8.2-3.8-1.5-3.3zM460.7 31.9c-8.8 2.8-16.5 8.4-22 15.8-5.5 7.3-8.7 16.1-9.3 25.2-.3 4.8.3 9.6 1.7 14.2.2.6 1 .6 1.4.4.6-.3 1.2-.7 1.7-1.2 1.1-1.2 2.2-3 2-4.6-.4-4.4-1.9-8.6-4.4-12.2-2.2-2.9-5.1-5.2-8.5-6.6-7.3-3.1-15.5-3-23.3-2.2-4.5.5-8.9 1.2-13.3 2-.8.3-1.5.9-2 1.6-.5.7-1 1.4-1.3 2.3-.3.8-.9 3.2.7 3.1 4.8 0 9.5-1.1 13.7-3.3 4-2.2 7.3-5.4 9.6-9.3 4.7-7.6 5.8-16.9 4.9-25.6-.5-5-1.6-9.9-3.2-14.7l-4.9 6c2.5 6.5 6.6 12.1 12 16.5 5.8 4.7 13.2 7 20.6 6.6 5.3-.5 10.5-2 15.3-4.6.8-.5 1.5-1.3 2-2.1s.9-1.7 1-2.7c0-.5.1-1.4-.5-1.7-.6-.2-1.2-.1-1.8.3-.3.1-.3.1 0 0l-.4.2c-.3.1-.5.3-.8.4-.5.2-1.1.5-1.6.7-1 .4-2.1.8-3.2 1.1s-1.9.6-2.9.8l-.8.1-.4.1c.3 0 .3 0 0 0l-1.5.2c-3.7.4-7.4.1-10.9-.9l.5.1c-5.7-1.7-10.8-5-14.7-9.5l.3.4c-3.2-3.5-5.7-7.6-7.4-12.1-.2-.6-1-.6-1.4-.4-.8.3-1.5.9-2 1.6-1 1.3-2.1 3.2-1.5 4.9.2.5.3 1 .5 1.4.1.2.2.5.2.7 0 .1.1.3.1.4l-.1-.3c0 .1.1.2.1.3.3 1 .5 2 .8 3 .5 2 .8 4 1.1 6 .3 2 .4 4.1.5 6.1v1.4-.2V42.8c0 1-.1 2-.2 2.9s-.2 1.9-.4 2.8c0 .3-.2 1.1 0-.1 0 .2-.1.4-.1.6-.1.5-.2.9-.3 1.3s-.2.8-.4 1.2l-.2.6-.1.4c.3-.7.3-.9.2-.6 0 .1-.1.1-.1.2-.3.8-.7 1.6-1.1 2.4-.2.5.4-.7.3-.6s-.1.2-.2.3-.2.4-.3.5c-.2.4-.5.7-.7 1.1s-.5.6.4-.5l-.2.2c-.1.2-.2.3-.4.5-.3.3-.5.7-.8 1-.5.6.7-.7.2-.2l-.4.4c-.3.3-.7.6-1 .9s-.9.7.1-.1c-.2.1-.3.3-.5.4-.4.3-.8.5-1.2.8s-.8.5-1.3.7c-.2.1-.7.3.2-.1l-.4.2-.8.3c-1 .4-2 .8-3.1 1.1-.6.2-1.2.3-1.8.4l-.3.1c-.5.1.5-.1-.1 0l-.9.1c-1.3.2-2.7.3-4 .3l-2.6 7 .7-.1c.2 0 1.1-.2.3 0l1.5-.3c1-.2 2-.3 3.1-.5 2.1-.3 4.3-.6 6.5-.8 4.3-.5 8.6-.6 12.9-.2 2.3.2 4.6.6 6.9 1.2l-.5-.1c3.9 1 7.4 3.1 10.1 6l-.3-.4c1.4 1.6 2.6 3.4 3.4 5.4.2.5.4 1 .6 1.6l.3.9c.1.3-.1-.5 0 0 0 .2.1.3.1.5.3 1.3.6 2.7.7 4l5.1-5.4-.1-.4c-.1-.3.1.4 0 .1s-.1-.5-.2-.7c-.1-.5-.2-.9-.3-1.4-.2-.9-.4-1.9-.5-2.8s-.2-1.9-.3-2.8c0-.4 0-.9-.1-1.3v-1c0-1.9.2-3.7.5-5.6.1-.5.2-.9.2-1.4l.1-.6c-.2 1.1 0 .2 0-.1.2-.9.5-1.8.7-2.7.1-.5.3-.9.4-1.4l.2-.6c0-.1.2-.7 0 0s0 .1 0-.1c.3-.9.7-1.8 1.1-2.6l.6-1.2.2-.4c.2-.4-.5.9-.3.5l.4-.8 1.5-2.4.4-.5c.3-.5-.4.5-.3.5.1-.1.2-.2.2-.3l.9-1.2c.6-.8 1.2-1.5 1.9-2.2l-.3.4s.2-.3.3-.3l.5-.5c.3-.3.7-.7 1.1-1 .7-.7 1.5-1.3 2.2-1.9-.9.7-.1.1.1-.1s.5-.4.7-.5c.5-.3.9-.6 1.4-.9l3-1.8c.2-.1 1.1-.5.3-.1l.8-.4c.5-.2 1.1-.5 1.6-.7 1.2-.5 2.3-.9 3.5-1.3.8-.3 1.5-.9 2-1.6.7-.8 1.2-1.7 1.5-2.7.3-.9.3-2.9-1.4-2.4zM545.5 10.5c-6.1 2-11.5 5.9-15.3 11-4 5.2-6.3 11.5-6.8 18-.2 3.3.2 6.7 1.2 9.8.2.6 1 .6 1.4.4.6-.3 1.2-.7 1.7-1.2 1.1-1.2 2.2-3 2-4.6-.3-3-1.3-5.8-2.9-8.3-1.5-2-3.5-3.6-5.8-4.6-4.9-2.1-10.4-2-15.6-1.5-3 .3-6 .8-9 1.4-.8.3-1.5.9-2 1.6-.5.7-1 1.4-1.3 2.3-.3.8-.9 3.2.7 3.1 3.3 0 6.6-.8 9.5-2.4 2.9-1.6 5.3-4 7-6.8 3.4-5.4 4.3-11.9 3.7-18.2-.4-3.4-1.1-6.8-2.2-10l-4.9 6c1.7 4.3 4.5 8.2 8.1 11.1 3.9 3.1 8.9 4.7 13.9 4.4 3.6-.4 7.2-1.5 10.4-3.2.8-.5 1.5-1.3 2-2.1s.9-1.7 1-2.7c0-.5.1-1.4-.5-1.7-.6-.2-1.3-.1-1.8.3.6-.3-.1 0-.2.1l-.4.2-1.1.5c-.7.3-1.4.5-2.1.7s-1.3.4-1.9.5l-.5.1c-.3.1.4-.1-.1 0l-1 .1c-2.4.3-4.8.1-7.2-.6l.5.1c-3.8-1.1-7.1-3.3-9.8-6.3l.3.4c-2.1-2.3-3.8-5.1-4.9-8-.2-.6-1-.6-1.4-.4-.8.3-1.5.9-2 1.6-1 1.3-2.1 3.2-1.5 4.9l.3.9c.1.3.1.3.2.5l.1.2c.1.3-.1-.4 0-.1.2.6.3 1.3.5 2 .3 1.3.6 2.7.8 4 .2 1.3.3 2.6.3 3.9v.9-.1.5c0 .6-.1 1.3-.1 2s-.2 1.2-.3 1.8c0 .1 0 .3-.1.4s.2-.9.1-.2c-.1.3-.2.6-.2.9s-.2.5-.2.8-.1.3-.1.4c0 .1-.1.1-.1.2-.1.4.4-.9.2-.5s-.5 1-.7 1.6.6-1 .2-.4l-.2.4c-.2.2-.3.5-.5.7-.3.5.7-.9.3-.5l-.3.3c-.2.2-.4.5-.6.7-.4.5.5-.5.3-.4s-.2.2-.3.3l-.7.6-.3.2c.9-.8.5-.4.2-.2s-.5.3-.8.5-.6.3-.8.5.3-.1.3-.1l-.2.1-.5.2c-.7.3-1.3.5-2 .7l-1.1.3h-.3c-.3.1.4-.1.1 0l-.6.1c-.9.1-1.7.2-2.6.2l-2.7 7 .5-.1c.2 0 .8-.1 0 0l1-.2 2-.3c1.4-.2 2.8-.4 4.2-.5 2.9-.3 5.8-.4 8.6-.2 1.5.1 3.1.4 4.6.8l-.5-.1c2.6.7 4.9 2.1 6.7 4l-.3-.4c.9 1.1 1.7 2.3 2.2 3.6.2.4.3.7.4 1 0 .1.1.5.2.6s-.1-.5 0-.2c0 .1 0 .2.1.3.2.9.4 1.8.5 2.7l5.1-5.4c-.2-.5.1.5 0 0 0-.1-.1-.3-.1-.5-.1-.3-.2-.6-.2-.9l-.3-1.8c-.1-.6-.2-1.2-.2-1.9V37c0-.2 0-1 0 0 0-1.2.2-2.5.3-3.7 0-.2.1-.5.1-.8s.1-.3.1-.5c-.2 1.1-.1.5 0 .2.1-.6.3-1.2.5-1.8l.3-.9c.1-.3.1-.3.2-.4.2-.6-.4.9-.1.3s.5-1.2.8-1.7c.1-.3.3-.6.4-.8l-.2.4.2-.3c.3-.6.7-1.1 1.1-1.7.1-.1.2-.3.3-.4l-.4.6.2-.3.5-.6c.4-.5.9-1.1 1.4-1.6-.9 1-.2.2 0 0l.7-.7c.5-.5 1-.9 1.5-1.3-.9.8.1-.1.4-.3s.6-.4 1-.6c.6-.4 1.2-.8 1.9-1.1.2-.1.7-.3 0 0l.6-.3 1-.4c.8-.3 1.5-.6 2.3-.9.8-.3 1.5-.9 2-1.6.7-.8 1.2-1.7 1.5-2.7.3-1.1.3-3.1-1.4-2.6h-.5zM161.6 591.5c-4.7-1.1-9.5-2.1-14.1-3.5l.5.1c-8.2-2.4-16.4-5.7-23.1-11.1-1.7-1.4-3.3-2.9-4.7-4.5l.3.4c-2.8-3.1-5.1-6.6-6.6-10.5-.2-.5-.3-.9-.5-1.4-.1-.2-.2-.5-.2-.7.2.5 0-.2-.1-.3-.3-1-.4-1.9-.6-2.9-.1-.9-.2-1.8-.2-2.7v-.7.2-.3c0-.5 0-1 .1-1.4.1-.9.2-1.9.4-2.8 0-.2.2-.6-.1.3 0-.1 0-.2.1-.3s.1-.4.2-.7c.1-.5.3-.9.4-1.4.1-.2.2-.4.2-.7l.1-.2c.2-.5-.2.4-.2.4.2-.5.4-.9.6-1.4s.4-.8.6-1.2c0-.1-.5.9-.3.6.1-.1.1-.2.2-.3s.2-.4.4-.6c.2-.4.5-.7.7-1.1-.8 1.2-.3.5-.1.2l.5-.6.4-.5c.1-.1.7-.8.2-.2s.1-.1.2-.2l.5-.5c.3-.3.6-.6 1-.9 0 0-.7.5-.3.2l.3-.2.6-.4c.4-.2.7-.5 1.1-.7l.5-.3-.2.1c.2-.1.3-.1.5-.2.9-.4 1.8-.7 2.7-.9.1 0 .7-.2.8-.2s-.6.1-.1 0h.4c.5-.1 1-.1 1.5-.1 1.9-.1 3.8.2 5.7.7l-.5-.2c3.3.9 6.2 2.8 8.5 5.3l-.3-.4c.9 1 1.7 2.1 2.3 3.3.3.6.5 1.2.8 1.8 0 .1 0 .1.1.2 0 0-.1-.5-.1-.2s.1.3.1.5c.1.3.1.7.2 1s.1.7.1 1v.6c0 .4 0 .8-.1 1.2 0 .2 0 .3-.1.5v.3c0 .4.2-.9.1-.2-.1.3-.2.7-.3 1s-.1.4-.2.6c-.1.4.2-.6.2-.5-.1.1-.1.2-.1.3-.1.3-.3.7-.5 1-.4.7.5-.8.1-.2l-.3.5-.3.5-.2.2c-.2.3.4-.6.4-.5-.3.3-.5.7-.8 1l-.4.5-.2.2c0 .1.6-.7.4-.4s-.6.6-.9.9l-.9.8c-.5.4.6-.4.1-.1l-.6.4c-.7.5-1.4.9-2.1 1.3l-.2.1c.4-.2-.2.1-.3.2-.4.2-.8.3-1.2.5-.9.3-1.8.6-2.7.8l-1.5.3h-.3l-.9.1c-1 .1-2 .2-2.9.2-4.7 0-9.3-.7-13.8-2.1l.5.2c-11.4-3.4-22-9.3-30.9-17.2-2.5-2.2-4.8-4.5-7.1-7l.3.4c-4.2-4.7-7.9-9.8-11-15.2-3.1-5.4-5.6-11.2-7.4-17.2 0-.1-.1-.2-.1-.3 0 .2.1.3 0 .1s-.1-.4-.2-.6c-.1-.4-.2-.9-.3-1.3-.2-.8-.4-1.7-.6-2.5-.4-1.7-.7-3.5-1-5.2 0-.6-.4-1-1-1.1-.7.1-1.4.4-1.9 1-.8.7-1.4 1.6-1.8 2.5-.4.8-.6 1.6-.5 2.5 1.3 8.7 4 17.1 8 24.9 4 7.8 9.1 14.9 15.2 21.2 6 6.2 12.9 11.5 20.5 15.6 3.8 2.1 7.8 3.8 11.9 5.2 4.9 1.8 10 2.9 15.2 3.3 5.4.4 10.8-.7 15.6-3.3 4.7-2.7 8.4-6.7 10.7-11.6 2-4.4 2.5-9.4.6-13.9-1.5-3.4-4.2-6.2-7.5-8-3.4-1.9-7.2-2.8-11.1-2.5-4.4.5-8.5 2.5-11.7 5.5-7.1 6.7-10.6 16.4-9.3 26.1 1.3 9.2 7.3 17.1 14.6 22.7 8.4 6.4 18.7 9.5 28.7 12l7.8 1.8c.6.1 1.6-.6 1.9-1 .8-.7 1.4-1.6 1.8-2.5.1-1 .8-3.2-.9-3.5zM152.8 634.6l-29.9-6.3c-9.7-2-19.5-4.5-29.5-3.9-8.3.6-16.8 3.6-22.6 9.8-6.1 6.5-9.6 15.8-6.9 24.6 1 3.3 3.1 6.2 6 8.1 2.7 1.6 5.8 2.4 9 2.2 3.5-.2 6.9-1.6 9.6-3.9 3.4-3 5.5-7.3 5.8-11.9.1-3.8-1.1-7.5-3.3-10.5-2.3-3.1-5.6-5.3-9.2-6.5-8.5-2.6-17.7-.6-25.9 2-7.8 2.6-15.3 6.2-22.1 10.8-7 4.8-13.4 10.5-18.8 17-1.3 1.5-2.5 3.1-3.6 4.7-.6.8-1.1 1.7-1.5 2.7-.3.7-.3 1.5 0 2.2.8 1.4 2.9-.4 3.4-1.1 1.5-2 3-3.9 4.6-5.8.4-.4.8-.9 1.2-1.3l.6-.6c.4-.5-.2.2-.2.2l.5-.5c.8-.9 1.7-1.7 2.6-2.6 1.8-1.7 3.7-3.4 5.6-4.9l.3-.3c.1-.1.5-.4.1-.1s0 0 .1-.1l.3-.3 1.5-1.1c1-.7 2-1.5 3.1-2.1 2.1-1.4 4.2-2.7 6.4-3.9.5-.3 1-.6 1.5-.8l.8-.4c.1-.1.5-.2-.1 0l.5-.2c1.1-.5 2.2-1.1 3.4-1.6 4.5-2 9.2-3.6 14.1-4.7 2.9-.7 5.8-1.2 8.7-1.3 3-.1 6 .2 8.9 1l-.5-.1c3.2.9 6.1 2.7 8.4 5.1l-.3-.4c1.5 1.7 2.7 3.7 3.4 5.9 0 .1.1.4 0 0l.1.4c.1.3.1.5.2.8.1.5.2 1.1.2 1.7v.5-.2.7c0 .3-.1.5-.1.8s-.1.5 0 0 0 .1-.1.2c0 .3-.1.5-.2.8 0 0 .4-.9.1-.4l-.2.3c0 .1-.1.2-.2.3-.2.5.3-.5.3-.5-.2.2-.3.4-.4.7.7-1.2.3-.5.1-.2s-.9.8.1-.1c-.2.1-.3.3-.5.4s-1 .7 0 .1c-.4.2-.7.5-1.1.7s-.9.3-.1.1c-.2.1-.5.2-.7.3-.4.2-.8.3-1.3.5l-.6.2-.4.1c-.1 0-.5.1-.2 0H83.2l-.8.1c-1.7.1-3.4-.1-5-.6l.5.2c-2.3-.7-4.4-1.9-6.1-3.7l.3.4c-.9-1.1-1.7-2.3-2.3-3.6-.3-.7-.5-1.3-.8-2 .2.5-.1-.4-.1-.5-.1-.4-.2-.8-.2-1.2-.1-.7-.2-1.4-.2-2.1v-.6c0-.2-.1-.4 0 .1 0-.4 0-.9.1-1.3l.3-2.1c.1-.7-.2.8 0 .1l.1-.4c.1-.4.2-.8.4-1.2 0-.2.1-.3.2-.5.2-.7-.3.9-.1.2.1-.3.2-.6.4-.9s.3-.6.4-.9c.3-.7-.5.9-.1.2l.4-.6.6-.9c-.8 1.2-.1.2.1-.1s.5-.5.7-.8.7-.7-.1.1c.2-.2.3-.4.5-.5.5-.5 1.1-1 1.7-1.5.2-.2.8-.5 0 0 .1-.1.2-.2.3-.2.4-.3.8-.6 1.2-.8.6-.4 1.2-.8 1.8-1.1l.6-.3h-.1c.4-.2.9-.5 1.4-.6 1.5-.6 3-1.1 4.5-1.6.7-.2 1.4-.4 2.1-.5l.6-.1.3-.1.3-.1.9-.1c3.7-.5 7.5-.5 11.3-.1 8 .7 15.8 2.7 23.7 4.3l26.9 5.6c.6.1 1.5-.6 1.9-1 .8-.7 1.4-1.6 1.8-2.5.5-1.1 1.2-3.2-.5-3.6l-.3.1zM176.5 527.3c-5.9-7.8-10.9-16.3-14.8-25.2-2-4.5-3.7-9.1-5.1-13.7-.2-.6-.3-1.2-.5-1.7 0-.1-.1-.4 0 0l-.1-.4-.3-.9-.9-3.6c-.6-2.4-1.1-4.7-1.5-7.1-1-5.4-1.6-10.9-1.9-16.4 0-.6-.4-1-1-1.1-.7.1-1.4.4-1.9 1-1.4 1.3-2.3 3.1-2.3 5 1 19.8 6.6 39.2 16.4 56.5 2.7 4.8 5.7 9.4 9 13.8 1 1.3 2.7-.2 3.4-1.1.7-.8 1.2-1.7 1.5-2.7.1-.9.3-1.9 0-2.4zM149.8 665.2c-12 1.8-23.6 5.6-34.3 11.1-10.7 5.4-20.4 12.5-28.9 20.9-5.1 5-9.7 10.5-13.8 16.4-.5.8-.9 1.7-1 2.7 0 .5 0 1.4.5 1.7 1.5.7 3-1.4 3.7-2.4l.7-1c-.8 1.2-.1.2.1-.1.5-.6.9-1.2 1.4-1.9l2.7-3.3c.9-1.1 1.8-2.2 2.8-3.2l1.4-1.5-.2.2.4-.4.8-.8c2-2 4.1-4 6.2-5.9 1.1-1 2.3-2 3.4-2.9l.8-.6c.2-.2 1.1-.8.2-.2.6-.5 1.2-1 1.8-1.4 4.6-3.4 9.4-6.5 14.5-9.2l1.8-.9c.1-.1.8-.3 0 0l.3-.2 1.2-.6 3.9-1.8c2.6-1.1 5.3-2.2 8-3.1 3.1-1.1 6.2-2 9.3-2.8 1.6-.4 3.2-.8 4.7-1.1.8-.2 1.5-.3 2.3-.4h.2l.6-.1 1.3-.2c1.7-.3 3.1-1.9 3.7-3.5.4-.8.6-1.6.5-2.5-.1-.3-.4-1.1-1-1z" fill="#ffffff" class="colorffffff svgShape"></path></g>
</g>
</svg>
