<svg xmlns="http://www.w3.org/2000/svg" data-name="Layer 1" viewBox="0 0 500 500" id="creative-designer-doing-multitasking">
<g id="design-svg">
<path fill="#fff" d="M176.82 294.15c.87-.56 1.66.86.8 1.36-2.65 9.47-6.71 18.56-13.05 26.13a10.53 10.53 0 0 1-.64.84 20.82 20.82 0 0 1-4.3 5.1c-.53.47-1.25 1.11-2 .79-.34-.15-.37-.48-.62-.69a33.39 33.39 0 0 0-3.71-1.43c-.58.08-7.32-3.65-10.84-6.19a83 83 0 0 1-10.05-7.46c-2.14-1.37-4.19-2.95-5-5.39-.18-1.61 0-3.23-.2-4.86-1-.61-1.93-1.3-2.87-2-3.24-1.55-5.92-4.17-8.8-6.29-4-3.27-8.24-6.52-11.57-10.47-6.24-6.77-12.84-13.21-18.2-20.72a.69.69 0 0 1 0-.73 216.64 216.64 0 0 1-13.59-18.3 98 98 0 0 1-9.76-16.49c-4.56-1.34-9.42-1.21-14-2.36a38.69 38.69 0 0 1-12.91-5.89.6.6 0 0 1-.2-.27 4.93 4.93 0 0 1-1.17-1.11c-.8-1.06-1.78-2.56-1.08-3.9-2.63-1.15-3.46-6.23.65-4.44-.48-.81-1.31-1.29-1.78-2.11-1.1-1.81-2-4.7 1.32-3.64 2.52.62 4.11 3.26 6.56 3.86a.54.54 0 0 0-.05-.22c-1.45-1.95-3.33-3.51-4.33-5.76a.88.88 0 0 1 0-.82c.55-.87 1.7-.25 2.39.08 2.6 1.18 4.66 3.25 7 4.85a21.79 21.79 0 0 0 6.44 2.72 15.59 15.59 0 0 0 6.19.55c.4-.78.79-1.62 0-2.28-1.25-1.44-2.92-2.3-4.34-3.52-1-.85-1.52-2.12-.15-2.9 2.58-2 10 2 11.67 4.27a.69.69 0 0 1 0 .47 18.73 18.73 0 0 1 2.27 1.88 48.21 48.21 0 0 1 7.11 7.66c1.72 3.33 4.27 6.11 6.67 8.91 4.59 4.95 8.32 10.62 12.54 15.87a.6.6 0 0 1 .73-.46.61.61 0 0 1 .43.35c3.17 4.32 7.43 7.7 11.34 11.3a264 264 0 0 0 23 20.76c2.36 1.91 5.07 3.11 7.65 4.67a1.13 1.13 0 0 1 .58.78c5.9-7 12.57.92 18.13 4.46 3.56 2.8 7.52 4.86 11.16 7.47 3.55 1.79 6.66 4.73 10.61 5.57ZM200.78 241.86a12.29 12.29 0 0 1-.15 4.72c-.72 4.47-3.06 8.26-5.63 11.9a62.22 62.22 0 0 1-10.36 12.13 64.31 64.31 0 0 1-6.51 4.61 4.64 4.64 0 0 1-3.33 1c-3.22-1.07-5.36-3.82-7.55-6.25a110.31 110.31 0 0 1-11.66-15.93c-2.58-4.58-7.17-9-5.48-14.76a32.91 32.91 0 0 1 2.41-5.55c-3-5.94-4.75-12.53-6.6-18.89-1.3-4.89-2.87-9.8-3.69-14.85-2.88-14.11-4.67-28.5-3.72-42.89-.4-3.58.25-7.15.4-10.72 0-2.44-1.71-4.14-3.1-5.89l-1.16-2a.74.74 0 0 1-.46-.09c-3-2-4.23-5.82-5.6-9a.83.83 0 0 0 0-.15.74.74 0 0 1-.4-.27 22.46 22.46 0 0 1-3.19-14.15c0-1.63 1-3 1.57-4.49-.1-2.37 1.82-5.11 4.17-3.08 0-1.65-.07-3.74 1.39-4.84-1.48-2.43-2.69-5-4.17-7.44a13 13 0 0 1-1-2.49l-.83-1.49c-4.34-6.12-4-9.7 2.93-13.14a33.31 33.31 0 0 1 7.94-3.42c.66-.59 2.17-.76 2.8-1.22 5.09-1.82 10.74-3.07 16.05-1.6a7.83 7.83 0 0 1 2.45 1 15.16 15.16 0 0 0 2.85.24 49.94 49.94 0 0 1 6 1.76c1.86.58 3.9.71 5.54 1.87a91.26 91.26 0 0 1 7.52 6.64 21.65 21.65 0 0 1 4.35 11.55c1.25 1.7 1.89 3.68 2.91 5.5 3.26 3.94 3.3 10.47-.24 14.21a8.4 8.4 0 0 1-3.61 1.39c-.8.59-2.78.67-3.47 1-2.69.71-5.51 1.37-8.23 1.87-4.31 1.08-8.84 1.53-13.12 2.61a3.69 3.69 0 0 0-.56.19c-.94 6.13-5.39 11.4-5.71 17.76a49.49 49.49 0 0 0 .28 6.44c1 5.22 1.76 10.51 3 15.69 1.19 3.85 2.5 7.67 3.74 11.51 2.32 7.83 4.39 15.72 7.82 23.15q3.27 6.24 6.63 12.46 2.49 3.63 4.62 7.5c3.92 4.67 7.49 9.64 11.55 14.21a59.26 59.26 0 0 0 7.81 8.52c.69.53 1.37 1.07 2 1.63a.74.74 0 0 1 .58.47.93.93 0 0 1 .26 1ZM61.15 162.29c3.74 7.69.19 15.85-5.76 21.23-1.7 1.4-3.64 2.47-5 4.16-1.21 1.64-.89 3.92 0 5.58 1.49 3.83-4 3.65-6.38 3.37s-4.36-2.24-2.47-4.35c-.57-.59-1.09-2.2.14-2.3-.12-2.95-1.88-5.51-3.57-7.81a30.07 30.07 0 0 1-5.48-11.69c-2.38-9.86 5-19.94 15.51-18.73a10.17 10.17 0 0 1 8.47 4.36c1.63 1.97 3.53 3.78 4.54 6.18ZM215.32 215.83c-.72-.26-1-1-1.27-1.63-1.71-3.39-2.65-7.15-1.34-10.86.78-3 6.62-12.67 9.79-12.69a1.31 1.31 0 0 1 .89 1.62 1.39 1.39 0 0 1-.16.35c1.51 1.71-1.72 2.56-2.46 3.74-1.3 1.81-2.07 3.94-3.25 5.82a1.08 1.08 0 0 1-1 .48 19.09 19.09 0 0 0-.65 6.07c1.13 1.53 3.07 7.76-.55 7.1Z"></path><path fill="#fff" d="M218.79 212.67a1.12 1.12 0 0 1-.94-.95 15.39 15.39 0 0 1 .34-9.11c.46-1.29 2.34-7.43 4.07-4.46a.89.89 0 0 1 .28.86 63.12 63.12 0 0 0-1.1 7.61c-.3 1.09.41 4.9-1.38 4.43-.24.73-.06 1.79-1.27 1.62ZM224.38 212.33c-1.43 0-1.17-1.9-1.25-2.89s-.39-3.31 1.25-2.64c1.71-.32 1.08 2.62 1.41 3.58s-.01 2.49-1.41 1.95ZM263.42 188.77c-1.74.14-3.65.76-5.31 0s-.75-2.7.57-3.41a4.3 4.3 0 0 1-1.28-.32c-1.58.4-2-1.69-.32-1.75 1.63-1.26 3.89-.64 5.78-.52a1.34 1.34 0 0 1 1.46 1c.72.3 1.7.51 2 1.3a1.17 1.17 0 0 1-.7 1.49h-.1a.94.94 0 0 1 .12.22A1.14 1.14 0 0 1 266 189c-.77.24-2 .6-2.58-.23ZM257.5 224.87a23.08 23.08 0 0 0-1.46-3.1c-.79-.2-1.4-1.91-.44-2.24a.91.91 0 0 1 .66-1.1.9.9 0 0 1 1 .43 19.26 19.26 0 0 1 1 2c.33 1.25 2.55 2.85 1.14 4a1 1 0 0 1-1.34.54 1 1 0 0 1-.56-.53ZM279.33 224.72c-2-.49-1-6.6-1.61-8.39-.29-2-1.27-3.87-1.45-5.88a1.22 1.22 0 0 1 .45-1.18.89.89 0 0 1 1.22.22c1.85-1 1.59 2.08 1.78 3.15.17 2.75 1.56 5.57 1.24 8.28-.22 1.12.65 3.72-1.1 3.71a1 1 0 0 1-.53.09Z"></path><path fill="#fff" d="m282 226.29-.09-.06a.92.92 0 0 1-.74-1.06 1 1 0 0 1 .13-.33 32.36 32.36 0 0 0-.59-14.15c-1.57.71-1.79-2.34-.91-3-.25-.58-.69-1.08-.89-1.69a.8.8 0 0 1 .6-.95.82.82 0 0 1 .57.09 16.93 16.93 0 0 1 3 4.88c2 5 4.4 11.72.11 16.15a1 1 0 0 1-1.19.12ZM474.94 228.27c.74.7.43 1.85.29 2.73s-.41 2-.52 3.05a1.55 1.55 0 0 1 .21.38 13.36 13.36 0 0 1-1.22 5.27 12 12 0 0 1-2.49 4.59 9.34 9.34 0 0 1-6.25 2.37c-1.06 0-2 .38-3 .2a2.55 2.55 0 0 1-2-1.21 10.23 10.23 0 0 1-.76-1.92c0-.15-.1-.32-.16-.5-.24-.5-.26-1.1-.46-1.57h-.18a36.26 36.26 0 0 0-3.7 7.23c-2.67 5.05-4.88 10.3-7.45 15.4a59.36 59.36 0 0 1-4.35 7.89c1.28 2.84-7.18 13.32-8.41 16.1a160.2 160.2 0 0 1-23 29.22c-1.27 1.5-2.54 3-3.84 4.48 2.93.65-14 14-18.55 15.75-2.3 8.11-9.49 10.74-18.18 12.75-5.62 1.42-11 4.61-16.82 4.66a2.48 2.48 0 0 1-.54-.06c0 .17-.15.33-.53.46-10.77-2.45-17.51-30.57-17.22-40.46.08-.59-.15-1.64.7-1.68a.66.66 0 0 1 .45.25c.56-.24 1.37-.32 1.78-.55 6.39-1.48 12.77-3.08 19.16-4.64 2-1.54 4.71-2 7-2.69a89.79 89.79 0 0 1 10.45-2.89c1-.21 2-.43 3-.72a1.32 1.32 0 0 1 1.67.12H380a5.18 5.18 0 0 0 2.65-.59c.62-1 3-1.93 3.74-2.5a22.57 22.57 0 0 0 3-2.12c4.19-3.3 7.39-7.55 10.81-11.59a157.44 157.44 0 0 0 12.92-16.32c4.82-6.64 8.23-14.22 13.42-20.61a.69.69 0 0 1 .22-.23c3-5.24 6.58-10.22 9.78-15.3.11-.19.23-.37.34-.55v-.07c1.64-4.32 4.24-8.27 6.72-12.15 2.74-4.19 6.08-8.08 10.62-10.26v-.05a125 125 0 0 1-3.91-16.76c-1 .42-2.05.7-3 1.17-1.37.53-2.67 1.53-4.22 1.39-1.73-.35-2.71-1.81-3.36-3.38a7.83 7.83 0 0 1-1.16-2.17c-1-2.41-2.26-4.45-3.33-6.77-1.41-2.24-2.25-4.78-3.68-7-1.73-1.75-2.39-4.22-3.85-6.17-2-3.06-3.87-6.36-6.07-9.22-.78-1.08-2.35-2.32-1.41-3.74.47-.6.92-1.21 1.44-1.78a32 32 0 0 0 3.84-2.81c.75-.53 6-4 7.9-4.19.33-.76 1.39-.52 1.79.09a45.15 45.15 0 0 1 6.31 7c-.3-1-1.29-3.78.7-2.76.53.43.81 1.16 1.38 1.55-.27-2.37-.82-4.78-1.14-7.13-.14-.59-.28-1.18-.43-1.77a.32.32 0 0 1 .27-.36.31.31 0 0 1 .32.17c.05.12.09.26.13.39a12.58 12.58 0 0 1 1.55 4c.67 1.11 1.49 2.13 2.17 3.23-.78-3.08-1.33-6.28-1.81-9.37a.89.89 0 0 1 .52-.45 22 22 0 0 1 5.65-1.56c1.39-.07 3-.56 4.35-.24 2.69-.85 5.62-1.54 8.3-.66.47 0 .93-.13 1.36.13a2 2 0 0 1 .4.11.66.66 0 0 1 .91.23.35.35 0 0 1 .06.14c1.1 4.58.63 9.4 1.13 14.07.52 5.34.9 10.56 1.4 15.86a22.63 22.63 0 0 1-.13 7.16 5.49 5.49 0 0 1-.22 1.21v.77c.09 1.91 1 4.19-.15 5.89-2.13 1.81-4.94 2.56-7.44 3.7a1.31 1.31 0 0 1-.83.6 6.26 6.26 0 0 1-.12 1.06 94.87 94.87 0 0 0 2.42 11.19c.4 1.75 1.11 3.45 1.43 5.2a7.91 7.91 0 0 1 3.37.47 2.52 2.52 0 0 1 1 1.49 2.29 2.29 0 0 1 .37 1.93 5.79 5.79 0 0 1-.27.8.43.43 0 0 1 .23.14 4.77 4.77 0 0 1 3.28 3.14 19.49 19.49 0 0 1 .29 3.23c0 .57.94.7 1.13 1.28.91 2.56.63 5.56 1.85 7.83ZM396.46 93.34c0 1 .37 3.08-.95 3.38a22.91 22.91 0 0 1-.48 2.33c.36 3.88-1.83 7.55-3.07 11.14-2.11 5-3.92 10.2-7.35 14.5a41.93 41.93 0 0 1-6.6 8.57.64.64 0 0 1-.24.5 2 2 0 0 1 .07.23 6.8 6.8 0 0 1 .1 2.66 7 7 0 0 1-.17 1.88 5.56 5.56 0 0 1-.31 1.34c-.23.6-.5 1.21-.68 1.82-1.3 4.84-4.91 8.32-8.22 11.87-3.09 4.65-7.47 8.09-11.66 11.68.07.4-.48.62-.81.47v.09c.13 3.59.79 7.22.94 10.84a98.28 98.28 0 0 1 1.49 17.21c0 1.31-.09 2.62-.14 3.93a7.88 7.88 0 0 0 .19 1 28.52 28.52 0 0 1-.38 5.54 164.68 164.68 0 0 1-1.66 30.42 110.34 110.34 0 0 1-2.45 15 14.19 14.19 0 0 1-2.25 5.87c.46 1.69 1.33 3.25 1.59 5 .65 2.88-.67 5.79-1.76 8.4-4.27 7.36-10.6 13.21-17.08 18.59a46.86 46.86 0 0 1-5.07 4.05c.09.86-1 1.19-1.67.95-12.75-6.05-25.69-16.21-28-31a.53.53 0 0 1 0-.67.44.44 0 0 1 .35-.28h.08a.54.54 0 0 1 .53.23c3.09-1.38 5.4-4 8-6 3.43-3.28 7.26-6.13 10.28-9.81 2.3-2.46 4.2-5.25 6.86-7.31a21.91 21.91 0 0 1 3.44-1.77c1.83-5.65 3.8-11.27 4.8-17.15a165.33 165.33 0 0 0 1.69-31.36c-.36-5.51.45-11 .19-16.51-.52-3.31 0-6.66 0-10 .25-.7 0-3 .85-3.08 0-.48-.05-1-.1-1.44 0-3.46-.88-6.82.08-10.18a4 4 0 0 0-.41-.73.8.8 0 0 1-.71-.6c-9.42-7.65-16.1-23.1-16-35.18a49.13 49.13 0 0 1 5.83-22.15c3.1-5.87 7.82-10.74 12.06-15.82a50.1 50.1 0 0 1 6.6-5.41c1.24-.76 5.16-4.17 6.57-3.35a36.26 36.26 0 0 1 8.72-3.7c5.87-1.09 12-1.42 17.57.88a.52.52 0 0 1 .18-.1.87.87 0 0 1 .9.12 17.09 17.09 0 0 1 2.06 2.27 13.59 13.59 0 0 0 3.13 2.3 24.72 24.72 0 0 1 10.42 14.46c.88 1.36 2.21 5.51 2.08 6.89a35.57 35.57 0 0 1 .57 7.19ZM336.78 364.94c.12 1.26.71 3.58-1 3.8h-.23c-.51.52-1.19.84-1.73 1.32-1.06 1.24-.9 3-1 4.47a56.92 56.92 0 0 1-.81 8.94c-.37 4.11-.66 8.2-1.17 12.29 0 4-1.13 7.73-1.7 11.62a.85.85 0 0 1-.19.42c.6 3.8-2.54 6.54-3.66 9.89a10.24 10.24 0 0 1-5.07 5.94 16.93 16.93 0 0 1-6.43 3.21c-4.21 2.1-8.89 2.09-13.42 3-9.58 1.58-19 3.69-28.58 5.16.81.12 1.62.3 2.42.44 1.44.37 3.21.94 3.43 2.64-.12 3.2-7.56 2.79-9.86 2.69-2.11-.07-4.21.32-6.34.19l-1.18-.06c-11 .3-22.08.27-33.08-.17-6.59-.13-13.18.69-19.77.33-2.48-.12-5-.08-7.46 0a.86.86 0 0 1-.28 0h-1.23c-10.63.09-20.95 1.47-31.53 1.63a209.26 209.26 0 0 0-22.67-1.34c-4.3.07-8.63 0-12.72-1.55a1.3 1.3 0 0 1-1-.67h-.4c-3.18.26-6.34-.83-9.49 0a.77.77 0 0 1-.77-.42c-7.46-.16-14.93-.38-22.27-1.84a3.82 3.82 0 0 0-1-.13.94.94 0 0 1-1.24-.22s0 0 0-.05a.71.71 0 0 1-.38-.65.46.46 0 0 1 .1-.25c-2.43-7.75-5.43-15.28-8-23-3.45-12.48-6.62-25.05-9.59-37.67-2.2-6.73-5.26-13.18-7.62-19.86-1-4.78-3.24-9.27-3.48-14.2a7.49 7.49 0 0 1 0-1.16.5.5 0 0 1 .55-.42l.16.05a.49.49 0 0 1 .21-.08c6.61-.7 13.19-.69 19.81-.8 6.07-.13 12.08-.59 18.13-.71 6.76-.18 13.52.4 20.29.34 12.55.33 25.08-1.26 37.59-.24 1.33.08 2.68.07 4 .27a.91.91 0 0 1 .66.48c.91-2.52 2.06-4.95 3-7.45 2.69-8.19 7.51-15.36 12.58-22.26 4.1-5.18 7-11.25 11.76-15.87 3.69-3.93 9.07-5.53 14.22-6.46 6.06-1.48 12.18-2.89 18.29-4 2-.65 4.46-.6 5.92-2.11a1.23 1.23 0 0 1 .77-.66c.11-1 .2-2 .23-2.9a46.44 46.44 0 0 0-.74-8.49.66.66 0 0 1 .14-.52c-1.58-.86-3.25-1.18-4.83-2-4.21-1.84-6.85-6.15-7.73-10.55-2.64-11.68-.42-23.89-2.88-35.59a.62.62 0 0 1-.27-.5.59.59 0 0 1 .88-.51.47.47 0 0 1 .22.24.62.62 0 0 1 .62.47 6.78 6.78 0 0 0 5.12-.26c1.44-.15 2.6-.5 3.95-.71a6.66 6.66 0 0 1 2.22.64c.69.4 1.23 1.23 1.92 1.57 4.29 1.33 9.37 3.41 13.65 1.34l.23-.16-.39-.49a16.72 16.72 0 0 1-3-5.14 17.82 17.82 0 0 1-.64-5.67c-.11-1.94-.36-4.21.69-5.93-.21-1.07-.61-2.93 1.16-2.5 1.2.75.69 2.64 1.17 3.78 1.71-.41 1.25 2.59 1.73 3.61 1.49 2.4 2.62 5.07 3.93 7.59.37.74 1.25 1.43 1.1 2.31a10.66 10.66 0 0 1 1.08 3.39c.82 1-.4 2.42-1.38 1.36a23.5 23.5 0 0 1-2.32-3.6v.28c.35.58.76 1.12 1.07 1.72.54 1.63-1.39 2-2.13.48H249a8.9 8.9 0 0 0 .56 1.31c.65 1.12 1.94 1.61 3 2.28a20.7 20.7 0 0 0 5.12 1.82.62.62 0 0 1 .31-.82.94.94 0 0 1 1.42-1.11 14.14 14.14 0 0 1 1.74 1.72c1.41 1.3 1.68 3.2 2.62 4.76.64-.46 1.71-2.38 2.8-3.75a7.76 7.76 0 0 1 .92-1.34c4.2-4.09 7.87 7 7.3 10-.14 2.88-2.27 5-3.78 7.31a1.26 1.26 0 0 1 0 .27c-1.12 8.91-2.38 17.92-1.31 26.89a.71.71 0 0 1 .31.93 12.62 12.62 0 0 0 7.43 7.78.83.83 0 0 1 .2-.69.68.68 0 0 1 .92.26.49.49 0 0 1 .07.19 6.43 6.43 0 0 0 1.28.84 23.54 23.54 0 0 1 2.5.37.76.76 0 0 1 .6.62c1 .2 1.94.33 2.85.48 1.69.33 3.24 1.11 4.94 1.39 10.72 3.18 23.18 6.74 28.63 17.49.71 1.32 4.37 6.29 4.41 8.44a64.78 64.78 0 0 1 3.7 8.66c1.63 5.3 2.62 10.76 4 16.14a175.3 175.3 0 0 1 5.15 26.39 31.52 31.52 0 0 1 .09 3.29ZM265.2 233.32c0-.16.06-.32.1-.49-.15.18-.28.38-.41.57s-.3.49-.46.73c.16.32.31.65.46 1a.2.2 0 0 1 0-.07V235a1.18 1.18 0 0 1 0-.2c.05-.4.12-.79.2-1.19a1.55 1.55 0 0 1 .05-.23Z"></path><path fill="#b6d8d6" d="M158.37 328.53a12.85 12.85 0 0 1-2.81-1.5 17.49 17.49 0 0 1-2.67-1.33c-9.06-3.18-17.87-8.38-23.68-16.09v-.33c0-.92 0-1.86.13-2.79s.17-1.81.26-2.73l.21-1.35V302.29a.3.3 0 0 1 0-.1c.07-.45.15-.9.23-1.35a68.29 68.29 0 0 1 1.73-6.61c.37-1.12.69-2.26 1.13-3.35s.9-2.23 1.34-3.35c.09-.18.16-.36.25-.54.5-1.08 1-2.16 1.51-3.25 1-1.77 1.93-3.52 3-5.22.37-.55.72-1.1 1.07-1.66.2.16.39.31.57.47l1.1.89a13.73 13.73 0 0 0 1.19.8c1.43 1 2.79 2 4.21 3 1.61 1.11 3.25 2.16 4.9 3.21 1.2.85 2.35 1.72 3.5 2.64s2.08 1.59 3.16 2.33 2.28 1.54 3.41 2.32a40.78 40.78 0 0 0 3.48 2.35 78.33 78.33 0 0 0 8.31 3.73c1 .4 1.95.87 2.91 1.33a8.94 8.94 0 0 0-.69 1.08 66.16 66.16 0 0 1-7.69 16.87 42.88 42.88 0 0 1-8.88 10.34 1.39 1.39 0 0 1-1 .44 1.54 1.54 0 0 1-.18-.13ZM129.83 302.38ZM129.84 302.31v.06ZM129.85 302.27ZM129.86 302.19ZM129.89 302ZM134.71 286.56l-.06.11ZM175.16 277.25a1.4 1.4 0 0 1-.68-.27 2.55 2.55 0 0 1-1.54-1.08c-2.69-3.41-5.56-6.65-8.31-10-5.12-5.73-10.64-11.35-13.24-18.75-.19-.72-.34-1.46-.49-2.19 1.86-3.13 3.77-6.22 5.81-9.24a61.6 61.6 0 0 1 5.08-5.63c1.38-1.25 2.86-2.39 4.31-3.56.92-.73 1.82-1.48 2.76-2.18 2.47-1.85 4.94-3.69 7.56-5.33l3.21 4.63-.2-.27c3.22 4.73 6.44 9.45 10 13.91 1.87 2.36 3.72 4.73 5.67 7a28 28 0 0 0 4.82 4.84l.32.22a47.12 47.12 0 0 1-2 4.82 60.28 60.28 0 0 1-9.52 13.53c-1.62 2.57-3.33 5.09-6.19 6.42-2.23 1.28-4.51 3.11-7.18 3.11ZM200.38 400.74c.63-5.78.78-11.54 1.06-17.36.1-4.17 1.37-8.18 1.45-12.34v-.64l.2-.06c-.18 3.4-.4 6.8-.69 10.19-.2 2.4-.47 4.8-.66 7.21s-.33 5.1-.51 7.65c-.13 1.93-.25 3.87-.37 5.8a3.17 3.17 0 0 0-.48-.45Z"></path><path fill="#b6d8d6" d="M204.65 425.25c.25-5 .44-9.9.49-14.87s.09-9.94.16-14.91c0-2.52 0-5.07.29-7.58s.5-4.92.76-7.38.46-4.79.58-7.18c.13-2.71.2-5.41.22-8.12v.25-6.71c0-1.22.09-2.44.14-3.66a.17.17 0 0 0 0-.1c.24-4.72.47-9.44.59-14.17a1.63 1.63 0 0 0-3.26 0c0 3.12-.16 6.22-.32 9.33v-.22c-.33 4.73-.66 9.45-.92 14.18h-.14a12.38 12.38 0 0 0-3.49-.2h-1.22a37.82 37.82 0 0 1-3.95-.53 51.55 51.55 0 0 1-5.45-1.74 62.55 62.55 0 0 1-5.82-2.55l.27.15-1.89-1c-1.7-1-3.39-2-5-3-.63-.38-1.24-.81-1.84-1.24-.59-1.74-1-3.59-1.44-5.3-.68-2.11-1-4.43-1.74-6.55l.68-1.23.21-.39-.06.1c1-1.9 1.91-3.88 2.9-5.8.89-1.74 1.86-3.45 2.69-5.23s1.88-3.49 2.79-5.25c1-2 2.05-3.91 3.06-5.87l.06-.11c.78-1.42 1.55-2.83 2.19-4.33.5-1.18 1.06-2.33 1.58-3.5 1.12-2.5 2.17-5.06 3.35-7.54.5-1 1.09-1.85 1.66-2.77.42-.66.83-1.34 1.28-2a23.12 23.12 0 0 1 1.7-1.87c.68-.64 1.39-1.24 2.13-1.81.4-.27.8-.54 1.22-.78s.78-.36 1.17-.52c2.33-.84 4.74-1.25 7.12-1.91 2.88-.82 5.76-1.67 8.65-2.5l.27-.08-.21.06-.32.09.54-.16h.15l1-.28h.08l.23-.07.22-.06h.13-.06l1.32-.37-.24.08c1.11-.31 2.22-.62 3.33-.9s2.24-.52 3.34-.82a27.11 27.11 0 0 0 3.15-1.06 12 12 0 0 0 1.74-.9 13.46 13.46 0 0 0 1 4.42 14.38 14.38 0 0 0 4.68 4.82 12 12 0 0 0 2.26 1.28c.75.32 1.51.6 2.28.86s1.51.5 2.25.79a18.37 18.37 0 0 0 3.66.86c1.3.21 2.61.33 3.93.44H253c.6 0 1.2 0 1.79-.1s1.45-.12 2.17-.25l1.73-.32c.43-.07.85-.22 1.27-.32s.58-.13.86-.22c.56-.18 1.12-.34 1.67-.55a19.93 19.93 0 0 0 6.28-3.23 36.16 36.16 0 0 0 3.47-3.64 29.24 29.24 0 0 0 2.76-3.59c.15-.24.3-.48.44-.73a55.7 55.7 0 0 0 7 3.58 31.18 31.18 0 0 0 4 1.35c1.27.36 2.54.73 3.81 1.06 1.44.36 2.88.69 4.33 1 1.22.22 2.45.37 3.66.62a55.84 55.84 0 0 1 6.14 2 18.46 18.46 0 0 1 2 .93 47 47 0 0 1 4 2.86 14.4 14.4 0 0 1 1.11 1c.7.74 1.33 1.55 2 2.35s1.07 1.28 1.6 1.93 1.06 1.6 1.57 2.42 1.06 1.65 1.56 2.49a55.94 55.94 0 0 1 2.51 5 94 94 0 0 1 3.19 9.37c.5 1.91 1 3.84 1.52 5.76s1.1 4 1.57 6c.47 2.24.71 4.52 1.05 6.78.29 2 .63 4 1 5.95.48 2.8 1.05 5.58 1.48 8.39s.77 5.74 1.22 8.6l.18 1.18-1.73 1.4c-.84.66-1.68 1.34-2.58 1.93s-2 1.24-3.05 1.81c-.71.34-1.43.69-2.16 1l.33-.13c-1.22.49-2.44 1-3.7 1.42l.36-.1c-1.54.47-3.1.9-4.66 1.3-1.1.25-2.2.51-3.32.66-1.29.16-2.6.25-3.9.35h-.78a17.89 17.89 0 0 0-1.94 0c-.75.06-1.48.21-2.21.31s-1.63 0-2.45.13h.34-.34l-.38.07c.09-1.63.21-3.25.31-4.87.12-2 .41-4 .55-5.93.16-2.16.23-4.34.33-6.51.09-2 .13-4 .34-6a1.3 1.3 0 0 0-2.59-.14 37.93 37.93 0 0 1-.39 3.83q-.39 2.66-.68 5.34c-.17 1.7-.27 3.41-.4 5.11v-.09a1.21 1.21 0 0 1 0 .19c-.24 2.59-.47 5.17-.79 7.74q-.37 3.06-.7 6.12c-.12 1.12-.22 2.23-.32 3.35s-.11 2.1-.18 3.15c-.16 2.16-.3 4.32-.52 6.47-.21 2-.26 4-.38 6v-.34c0 .66-.09 1.33-.14 2-4.18 1.79-8.58 3-12.83 4.54-8.93 4.26-18.11 7.9-27.28 11.58-1.42.51-6.53 3.6-9.83 4.67a1.05 1.05 0 0 1 .06.24 1.22 1.22 0 0 1-1.11 1.32H243a24.87 24.87 0 0 1-2.73 0 19.51 19.51 0 0 1-7.44-1.32c-2.57-.32-5.12-.37-7.68-.55-1.83-.12-3.66-.23-5.49-.3-1.6.17-3.2.37-4.78.64-4 1.9-7.94 4.29-10.44 8v.05c.06-1.61.14-3.15.21-4.7Z"></path><path fill="#b6d8d6" d="M299.48 381.45V381a1.57 1.57 0 0 0 .3.05v.08c-.09 1.41-.15 2.83-.22 4.26-.03-1.39-.07-2.65-.08-3.94ZM306.73 380.86a13 13 0 0 1-2.16-.21h3.86l3.27-.14h.15a32.14 32.14 0 0 1-4.9.37ZM332.71 371.11l-.25.19.25-.2c0 .15.05.3.08.45a17.41 17.41 0 0 1-2.23 1.25ZM330.34 366.72l-.08.07ZM184.05 318.34ZM216.43 288.73h.01l-.01.01v-.01zM235 285.33c-.2-.23-.41-.44-.61-.66s-.33-.44-.48-.67-.17-.31-.25-.46l-.09-.2c0-.07 0-.13-.05-.18a.28.28 0 0 0 0-.09V283a3.3 3.3 0 0 0 .45-.26 14.78 14.78 0 0 0 1.17 2.71ZM199.46 293.6l-.15.07ZM216.43 288.74zM217.65 288.39l.22-.07h.17-.18ZM217.82 288.34ZM218.11 288.26h-.07ZM207.19 358.86ZM320.59 313.09a1.8 1.8 0 0 1 .08.21 1.8 1.8 0 0 1-.08-.21ZM311.29 299l.11.11ZM304.08 294.32l.2.08ZM327.46 293.42c-.69-.11-1.44-.76-1-1.48-10.24-5.31-22.07-11.49-25.26-23.5-.21-.61-.43-1.24-.62-1.88l1.58-1-.38.25c1.39-.87 2.77-1.73 4.11-2.67a33.51 33.51 0 0 0 4-3.09c2.46-2.31 4.59-4.89 6.91-7.32s4.63-4.94 6.92-7.44c1.16-1.26 2.36-2.5 3.46-3.82.06-.07.11-.14.17-.2l1 1.19a26.87 26.87 0 0 0 4.15 4c1.93 1.53 3.94 3 5.73 4.65 1.93 1.95 3.58 4.13 5.41 6.18s3.81 4.21 5.59 6.43a31 31 0 0 1 1.92 2.77c.24.41.46.83.69 1.25a36.1 36.1 0 0 1-4.43 5.43c-4.6 6.22-10.54 11.2-15.82 16.76a27.44 27.44 0 0 0-2.31 2.74.86.86 0 0 1-.13.14.72.72 0 0 1-.39.52 2.85 2.85 0 0 1-1 .17 2.17 2.17 0 0 1-.3-.08ZM353.72 355.47c-3.93.33-6.48-3.4-8.62-6.16-5-7-9.29-19.35-9.53-29.18l1.25-.32 2.33-.41q2.72-.47 5.46-.82c1.86-.25 3.73-.48 5.58-.85 2.08-.42 4.14-.88 6.21-1.39 1.81-.45 3.61-1 5.4-1.54a112.76 112.76 0 0 0 10.92-3.5 31.41 31.41 0 0 0 4.31-2c.37 1.15.73 2.3 1.09 3.45q1.06 3.51 2 7c.52 2.34 1 4.66 1.42 7 .39 2.14.66 4.3 1 6.45 0-.18 0-.38-.07-.56.18 1.77.37 3.55.55 5.32s.23 3.3.34 5c0 .94.06 1.89.08 2.83-1 .43-2.06.79-3 1.16-5.65 2.26-11.09 5-17.17 6.08-2.51.53-4.93 1.82-7.47 2.24a2.42 2.42 0 0 1-1.21.25c-.29-.02-.59-.05-.87-.05ZM336.76 313.92l-.9.26a.56.56 0 0 1 .72-.36.64.64 0 0 1 .18.1Z"></path><path fill="#6d90de" d="M130.55 91.41c-1.52-.61-3-2.32-2.46-4a3.75 3.75 0 0 1 .74-2.63 19.46 19.46 0 0 1 4-2.72c1.18-.6 2.5-1.43 3.86-1.13 1.5.6 1.85 3.06 2.41 4.45.53.92 1.16 2.14.58 3.17a6.51 6.51 0 0 1-2.81 1.54c-1.96.91-4.1 2.32-6.32 1.32Z"></path><path fill="#98b1e8" d="M135.17 103.54c-1.19-1.65-1.43-3.86-2.12-5.77-.42-.87-1-2-.25-2.84 1.68-1.59 6.16-3.8 8.3-2.38.78.57.78 1.6 1 2.44.93 2.34 1.83 5.3-.08 7.41-1.08 1-2.73 1.08-4.1 1.49-.86.19-2.02.38-2.75-.35Z"></path><path fill="#ceddff" d="M142.71 119.25a1.29 1.29 0 0 1-.8-1.35c-1.89-2.91-3.79-6.53-3-10.08.48-.95 1.72-1 2.63-1.29 1.07-.25 2.42-.25 3.13.72 1.46 3 1.91 6.42 2.46 9.67.22 1.97-2.95 2.67-4.42 2.33Z"></path><path fill="#d65b75" d="M146.77 87.68a3.34 3.34 0 0 1-.76-.23h-.13c-1.67.34-1.7-1.8-2-2.92-.6-2.53-1.14-5.41.07-7.83 1-2.06 3.49-1.85 5.42-2.07 2.08 0 5.75-.45 6.19 2.28.91.71.73 2.08.63 3.1a37.58 37.58 0 0 1-.8 4.84 2.29 2.29 0 0 1-1.78 1.85 26.9 26.9 0 0 1-6.84.98Z"></path><path fill="#e9748e" d="M147 102.39a1.3 1.3 0 0 1-1.39-1.21 35.91 35.91 0 0 1-.65-5.06c0-1.24-.27-3 1-3.72 2.08-.83 4.93-.94 6.84.33 1.84 1 1.44 4.49 1 6.24-.75 2.94-4.22 3.51-6.8 3.42Z"></path><path fill="#ffd2dc" d="M149.49 118c-1.12-.44-1.15-2-1.51-3-.42-2.49-1.3-5.09-.8-7.61a.61.61 0 0 1-.62-.59.62.62 0 0 1 .45-.6c.92-.3 1.69-1 2.71-1.11 2.23-.41 2.24 2.08.88 3.13a11.17 11.17 0 0 1 .48 4.7 1.19 1.19 0 0 1-.38.7c.04 1.38 1.09 4.63-1.21 4.38Z"></path><path fill="#b6d8d6" d="M163.1 89.18c-4.95-1.5-5.29-.9-4.68-6.43.06-2.33 2.09-5.85 4.76-4.36 3.36.29 5.72.78 7.27 4.1 1.25 2.29-.77 4.52-2.38 6a3.06 3.06 0 0 1-2 1.33 8.93 8.93 0 0 1-3-.65ZM159 102.25c-.55-.37-.24-1.07-.07-1.56s.49-2 1.19-1.13c.58-.91 1.79-2.19 1.4-3.31a15.63 15.63 0 0 0-2.9-1c-.39.36-1-.22-1.44-.28s-.93-.55-.47-.93c2.3-1.15 8.14.17 6.44 3.77-.39.98-3 5.44-4.15 4.44Z"></path><path fill="#b6d8d6" d="M155.83 103.8a1.45 1.45 0 0 1-.64-1.26 1.07 1.07 0 0 1 .3-.62 25.43 25.43 0 0 1 .87-6.49c-.86 0-.89-1-.77-1.59a2.32 2.32 0 0 1 1.68-1.84c2.49-.31 6 .8 6.35 3.68a9.7 9.7 0 0 1-4.43 7.36 2.6 2.6 0 0 1-3.36.76Z"></path><path fill="#579e7c" d="M173.49 102.61c-1.7-.64-2.92-2.22-4.28-3.39a2.79 2.79 0 0 1-1-3.37 44.78 44.78 0 0 1 2.82-4.3c.83-1.25 3-6.71 4.58-3.57a8.2 8.2 0 0 1 3.91 4.61c.47 1.31 1.16 2.7.8 4.13-.79 2.3-3.05 3.68-5 4.93-.62.35-1.09 1.03-1.83.96Z"></path><path fill="#85c3a5" d="M157.52 111c-1.34-2.24 4.91-9.13 6.88-10.34-1.15-.28-1-1.8.19-1.52a9.33 9.33 0 0 1 1.3.75c4.83 3 1.33 6.68-2.1 8.9-1.54.72-4.79 3.84-6.27 2.21Z"></path><path fill="#84cdf3" d="M178.63 112.94h.13c-.22 0-.44-.11-.65-.18h.06-.09a1.49 1.49 0 0 0 .67.2Zm-1.51 1.5c-1.61-1.21-2-3.48-3-5.14-1.24-2.43-.7-4.37 1.83-5.5 1.63-.7 4.42-3.93 6.11-2.53.5 0 .78.49 1.09.81 1.5 1.63 3 3.68 3 6-.28 3.57-5.4 8.25-9 6.36Z"></path><path fill="#aedaf0" d="M162.22 117.93c-1.25-.43-2.28-1.23-1.5-2.63-.68-.84.12-1.75.95-2.06 2.46-1.25 4.58-3.07 7.1-4.24a.61.61 0 0 1 .52-.7.6.6 0 0 1 .57.22c1.41 1 2.82 2.45 2.7 4.26.19 4.96-6.63 5.83-10.34 5.15ZM360.94 89.62c-3.88-.63-5.59-4.72-5.51-8.29-.06-3.09 1.95-5.68 3.79-8 3.19-3.21 7.93-5.56 12.5-5.38a6.63 6.63 0 0 1 5.14 5c3.55 3.11.73 8.39-2 11.09-.76.74-1.89 1.57-3 1.22-2.89 1.56-5.82 3.34-9.09 3.92-.38.67-1.21.51-1.83.44Z"></path><path fill="#98b1e8" d="M370.54 114.89c-5.16-1.27-5.65-5.79-5.46-10.34-.42-4.64 1.81-8.84 5-12 2.7-2.91 7.37-4 11.24-3.51 3.2.5 7.83 1.2 7.76 5.51.9 1.48.47 3.33 0 4.89-.68 2-1.09 4-1.71 5.94a14.27 14.27 0 0 1-8.67 7.92c-2.5 1.08-5.36 2-8.16 1.59Z"></path><path fill="#e9748e" d="M337.46 123.63c-2.64-.54-4.45-3-5.53-5.35-1.95.52-2.05-2.07-2.11-3.39-.12-2.22.06-4.74 1.8-6.33a42.44 42.44 0 0 0 3.33-3.24 16.66 16.66 0 0 1 5.76-7.08c3.7-3.52 12.56-4.26 12.46 2.69a12.79 12.79 0 0 1-1.17 5.61c-.4.84-.58 2-1.56 2.4-1.66 2.64-2.09 5.82-3.74 8.44-1.8 3.1-5.35 6.83-9.24 6.25Z"></path><path fill="#b6d8d6" d="M358.11 125.09a.76.76 0 1 1 .72.74.75.75 0 0 1-.72-.74Z"></path><path fill="#b6d8d6" d="M359.41 130.23a1.28 1.28 0 0 1-.17-.22 4.23 4.23 0 0 1-3.6-2.68 3.39 3.39 0 0 1-1.75-3.87c1-3.06 4.9-3.47 7.56-4.23 2.73 0 5.14 4.37 4.43 6.83-.33 1.71-4.88 5.51-6.47 4.17ZM343.46 92a5.78 5.78 0 0 1-2.41-1.36 1.07 1.07 0 0 1-.72-1.32.19.19 0 0 0 0-.07A5.81 5.81 0 0 1 340 82c1.5-1.73 4.34-2.79 6.52-1.86 2.68-1 5.23 2 4.58 4.57a7.63 7.63 0 0 1-2.8 4.29c-1.25 1.36-2.75 3.3-4.84 3Z"></path><path d="M271.38 231.47a.83.83 0 0 1-.1 1.09c-2 1.47-2.2 4.07-2.57 6.34a2.92 2.92 0 0 1 .41 4.48.62.62 0 0 1-.8-.06.55.55 0 0 1 0-.78.39.39 0 0 1 .1-.08.44.44 0 0 1 .16-.06 1.77 1.77 0 0 0-.13-1.85c-.2-.4-.69-.43-1-.73s-.19-.82-.14-1.24a19.27 19.27 0 0 1 .79-4.39 4.32 4.32 0 0 1 2.15-3 .84.84 0 0 1 1.13.28Z"></path><path d="M261.14 184.82c.47.07.95.15 1.42.25h.1a.51.51 0 0 0 .09-1c-.44-.09-.89-.18-1.33-.23a12.12 12.12 0 0 0-1.33-.11h-1.2l-1.09.06c-.27 0-.54 0-.81.07a.45.45 0 0 0-.42.48.47.47 0 0 0 .49.42H258.95a20.1 20.1 0 0 1 2.19.06Zm-1.6 2.05a.5.5 0 0 0 .42.55l3.48.44h.05a.49.49 0 0 0 .07-1c-1.15-.2-2.31-.31-3.47-.44H260a.5.5 0 0 0-.49.44Zm-40.12 14.2a7.7 7.7 0 0 0-.67 1.27c-.17.38-.32.76-.46 1.15a9.21 9.21 0 0 0-.48 2.32 8.67 8.67 0 0 0 .05 1.44c0 .33.08.67.14 1s.15.85.23 1.27a.7.7 0 0 0 .69.53.39.39 0 0 0 .15 0 .71.71 0 0 0 .53-.74v-1.05c0-.35-.05-.72-.07-1.08v-.47.08-1.24c0-.41.1-.62.16-.92a10.54 10.54 0 0 1 .34-1.13c.16-.4.33-.77.52-1.14a3.48 3.48 0 0 1 .22-.36.78.78 0 0 0-.25-1.08.75.75 0 0 0-.41-.12.79.79 0 0 0-.67.38Zm4.62 9.84a.34.34 0 0 0 .31.21h.11a.33.33 0 0 0 .2-.42c-.07-.18-.13-.36-.19-.54l-.09-.31v-.32a.09.09 0 0 1 0-.05v-.1a.36.36 0 0 0-.29-.42H224a.34.34 0 0 0-.33.38s0 .05 0 .07a3 3 0 0 0 .07.51c0 .18.09.36.14.53.05.14.09.29.13.43Zm-3.33-17c-.46.3-.92.6-1.36.94a12.07 12.07 0 0 0-1.16 1 9.36 9.36 0 0 0-1 1.07 19 19 0 0 0-2.92 5.21 19.23 19.23 0 0 0-.88 3 12.43 12.43 0 0 0-.28 2.65 8 8 0 0 0 .16 1.46c.12.47.25.95.41 1.41s.35 1 .56 1.42a5 5 0 0 0 .46.81.91.91 0 0 0 1.3.12.91.91 0 0 0 0-1.29l-.06-.06-.08-.07-.09-.13.06.1a10.37 10.37 0 0 1-.53-1 10 10 0 0 1-.41-1c-.1-.34-.19-.68-.26-1v-.66.1a10.28 10.28 0 0 1 .06-1.1v.11a17.07 17.07 0 0 1 .33-1.76v.1c0-.08.05-.15.07-.24a19.66 19.66 0 0 1 2.21-5.09 22.55 22.55 0 0 1 1.61-2.26c.55-.64 1.15-1.24 1.72-1.87l-.06.07 1-1.07a.6.6 0 0 0 0-.79.57.57 0 0 0-.43-.19.74.74 0 0 0-.43.02Zm27.18 18.78a.53.53 0 0 0-.3.7c.23.66.48 1.31.73 1.95.1.26.22.51.33.77s.21.52.33.77.35.7.52 1.06.28.52.42.78c.33.59.66 1.18 1 1.76a.56.56 0 0 0 .44.25.46.46 0 0 0 .23-.06.5.5 0 0 0 .2-.67c-.63-1.24-1.27-2.47-1.88-3.71v.07c-.23-.52-.47-1-.68-1.58s-.47-1.18-.68-1.79a.54.54 0 0 0-.5-.34.71.71 0 0 0-.2 0Zm-3.3-4.38a21.07 21.07 0 0 0-.07 4.42c0 .66.11 1.32.22 2a15.08 15.08 0 0 0 .39 1.89 9.67 9.67 0 0 0 .66 1.67 4.19 4.19 0 0 0 .47.69q.27.34.57.66c.28.3.6.57.9.85l.79.7a.55.55 0 0 0 .78 0 .57.57 0 0 0 0-.74c-.43-.43-.85-.88-1.29-1.31l.06.05a10.85 10.85 0 0 1-.83-1c-.12-.16-.23-.32-.34-.49s-.23-.47-.34-.72-.27-.78-.38-1.18a23.8 23.8 0 0 1-.48-2.63 24.46 24.46 0 0 1-.17-2.84v.07a17.73 17.73 0 0 1 .15-1.92.54.54 0 0 0-.5-.58.55.55 0 0 0-.54.49Zm34.28 9.16c.07.54.13 1.08.2 1.62.1.87.2 1.73.32 2.6a.45.45 0 0 0 .47.38h.07a.48.48 0 0 0 .39-.48c0-1.07-.08-2.14-.15-3.2a26.51 26.51 0 0 0-1.09-5.8.61.61 0 1 0-1.17.37c.12.43.24.86.34 1.29a.09.09 0 0 1 0 .05 28.2 28.2 0 0 1 .6 3.15Zm-22.17 3.61a.5.5 0 0 0-.35.55 2.16 2.16 0 0 0 .53 1.08.53.53 0 0 0 .39.18.51.51 0 0 0 .51-.48.52.52 0 0 0-.09-.29l-.26-.42a.93.93 0 0 0-.05-.1v.07a1.25 1.25 0 0 1-.09-.25.48.48 0 0 0-.48-.36.32.32 0 0 0-.11.03Zm25.22-6.31a26.69 26.69 0 0 1 .3 2.82c0 1.19 0 2.38-.06 3.57v2.32a.59.59 0 0 0 .51.57h.06a.59.59 0 0 0 .57-.44c.11-.39.22-.78.31-1.17s.14-.72.22-1.08.08-.64.12-.95.1-.84.12-1.27a18.44 18.44 0 0 0 0-2.68 20 20 0 0 0-.41-2.78 37.17 37.17 0 0 0-1.56-5 1 1 0 1 0-1.78.73c.25.7.5 1.4.74 2.11v-.12a26.37 26.37 0 0 1 .88 3.39Zm-11.52 66.3c-1.71-3.69-1.26-8-1.48-11.94q-.24-9.18.43-18.36c.08-1 .31-2 .42-3a7 7 0 0 1-.8.31.67.67 0 0 1-.63-1.16 15.25 15.25 0 0 0 3.71-3.25c3.49-4.65 2.43-11.58-1.1-15.84a.79.79 0 0 0-.66-.15c-4 1.06-4.87 6.11-4.52 9.62.85.69-.54 1.76-1 .75a6.47 6.47 0 0 1-.23-2v-1.3a.57.57 0 0 1-.4-.11c-.65-.48-.87-1.5-1.17-2.15a6.93 6.93 0 0 0-2.1-2.43c-.49-.32-1-.7-1.47-1a15.78 15.78 0 0 1-5.95-.66c-3.15-.83-4.94-3-6.24-5.61a17.87 17.87 0 0 1-9.28.74 14.45 14.45 0 0 1-7-3.77 2.49 2.49 0 0 1-1.55.11 1.46 1.46 0 0 0-.41-.11 7.2 7.2 0 0 1-3.35.38h-1.1a13.56 13.56 0 0 1-5.29-.6 109.52 109.52 0 0 1 1 11.43c.87 9.64.81 19.7 3.94 28.92 1.65 3.73 5.72 5.4 9.2 7 5.11 1.55 10.34.7 15.25-1.1a.4.4 0 0 1 .47.3.41.41 0 0 1-.15.4 15.08 15.08 0 0 1-10.53 3.11 16.68 16.68 0 0 1-8.14-2.1 15.11 15.11 0 0 1-7.12-5.68c-3.27-7.28-3.38-15.61-4-23.46-.41-5.07-.15-10-.62-15-.12-1.4-.3-2.81-.5-4.21a.32.32 0 0 1-.14 0c-.24 0-.49 0-.72.05a.73.73 0 0 1-.58.86.74.74 0 0 1-.33 0 .91.91 0 0 1-.55-.52 3.2 3.2 0 0 1-1.53-1.05c-2.95-1.59-4.66-5.47-5.21-8.74-1.47-8.42 3.85-15.79 10-21s13.23-10 21.44-9.78a16.2 16.2 0 0 1 11 2.92.49.49 0 0 1 .56-.07c.62.32.78 1 1 1.61 4.58-2 9.78-1.91 14.62-.77 9.6 2.59 15.48 9.87 18.41 19.08 1.07 3.81 2.59 7.56 2.82 11.53a52.06 52.06 0 0 1-.64 9.08A68.28 68.28 0 0 1 275 249.67c-.94.94-3 4.44-4.36 3.77-.12 8.34-.06 16.7.63 25 .07.67.46 3-.32 3a1 1 0 0 1-.6-.29Z"></path><path d="M220 227.1a.59.59 0 0 1-.57-.39.47.47 0 0 1 .08-.44.51.51 0 0 1-.21-.7.53.53 0 0 1 .06-.1c-.4-1 1.24-1.11 1.86-1.42 1.91-.89 9.35-.84 8.6 2.37-.65 1.05-2.22.59-3.24.53-2.18-.25-4.33.16-6.58.15ZM255.61 229.93c-2.8-.57-5.58-.25-8.4-.29-.84 0-2-.08-2.42-.9-.31-.75.41-1.38 1-1.67 1.64-1 3.53-.82 5.35-.65.92 0 3.22-.17 2.8 1.33a12.92 12.92 0 0 1 4 1.16c1.06 1.49-1.55 1.14-2.33 1.02ZM227.6 235.34a7.49 7.49 0 0 0-3-3.16 4 4 0 0 0-3.92 1.52.7.7 0 0 1-.4.89.69.69 0 0 1-.53-1.28c2.82-4.34 7-3.63 9.09.88.48.96-.38 2.2-1.24 1.15Z"></path><path d="M223.24 239.48a.78.78 0 0 1-.36-.16c-.32 0-.64-.09-.95-.14h-.09c-.85.51-1.49-.55-1.67-1.26-.82-1.88.62-4.55 2.84-4 1.62.11 2.15 1.74 2.41 3.1.65 1.33-.09 2.34-1.54 2.36a.9.9 0 0 1-.64.1Z"></path><path d="M224.58 237.86c-.31-1.33-.63-3.37-2.39-3.18-.63.06-1 .74-1 1.29s.21 1.31-.31 1.55c-.28.06-.42-.22-.52-.44a4.94 4.94 0 0 1 .12-3.55c.07-.68 1.1-.28.67.27a2.83 2.83 0 0 1 4.12 1.65c.23.69.66 2.36-.21 2.69a.43.43 0 0 1-.48-.28ZM223.16 239.75a3 3 0 0 1-2.21-.85c-.3-.19-.53-.8 0-.83a.31.31 0 0 1 .28.21c.42.47 1.22.32 1.81.37s2-.58 2.36.21c0 .91-1.58.83-2.24.89ZM255 237.78c-1.38-1.23-2.35-3.17-4.14-3.76a4.34 4.34 0 0 0-4 1.54.55.55 0 0 1-.54.55h-.15c-1.42-.65 1.82-3.09 2.61-3.2a4.34 4.34 0 0 1 5 1.3c.67.37 3.27 4.27 1.22 3.57Z"></path><path d="M247.93 240.26c-.25-.11-.56.06-.78-.13-.94.16-1.09-1-1.07-1.68a3.93 3.93 0 0 1-.26-1.39 3 3 0 0 1 3-3 3.87 3.87 0 0 1 .48 0 4.35 4.35 0 0 1 3.26 4.53c.1.71 0 1.5-.85 1.56a10.8 10.8 0 0 1-3.78.11ZM233.79 248.68a2.68 2.68 0 0 1-2.16-2.18 7.08 7.08 0 0 1 .29-2.2 29.24 29.24 0 0 0 1-5.25.31.31 0 0 1 .33-.29.32.32 0 0 1 .3.3 20 20 0 0 1-.91 6.24 1.68 1.68 0 0 0 .4 1.34 2.29 2.29 0 0 0 1.11.55.77.77 0 0 1 .51.95.78.78 0 0 1-.87.54ZM234.86 254.15a18.4 18.4 0 0 1-4.3-.64.44.44 0 0 1-.29-.53c.11-.41.59-.29.86-.21a16.64 16.64 0 0 0 10.61-1.52c-.68 0-1.18-.75-.52-1.2a2.35 2.35 0 0 1 1.38-.21c1.3-.05 2.73 1.61 1 2.15a15.71 15.71 0 0 1-8.74 2.16ZM251.94 294.23c-6.86 0-20.06-4.82-18.47-13.38.16-3.29.15-6.41.49-9.59a6.91 6.91 0 0 0-.09-1.7c0-.49-.68-1-.17-1.38a.47.47 0 0 1 .57 0c1.47 1.52 1.09 3.75 1.09 5.67-.19 3.28.24 6.72-.62 9.91 6.39 11.86 32.2 12.6 35.67-2a.76.76 0 0 1 1-.38.75.75 0 0 1 .44.77 3.76 3.76 0 0 1-.16.74c-2.15 8.57-11.75 11.72-19.75 11.34Z"></path><path d="M169.52 332.83c-2.09-.48 4.43-10.83 5-12.49 5.36-9.32 10.62-18.92 18.14-26.68 4-4.57 10-6.28 15.66-7.53 7.37-2 15.16-2.88 22.32-5.49a7.55 7.55 0 0 0 2.69-1.55c.59-.23 1 .47.38.91-.63 1.46-2.24 2-3.62 2.5a172.93 172.93 0 0 1-19.29 4.89c-4.88 1.28-10.2 2.09-14.32 5.14-5.28 4.19-8.85 10-12.56 15.46-3.07 4.89-6.16 9.83-8.88 14.92-1.23 2.44-2.36 4.75-3.45 7.24-.59.85-.59 3.03-2.07 2.68ZM308.27 381.6a35 35 0 0 1-7.68-1.25 1 1 0 0 1-.66-1.15.93.93 0 0 1 1-.68c3.54.28 7.07 1.15 10.61.58 5.73-.65 23.56-6.68 24.92-12.6.29-3.2-.8-6.3-1.24-9.43-1-5.38-2.08-10.72-3-16.09-.9-5.75-1.46-11.58-3.32-17.12-2-7.27-4.52-14.48-9.05-20.52-5.41-7.74-13.19-14-22.35-16.59-4.55-1.36-9.16-2.55-13.74-3.8-4.33-1.39-11.73-2.3-13.06-7.34a.42.42 0 0 1 .81.19 4 4 0 0 0 1.28 1.32c3.13 1.9 6.78 2.66 10.26 3.66 7.93 2.24 16.24 3.59 23.61 7.41a59.55 59.55 0 0 1 9 7 50.7 50.7 0 0 1 12.81 20.35 91.53 91.53 0 0 1 5 19.42c1 8.06 2.87 16 4.29 24 1.59 6.8 1.51 11-5.24 14.63-7.39 4.19-15.63 7.86-24.25 8.01Z"></path><path d="M297.79 397.52c0-10 1.35-20.13 1.26-30.21.15-5.09.43-10.2.79-15.28 0-.43.16-1.32.78-1.08.27.16.28.62-.07.67v.06c-.74 2.44 1.71 52.87-2.76 45.84ZM199.44 415.23c-1.31-.32-.43-2.51-.55-3.38.12-1.74.19-3.44.27-5.18.6-9.66 2.32-19.23 3.19-28.87.52-11 .34-22.07 2.07-33 .31-2.35.63-4.69 1-7a.65.65 0 0 1 .72-.55.63.63 0 0 1 .54.72 197.81 197.81 0 0 0-1.83 15.69c-.71 10.93.16 21.91-1.5 32.78-.57 6-1.43 11.9-2 17.88-.35 1.91.13 10.94-1.91 10.91Z"></path><path d="M198.67 367.94c-5 .11-10-1.72-14.4-4.05-.65-.47-3.53-1.23-2.63-2.26a.52.52 0 0 1 .73.11 1.3 1.3 0 0 1 .08.17 23.23 23.23 0 0 0 9.11 3.28 22.57 22.57 0 0 0 12.28 0 .77.77 0 0 1 .86.67.75.75 0 0 1-.21.63 8.82 8.82 0 0 1-5.82 1.45ZM200.7 438.17c-2.78-5-3.91-10.92-5.92-16.23-5.15-15.62-10-31.39-15-47.05-3-11-6.89-21.76-9.36-32.92a18.51 18.51 0 0 1-.66-3 .56.56 0 0 1 .48-.63.56.56 0 0 1 .63.48c7.8 24.31 15.34 48.78 23 73.16 2 6.34 4 12.66 6 19 .6 2.2 1.58 4.31 2 6.53a.72.72 0 0 1-1.21.61ZM93.78 437c-7.16-19.1-11.77-39.05-17.49-58.6v.12c-3-10.65-7-21-9.75-31.72q-.94-3.63-1.74-7.31a.91.91 0 1 1 1.79-.37c2.26 11 6.19 21.45 9.63 32.09 4.18 13.76 8.12 27.64 11.93 41.49 1.68 5.21 3 10.52 4.82 15.7.85 2.61 1.79 5.19 2.63 7.8a1 1 0 0 1-.61 1.29 1 1 0 0 1-1.21-.49Z"></path><path d="M66.47 339.12c-3.55-1.45 7-2.22 7.79-2.36 13.28-.87 26.6-1.13 39.91-1.24 13.52.16 27.06-.11 40.58.33a92.71 92.71 0 0 1 11.17.87c1.17.3 3.59-.35 3.69 1.23a.89.89 0 0 1-1 .79c-4.92-.32-9.83-.92-14.78-.87-29-.22-58-.57-87 1.15a.51.51 0 0 1-.36.1ZM127 397.52c-9.32-1.31-12.78-16.36-2.21-18.61 8.48-1.66 15.39 6.73 10.89 14.52-.66.89-1 2.95-2.31 2.68a.82.82 0 0 1-.48-1.06c.95-2.74 2.58-5.57 1.81-8.51-2.71-9-17.43-6.73-13.68 3.59 1.38 3.84 6.13 7.14 10.15 5.44a.82.82 0 0 1 1.4-.8c1.08 2.9-3.76 3.14-5.57 2.75ZM158.83 442.94c-11.65-.28-23.24-1.44-34.82-2.46-9.4-.58-18.9-.65-28.11-2.84-1.12.63-1.74-1.54-.19-1.32a157.2 157.2 0 0 0 22.29 1.93c12.79.5 25.5 2.18 38.31 2.48 5.43.28 10.86.1 16.29 0 7 .07 14 .36 21-.25 1.95-.14 3.89-.23 5.84-.31a.86.86 0 0 1 .85.75c0 1.39-1.93 1.06-2.87 1.25-3.39.22-6.78.45-10.18.56-9.47.15-18.95.19-28.41.21Z"></path><path d="M249.07 442.24c-16.37-.31-32.76.1-49.12-.57-.64 0-.54-1.1.17-.86 1.29.12 2.63-.08 3.93-.08 17.43-.51 34.87-.59 52.3-.46 6.58-.23 13.19-.28 19.63-1.55a2.42 2.42 0 0 0 1.53-1.92c-7.69-1.09-15.48 1.07-23.23.87-13.65.24-27.3.38-40.94-.19-4.1-.28-8.41.06-12.4-.68-2.15-2.5 5.45-1.36 6.56-1.58q33.06 1.5 66.15-.24c3.67-.1 7.9.1 4.36 4.66-3.64 2.26-8.44 1.56-12.57 2.16a162.61 162.61 0 0 1-16.37.44ZM200.46 434.52a.39.39 0 0 1 .28-.43c3.27-6.52 14.4-5.85 20.7-5.7a.55.55 0 0 1 .46.63.54.54 0 0 1-.46.46c-6.79.94-15.53-.88-20.25 5.22a.44.44 0 0 1-.6.07.41.41 0 0 1-.13-.25Z"></path><path d="M201.13 433.36c-.74-.81.78-1.56 1.17-2.2 4.21-4.92 10.72-7.88 17.22-6.87a.65.65 0 0 1 .53.75.66.66 0 0 1-.53.53c-6 .13-11.75 2-16.13 6.22-.72.4-1.39 2.04-2.26 1.57Z"></path><path d="M201.83 432.29c2.67-2.78 5.1-6.27 8.55-8.35 9.09-5.15 20-1.68 29.88-2 .91.17 3-.11 3.1 1.08-.37 1-2 .41-2.87.59-12.08.62-26.28-4.52-35.27 6.37-.72.49-2.85 4.08-3.39 2.31Z"></path><path d="M242.82 422.85a.31.31 0 1 1 .29.31.3.3 0 0 1-.29-.31Z"></path><path d="M242.08 423.76a.4.4 0 0 1-.3-.47.36.36 0 0 1 .22-.29c2.52-1.28 4.92-2.75 7.52-3.84 8.92-4.06 18.21-7.39 27-11.63 5.56-2.84 11.31-5.21 17.1-7.5 1-.39 2.07-.81 3.11-1.19a.89.89 0 0 1 1.08.41c.61 1.57-2.41 1.81-3.36 2.44-3.55 1.42-7.09 2.87-10.55 4.5-8.1 3.86-16.3 7.45-24.57 10.92-5.75 2.21-11.33 5.19-17.25 6.65ZM270.41 435.37a.68.68 0 0 1 .62-.74l4.78-.7h.1c5.32-.83 10.61-1.93 15.95-2.69l.84-.11.89-.15c1.79-.29 3.58-.66 5.37-1 .84-.18 1.69-.34 2.53-.51s1.65-.38 2.46-.61l1.66-.5c.82-.25 1.65-.45 2.48-.65s1.73-.42 2.56-.66l.45-.13c.94-.29 1.86-.6 2.77-1s1.77-.72 2.64-1.11 2-1.07 2.83-1.6c.27-.18.55-.35.82-.54s.53-.39.79-.6l.5-.45c.17-.15.33-.33.49-.5q.94-1.06 1.8-2.19c.22-.31.41-.63.6-.95.25-.48.49-.95.7-1.44s.42-1 .64-1.51.43-.92.67-1.37.44-.93.63-1.4c.26-.69.46-1.4.66-2.11s.45-1.51.69-2.27c.44-1.36.85-2.74 1.21-4.13.06-.32.13-.65.2-1s.11-.72.16-1.09c.17-1.47.34-2.94.5-4.29.13-1.15.25-2.29.42-3.44s.32-2.2.46-3.31c.07-.63.14-1.27.18-1.91s0-1.28.05-1.93v-3.94c0-1.31.11-2.57.24-3.84s.38-2.51.54-3.77c0-.33.09-.66.13-1v-.4a4.51 4.51 0 0 1 0-.82 5.84 5.84 0 0 1 .17-.81.78.78 0 0 1 1.48.47v.09c0 .17-.05.34-.07.51V374.1c0 .45-.05.9-.09 1.35s-.09 1.06-.15 1.59-.14 1-.21 1.46a69.58 69.58 0 0 0-.27 7.64 36 36 0 0 1-.15 3.88c-.15 1.38-.35 2.77-.54 4.15-.06.4-.11.81-.14 1.1-.17 1.44-.33 2.9-.49 4.27s-.3 2.67-.55 4-.64 2.47-1 3.68-.78 2.4-1.11 3.61c-.18.61-.35 1.22-.57 1.8s-.47 1.14-.74 1.7-.52 1.06-.77 1.6-.49 1.15-.77 1.72-.62 1.15-1 1.7c-.19.28-.39.56-.6.82s-.4.53-.62.78c-.45.53-.9 1.06-1.39 1.56a11.67 11.67 0 0 1-1.45 1.27 33.41 33.41 0 0 1-3.4 2.06 25.89 25.89 0 0 1-2.8 1.24c-.89.34-1.76.72-2.66 1s-1.93.63-2.91.89-1.89.49-2.82.75c-1.22.37-2.42.78-3.64 1.11-.63.17-1.28.3-1.92.43l-1.93.4c-1.3.26-2.6.52-3.91.72s-2.71.37-4.08.53c-3.15.38-6.31.86-9.45 1.34h-.09l-2.33.36h-.19l-.36.06h-.1l-1 .17-.75.11-.47.07h-.57c-1.63.26-3.28.48-4.92.71h-.07a.7.7 0 0 1-.61-.36Z"></path><path d="M332.93 372a.75.75 0 0 1 .81-.69.74.74 0 0 1 .69.76.75.75 0 0 1-.81.69.74.74 0 0 1-.69-.76ZM196.62 366.78c-5.45-.24-11.2-1.24-15.64-4.59a13.36 13.36 0 0 1-4.9-3.92.51.51 0 0 1 .76-.68 5.75 5.75 0 0 0 .44.54 13.89 13.89 0 0 0 4.36 2.63 33.49 33.49 0 0 0 8.29 3.92c.62.32 8.72 1.32 6.69 2.1ZM166.58 337.91a2.17 2.17 0 0 1 .19-1.62c.73-1.53 1.47-3.06 2.13-4.61.5-1.18 1.18-2.28 1.66-3.46a.56.56 0 0 1 .73-.24l.12.08c.34-.36.58-1.26 1.19-1.06a.43.43 0 0 1 .22.51c-.24.62-.56 1.2-.84 1.8-1.54 2.74-1.87 6.26-4.34 8.43-.23.36-.76.6-1.06.17ZM329.58 291.38a.49.49 0 0 1 0-.63c1.93-1.91 3.95-3.73 6-5.55 5.16-4.54 10.28-9.32 14.1-15.09 1.66-2.5 3.55-5.35 3.25-8.49-.86-3.72-3.41-6.77-6.14-9.31a85.88 85.88 0 0 0-14-11.72c-1.92-.88-3.8-2.7-6-2.42-1.6.74-2.54 2.2-3.77 3.37a36.6 36.6 0 0 0-3.21 3.14c-5.62 6.21-11.72 11.95-18.9 16.31a.72.72 0 0 1-1-.18c-.7-1.14 2.05-2 2.67-2.73a109 109 0 0 0 12.66-11.53c3.47-3.46 6.69-7.41 10.83-10.06 2.41-1 4.75.9 6.83 1.92 5.76 3.29 10.48 8 15.23 12.6a23.46 23.46 0 0 1 6.38 9c1 3.38-.72 6.91-2.44 9.76-4 6.19-9.46 11.26-15 16.11q-3.29 2.94-6.85 5.56a.49.49 0 0 1-.64-.06ZM354.47 354.89a.8.8 0 0 1 .6-.94c1.68-.4 3.37-.77 5.06-1.15 4.1-.95 8-2.39 12-3.54a89.81 89.81 0 0 0 8.88-3.26c1.54-.58 3.21-1.08 4.36-2.32a9.2 9.2 0 0 0 2.14-3.19 24.82 24.82 0 0 0 0-6.09 83.46 83.46 0 0 0-2.17-14.75c-1.27-5.43-2.57-10.91-5.66-15.57-.43-.52-.7-1.74-1.54-1.37-4.23 1.41-8.44 2.89-12.64 4.39-9.91 2.15-19.68 4.87-29.5 7.4a.62.62 0 0 1-.75-.48.64.64 0 0 1 .48-.75c2.68-.65 5.17-1.44 7.78-2.22 7.73-2.08 15.49-4.31 23.18-6.34 3.5-1.41 7.11-2.52 10.71-3.66a2.6 2.6 0 0 1 3.38 1.51c4.82 5.77 11.6 34.4 7.12 40.38a12 12 0 0 1-6.43 4.61c-5 2.43-10.3 3.95-15.56 5.62a58.77 58.77 0 0 1-10.64 2.34.8.8 0 0 1-.8-.62Z"></path><path d="M328.87 237c-1.44-.82.21-2.49.45-3.61 2.28-5 2.67-10.65 3.92-15.87 1.62-8.42 1.24-17 1.51-25.53.34-9.1.89-18.19.89-27.3 0-.6 1-.63 1 0 .12 8.23-.05 16.45-.21 24.69.14 11.08.38 22.29-2.1 33.16-.44 2.33-2.76 15.29-5.46 14.46ZM351.31 256.92c-.75-.62.31-1.69.45-2.32 2-7.09 4.06-14.17 4.63-21.55a171.75 171.75 0 0 0 1.09-25.65c.1-12.09-.25-24.28-1.33-36.29-.17-1.43-.34-2.86-.48-4.29a.73.73 0 0 1 .62-.81c1.31 0 .74 2.1 1 3 2 12.56 2.26 25.35 2.23 38.05a160.05 160.05 0 0 1-2.34 34.28c-.55 2.13-3.38 17.17-5.87 15.58Z"></path><path d="M336 165.53a28.37 28.37 0 0 1-.94-10.13c.16-4.39.6-8.77 2.42-12.82 1.64-4.18 3.05-9.68 7.58-11.56a2.14 2.14 0 0 1 2.65.88c1.45 2.77.51 6.18-.39 9-.74 2.29-2.37 5.06-1 7.38 2.92 1.13 5.93-.71 8.66-1.64a46.55 46.55 0 0 0 15-9.75.74.74 0 0 1 .94-.18c1.7 1.58-4.67 5.22-5.76 6.28-3.58 2.88-21.54 13.4-21 3.19.17-4.41 3.51-8.59 2.09-13.08-.41-.93-1.56.1-2.1.46-4 4.15-5.48 10-6.78 15.49-.56 5.41-.62 10.78-.81 16.13.3.44-.29.98-.56.35Z"></path><path d="M335.35 146.21c-15.23-12.86-21.07-36.47-12.72-54.72 7.06-16.44 21.73-30.4 39.54-34.06 10.47-1.81 21.18 3.34 27.76 11.41a38.68 38.68 0 0 1 6.19 33.52c-3.13 14-10.64 27.84-23.37 35.21a.68.68 0 0 1-.88-.39.67.67 0 0 1 .14-.71c2.23-2 4.88-3.43 7-5.49a42.13 42.13 0 0 0 6-6.61c5.75-7.82 8.63-17.43 10.29-26.87 2.54-10.36-1.59-22.71-9.11-30.1-4.61-5-11.13-7.61-17.71-8.64-6.35-.51-12.27 1.55-17.81 4.39-15.42 7.36-26.7 23.29-30.09 39.85-1.68 13.41 2.76 27.22 11.16 37.68 1.45 1.57 3 3 4.59 4.47a.75.75 0 0 1 0 1.06.77.77 0 0 1-.98 0Z"></path><path d="M357 165.75c-2.15-.64 4.58-4.66 5.07-5.78 3.61-3.43 7.42-6.83 10.2-11a41.35 41.35 0 0 0 4.84-11 10.55 10.55 0 0 0 .18-3.22.64.64 0 0 1 .58-.69.63.63 0 0 1 .64.37c.77 2.61-.39 5.24-1.12 7.73-3.5 9.82-11.42 17.35-19.79 23.18a.56.56 0 0 1-.6.41ZM366.23 146.24c-.21-.51.22-.86.65-1 2.45-1.67 3.27-4.63 4.76-7 .45-.7.55-2.19 1.67-1.94a.87.87 0 0 1 .6 1.07c-.15 1.63-6.08 11.07-7.68 8.87ZM336.62 124.38c0-1 1.32-.9 2-1.18 2.43-.4 4.8-1.41 5.82-3.77a82.44 82.44 0 0 1 5.18-9.45c1.19-2.19 2.51-4.23 2.78-6.69s-.55-5.41-3.13-6.18a9.6 9.6 0 0 0-10.07 2.44c-2 2.68-3.69 5.62-6 8.09-3.11 2.55-3.46 6.63-1.5 10a4.61 4.61 0 0 0 2 2.32c.76.34 2.1-.51 2.31.71a.83.83 0 0 1-.73.92h-.09c-4.1.23-6-4.49-6.52-7.9s2-6.12 4.36-8.26a43.61 43.61 0 0 0 4-5.67c5.3-7.78 18.71-6.16 16.74 5-1.13 4.42-4.18 7.93-6.06 12-1.48 3.59-3.54 7.48-7.8 8-.91.05-2.99.8-3.29-.38ZM343.67 92.25c-3-.13-5.28-3-6.18-5.64-.29-2.78 1.31-6.36 3.93-7.58a6.06 6.06 0 0 1 5.55.72 4.57 4.57 0 0 0 1.42.31 9.74 9.74 0 0 1 1.6.36c1.1.6 1.45 2 1.64 3.17.5 2.83-1.4 5.28-3.83 6.49a.49.49 0 0 1-.68-.2.5.5 0 0 1 .08-.58c1-1 2.29-1.86 2.88-3.17a6 6 0 0 0-.63-5c-.42-.5-1.1-.39-1.67-.51-3.19-.84-5.94-1.4-7.67 2.06a9.46 9.46 0 0 0-1.2 3.51 7.8 7.8 0 0 0 2.68 4.15 2.91 2.91 0 0 0 1.89.54.72.72 0 0 1 .87.53s0 0 0 .06a.71.71 0 0 1-.62.78ZM359.75 90.3c-2.1-.65-3-2.93-4.18-4.58a9.13 9.13 0 0 1 .81-10.72 17.57 17.57 0 0 1 6.22-4.79 8.07 8.07 0 0 1 4.34-2.79c2.41-.67 4.8.25 7.07 1A6.89 6.89 0 0 1 379 74c1.06 9.92-6.16 13.87-14.8 15.22a.6.6 0 0 1-.62-.36c-.3-1.38 3.72-1.9 4.71-2.06 2.2-.84 5-2.06 6.61-3.74 2.65-3.37 3.81-8.81.66-12.2a10 10 0 0 0-7.39-2.36c-2.69.85-5.43 1.83-7.43 3.92-2.45 2.78-6 6.15-5 10.19a15.21 15.21 0 0 0 3.68 6.14 2 2 0 0 0 .66.27.64.64 0 0 1 .45.79.63.63 0 0 1-.79.45ZM369.76 115.27c-3.77-1.61-5.85-5.89-5.91-9.85a.72.72 0 0 1 .62-.79c1.31 0 .78 2.32 1.14 3.18 1.61 6.35 5.85 7.85 11.76 5.84a16.74 16.74 0 0 0 11-12.6c1.14-5.53 1.82-10.68-5.45-11-2.22-.33-4.54-1-6.76-.61-5.52 1.94-10.72 6.47-10.89 12.64-.09.55.18 1.51-.64 1.55-1.42-.21.05-4.76.26-5.78a15.28 15.28 0 0 1 11.3-9.35A39.87 39.87 0 0 1 387 89.83c3 1.3 3.81 4.75 3.26 7.72-.33 3.47-.83 7.13-3.05 10-3.59 4.98-11.21 9.19-17.45 7.72ZM358 131.16a6.26 6.26 0 0 1-3.41-3c-.29-.75-1.18-2.38-.27-2.92a.69.69 0 0 1 .84.29c2.21 4.23 6 6 9.7 2.27 1.63-1.72.61-4.32-.43-6.08-2-3.32-6-1.65-8.49.07a3.88 3.88 0 0 0-1.9 2.42.33.33 0 0 1-.39.28.33.33 0 0 1-.28-.28 2.35 2.35 0 0 1 .5-1.53c2.31-2.74 7-5.47 10.22-2.7 2.09 1.94 3.94 5.48 2.2 8.17-1.82 2.54-5.29 4.4-8.29 3.01ZM452.4 224.66c-.78-.93 1.27-2.58 1.86-3.3 3.91-3.33 9.59-3.86 13.07-7.82 1.49-1.42 1.4-4.1-.72-4.82s-4.31.39-6.46.55c-4.9.78-9.69 2.45-12.89 6.42q-3 3.48-5.65 7.19c-.3.4-.95-.08-.63-.48 3.73-4.85 7.14-10.69 13.15-12.9 2.3-.74 4.71-1.13 7.07-1.66 2-.42 4.11-.84 6.12-.13 3 1.08 2.93 4.92.7 6.8-3.14 3.26-7.45 4.7-11.29 6.92-1.33.94-2.35 2.24-3.61 3.23a.57.57 0 0 1-.72 0Z"></path><path d="M452.23 230c-2.07-.88-1.37-3.55-.37-5 .56-.81 1.53.46.59.79-1.64 3.81 1.14 3.61 3.94 3 3.15-.82 5.57-3.08 8.48-4.38 2.52-1.23 6-2 6.72-5.11a3.11 3.11 0 0 0-.43-2.34.61.61 0 0 1 .35-.79.59.59 0 0 1 .64.13c1.5 2 .37 4.77-1.24 6.34s-3.93 2.15-5.82 3.11c-3.96 2.09-8.09 5.45-12.86 4.25ZM470.32 214.78c-.45-.37-.83-.86-1.31-1.2a.31.31 0 0 1-.34-.28.32.32 0 0 1 .27-.34 4.5 4.5 0 0 1 2 1.08.49.49 0 0 1-.6.78h-.05Z"></path><path d="M456.22 237.63c-2.71-.18-5.32-2.78-4.34-5.59.27-.84.53-1.57.85-2.37a.51.51 0 0 1 .67-.27.52.52 0 0 1 .27.68 6.78 6.78 0 0 0-.76 3.61c2.35 6.49 13.9-.42 17.44-2.92 4.35-3.66 2.75-6.35 2-11.05a.59.59 0 0 1 .44-.57c.52-.13.75.43.92.83.78 2.33 1.42 4.89.78 7.32a14.14 14.14 0 0 1-7.32 6.85c-3.35 1.85-7.07 3.52-10.95 3.48Z"></path><path d="M460.79 243.2c-2.7-.39-5.76-1.34-5.59-4.63.07-.54-.39-1.82.46-1.82a.45.45 0 0 1 .37.52.36.36 0 0 1-.07.18 5.49 5.49 0 0 0 .89 3.25 8 8 0 0 0 6.91.92 28.69 28.69 0 0 0 6.61-3.45c2.34-1.31 4.57-3.39 4.2-6.28-.06-1.37-.42-2.71-.5-4.07a.63.63 0 0 1 1.22-.23c1.1 3.24 1.15 7.26-1.47 9.81-3.67 2.89-8.17 5.95-13.03 5.8Z"></path><path d="M465 247.93c-4.08-.2-6-1.49-7-5.49-.56-.36.17-1.13.55-.56.51.88.64 2 1.15 2.82.94 1.58 2.79 1.89 4.44 2.12 2 .16 3.8-.88 5.56-1.74a10.42 10.42 0 0 0 3.57-4.9 6 6 0 0 0 .82-3.33.63.63 0 0 1 .55-.61c1.31.08.73 2.54.39 3.33a13.08 13.08 0 0 1-3.93 6.13 14.18 14.18 0 0 1-6.1 2.23ZM453.27 209.39c-1.48-5.26-3.07-10.69-3.49-16.13a.54.54 0 0 1 .72-.25.53.53 0 0 1 .31.45c1.46 5.13 3.14 10.24 4.12 15.49a.88.88 0 0 1-.78 1 .86.86 0 0 1-.88-.56ZM463.24 208.29a127.63 127.63 0 0 1-3.09-13.65c-.22-1.34-.44-2.68-.63-4a.79.79 0 0 1 .66-.89.78.78 0 0 1 .88.66c.32 2.39.81 4.74 1.32 7.09.78 3.45 1.8 6.89 2.32 10.38a.79.79 0 0 1-1.46.39Z"></path><path d="M444.32 195.59a.52.52 0 0 1 .27-.66 158.37 158.37 0 0 1 23.85-8.29c0-1.65-.21-3.29-.33-4.93a.73.73 0 0 1 .53-.68c1.84-.11 1.12 4.37 1.25 5.58a1.31 1.31 0 0 1-.1 1c-5.76 2.32-12 3.66-17.87 5.64-2.33.84-4.64 1.72-6.94 2.61a.5.5 0 0 1-.66-.27ZM441.45 196.28c-1.71-.82-1.7-3.21-2.63-4.69-.18-.7-1.47-1.25-.68-2 1.36-.72 2.94 3.37 3.5 4.35.36.71 1.28 2.45-.19 2.34Z"></path><path d="M438.39 189.72c-.05-.42.38-.52.69-.53a156.43 156.43 0 0 1 28.48-11.57c.89-.34 2.41.43 1.43 1.4a16.81 16.81 0 0 1-2.7.91 179.07 179.07 0 0 0-19.45 7.17c-1.51.3-7.84 4.05-8.45 2.62Z"></path><path d="M437.94 189.27c-4.05-8.39-9.38-16.08-14.09-24.09a28.25 28.25 0 0 1-4.07-6.69c-1.14-1.18.7-2.05 1.49-2.75 2.71-2 5.45-4.06 8.25-6a36.75 36.75 0 0 1 5-2.74c.4-.07.67.25.93.49 1.78 1.78 3.23 3.87 4.93 5.73-.2-.81-4-9.33-1.48-7.8 1.53 2.12 2.36 4.65 3.67 6.88-.12-1.08-3.11-10.39-.13-8.41 1.31 1.66 1.69 3.81 2.72 5.64.54 1 1.08 2.1 1.59 3.16a.64.64 0 0 1-.33.85.65.65 0 0 1-.81-.25 45.62 45.62 0 0 1-3.14-7.54c.39 2.57 1.27 5 1.49 7.62a1.56 1.56 0 0 1-.16 1.12c-1 .88-1.65-1-2.17-1.61.1.89 1.08 2.72.15 3.29-.4.19-.66-.21-.86-.49-2-2.52-4.36-4.85-6.48-7.25-5 2.44-9.45 5.94-13.86 9.29a115.79 115.79 0 0 0 7.29 11.77A205.74 205.74 0 0 1 438.62 188c.25.49.84 1.16.21 1.58a.62.62 0 0 1-.86-.22Z"></path><path d="M446.07 153.38c-.6-2.44-.81-5-1.68-7.37-.09-.63-1-1.65-.43-2.14a.38.38 0 0 1 .51.19c1.23 2.9 1.72 6 2.66 9a.55.55 0 0 1-1.06.31Z"></path><path d="M468.26 176.77c-.59-11.88-1.93-23.71-2.38-35.6-5.11.06-10.25.19-15.19 1.49a19.45 19.45 0 0 0-6 1.5.56.56 0 0 1-.77-.21c-.37-1.4 4.68-2.08 5.77-2.46 5.28-1.19 11-2.25 16.31-.93a.33.33 0 0 1 .46.06.36.36 0 0 1 .07.26c1.28 6.28 1.26 12.73 2.18 19.07.19 1.05 1.57 19.76-.45 16.82ZM380.72 303.37c-1.41-.35.07-1.53.72-1.9A64.3 64.3 0 0 0 396 289.05a157.16 157.16 0 0 0 13.3-17.42c5.19-7.16 10.73-14.14 15.24-21.74C431 240.61 435.43 230.2 442 221c.5-.7 1-1.37 1.41-2.09a.49.49 0 0 1 .67-.2c.93.41-1.31 2.74-1.52 3.39-8.92 16.93-18.78 33.45-30.45 48.68-8.64 12.28-17.77 25.63-31.39 32.59ZM404.43 326.2a.8.8 0 0 1-.09-1.05c1.88-2.19 3.94-4.25 5.77-6.49 7.93-9.39 15.91-18.86 22.3-29.39a203 203 0 0 0 17.7-33.17c1.28-2.47 5.77-14.85 8.33-14.28a.46.46 0 0 1 0 .64.44.44 0 0 1-.4.11c-4.07 6.42-6.19 13.92-9.42 20.76-5 11-11.26 21.39-17.75 31.56-6 9.11-13 17.49-20.05 25.8a52.73 52.73 0 0 1-5.32 5.56.82.82 0 0 1-1.07-.05Z"></path><path d="M388.41 338.61a.87.87 0 0 1 .37-1.18l.12-.05c1.2-1.09 2.64-1.88 3.87-2.95 2.55-2.27 5.63-4 8.25-6.1a55.5 55.5 0 0 1 5.73-5 .57.57 0 0 1 .8.08.6.6 0 0 1 .06.62 16.1 16.1 0 0 1-1.16 1.32 61 61 0 0 1-10.86 9.35c-1.71 1.2-3.35 2.38-5.08 3.53-.62.38-1.51 1.25-2.1.38ZM157.42 328.89c-5.31-2.35-10.8-4.25-15.72-7.42a70.76 70.76 0 0 1-14.46-11.81c-3.75-6 1.27-18.84 4-24.87a49.6 49.6 0 0 1 6.57-10.1c1.15-2 2.94-3.2 5.29-2.41 4.12 1.27 7.67 4 11.3 6.27 4.79 3.42 9.73 6.58 14.62 9.86a61.3 61.3 0 0 0 9.12 5.11.88.88 0 0 1 .42 1.06c-.54 1.51-3.93-.71-5-1-9.33-5.24-17.74-12.07-26.94-17.49l.1.06c-1.81-1-3.87-2.56-6-2a56.43 56.43 0 0 0-11.24 20.69 33.75 33.75 0 0 0-2 10.47 5.75 5.75 0 0 0 .54 3A81 81 0 0 0 151.24 325c2.19 1 4.46 1.9 6.62 3 .58.26.14 1.21-.44.89ZM172.37 276.28c-8.37-8.78-17-17.78-22.26-28.84-3.38-6.43-1.65-9.6 2.84-14.68 6.63-7.08 13.55-15.09 23.1-18 4.07-1.33 6.45 3.05 8.53 5.79 2.14 3.1 4.48 6 6.75 9 1.18 2.18 10.26 10.92 8.82 12.33-1.21.79-3.25-2.46-4.13-3.23-4.37-5-8.39-10.27-12.24-15.63-5-7.36-5.13-7.92-13.17-3.34-5.36 3.5-10 8.07-14.4 12.66-2.09 2.25-4.35 4.61-5.71 7.34-.69 1.58 0 3.27.5 4.79a45.82 45.82 0 0 0 4.81 9 106 106 0 0 0 9.72 12.88c2.56 3 5.05 6 7.79 8.81.68.65-.27 1.77-.95 1.12Z"></path><path d="M151.72 233.57a149.28 149.28 0 0 1-13.07-47.17 166 166 0 0 1-1.15-41.4c.07-.65.35-1.5 1.15-1.43 1.64.32.51 3.09.61 4.26-1.68 21 .9 42.14 5.86 62.53 1.62 7.88 5.09 15.19 7.21 22.92.45.05.29.74-.08.77s-.42-.28-.53-.48ZM178 215c-9.26-12.34-14.54-27.19-19-41.84a170.72 170.72 0 0 1-4.81-19.94c-1-5.22-2.42-10.58-2-15.93.13-.59 0-1.54.83-1.6a.72.72 0 0 1 .73.58c.1.55.18 1.1.24 1.66 2.52 26.74 11.44 52.48 24.05 76.08.43.11.66 1.18-.04.99Z"></path><path d="M146.86 123.55a3.68 3.68 0 0 0 3.09-2.89c-4.79-15.08-8-30.68-10.78-46.22-2.56.23-4.86 1.51-7.12 2.62-2.78 1.36-5.91 2.38-7.74 5-1.6 2.25 0 4.75.88 6.93 1.3 2.3 2.17 4.81 3.52 7.07 3.15 5.62 7.62 10.4 10.54 16.19 2.34 3.63 2.82 8.93 6.85 11.15a3.34 3.34 0 0 0 .76.15Zm6.46 12.4a.54.54 0 0 1-.33-.71.24.24 0 0 1 .06-.11 18.08 18.08 0 0 1 1.85-5.19 17.89 17.89 0 0 0 1.51-13.28c-.7-2.55-1.08-5.17-2.43-7.46-.24-.36-.88-1.51-1.34-1.24-1 .91-1 2.41-.92 3.66.25 3.25.48 6.48-.45 9.64-1.19 3.8-5.37 5.32-8.16 2.1a12 12 0 0 1-2.67-4.65 56.61 56.61 0 0 0-2.87-6c-2.8-4.94-6.32-9.43-9.45-14.14A90 90 0 0 1 122.31 85c-.5-5.62 5.82-7.77 10-9.72 2.22-1 4.68-2.37 7.2-1.7a1.2 1.2 0 0 1 .76.83c.67 2.46.91 5 1.52 7.5 2.7 12.19 4.66 24.59 8.62 36.44.26-3.17-1-6.34-.24-9.49 1.66-5.07 5.05-2.49 6.46 1.13 2.07 6 3.56 12.73.9 18.77-1.06 2.31-2.27 4.56-3.46 6.8a.56.56 0 0 1-.67.42ZM138.36 144.77c-4.36-3.36-7.34-8.23-10.14-12.89-3-5.7-6.06-12.21-3.9-18.73.41-1.51 1-3.85 2.93-3.8 3.42 1.08 3.05 5.64 4.18 8.44.78 2.92 2.34 5.5 3.72 8.16a.62.62 0 0 1-.23.8c-1.2.74-3.86-5.2-4.25-6.25-1.11-2.71-1.33-5.69-2.4-8.39a2.47 2.47 0 0 0-1.12-1.16c-6.29 11.92 5.44 23.56 11.44 33.12a.38.38 0 0 1 .21.48.36.36 0 0 1-.44.22Z"></path><path d="M137.1 124.19c-1.65-2.12-2.21-4.89-3.13-7.35s-2.08-4.64-3.24-6.88a7 7 0 0 0-2.29-2.84 4.44 4.44 0 0 0-1.12 2.5.72.72 0 0 1-1.41.24.82.82 0 0 1 0-.27c.51-1.5 1-4.91 3.3-3.83 1.67 1 2.44 2.91 3.31 4.57a67.8 67.8 0 0 1 4.16 9.58c.48 1.2 1.08 2.34 1.6 3.52a.71.71 0 0 1-.34.95.73.73 0 0 1-.86-.18Z"></path><path d="M130.71 108.51a13.94 13.94 0 0 0-.73-1.85c-.35-1.35-.17-3.16 1.21-3.86a.79.79 0 0 1 .91 1.24 3.19 3.19 0 0 0-.61.76 5.67 5.67 0 0 0-.42 2.73c.27.56.29 1.4-.36.98ZM154.12 107.57c-1.67 0 1-9.63.95-11.25.52-4.34.43-8.75 1.34-13 .44-3.21 1.87-6.51 1.66-9.73-5.09-3.21-12.15-2.37-17.51-.37a2.08 2.08 0 0 0-.88.78.63.63 0 0 1-.74.49h-.07c-1.64-1.13 2.09-2.9 3-3.19 5.54-1.59 13.28-3.14 17.57 1.71.44 2.52-.47 5.14-.85 7.64-1.94 8.74-1.83 17.74-3.85 26.48a.63.63 0 0 1-.62.44Z"></path><path d="M156.82 109.08c-1.11-.92 3.74-5.53 4.38-6.67 3.57-4.94 7.66-9.47 11-14.61 1.22-2 2.89-3.82 3.88-5.93.2-.86-.73-1.56-1.2-2.13-3.67-3.43-8.5-5.06-13.27-6.24a12.27 12.27 0 0 0-1.79-.53.37.37 0 0 1-.39-.34c0-.5.59-.38.93-.33A30.74 30.74 0 0 1 172 75.46c7.4 5.37 6.28 6 1.51 12.87-3.34 5.22-7.13 10.12-10.8 15.09a72.11 72.11 0 0 1-5 5.66.72.72 0 0 1-.89 0Z"></path><path d="M158.7 115.25c-1.94-3 25.3-14.51 24.83-20.33a17.07 17.07 0 0 0-5.2-11.81c-.33-.6-1-1.32-.74-2 .28-.48 1.06-.13.8.4.93 1.09 2.34 1.64 3.23 2.78A19.86 19.86 0 0 1 185 95.44c-.64 3.26-3.79 5.26-6.3 7.1-4.62 3.39-9.6 6.25-14.29 9.53-1.64 1.12-3.12 2.21-4.65 3.32a.83.83 0 0 1-1.06-.14Z"></path><path d="M159.48 122.31c-2.35-1.84 3.94-2.44 5-2.91 4.8-1.34 9.81-1.72 14.66-2.63 2-.82 4.43-.8 6.37-1.85 1.58-1 3.53-2.12 3.73-4.16a22.48 22.48 0 0 0 .19-4.26c-.23-1.26-.71-2.44-.83-3.72-.3-2.23-1.83-3.91-2.74-5.89-.13-.47-1.12-1.24-.64-1.66a.35.35 0 0 1 .49.1c.4.59.79 1.19 1.23 1.76 1.61 1.87 3.22 3.59 3.2 6.23a13.7 13.7 0 0 1 .46 6 7.67 7.67 0 0 1-.94 3.91 11.84 11.84 0 0 1-7 4.15 29.79 29.79 0 0 1-8.75 2.12c-4.62.79-9.85 2.55-14.43 2.81ZM125 302.35a62.29 62.29 0 0 1-12.71-9.84c-6.06-5.61-12.13-11.23-17.66-17.37C83 261.69 72 247.46 64.42 231.29c-.56-1.18-1.11-2.35-1.64-3.54a.55.55 0 0 1 .27-.73.56.56 0 0 1 .74.27c.57 1.3 1.19 2.58 1.8 3.86 10.13 19.55 24.14 37 39.87 52.33 4.43 4 8.68 8.38 13.28 12.18 2.3 1.91 4.94 3.4 7.13 5.42a.8.8 0 0 1-.14 1.13.78.78 0 0 1-.73.14ZM136.56 276.63c-4.66-2.21-8.5-5.92-12.74-8.84-9.32-6.93-17-15.55-25.64-23.3-8.79-8.07-15.06-18.4-23.2-27.08a.82.82 0 0 1 1.26-1c6.32 6.94 12 14.42 18.18 21.48 7.77 7.4 15.57 14.77 23.22 22.31 4.22 3.66 8.55 7.22 13.1 10.47l6.41 4.85a.65.65 0 0 1 .14.92.66.66 0 0 1-.73.19ZM74.81 216c-4.38-3.8-7.07-9.4-12.31-12.34-2.75-1.42-5.75-3.75-9-3-.82.24-.66 1-.23 1.51 1.48 1.79 3.83 2.6 5.05 4.63 1.36 3.89-4.66 2.92-6.78 2.3-4.52-1.23-8.57-3.82-12.26-6.62-1-.55-2.26-1.84-3.4-1.42a12.47 12.47 0 0 0 4.93 5.86c1.43 1 3 1.68 4.48 2.57a.49.49 0 0 1 .24.58c-.51.83-1.92-.38-2.63-.56a17.34 17.34 0 0 1-7.18-6.29c-.58-.94-1.61-2.43-.39-3.29 2.66-1.22 5.91 2.28 8.14 3.46 3.88 2.16 7.9 4.56 12.44 4.74 2.13 0 1.07-1.07.06-1.89-1.72-1.4-4.16-2.49-4.77-4.8-.19-3.11 4-3.21 6.12-2.41 7.51 2.83 14.37 8.67 17.7 16.05a.32.32 0 0 1 .38.25.35.35 0 0 1 0 .2c.07.35-.26.77-.59.47Z"></path><path d="M62.4 227.58c-7.44-1.72-15.61-.25-22.39-4.5-3.09-1.73-6.58-3.48-8.18-6.82-.42-1-.83-2.52.21-3.26 2.81-1.51 7.93 3.87 10.53 5.19 1.74 1 3.58 1.46 5.37 2.31a.45.45 0 0 1-.3.83 14.36 14.36 0 0 1-3.22-.82c-4.24-1.17-7.17-5.46-11.42-6.32.63 3.91 4.84 5.63 7.9 7.39a28.23 28.23 0 0 0 11.33 3.36c3.43 0 7 .16 10.13 1.8.26.19.78.33.6.75a.37.37 0 0 1-.5.13Z"></path><path d="M46.57 217.31c-5.06-1.14-8.89-5.22-13.6-7.26a2.13 2.13 0 0 0-1.34-.2 2.11 2.11 0 0 0 0 2.4c.3 0 .51.48.26.68s-.67-.17-.86-.42c-1.51-1-1.45-4 .6-4.23 3.69.37 6.81 3.37 10 5.09a57.61 57.61 0 0 0 5.31 2.71.65.65 0 0 1-.35 1.23Z"></path><path d="M45.22 211.71c-3.23-1-5.94-3.28-8.72-5.13-1.21-.81-6.05-4.89-4.7-.78a10 10 0 0 0 1.56 2.2.64.64 0 0 1-.08.88.65.65 0 0 1-.88-.08 13.61 13.61 0 0 1-2.28-3.2c-.58-1.32.12-3.25 1.75-3.21 1.32 0 2.42.89 3.49 1.57 1.94 1.22 3.82 2.54 5.77 3.75 1.7 1 3.32 2.22 5.29 2.6a.78.78 0 0 1-.12 1.54 4.88 4.88 0 0 1-1.08-.14ZM48.18 190.22h.39c-.29-4 3.88-5.58 6.58-7.51 3-2.35 5.94-5.41 7-9.07.84-2.74.31-5.46-.5-8.1C60 158.88 54.16 153 47.12 152.8a30.56 30.56 0 0 0-6.31 1.73c-2.39.76-4.92 1.74-6 4.21-3.6 6.14-1.83 13.84 1.29 19.81 1.9 3.4 5 6.14 5.65 10.17a.4.4 0 0 1 .24.36c2.15.12 4.01 1.38 6.19 1.14Zm-5.62 6.45a4.52 4.52 0 0 1-2.4-1.9c-.33-.91.69-1.34 1.45-1.23-1.89-.62-2.55-3.52-.44-4.3-1.7-3.51-4.43-6.34-6.35-9.72-4-7.27-5.68-17.34.32-24 3.37-2.47 7.78-3.64 11.86-4.36 7.15.09 13.65 5.25 16 11.91 3.21 8.13 1.6 14.07-4.94 19.78-2 1.95-4.85 3-6.81 5-1 1-.24 2.64-1.25 3.66a2.82 2.82 0 0 1-2.18.65 13.88 13.88 0 0 1-5.08-1c-.79-.29-1.52 0-.51.6 2.06 1 4.47.42 6.53 1.35 1.78 2.17-3.89 1.88-5 2.11 2 .43 4-.44 6-.71a.82.82 0 0 1 .37 1.58c-2.39.8-5.1 1.58-7.55.64Z"></path><path d="M51.69 172.09h.07a5.14 5.14 0 0 0 2.35-3.57.45.45 0 0 0-.35-.52.49.49 0 0 0-.24 0c-1.48.63-1.51 2.73-1.9 4.09Zm-10.22 1.4a7.55 7.55 0 0 0-1.28-3.16c-.03 1.11.14 2.67 1.28 3.16Zm1.11 16.34c-.06-4.78-.46-9.6-.79-14.4-2.46-.13-3.33-2.88-3.3-5-.08-1.14.78-2.72 2.1-2.11 1.74 1 2.43 3.08 2.81 4.94a3.72 3.72 0 0 0 1.54-1 .86.86 0 0 1 .86-.88.85.85 0 0 1 .8.51 1 1 0 0 1 .08.37 2.07 2.07 0 0 0 1 .75.89.89 0 0 0 .71-.28l-.06.05c.86-.63.76-2.59 2.07-2.45.4-1.35.87-2.87 2.18-3.59a2.13 2.13 0 0 1 3.18 1.38c.32 2.18-2 5.8-4.36 5.6-.68 4.63-1.77 9.18-2.64 13.77-.3.84-.09 2.31-1.25 2.25a.76.76 0 0 1-.62-.88c.82-5 2-9.92 2.75-14.91a2.58 2.58 0 0 1-3.65.11l-.07-.07a5 5 0 0 1-2.2 1.22 115.21 115.21 0 0 1 .13 14c.4.84-.95 1.5-1.27.62ZM27.58 182.45c-1-1.32 1-2.18 1.83-2.94.61-.38 1.08-1.49 1.93-.87.61.55.17 1.19-.35 1.53-.99.83-1.86 3.49-3.41 2.28ZM24.05 171c-.46-1.59 2.6-1.75 3.59-2.44a.94.94 0 1 1 .72 1.74h-.05c-1.17.28-3.44 2.18-4.26.7ZM28.79 162.93c-.89-.23-3.33-.57-2.86-1.9.65-1.15 1.8.2 2.66.29a.82.82 0 1 1 .37 1.59ZM31.18 155c-.37-1-2.6-2.24-1.37-3.24 1.15-.49 1.32 1.35 1.87 1.93.26.42.85 1 .3 1.43a.57.57 0 0 1-.8-.12ZM42.65 147.62c-1.39-.41-2.11-5.79-.12-5.59a.88.88 0 0 1 .71 1 5.72 5.72 0 0 0 .12 3 .9.9 0 0 1-.71 1.63ZM51 148.28c.13-1.05 1.64-5.32 3.08-4.26a.91.91 0 0 1 0 1.29l-.08.08a9.51 9.51 0 0 0-1.06 2c-.33.59 0 1.47-.78 1.77a.91.91 0 0 1-1.16-.56 1.13 1.13 0 0 1 0-.32ZM59.13 155.21c-2-1.49 2.51-3.65 3.67-4.23a.79.79 0 0 1 1 .48.77.77 0 0 1-.27.89 16.37 16.37 0 0 0-3.16 2.34 1 1 0 0 1-1.23.53ZM69 167a.9.9 0 0 1-.86-.94.88.88 0 0 1 .48-.76c1.12-.17 2.8-1.87 3.73-.72.48 1-.85 1.38-1.52 1.75A5 5 0 0 1 69 167ZM71.34 176.29c-1.06-.52-2.75-.5-3.23-1.74a1 1 0 0 1 .77-1.23 1.05 1.05 0 0 1 1 .33 7.33 7.33 0 0 1 2.24 1.15.87.87 0 0 1-.8 1.49ZM68.85 183.18c-1.14-.29-3.57.17-3.48-1.56.49-1.65 2.64-.47 3.79-.31a1 1 0 0 1 .61 1.22 1 1 0 0 1-.92.65ZM58.39 191.37c-.48-.73-1.33-1.2-1.68-2a.49.49 0 0 1 .36-.59.49.49 0 0 1 .58.33c.57.62 2.39 1.32 1.68 2.34a.63.63 0 0 1-.9 0Z"></path>
</g>
</svg>
