<svg xmlns="http://www.w3.org/2000/svg" xmlns:xlink="http://www.w3.org/1999/xlink" enable-background="new 0 0 1920 1080" viewBox="0 0 1920 1080" id="mobile-app-ui-ux-design"><polygon fill="#fff" points="679.13 796.2 515.05 842.89 448.64 609.5"></polygon><polygon fill="none" stroke="#000" stroke-miterlimit="10" stroke-width="2" points="679.13 796.2 515.05 842.89 448.64 609.5"></polygon><line x1="462.48" x2="475.21" y1="658.12" y2="654.49" fill="#fff" stroke="#000" stroke-miterlimit="10" stroke-width="2"></line><line x1="473.2" x2="485.93" y1="695.78" y2="692.16" fill="#fff" stroke="#000" stroke-miterlimit="10" stroke-width="2"></line><line x1="483.91" x2="496.64" y1="733.45" y2="729.83" fill="#fff" stroke="#000" stroke-miterlimit="10" stroke-width="2"></line><line x1="494.63" x2="507.36" y1="771.11" y2="767.49" fill="#fff" stroke="#000" stroke-miterlimit="10" stroke-width="2"></line><line x1="505.35" x2="518.08" y1="808.78" y2="805.16" fill="#fff" stroke="#000" stroke-miterlimit="10" stroke-width="2"></line><polygon fill="#fff" stroke="#000" stroke-miterlimit="10" stroke-width="2" points="606.04 782.55 542.92 800.51 517.37 710.73"></polygon><path fill="#fff" d="M680.41,786.5H560.62c-1.5,0-2.72-1.22-2.72-2.72V651.12c0-1.5,1.22-2.72,2.72-2.72h119.78
				c1.5,0,2.72,1.22,2.72,2.72v132.66C683.13,785.28,681.91,786.5,680.41,786.5z"></path><path fill="none" stroke="#000" stroke-miterlimit="10" stroke-width="2" d="M680.41,786.5H560.62c-1.5,0-2.72-1.22-2.72-2.72V651.12c0-1.5,1.22-2.72,2.72-2.72h119.78
				c1.5,0,2.72,1.22,2.72,2.72v132.66C683.13,785.28,681.91,786.5,680.41,786.5z"></path><path fill="#fff" stroke="#000" stroke-miterlimit="10" stroke-width="2" d="M586.1 772.46h-1.39c-4.06 0-7.35-3.29-7.35-7.35v-94.15c0-4.06 3.29-7.35 7.35-7.35h1.39c4.06 0 7.35 3.29 7.35 7.35v94.15C593.44 769.17 590.16 772.46 586.1 772.46zM623.55 772.46h-1.39c-4.06 0-7.35-3.29-7.35-7.35v-94.15c0-4.06 3.29-7.35 7.35-7.35h1.39c4.06 0 7.35 3.29 7.35 7.35v94.15C630.9 769.17 627.61 772.46 623.55 772.46zM658.66 772.46h-1.39c-4.06 0-7.35-3.29-7.35-7.35v-94.15c0-4.06 3.29-7.35 7.35-7.35h1.39c4.06 0 7.35 3.29 7.35 7.35v94.15C666.01 769.17 662.72 772.46 658.66 772.46z"></path><circle cx="585.23" cy="671.04" r="8.19"></circle><circle cx="585.23" cy="671.04" r="8.19" fill="none" stroke="#000" stroke-miterlimit="10" stroke-width="2"></circle><circle cx="622.61" cy="764.11" r="8.19" fill="#fff" stroke="#000" stroke-miterlimit="10" stroke-width="2"></circle><circle cx="657.7" cy="671.81" r="8.19"></circle><circle cx="657.7" cy="671.81" r="8.19" fill="none" stroke="#000" stroke-miterlimit="10" stroke-width="2"></circle><path d="M804.86,223.16l-15.64-1.48c-1.7-9.05-4.97-17.55-9.52-25.19l10.83-13.13c1.42-1.42,1.42-3.72,0-5.14l-16.6-16.64
				c-1.42-1.42-3.71-1.42-5.13,0l-12.44,10.32c-7.7-5.16-16.39-8.94-25.71-11.04l-1.53-16.23c0-2.01-1.62-3.64-3.63-3.64h-23.47
				c-2,0-3.63,1.63-3.63,3.64l-1.53,16.23c-9.27,2.09-17.9,5.84-25.57,10.95l-12.06-10.23c-1.42-1.42-3.71-1.42-5.13,0l-16.6,16.64
				c-1.42,1.42-1.42,3.72,0,5.14l10.62,12.59c-4.73,7.77-8.1,16.46-9.84,25.73l-15.64,1.48c-2,0-3.63,1.63-3.63,3.64v23.54
				c0,2.01,1.62,3.64,3.63,3.64l16.8,1.59c2.38,9.12,6.4,17.57,11.7,25.04l-9.8,11.88c-1.42,1.42-1.42,3.72,0,5.14l16.6,16.64
				c1.42,1.42,3.71,1.42,5.13,0l13.26-11c6.34,3.56,13.24,6.23,20.53,7.87l1.53,16.23c0,2.01,1.62,3.64,3.63,3.64h23.47
				c2,0,3.63-1.63,3.63-3.64l1.53-16.23c8.69-1.96,16.82-5.39,24.12-10.02l12.76,10.58c1.42,1.42,3.71,1.42,5.13,0l16.6-16.64
				c1.42-1.42,1.42-3.72,0-5.14l-10.55-12.79c4.15-6.58,7.35-13.83,9.37-21.56l16.8-1.59c2,0,3.63-1.63,3.63-3.64v-23.54
				C808.49,224.79,806.86,223.16,804.86,223.16z"></path><path fill="none" stroke="#000" stroke-miterlimit="10" stroke-width="2" d="M804.86,223.16l-15.64-1.48c-1.7-9.05-4.97-17.55-9.52-25.19l10.83-13.13c1.42-1.42,1.42-3.72,0-5.14
				l-16.6-16.64c-1.42-1.42-3.71-1.42-5.13,0l-12.44,10.32c-7.7-5.16-16.39-8.94-25.71-11.04l-1.53-16.23
				c0-2.01-1.62-3.64-3.63-3.64h-23.47c-2,0-3.63,1.63-3.63,3.64l-1.53,16.23c-9.27,2.09-17.9,5.84-25.57,10.95l-12.06-10.23
				c-1.42-1.42-3.71-1.42-5.13,0l-16.6,16.64c-1.42,1.42-1.42,3.72,0,5.14l10.62,12.59c-4.73,7.77-8.1,16.46-9.84,25.73l-15.64,1.48
				c-2,0-3.63,1.63-3.63,3.64v23.54c0,2.01,1.62,3.64,3.63,3.64l16.8,1.59c2.38,9.12,6.4,17.57,11.7,25.04l-9.8,11.88
				c-1.42,1.42-1.42,3.72,0,5.14l16.6,16.64c1.42,1.42,3.71,1.42,5.13,0l13.26-11c6.34,3.56,13.24,6.23,20.53,7.87l1.53,16.23
				c0,2.01,1.62,3.64,3.63,3.64h23.47c2,0,3.63-1.63,3.63-3.64l1.53-16.23c8.69-1.96,16.82-5.39,24.12-10.02l12.76,10.58
				c1.42,1.42,3.71,1.42,5.13,0l16.6-16.64c1.42-1.42,1.42-3.72,0-5.14l-10.55-12.79c4.15-6.58,7.35-13.83,9.37-21.56l16.8-1.59
				c2,0,3.63-1.63,3.63-3.64v-23.54C808.49,224.79,806.86,223.16,804.86,223.16z"></path><ellipse cx="714.74" cy="237.17" fill="#fff" rx="43.88" ry="43.17"></ellipse><ellipse cx="714.74" cy="237.17" fill="none" stroke="#000" stroke-miterlimit="10" stroke-width="2" rx="43.88" ry="43.17"></ellipse><path d="M592.22,434.36l-5.89-0.56c-0.64-3.4-1.63-7.27-3.33-9.8l3.82-4.59c0.53-0.53,0.53-1.4,0-1.93l-6.25-6.25
				c-0.53-0.53-1.4-0.53-1.93,0l-4.69,3.88c-2.9-1.94-6.17-3.36-9.68-4.15l-0.58-6.09c0-0.75-0.61-1.37-1.37-1.37h-8.84
				c-0.75,0-1.37,0.61-1.37,1.37l-0.58,6.09c-3.49,0.78-6.74,2.19-9.63,4.11l-4.54-3.84c-0.53-0.53-1.4-0.53-1.93,0l-6.25,6.25
				c-0.53,0.53-0.53,1.4,0,1.93l4,4.73c-1.78,2.92-3.05,6.18-3.71,9.66l-5.89,0.56c-0.75,0-1.37,0.61-1.37,1.37v8.84
				c0,0.75,0.61,1.37,1.37,1.37l6.33,0.6c0.9,3.43,2.41,6.6,4.41,9.4l-3.69,4.46c-0.53,0.53-0.53,1.4,0,1.93l6.25,6.25
				c0.53,0.53,1.4,0.53,1.93,0l4.99-4.13c2.39,1.34,4.99,2.34,7.73,2.96l0.58,6.09c0,0.75,0.61,1.37,1.37,1.37h8.84
				c0.75,0,1.37-0.61,1.37-1.37l0.58-6.09c3.27-0.73,6.33-2.02,9.08-3.76l4.8,3.97c0.53,0.53,1.4,0.53,1.93,0l6.25-6.25
				c0.53-0.53,0.53-1.4,0-1.93l-3.97-4.8c1.56-2.47,2.77-5.19,3.53-8.1l6.33-0.6c0.75,0,1.37-0.61,1.37-1.37v-8.84
				C593.59,434.97,592.97,434.36,592.22,434.36z"></path><path fill="none" stroke="#000" stroke-miterlimit="10" stroke-width="2" d="M592.22,434.36l-5.89-0.56c-0.64-3.4-1.63-7.27-3.33-9.8l3.82-4.59c0.53-0.53,0.53-1.4,0-1.93l-6.25-6.25
				c-0.53-0.53-1.4-0.53-1.93,0l-4.69,3.88c-2.9-1.94-6.17-3.36-9.68-4.15l-0.58-6.09c0-0.75-0.61-1.37-1.37-1.37h-8.84
				c-0.75,0-1.37,0.61-1.37,1.37l-0.58,6.09c-3.49,0.78-6.74,2.19-9.63,4.11l-4.54-3.84c-0.53-0.53-1.4-0.53-1.93,0l-6.25,6.25
				c-0.53,0.53-0.53,1.4,0,1.93l4,4.73c-1.78,2.92-3.05,6.18-3.71,9.66l-5.89,0.56c-0.75,0-1.37,0.61-1.37,1.37v8.84
				c0,0.75,0.61,1.37,1.37,1.37l6.33,0.6c0.9,3.43,2.41,6.6,4.41,9.4l-3.69,4.46c-0.53,0.53-0.53,1.4,0,1.93l6.25,6.25
				c0.53,0.53,1.4,0.53,1.93,0l4.99-4.13c2.39,1.34,4.99,2.34,7.73,2.96l0.58,6.09c0,0.75,0.61,1.37,1.37,1.37h8.84
				c0.75,0,1.37-0.61,1.37-1.37l0.58-6.09c3.27-0.73,6.33-2.02,9.08-3.76l4.8,3.97c0.53,0.53,1.4,0.53,1.93,0l6.25-6.25
				c0.53-0.53,0.53-1.4,0-1.93l-3.97-4.8c1.56-2.47,2.77-5.19,3.53-8.1l6.33-0.6c0.75,0,1.37-0.61,1.37-1.37v-8.84
				C593.59,434.97,592.97,434.36,592.22,434.36z"></path><circle cx="557.84" cy="439.15" r="16.38" fill="#fff"></circle><circle cx="557.84" cy="439.15" r="16.38" fill="none" stroke="#000" stroke-miterlimit="10" stroke-width="2"></circle><path fill="#7f7f7f" stroke="#000" stroke-miterlimit="10" stroke-width="2" d="M1061.48,874.21H769.9c-14.44,0-26.14-11.7-26.14-26.14V260.64c0-14.44,11.7-26.14,26.14-26.14h291.58
	c14.44,0,26.14,11.7,26.14,26.14v587.43C1087.62,862.51,1075.92,874.21,1061.48,874.21z"></path><path fill="#fff" stroke="#000" stroke-miterlimit="10" stroke-width="2" d="M1032.48,873.73H740.9c-14.44,0-26.14-11.7-26.14-26.14V261.27c0-14.44,11.7-26.14,26.14-26.14h291.58
	c14.44,0,26.14,11.7,26.14,26.14v586.32C1058.62,862.02,1046.92,873.73,1032.48,873.73z"></path><path fill="#fff" stroke="#000" stroke-miterlimit="10" stroke-width="2" d="M918.1,279.33h-62.82c-1.18,0-2.14-0.96-2.14-2.14v-2.44c0-1.18,0.96-2.14,2.14-2.14h62.82
	c1.18,0,2.14,0.96,2.14,2.14v2.44C920.24,278.38,919.28,279.33,918.1,279.33z"></path><rect width="344" height="498.18" x="714.5" y="307.85" fill="#fff" stroke="#000" stroke-miterlimit="10" stroke-width="2"></rect><path fill="#fff" stroke="#000" stroke-miterlimit="10" stroke-width="2" d="M853.99 604.04h-95.26c-3.09 0-5.6-2.51-5.6-5.6v-89.35c0-3.09 2.51-5.6 5.6-5.6h95.26c3.09 0 5.6 2.51 5.6 5.6v89.35C859.59 601.53 857.09 604.04 853.99 604.04zM1011.79 462.09h-95.26c-3.09 0-5.6-2.51-5.6-5.6v-89.35c0-3.09 2.51-5.6 5.6-5.6h95.26c3.09 0 5.6 2.51 5.6 5.6v89.35C1017.39 459.58 1014.89 462.09 1011.79 462.09z"></path><g><path fill="#fff" d="M852.51,460.61h-95.26c-3.09,0-5.6-2.51-5.6-5.6v-89.35c0-3.09,2.51-5.6,5.6-5.6h95.26
				c3.09,0,5.6,2.51,5.6,5.6v89.35C858.11,458.11,855.61,460.61,852.51,460.61z"></path><path fill="none" stroke="#000" stroke-miterlimit="10" stroke-width="2" d="M852.51,460.61h-95.26c-3.09,0-5.6-2.51-5.6-5.6v-89.35c0-3.09,2.51-5.6,5.6-5.6h95.26
				c3.09,0,5.6,2.51,5.6,5.6v89.35C858.11,458.11,855.61,460.61,852.51,460.61z"></path><circle cx="806.95" cy="412.74" r="33.45" fill="#fff"></circle><circle cx="806.95" cy="412.74" r="33.45" fill="none" stroke="#000" stroke-miterlimit="10" stroke-width="2"></circle><g><defs><circle id="a" cx="806.95" cy="412.74" r="33.45"></circle></defs><use fill="#fff" overflow="visible" xlink:href="#a"></use><clipPath id="b"><use overflow="visible" xlink:href="#a"></use></clipPath><g clip-path="url(#b)"><circle cx="806.95" cy="440.76" r="20.79"></circle><circle cx="806.95" cy="440.76" r="20.79" fill="none" stroke="#000" stroke-miterlimit="10" stroke-width="2"></circle></g><use fill="none" stroke="#000" stroke-miterlimit="10" stroke-width="2" overflow="visible" xlink:href="#a"></use></g><g><circle cx="806.95" cy="402.79" r="9.94"></circle><circle cx="806.95" cy="402.79" r="9.94" fill="none" stroke="#000" stroke-miterlimit="10" stroke-width="2"></circle></g></g><g><path fill="#fff" d="M999.37,438.76h-70.42c-2.01,0-3.65-1.63-3.65-3.65v-49.22c0-2.01,1.63-3.65,3.65-3.65h70.42
				c2.01,0,3.65,1.63,3.65,3.65v49.22C1003.02,437.13,1001.39,438.76,999.37,438.76z"></path><path fill="none" stroke="#000" stroke-miterlimit="10" stroke-width="2" d="M999.37,438.76h-70.42c-2.01,0-3.65-1.63-3.65-3.65v-49.22c0-2.01,1.63-3.65,3.65-3.65h70.42
				c2.01,0,3.65,1.63,3.65,3.65v49.22C1003.02,437.13,1001.39,438.76,999.37,438.76z"></path><line x1="950.62" x2="925.31" y1="404.62" y2="431.11" fill="#fff" stroke="#000" stroke-miterlimit="10" stroke-width="2"></line><line x1="977.11" x2="1003.02" y1="405.21" y2="433.04" fill="#fff" stroke="#000" stroke-miterlimit="10" stroke-width="2"></line><polyline fill="#fff" stroke="#000" stroke-miterlimit="10" stroke-width="2" points="925.37 387.16 963.64 414.04 1003.02 387.97"></polyline></g><path stroke="#000" stroke-miterlimit="10" stroke-width="2" d="M763.05,564.6c0,0,30.14-20.6,33.58-20.6s24.07,23.05,30.09,23.05c3.44,0,23.21-11.52,23.21-11.52v32.95
	c0,0.82,0,7.21-8.47,7.21l-71.38,0.04c-3.63,0-7.26-2.42-7.26-6.05l0.29-21.62L763.05,564.6z"></path><circle cx="835.97" cy="532.75" r="8.38" fill="#fff" stroke="#000" stroke-miterlimit="10" stroke-width="2"></circle><path fill="#fff" stroke="#000" stroke-miterlimit="10" stroke-width="2" d="M1011.99,749.31h-95.26c-3.09,0-5.6-2.51-5.6-5.6v-89.35c0-3.09,2.51-5.6,5.6-5.6h95.26
	c3.09,0,5.6,2.51,5.6,5.6v89.35C1017.59,746.8,1015.09,749.31,1011.99,749.31z"></path><g><path d="M995.27,726.98h-61.81c-0.9,0-1.62-0.73-1.62-1.62v-40.13c0-0.9,0.73-1.62,1.62-1.62h61.81c0.9,0,1.62,0.73,1.62,1.62
				v40.13C996.89,726.25,996.16,726.98,995.27,726.98z"></path><path fill="none" stroke="#000" stroke-miterlimit="10" stroke-width="2" d="M995.27,726.98h-61.81c-0.9,0-1.62-0.73-1.62-1.62v-40.13c0-0.9,0.73-1.62,1.62-1.62h61.81
				c0.9,0,1.62,0.73,1.62,1.62v40.13C996.89,726.25,996.16,726.98,995.27,726.98z"></path><g><polygon points="966.86 683.61 931.83 683.61 931.83 671.1 960.19 671.1"></polygon><polygon fill="none" stroke="#000" stroke-miterlimit="10" stroke-width="2" points="966.86 683.61 931.83 683.61 931.83 671.1 960.19 671.1"></polygon></g></g><circle cx="886.3" cy="837.33" r="17.41" fill="#fff" stroke="#000" stroke-miterlimit="10" stroke-width="2"></circle><path fill="none" stroke="#fcfcfc" stroke-miterlimit="10" stroke-width="2" d="M1075.09 460h-.19c-2.71 0-4.91-2.2-4.91-4.91v-80.19c0-2.71 2.2-4.91 4.91-4.91h.19c2.71 0 4.91 2.2 4.91 4.91v80.19C1080 457.8 1077.8 460 1075.09 460zM1075.09 537h-.19c-2.71 0-4.91-2.2-4.91-4.91v-41.19c0-2.71 2.2-4.91 4.91-4.91h.19c2.71 0 4.91 2.2 4.91 4.91v41.19C1080 534.8 1077.8 537 1075.09 537z"></path><g><path fill="#fff" d="M1012.2,604.42h-95.26c-3.09,0-5.6-2.51-5.6-5.6v-89.35c0-3.09,2.51-5.6,5.6-5.6h95.26
				c3.09,0,5.6,2.51,5.6,5.6v89.35C1017.8,601.91,1015.3,604.42,1012.2,604.42z"></path><path fill="none" stroke="#000" stroke-miterlimit="10" stroke-width="2" d="M1012.2,604.42h-95.26c-3.09,0-5.6-2.51-5.6-5.6v-89.35c0-3.09,2.51-5.6,5.6-5.6h95.26
				c3.09,0,5.6,2.51,5.6,5.6v89.35C1017.8,601.91,1015.3,604.42,1012.2,604.42z"></path><line x1="912.69" x2="1016.4" y1="505.84" y2="602.52" fill="#fff" stroke="#000" stroke-miterlimit="10" stroke-width="2"></line><line x1="912.69" x2="1016.4" y1="602.52" y2="505.84" fill="#fff" stroke="#000" stroke-miterlimit="10" stroke-width="2"></line></g><g><path fill="#fff" d="M854.2,747.42h-95.26c-3.09,0-5.6-2.51-5.6-5.6v-89.35c0-3.09,2.51-5.6,5.6-5.6h95.26
				c3.09,0,5.6,2.51,5.6,5.6v89.35C859.8,744.91,857.3,747.42,854.2,747.42z"></path><path fill="none" stroke="#000" stroke-miterlimit="10" stroke-width="2" d="M854.2,747.42h-95.26c-3.09,0-5.6-2.51-5.6-5.6v-89.35c0-3.09,2.51-5.6,5.6-5.6h95.26
				c3.09,0,5.6,2.51,5.6,5.6v89.35C859.8,744.91,857.3,747.42,854.2,747.42z"></path><line x1="754.69" x2="858.4" y1="648.84" y2="745.52" fill="#fff" stroke="#000" stroke-miterlimit="10" stroke-width="2"></line><line x1="754.69" x2="858.4" y1="745.52" y2="648.84" fill="#fff" stroke="#000" stroke-miterlimit="10" stroke-width="2"></line></g><g><path fill="#fff" d="M1057.9,579.88l-94.95,0.51c-3.09,0.02-5.61-2.48-5.63-5.57l-0.48-89.05c-0.02-3.09,2.48-5.61,5.57-5.63
					l94.95-0.51c3.09-0.02,5.61,2.48,5.63,5.57l0.48,89.05C1063.49,577.34,1060.99,579.86,1057.9,579.88z"></path><path fill="none" stroke="#000" stroke-miterlimit="10" stroke-width="2" d="M1057.9,579.88l-94.95,0.51c-3.09,0.02-5.61-2.48-5.63-5.57l-0.48-89.05c-0.02-3.09,2.48-5.61,5.57-5.63
					l94.95-0.51c3.09-0.02,5.61,2.48,5.63,5.57l0.48,89.05C1063.49,577.34,1060.99,579.86,1057.9,579.88z"></path><path d="M1030.02,532.16c2.39-3.56,3.78-7.85,3.76-12.46c-0.07-12.23-10.03-22.08-22.26-22.02
					c-12.23,0.07-22.08,10.03-22.02,22.26c0.03,4.98,1.7,9.57,4.49,13.25L1011.4,564L1030.02,532.16z"></path><path fill="none" stroke="#000" stroke-miterlimit="10" stroke-width="2" d="M1030.02,532.16c2.39-3.56,3.78-7.85,3.76-12.46c-0.07-12.23-10.03-22.08-22.26-22.02
					c-12.23,0.07-22.08,10.03-22.02,22.26c0.03,4.98,1.7,9.57,4.49,13.25L1011.4,564L1030.02,532.16z"></path><g><circle cx="1011.64" cy="519.82" r="10.17" fill="#fff"></circle><circle cx="1011.64" cy="519.82" r="10.17" fill="none" stroke="#000" stroke-miterlimit="10" stroke-width="2"></circle></g><g><path fill="#fff" stroke="#000" stroke-miterlimit="10" stroke-width="2" d="M1297.25,798.57c-45.11-23.27-89.82-57.5-153.28-127.61c0,0-10.28-54.89,16.33-73.36
								c68.86,17.41,49.29-55.4,45.35-66.39c2.66-35.87,137.01-92.94,173.35-21.68c36.34,71.26,31.66,143.56,63.72,182.03
								c32.06,38.46,70.97,81.71,70.97,81.71l-123.31,102.12C1390.38,875.37,1342.37,821.84,1297.25,798.57z"></path><path fill="#fff" stroke="#000" stroke-miterlimit="10" stroke-width="2" d="M1390.48,535.02c0,0-11.14-36.13-18.89-75.09c-6.82-34.31-17.36-121.05-17.36-121.05
								c-22.5-5.13-39.21,10.46-34.13,53.48l5.83,88.71"></path><path fill="#fff" stroke="#000" stroke-miterlimit="10" stroke-width="2" d="M1332.01,481.41c0,0-19.05-63.89-34.88-106.18s-68.57-138.61-68.57-138.61
								c-28,5.7-38.89,31.82-11.2,77.75c0,0,27.09,55.04,36.33,85s25.7,104.72,25.7,104.72"></path><path fill="#fff" stroke="#000" stroke-miterlimit="10" stroke-width="2" d="M1242.8,523.83c0,0-37.95-80.63-68.89-118.79c-30.94-38.16-25.02-31.58-48.53-60.59
								c-23.51-29.02-36.59-64.31-11.37-77.73c0,0,70.87,69.26,93.85,99.82c43.76,58.19,93.03,127.29,93.03,127.29"></path><path fill="#fff" stroke="#000" stroke-miterlimit="10" stroke-width="2" d="M1264.32 515.39c-29.85-47.36-108.04-97.92-131.31-95.29-30.84 3.5-146.69 15.42-146.69 15.42-7.19 6.1 4.06 37.9 30.67 40.52 24.3 2.4 111.3 1.36 120.66 4.34 8.01 2.55 54.36 39.82 72.65 69.06M1143.97 670.95c-28.94-31.16-77.86-40.45-104.21-43.96-6.92-.92-16.69-3.01-24.52-4.72-6.89-1.51-18.13-3.64-20.11-14.8-1.53-8.65 13.95-24.32 55.08-27.56 34.49-2.72 82.11.62 110.08 17.68"></path><polygon stroke="#000" stroke-miterlimit="10" stroke-width="2" points="1506.99 719.76 1611.42 836.15 1435.92 967.48 1339.37 845.18"></polygon><polygon fill="#fff" stroke="#000" stroke-miterlimit="10" stroke-width="2" points="1366.71 880.68 1536.3 753.78 1506.99 719.76 1339.37 845.18"></polygon></g></g><g><path fill="#fff" d="M715.72,815.83L638.9,758.9c-4.94-3.66-5.97-10.63-2.31-15.57l53.19-71.77c3.66-4.94,10.63-5.97,15.57-2.31
				l76.81,56.93c4.94,3.66,5.97,10.63,2.31,15.57l-53.19,71.77C727.62,818.45,720.65,819.49,715.72,815.83z"></path><path fill="none" stroke="#000" stroke-miterlimit="10" stroke-width="2" d="M715.72,815.83L638.9,758.9c-4.94-3.66-5.97-10.63-2.31-15.57l53.19-71.77c3.66-4.94,10.63-5.97,15.57-2.31
				l76.81,56.93c4.94,3.66,5.97,10.63,2.31,15.57l-53.19,71.77C727.62,818.45,720.65,819.49,715.72,815.83z"></path><g><path d="M706.25,721.36l-16.81,22.68c-3.3,4.46-0.54,10.82,4.97,11.45l28.05,3.22c5.51,0.63,9.64-4.94,7.43-10.03l-11.24-25.9
				C716.44,717.69,709.55,716.9,706.25,721.36z"></path><path fill="none" stroke="#000" stroke-miterlimit="10" stroke-width="2" d="M706.25,721.36l-16.81,22.68c-3.3,4.46-0.54,10.82,4.97,11.45l28.05,3.22c5.51,0.63,9.64-4.94,7.43-10.03
				l-11.24-25.9C716.44,717.69,709.55,716.9,706.25,721.36z"></path></g></g><path fill="#d8d8d8" stroke="#000" stroke-miterlimit="10" stroke-width="2" d="M762.83,936.92H496.49c-2.72,0-4.97-2.14-5.09-4.87l-7.89-170.95c-0.13-2.91,2.18-5.34,5.09-5.34h282.12
	c2.91,0,5.23,2.43,5.09,5.34l-7.89,170.95C767.8,934.77,765.55,936.92,762.83,936.92z"></path><line x1="484.5" x2="773.9" y1="788.5" y2="788.35" fill="#fff" stroke="#000" stroke-miterlimit="10" stroke-width="2"></line></svg>