<svg xmlns="http://www.w3.org/2000/svg" enable-background="new 0 0 600 600" viewBox="17.575 47.609 564.85 504.782" id="SEOLinkBuilding"><path d="m128.629 313.179-5.448-7.458a1.5 1.5 0 0 1 2.424-1.77l5.446 7.458a1.5 1.5 0 1 1-2.422 1.77z" fill="#ffffff" class="colorffffff svgShape"></path><path d="M128.49 313.182a1.5 1.5 0 0 1 .73-1.992l7.592-3.519a1.5 1.5 0 0 1 1.262 2.722l-7.592 3.519a1.5 1.5 0 0 1-1.992-.73z" fill="#ffffff" class="colorffffff svgShape"></path><path d="M137.68 309.981a1.5 1.5 0 0 1-1.195-1.752l1.319-6.98a1.5 1.5 0 1 1 2.947.557l-1.318 6.98a1.5 1.5 0 0 1-1.752 1.195z" fill="#ffffff" class="colorffffff svgShape"></path><path d="M148.364 303.523a1.8 1.8 0 0 1-.089-.002l-8.999-.53a1.5 1.5 0 0 1-1.409-1.586c.05-.827.761-1.45 1.585-1.41l9 .53a1.5 1.5 0 0 1-.088 2.998z" fill="#ffffff" class="colorffffff svgShape"></path><path d="M148.068 311.278a1.5 1.5 0 0 1-1.43-1.567l.358-7.82a1.494 1.494 0 0 1 1.567-1.43 1.5 1.5 0 0 1 1.43 1.567l-.358 7.82a1.5 1.5 0 0 1-1.567 1.43z" fill="#ffffff" class="colorffffff svgShape"></path><path d="M155.07 316.074c-.385 0-.77-.147-1.063-.441a20.778 20.778 0 0 0-6.627-4.46 1.5 1.5 0 1 1 1.16-2.767 23.797 23.797 0 0 1 7.592 5.11 1.5 1.5 0 0 1-1.063 2.558z" fill="#ffffff" class="colorffffff svgShape"></path><path d="M155.383 316.027a1.5 1.5 0 0 1-.99-2.628c2.19-1.92 4.6-3.595 7.165-4.978a1.501 1.501 0 0 1 1.424 2.64 35.868 35.868 0 0 0-6.61 4.594c-.286.25-.639.372-.99.372z" fill="#ffffff" class="colorffffff svgShape"></path><path d="M167.864 318.044a37.727 37.727 0 0 0-6.355-7.03 1.5 1.5 0 0 1 1.955-2.275 40.722 40.722 0 0 1 6.861 7.59 1.501 1.501 0 0 1-2.46 1.715z" fill="#ffffff" class="colorffffff svgShape"></path><path d="M163.586 325.134a1.5 1.5 0 0 1-.974-2.642 22.44 22.44 0 0 0 4.74-5.609 1.5 1.5 0 1 1 2.576 1.536 25.403 25.403 0 0 1-5.37 6.357c-.283.24-.628.358-.972.358z" fill="#ffffff" class="colorffffff svgShape"></path><path d="M164.58 331.608a1.5 1.5 0 0 1-1.473-1.22l-1.112-5.863a1.5 1.5 0 1 1 2.947-.559l1.113 5.862a1.5 1.5 0 0 1-1.476 1.78z" fill="#ffffff" class="colorffffff svgShape"></path><path d="M171.94 333.066c-1.63-.607-3.829-.895-5.769-1.147-.507-.066-1-.13-1.469-.198a1.5 1.5 0 0 1 .428-2.97c.456.066.936.128 1.429.193 2.1.273 4.48.584 6.43 1.312a1.5 1.5 0 1 1-1.048 2.81z" fill="#ffffff" class="colorffffff svgShape"></path><path d="M171.756 343.408a1.5 1.5 0 0 1-1.498-1.61c.085-1.152.139-2.302.193-3.469.095-2.01.193-4.089.45-6.324a1.5 1.5 0 1 1 2.98.344c-.245 2.133-.34 4.16-.433 6.121-.056 1.193-.111 2.37-.198 3.548a1.5 1.5 0 0 1-1.494 1.39z" fill="#ffffff" class="colorffffff svgShape"></path><path d="M170.754 343.83c-2.422 0-4.65-.18-7.504-.596a1.5 1.5 0 0 1 .434-2.968c2.952.43 5.17.598 7.713.56h.02a1.5 1.5 0 0 1 .019 3c-.229.002-.456.004-.682.004z" fill="#ffffff" class="colorffffff svgShape"></path><path d="M158.86 348.982a1.5 1.5 0 0 1-.987-2.63c2.211-1.93 3.613-3.688 4.288-5.376a1.5 1.5 0 1 1 2.785 1.113c-.854 2.14-2.523 4.273-5.1 6.523-.284.248-.636.37-.986.37z" fill="#ffffff" class="colorffffff svgShape"></path><path d="M163.349 357.124a1.499 1.499 0 0 1-1.381-.913 52.167 52.167 0 0 0-4.216-7.926 1.501 1.501 0 0 1 2.518-1.632 55.153 55.153 0 0 1 4.458 8.383 1.5 1.5 0 0 1-1.38 2.088z" fill="#ffffff" class="colorffffff svgShape"></path><path d="M156.129 362.284a1.5 1.5 0 0 1-.696-2.83 30.306 30.306 0 0 0 6.935-4.982 1.5 1.5 0 1 1 2.076 2.165 33.295 33.295 0 0 1-7.62 5.476c-.223.116-.46.171-.695.171z" fill="#ffffff" class="colorffffff svgShape"></path><path d="M156.156 362.312c-.401 0-.801-.161-1.097-.478l-5.081-5.453a1.5 1.5 0 0 1 2.195-2.046l5.081 5.454a1.5 1.5 0 0 1-1.098 2.523z" fill="#ffffff" class="colorffffff svgShape"></path><path d="M143.321 359.036a1.5 1.5 0 0 1-.296-2.971c1.847-.374 3.247-.796 5.019-1.33.711-.215 1.479-.446 2.353-.698a1.5 1.5 0 0 1 .83 2.883c-.86.248-1.617.476-2.318.687-1.845.557-3.304.997-5.288 1.398-.1.02-.201.03-.3.03z" fill="#ffffff" class="colorffffff svgShape"></path><path d="M141.123 366.905a1.5 1.5 0 0 1-1.446-1.901l2.21-7.981a1.499 1.499 0 1 1 2.891.802l-2.21 7.98a1.5 1.5 0 0 1-1.445 1.1z" fill="#ffffff" class="colorffffff svgShape"></path><path d="M141.194 367.034h-.026c-2.588-.044-4.146-.323-6.505-.744-.806-.143-1.709-.305-2.788-.48a1.5 1.5 0 0 1 .48-2.961c1.098.177 2.017.341 2.836.488 2.295.41 3.68.657 6.028.697a1.501 1.501 0 0 1-.025 3z" fill="#ffffff" class="colorffffff svgShape"></path><path d="M132.053 365.844h-.004a1.5 1.5 0 0 1-1.496-1.504l.02-8.04a1.5 1.5 0 0 1 1.5-1.497h.004a1.5 1.5 0 0 1 1.496 1.504l-.02 8.04a1.5 1.5 0 0 1-1.5 1.497z" fill="#ffffff" class="colorffffff svgShape"></path><path d="M132.255 357.99c-.3 0-.603-.09-.866-.276-1.026-.726-2.091-1.49-3.156-2.254-1.04-.747-2.08-1.493-3.082-2.202a1.5 1.5 0 0 1 1.735-2.448c1.007.713 2.052 1.463 3.096 2.213 1.06.76 2.12 1.52 3.141 2.243a1.5 1.5 0 0 1-.868 2.724z" fill="#ffffff" class="colorffffff svgShape"></path><path d="M118.713 358.787a1.5 1.5 0 0 1-.828-2.751 117.658 117.658 0 0 0 7.168-5.132 1.5 1.5 0 0 1 1.838 2.372 120.949 120.949 0 0 1-7.352 5.263 1.493 1.493 0 0 1-.826.248z" fill="#ffffff" class="colorffffff svgShape"></path><path d="M118.315 358.835c-.315 0-.632-.1-.903-.303a30.451 30.451 0 0 1-7.08-7.543 1.5 1.5 0 0 1 2.503-1.653 27.447 27.447 0 0 0 6.384 6.801 1.5 1.5 0 0 1-.904 2.698z" fill="#ffffff" class="colorffffff svgShape"></path><path d="M111.636 351.794a1.5 1.5 0 0 1-1.028-2.592l6.788-6.389a1.5 1.5 0 0 1 2.056 2.185l-6.788 6.389c-.29.272-.659.407-1.028.407z" fill="#ffffff" class="colorffffff svgShape"></path><path d="M118.268 345.532a1.5 1.5 0 0 1-1.41-.988c-.425-1.168-.933-2.395-1.424-3.582-.504-1.217-1.026-2.476-1.473-3.707a1.5 1.5 0 1 1 2.818-1.025c.426 1.17.935 2.398 1.426 3.585.504 1.216 1.025 2.474 1.472 3.703a1.5 1.5 0 0 1-1.41 2.014z" fill="#ffffff" class="colorffffff svgShape"></path><path d="m115.18 338.226-7.831-1.533a1.5 1.5 0 0 1 .576-2.944l7.83 1.533a1.5 1.5 0 1 1-.575 2.944z" fill="#ffffff" class="colorffffff svgShape"></path><path d="M107.416 336.522a1.5 1.5 0 0 1-1.478-1.772l1.726-9.352a1.499 1.499 0 1 1 2.95.545l-1.724 9.35a1.502 1.502 0 0 1-1.474 1.229z" fill="#ffffff" class="colorffffff svgShape"></path><path d="M108.905 327.297a1.5 1.5 0 0 1 .414-2.971c2.818.393 5.763.224 8.518-.483a1.5 1.5 0 1 1 .746 2.905 25.257 25.257 0 0 1-9.678.55z" fill="#ffffff" class="colorffffff svgShape"></path><path d="M117.538 326.543a1.5 1.5 0 0 1-.698-2.003l3.086-6.388a1.499 1.499 0 1 1 2.701 1.306l-3.086 6.387a1.5 1.5 0 0 1-2.003.698z" fill="#ffffff" class="colorffffff svgShape"></path><path d="m120.041 319.472-5.136-7.253a1.5 1.5 0 0 1 2.45-1.734l5.135 7.253a1.5 1.5 0 0 1-2.449 1.734z" fill="#ffffff" class="colorffffff svgShape"></path><path d="M114.889 312.077a1.5 1.5 0 0 1 .419-2.08c1.37-.91 2.66-1.943 4.024-3.036 1.355-1.085 2.756-2.208 4.24-3.194a1.5 1.5 0 0 1 1.66 2.5c-1.372.91-2.66 1.943-4.025 3.035-1.354 1.086-2.756 2.209-4.24 3.195a1.5 1.5 0 0 1-2.078-.42zM153.394 340.804c-3.421 5.541-10.73 8.308-16.968 6.45-6.225-1.878-10.803-8.241-10.587-14.728.229-6.506 5.228-12.566 11.573-13.951 4.781-1.051 8.149-.386 12.808 2.855l1.812 1.48c4.405 4.768 4.801 12.366 1.362 17.894z" fill="#ffffff" class="colorffffff svgShape"></path><path d="M140.429 349.326c-1.494 0-2.988-.205-4.43-.635-6.888-2.077-11.897-9.047-11.66-16.215.255-7.23 5.737-13.835 12.753-15.367 5.287-1.163 9.076-.325 13.984 3.09.031.022.063.045.092.07l1.813 1.478c.054.045.105.093.153.145 4.774 5.169 5.42 13.453 1.536 19.7-2.975 4.818-8.611 7.734-14.241 7.734zm-2.695-29.286c-5.627 1.228-10.192 6.735-10.396 12.539-.191 5.754 3.99 11.57 9.521 13.238 5.62 1.675 12.182-.818 15.258-5.8l.003-.005c3.168-5.093 2.693-11.807-1.12-16.01l-1.684-1.373c-4.302-2.983-7.237-3.544-11.582-2.59z" fill="#ffffff" class="colorffffff svgShape"></path><path fill="#ffffff" d="M251.522 443.827c2.188-1.375 4.921-2.44 7.307-1.45 3.019 1.255 3.947 5.12 3.766 8.39-.468 8.423-11.863 26.547-22.591 21.476-11.462-5.418 5.979-24.935 11.518-28.416zM190.277 418.27c.317-4.21 1.647-8.987 5.492-10.71 4.185-1.875 10.07.471 12.536 7.812 2.219 6.603.737 13.533-.742 20.115-.754 3.352-1.408 15.407-4.875 15.984-9.922 1.649-12.837-27.532-12.41-33.201zM181.27 476.57c3.2-6.725 15.88 4.07 14.192 8.237-2.43 5.999-16.79-2.777-14.192-8.237z" class="colorcccccc svgShape"></path><path d="M220.745 522.39a1.5 1.5 0 0 1-1.496-1.632c1.97-22.303 6.729-47.028 27.084-61.314a1.5 1.5 0 1 1 1.723 2.456c-19.349 13.579-23.91 37.506-25.819 59.121a1.5 1.5 0 0 1-1.492 1.368z" fill="#ffffff" class="colorffffff svgShape"></path><path d="M229.725 480.478a1.5 1.5 0 0 1 1.41-1.585c9.931-.577 26.744-4.731 35.977-8.89C274.27 466.779 279 463.25 282 458.896c3.674-5.333 4.215-12.261 1.317-16.847-3.47-5.486-10.793-7.071-16.482-6.734-8.625.519-17.472 4.74-24.272 11.58-6.134 6.171-8.32 13.475-10.851 21.932l-.394 1.313a1.5 1.5 0 0 1-2.873-.863l.393-1.31c2.647-8.844 4.933-16.482 11.598-23.187 7.312-7.356 16.869-11.897 26.22-12.46 6.533-.395 15.03 1.535 19.196 8.126 4.132 6.536 2.283 14.83-1.381 20.152-3.323 4.824-8.447 8.682-16.125 12.14-9.67 4.355-26.63 8.545-37.036 9.15a1.5 1.5 0 0 1-1.584-1.41zM239.992 523.456a1.499 1.499 0 0 1-1.455-1.867c1.827-7.256 1.001-11.387-3.684-18.415-4.612-6.915-11.455-12.407-17.068-18.82-13.27-15.165-19.74-36.172-17.308-56.195a1.5 1.5 0 1 1 2.978.362c-2.33 19.19 3.87 39.323 16.588 53.857 2.04 2.33 4.291 4.582 6.469 6.758 3.813 3.814 7.758 7.757 10.837 12.374 5.132 7.697 6.127 12.754 4.096 20.812a1.5 1.5 0 0 1-1.453 1.134z" fill="#ffffff" class="colorffffff svgShape"></path><path d="m205.866 461.294-.031-.001a1.5 1.5 0 0 1-1.47-1.53c.165-8.166 5.734-20.745 9.06-28.26l.31-.697c3.359-7.595 6.341-15.042 5.955-22.648-.357-7.019-4.786-15.244-12.289-16.664-12.437-2.345-27.027 15.368-24.396 35.67 1.178 9.088 5.857 17.693 12.84 23.61a1.5 1.5 0 0 1-1.939 2.289c-15.72-13.319-18.886-36.66-6.964-53.734 4.2-6.014 12.22-12.448 21.018-10.783 9.106 1.723 14.3 11.094 14.726 19.46.464 9.146-3.328 17.15-6.517 24.71-3.235 7.31-8.651 19.544-8.804 27.108a1.5 1.5 0 0 1-1.499 1.47zM228.905 522.636a1.5 1.5 0 0 1-1.47-1.217c-.827-4.298-10.972-15.078-15.304-19.681l-.354-.376c-6.572-6.988-13.249-11.976-20.98-17.752l-.285-.213a1.5 1.5 0 1 1 1.795-2.404l.286.214c7.844 5.86 14.618 10.921 21.37 18.1l.353.375c7.293 7.75 15.15 16.416 16.064 21.17a1.5 1.5 0 0 1-1.475 1.784z" fill="#ffffff" class="colorffffff svgShape"></path><path d="M195.827 496.646c-.089 0-.178-.008-.267-.025-4.78-.86-10.291-1.998-15.214-4.636-5.381-2.884-9.284-7.35-10.71-12.251-1.722-5.919.42-12.422 5.095-15.461 5.953-3.874 13.987-1.29 18.525 3.107 4.785 4.638 10.7 18.845 12.574 23.927a1.5 1.5 0 1 1-2.814 1.038c-2.515-6.817-7.955-19.038-11.848-22.81-3.702-3.59-10.148-5.773-14.803-2.748-3.533 2.299-5.188 7.505-3.848 12.11 1.202 4.131 4.572 7.939 9.246 10.443 4.537 2.432 9.774 3.51 14.328 4.329a1.5 1.5 0 0 1-.264 2.977zM209.558 410.283c-.09-3.972-2.67-7.894-6.277-9.538a1.5 1.5 0 0 1 1.244-2.73c4.689 2.137 7.916 7.04 8.033 12.2a1.5 1.5 0 0 1-1.467 1.534c-.782.036-1.514-.61-1.533-1.466zM210.455 419.626a1.5 1.5 0 0 1-.938-1.903l.276-.815a1.5 1.5 0 1 1 2.844.955l-.279.824a1.5 1.5 0 0 1-1.903.939z" fill="#ffffff" class="colorffffff svgShape"></path><path d="M178.117 481.674c-1.838-2.562-2.386-6.02-1.432-9.026a1.5 1.5 0 0 1 2.86.908c-.675 2.121-.287 4.561 1.01 6.369a1.5 1.5 0 1 1-2.438 1.749zM261.827 465.518c-1.62 0-2.08-2.22-.61-2.872 2.718-1.205 5.574-2.541 8.014-4.448 1.777-1.388 4.083-3.706 4.974-6.862.778-2.757.194-5.723-1.491-7.554a1.5 1.5 0 1 1 2.207-2.031c2.411 2.62 3.243 6.606 2.17 10.4-1.11 3.937-3.883 6.747-6.013 8.411-2.709 2.117-5.882 3.601-8.643 4.826-.199.088-.405.13-.608.13zM253.464 524.501h-41.63a1.5 1.5 0 0 1 0-3h41.63a1.5 1.5 0 0 1 0 3z" fill="#ffffff" class="colorffffff svgShape"></path><path fill="#ffffff" d="M480.405 148.765c3.911 2.622 8.573 2.23 12.953 1.77l34.654-3.64c2.5-.262 5.222-.65 6.973-2.9s1.48-7.001-.963-7.782c-.587 3.005-2.703 5.204-5.01 6.22-2.307 1.015-4.811 1.044-7.264 1.061l-34.356.25c-4.512.032-7.888-.688-11.071-4.849-2.108 3.205 1.917 8.417 4.084 9.87z" class="colorcccccc svgShape"></path><path d="M535.995 128.715c-.06-1.844-.793-3.555-2.01-4.693-.965-.903-2.182-1.385-3.408-1.334l-51.414 1.783c-2.9.1-5.1 2.883-5.01 6.335l.291 11.095c.048 1.856.777 3.58 1.998 4.73.968.91 2.221 1.397 3.421 1.345l2.304-.08.302 9.259a1.5 1.5 0 0 0 2.418 1.137l13.992-10.845 32.474-1.127c2.873-.1 5.12-2.963 5.007-6.382l-.365-11.223zm-13.544 10.612-17.67.515h-.03a1 1 0 0 1-.028-1.999l17.67-.515h.03a1 1 0 0 1 .028 2zm.232-7.489-37.985 1.318a1 1 0 1 1-.068-2l37.984-1.317a1 1 0 0 1 .068 1.999z" fill="#ffffff" class="colorffffff svgShape"></path><path fill="#ffffff" d="M407.15 319.853c-1.778-.02-3.794.288-4.808 1.748-1.612 2.321.456 5.369.694 8.185.157 1.854-.519 3.662-.923 5.479-.701 3.144-.555 6.584 1.024 9.391 2.286 4.065 7.106 6.06 11.735 6.63 4.629.57 9.33.009 13.976.413a62.373 62.373 0 0 1-15.438-2.306c-2.08-.585-4.243-1.352-5.626-3.013-1.382-1.66-1.592-4.474.107-5.809-1.653.345-2.88-1.664-2.864-3.353s.686-3.38.33-5.032c-.222-1.034-.82-2.169-.254-3.06.588-.927 2.14-.983 2.515-2.014.409-1.126-.976-2.097-1.202-3.274-.188-.971.495-1.95 1.38-2.394.884-.443 1.919-.459 2.905-.387 3.466.253 6.494 1.558 9.434 3.32-.965-3.481-10-4.492-12.985-4.524zM440.424 292.313c.903-1.373 1.781-2.796 2.212-4.382s.36-3.379-.54-4.754-2.751-2.171-4.276-1.557c-1.597.643-2.326 2.463-2.803 4.118-.914 3.167-1.27 5.115-4.417 20.362l10.782-16.966c-1.438 2.86-1.947 4.503-4.361 6.605M478.994 307.64c.765-4.088 4.648-7.075 5.228-11.216.288-2.058-.501-4.416-2.369-5.328-1.95-.953-4.453.041-5.701 1.818-2.683 3.817-.411 9.064.445 12.57a28.2 28.2 0 0 1 .692 9.16 21.702 21.702 0 0 0 2.723-9.16M502.574 330.874c.235 4.849.467 9.76-.521 14.512-.988 4.752-3.346 9.409-7.338 12.17-6.418 4.44-15.054 2.995-22.686 1.37l-30.434-6.485c12.065 2.454 24.187 4.915 36.484 5.529 9.992.499 13.5-1.777 17.39-9.387a85.283 85.283 0 0 0 8.098-24.318M334.303 509.94c-.949.897-2.218 1.948-3.396 1.384-1.039-.498-1.178-1.894-1.173-3.045l.04-9.772c6.102 1.6 11.56-.52 17.521-1.262 1.44 3.356.092 5.395-2.83 6.743-3.717 1.714-7.113 3.065-10.162 5.951zM370.28 509.945c.541-3.059.63-6.198.262-9.282a30.787 30.787 0 0 0 18.895.28c.2-.062-.215 2.272-.405 2.516-.623.8-1.002.374-1.805.728-1.774.782-3.856.986-5.691 1.864-3.558 1.703-7.095 4.326-11.255 3.894z" class="colorcccccc svgShape"></path><path d="M354.832 404.67c0 1.01.01 2.01.01 3l-49.94.57h-.02a1.5 1.5 0 0 1-.02-3l20.68-.24 29.29-.33zM356.832 404.65l26.3-.31c-.43.97-.84 1.98-1.21 3.02l-25.08.29c0-.99-.01-1.99-.01-3zM517.962 404.3c.01.83-.66 1.51-1.49 1.52l-110.86 1.27-21.55.24c.4-1.04.83-2.04 1.3-3.01l83.42-.95c.1-.1.826-.02 47.66-.55.81 0 1.51.65 1.52 1.48zM468.507 357.296l-1.205-.131a1.5 1.5 0 1 1 .324-2.983l1.208.133c5.677.623 10.577 1.16 16.656.763 7.437-.478 10.792-8.698 11.644-11.205 4.598-13.57 7.64-35.014 14.32-55.478.47-1.44.978-2.99 1.106-3.417a1.5 1.5 0 0 1 2.873.863c-.243.807-1.72 5.276-1.986 6.13-5.89 18.95-9.03 39.754-13.472 52.865-1.003 2.955-4.997 12.638-14.29 13.236-6.223.405-11.094-.107-17.178-.776zM436.24 325.82a1.5 1.5 0 0 1 1.602-2.537c10.817 6.83 16.498 7.14 26.428 7.108 2.505-.008 9.199-1.546 10.191-2.679 1.528-14.056 1.563-17.694 4.533-31.754a1.5 1.5 0 0 1 2.936.62c-2.929 13.862-2.97 17.481-4.502 31.606-.457 4.214-13.025 5.206-13.15 5.207-10.97.035-17.019-.614-28.038-7.571zM410.875 303.36a1.499 1.499 0 0 1-1.059-1.837c4.05-15.037 8.69-27.778 14.19-38.953 4.943-10.049 15.6-15.426 25.433-20.464a1.5 1.5 0 1 1 1.369 2.668c-9.12 4.674-19.561 9.873-24.11 19.12-5.413 10.999-9.987 23.562-13.985 38.409a1.5 1.5 0 0 1-1.838 1.058z" fill="#ffffff" class="colorffffff svgShape"></path><path d="M353.595 359.88a1.5 1.5 0 0 1-1.461-1.159l-.446-1.906c-3.685-15.729-8.27-35.302-10.723-53.875-.11-.837.466-1.64 1.503-1.696 28.355.293 54.543.194 80.06-.303.768-.05 1.41.542 1.515 1.296 1.041 7.597 2.115 16.36 3.154 24.835.1.823-.484 1.575-1.306 1.675a1.494 1.494 0 0 1-1.671-1.303v-.006c-.979-7.977-1.987-16.21-2.97-23.472-24.606.466-49.85.561-77.079.296 2.44 17.598 6.635 35.637 10.61 52.604 11.723-.132 24.27-.124 36.417-.114 12.812.007 23.94.016 36.681-.112-.178-1.296-.356-2.653-.538-4.03l-.14-1.061a1.5 1.5 0 0 1 2.975-.393l.14 1.063c.227 1.723.45 3.415.677 5.054.025.232.051.407.076.582.064.428-.058.888-.34 1.217s-.687.545-1.12.55c-13.124.146-25.202.138-38.413.13-12.556-.009-25.538-.018-37.583.127h-.018zM476.615 237.49a1.5 1.5 0 0 1-1.408-1.587c.323-5.484.753-6.711 1.643-13.28.082-.61.529-1.108 1.128-1.255 1.479-.364 2.308-1.472 3.402-2.78 1.276-1.52 1.707-3.481 1.123-5.116-.642-1.793-2.666-3.188-4.402-3.05-1.426.115-2.592 1.655-1.907 2.873a1.5 1.5 0 1 1-2.615 1.47c-1.78-3.17.7-7.046 4.281-7.333 3.08-.246 6.372 1.962 7.467 5.03.942 2.636.31 5.722-1.65 8.055-1.195 1.43-2.232 2.71-3.982 3.437-.822 5.897-1.192 7.03-1.494 12.126a1.5 1.5 0 0 1-1.586 1.41zM443.552 228.733c-2.363-2.892-2.736-6.542-2.788-9.73-.168-10.16 1.064-17.725 4.122-25.294a1.496 1.496 0 0 1 1.952-.83c.769.311 1.14 1.185.83 1.953-2.897 7.174-4.065 14.388-3.904 24.12.046 2.81.334 5.708 2.11 7.883 2.854 3.49 8.781 3.553 11.79 1.278a1.5 1.5 0 1 1 1.81 2.393c-4.667 3.53-12.26 2.71-15.922-1.773zM477.58 189.31a1.497 1.497 0 0 1-1.47-1.792l1.039-5.244a1.5 1.5 0 0 1 2.943.584l-.538 2.71c1.114-.288 2.44-.527 3.796-.493a1.5 1.5 0 0 1-.032 3 6.065 6.065 0 0 0-.191-.003c-1.71 0-3.672.572-4.962 1.119-.188.08-.388.12-.586.12z" fill="#ffffff" class="colorffffff svgShape"></path><path d="M474.591 213.837c-2.858-4.261-5.591-10.662-4.825-15.675-4.06-.077-7.876-.882-11.858-1.556-1.595-.27-1.66-.071-4.402-1.388-.417-.198-3.104-2.892-2.542-3.416-4.685 4.435-12.373 3.223-15.458-2.457-2.442-4.49-.818-10.56 3.157-13.775 3.983-3.213 9.784-3.669 14.53-1.763 4.8 1.932 7.73 5.655 10.398 9.872 2.244 3.561 8.374 1.987 11.907 3.592 3.48 1.587 6.698 4.118 8.202 7.416 1.162 2.52 1.234 5.302.721 7.862a18.875 18.875 0 0 1-.435 1.726c-.574 1.927-1.39 3.765-2.206 5.594-1.317-.985-3.258-1.084-4.703-.3-1.445.786-2.595 2.627-2.486 4.268z" fill="#ffffff" class="colorffffff svgShape"></path><path d="M473.345 214.672c-2.537-3.783-4.346-8.11-4.96-11.87a17.584 17.584 0 0 1-.242-3.206c-3.598-.224-7.02-.924-10.485-1.511-1.659-.282-1.868-.106-4.801-1.515-.378-.18-1.604-1.253-2.49-2.41a11.383 11.383 0 0 1-16.18-4.1c-2.71-4.986-1.159-11.863 3.533-15.657 4.237-3.417 10.53-4.196 16.033-1.988 5.291 2.13 8.464 6.287 11.105 10.462.987 1.566 3.384 1.77 5.921 1.986 1.843.158 3.75.32 5.34 1.043 7.222 3.292 11.351 9.053 9.773 16.938-.534 2.666-1.674 5.242-2.742 7.636a1.5 1.5 0 0 1-2.268.59c-.837-.624-2.135-.7-3.089-.182-.991.538-1.771 1.843-1.705 2.85a1.501 1.501 0 0 1-2.743.934zm-19.105-20.765c1.956.935 2.304.984 3.128 1.1 3.054.432 7.805 1.567 12.426 1.656a1.499 1.499 0 0 1 1.454 1.726c-.174 1.14-.141 2.463.098 3.93.406 2.485 1.412 5.27 2.845 7.946 1.667-2.46 4.44-3.215 6.851-2.437.566-1.3 1.104-2.63 1.506-3.98a17.38 17.38 0 0 0 .402-1.593c.358-1.785.541-4.437-.612-6.94-1.218-2.67-3.867-5.04-7.462-6.679-1.118-.508-2.688-.642-4.351-.783-3.01-.257-6.421-.547-8.203-3.374-2.74-4.332-5.437-7.57-9.688-9.28-4.509-1.81-9.625-1.207-13.03 1.538-3.54 2.863-4.788 8.198-2.78 11.891 2.595 4.776 9.097 5.875 13.104 2.09l.013-.013a1.498 1.498 0 0 1 2.516 1.24c.357.558 1.362 1.637 1.783 1.962zm-.09-.043zM447.791 218.702c-1.11-1.287-.948-2.887-.871-3.656a35.207 35.207 0 0 1 1.932-8.453 1.5 1.5 0 0 1 2.82 1.023 32.179 32.179 0 0 0-1.768 7.732c-.065.65-.063 1.137.16 1.395.058.057.221.115.351.133a1.5 1.5 0 0 1 2.405 1.756c-.386.693-1.112 1.141-1.99 1.23-1.152.116-2.358-.371-3.039-1.16zM449.256 224.78a1.5 1.5 0 1 1 .758-2.903 3.631 3.631 0 0 0 2.647-.348 1.5 1.5 0 0 1 1.483 2.609 6.603 6.603 0 0 1-4.888.642zM453.51 242.464h-.013a1.5 1.5 0 0 1-1.487-1.513c.01-1.1.183-7.498.73-9.37a1.5 1.5 0 1 1 2.88.84c-.338 1.158-.59 6.269-.61 8.556a1.5 1.5 0 0 1-1.5 1.487z" fill="#ffffff" class="colorffffff svgShape"></path><path d="M448.752 244.777a1.5 1.5 0 0 1 2.428-1.762c3.219 4.431 8.426 7.157 13.58 7.048 5.159-.083 10.277-2.953 13.356-7.487a1.5 1.5 0 0 1 2.483 1.685c-3.62 5.33-9.67 8.702-15.79 8.802-6.17.096-12.299-3.111-16.057-8.286zM417.346 332.102c-7.312-3.248-13.072-4.236-13.013-8.523.05-3.447 3.716-5.14 6.97-3.846 5.675 2.256 13.446 5.344 19.615 8.212a1.5 1.5 0 0 1-1.266 2.721c-6.09-2.832-13.816-5.903-19.457-8.144-1.197-.475-2.845-.201-2.862 1.098-.024 1.726 5.547 3.216 11.232 5.74a1.5 1.5 0 1 1-1.22 2.742zM466.79 357.086c-5.038-.626-10.007-1.202-14.81-1.758-17.157-1.985-31.973-3.7-40.75-6.664-1.205-.407-3.32-1.68-4.162-3.011-.593-.92-1.134-2.945-.448-4.53.437-1.008 1.291-1.673 2.405-1.875.195-.037.395-.032.587.01 1.153.251 2.293.505 3.439.763a1.5 1.5 0 1 1-.658 2.926 513.422 513.422 0 0 0-3.003-.667c-.006.01-.011.022-.017.035-.195.451.027 1.419.224 1.723.344.547 1.721 1.49 2.592 1.783 8.478 2.863 23.148 4.56 40.135 6.527 4.813.557 9.79 1.134 14.836 1.761a1.5 1.5 0 1 1-.37 2.977z" fill="#ffffff" class="colorffffff svgShape"></path><path d="M409.298 342.222c-.14 0-.282-.02-.424-.061-2.759-.81-4.32-3.103-4.602-4.89-.21-1.329.244-2.518 1.215-3.182 1.507-1.03 3.494-1.115 5.746-.246.374.144.652.222.93.3a12.35 12.35 0 0 1 2.147.799 1.5 1.5 0 1 1-1.27 2.718 9.447 9.447 0 0 0-1.694-.63 12.328 12.328 0 0 1-1.193-.388c-.9-.347-2.146-.643-2.974-.075.017-.027-.004.295.25.822.333.688 1.11 1.546 2.29 1.893a1.5 1.5 0 0 1-.421 2.94z" fill="#ffffff" class="colorffffff svgShape"></path><path d="M408.504 336.1c-.129 0-.259-.016-.39-.051-3.387-.908-4.735-3.438-4.568-5.544.161-2.015 1.745-4.196 4.924-4.524a1.5 1.5 0 0 1 .309 2.984c-1.287.133-2.167.831-2.242 1.779-.064.802.515 1.914 2.355 2.407a1.5 1.5 0 0 1-.388 2.95z" fill="#ffffff" class="colorffffff svgShape"></path><path d="M417.346 332.102c-7.312-3.248-13.072-4.236-13.013-8.523.05-3.447 3.716-5.14 6.97-3.846 5.675 2.256 13.446 5.344 19.615 8.212a1.5 1.5 0 0 1-1.266 2.721c-6.09-2.832-13.816-5.903-19.457-8.144-1.197-.475-2.845-.201-2.862 1.098-.024 1.726 5.547 3.216 11.232 5.74a1.5 1.5 0 1 1-1.22 2.742z" fill="#ffffff" class="colorffffff svgShape"></path><path d="M424.596 327.114c-.301-1.18-.728-2.185-.56-3.7.19-1.692 1.572-3.117 3.525-3.627 2.369-.622 5.384.322 10.088 3.156.951.567 1.842 1.078 2.536 1.96a1.5 1.5 0 1 1-2.358 1.855c-.368-.469-1.102-.873-1.727-1.246-3.784-2.28-6.327-3.202-7.78-2.823-.606.159-1.248.573-1.301 1.059-.097.862.191 1.462.485 2.63a1.5 1.5 0 0 1-2.908.736zM409.298 342.222c-.14 0-.282-.02-.424-.061-2.759-.81-4.32-3.103-4.602-4.89-.21-1.329.244-2.518 1.215-3.182 1.507-1.03 3.494-1.115 5.746-.246.374.144.652.222.93.3a12.35 12.35 0 0 1 2.147.799 1.5 1.5 0 1 1-1.27 2.718 9.447 9.447 0 0 0-1.694-.63 12.328 12.328 0 0 1-1.193-.388c-.9-.347-2.146-.643-2.974-.075.017-.027-.004.295.25.822.333.688 1.11 1.546 2.29 1.893a1.5 1.5 0 0 1-.421 2.94z" fill="#ffffff" class="colorffffff svgShape"></path><path d="M408.504 336.1c-.129 0-.259-.016-.39-.051-3.387-.908-4.735-3.438-4.568-5.544.161-2.015 1.745-4.196 4.924-4.524a1.5 1.5 0 0 1 .309 2.984c-1.287.133-2.167.831-2.242 1.779-.064.802.515 1.914 2.355 2.407a1.5 1.5 0 0 1-.388 2.95zM429.223 313.93a1.5 1.5 0 0 1-1.205-1.747 85.732 85.732 0 0 1 8.675-24.885 1.5 1.5 0 0 1 2.649 1.411 82.682 82.682 0 0 0-8.373 24.015 1.5 1.5 0 0 1-1.746 1.205zM388.599 282.153a91.852 91.852 0 0 1-.922-3.378c-.448-1.688-1.133-4.555-2.054-6.08-.777-1.302-2.03-3.316-3.351-4.053-1.64-.912-3.81-.732-6.077-.45-1.198.15-2.437.305-3.391.793-.79.406-1.336 1.086-1.327 1.653.016.936 1.43 1.74 2.753 2.02 1.138.237 4.162-.146 5.623.904 2.113 1.448.985 6.21-.9 7.447a1.5 1.5 0 0 1-1.67-2.492c.396-.376.804-1.9.712-2.545-.492-.16-1.543-.19-2.263-.21-.775-.02-1.506-.041-2.118-.168-2.525-.534-5.09-2.257-5.137-4.906-.027-1.748 1.106-3.42 2.958-4.372 1.426-.73 3-.927 4.388-1.1 4.185-.524 7.456-.475 10.16 2.735.87 1.009 1.607 2.185 2.213 3.202 1.146 1.898 1.84 4.824 2.385 6.869.303 1.168.589 2.27.889 3.263a1.5 1.5 0 1 1-2.871.868zM370.598 299.383c-3.963-6.58-8.207-13.138-12.156-20.698-.647-1.24-1.455-2.786-1.416-4.538.045-1.959 1.449-4.142 3.722-4.403 1.438-.159 2.953.502 4.078 1.782 2.063 2.336 2.518 2.873 3.814 5.306.895 1.68.79 3.496-.237 4.684-1.452 1.676-4.563 1.37-5.24-.786a1.5 1.5 0 0 1 2.763-1.142c.084 0 .182-.02.224-.05.18-.212.133-.75-.126-1.238-1.436-2.694-1.643-2.659-3.452-4.794-.462-.526-1.047-.83-1.481-.782-.592.068-1.05.843-1.065 1.49-.022.98.537 2.05 1.076 3.082 2.941 5.632 6.089 10.765 9.133 15.729a679.874 679.874 0 0 1 2.933 4.811 1.5 1.5 0 0 1-2.57 1.547z" fill="#ffffff" class="colorffffff svgShape"></path><path d="M368.983 280.358c-1.458-.4-2.819-1.566-3.39-2.9a1.5 1.5 0 0 1 2.76-1.178c.185.432.783 1.009 1.426 1.186.5.14.814-.026 1.002-.164.3-.33.075-2.186-.607-3.087a1.5 1.5 0 1 1 2.392-1.81c1.478 1.954 2.081 5.796-.018 7.322-.717.523-2.266.989-3.565.631zM359.9 271.774c-.663-1.528.431-3.542 1.277-4.451.512-.55 1.934-1.518 3.311-1.897.555-1.648 2.066-3.12 3.682-3.377.498-.08 1.02-.04 1.538.07-1.466-4.193-2.908-8.54-4.057-12.83-.293-1.096-.544-2.177-.399-3.349.454-3.724 4.487-4.988 7.234-2.473 1.515 1.386 1.375 1.658 10.663 22.476a1.5 1.5 0 0 1-2.74 1.223c-9.354-20.969-9.074-20.687-9.948-21.486-.478-.438-1.154-.633-1.574-.452-.384.165-.607.66-.657 1.078-.26 2.101 4.752 16.091 5.441 18.03.462 1.298-.933 2.482-2.139 1.815-.634-.351-2.257-1.243-2.893-1.139-.626.1-1.392 1.16-1.375 1.733a1.5 1.5 0 0 1-1.765 1.52c-.486.045-1.8.75-2.125 1.1-.328.354-.655 1.037-.68 1.325a1.5 1.5 0 0 1-2.794 1.084zm2.792-1.044zm2.715-2.485h.001z" fill="#ffffff" class="colorffffff svgShape"></path><path d="M370.246 274.33c-.645-.815-4.728-5.856-5.39-6.693a1.5 1.5 0 0 1 2.353-1.86c.617.78 4.763 5.898 5.39 6.694a1.499 1.499 0 1 1-2.353 1.86zM405.998 303.732c-4.243-4.402-8.215-9.03-12.007-13.765-1.309-1.634-2.786-3.306-4.029-5.103-1.12-1.615-1.93-3.837-2.408-6.602a.522.522 0 0 1-.009-.054l-.054-.292a1.5 1.5 0 0 1 2.955-.52l.06.329c.321 1.825.862 3.9 1.923 5.432 1.148 1.661 2.593 3.3 3.904 4.934a210.05 210.05 0 0 0 8.46 9.962 144.05 144.05 0 0 0 3.365 3.596 1.5 1.5 0 0 1-2.16 2.083zM377.113 289.401a1.5 1.5 0 0 1 1.337-1.647c1.723-.18 3.347-1.454 3.95-3.1a1.5 1.5 0 0 1 2.816 1.033c-.997 2.724-3.592 4.753-6.455 5.05a1.5 1.5 0 0 1-1.648-1.336zM350.227 521.498a1.5 1.5 0 0 1-1.5-1.48c-.046-3.306-.286-6.638-.57-10.337-.068-.908-.252-2.859-.444-4.896-.237-2.507-.481-5.099-.548-6.146a1.5 1.5 0 0 1 1.402-1.592 1.49 1.49 0 0 1 1.592 1.403c.064 1 .306 3.57.54 6.053.195 2.062.381 4.037.45 4.952.288 3.747.53 7.128.578 10.522a1.5 1.5 0 0 1-1.48 1.52h-.02zM341.405 527.595a1.5 1.5 0 0 1-.12-2.995l1.268-.102c2.308-.174 4.454-.36 6.535-.568.266-.25.622-.404 1.015-.407h.013a1.5 1.5 0 0 1 1.5 1.486c.001.154-.008.294-.02.449a1.5 1.5 0 0 1-1.341 1.37 264.54 264.54 0 0 1-7.468.66l-1.258.102a1.521 1.521 0 0 1-.124.005zm8.696-2.26h.01-.01zM313.332 529.408c-2.743-.074-4.941-2.244-4.719-5.007.312-3.855 2.18-6.073 5.443-8.581 2.303-1.768 4.391-2.886 7.208-3.86 2.499-.866 4.959-1.642 7.447-1.728-.055-1.734-.045-8.709-.163-10.315a1.5 1.5 0 0 1 1.387-1.605c.805-.053 1.545.56 1.605 1.386.136 1.857.095 9.735.233 11.993a1.5 1.5 0 0 1-1.655 1.582c-2.477-.259-5.132.572-7.873 1.523-2.491.86-4.334 1.846-6.362 3.403-2.567 1.974-4.04 3.491-4.28 6.445-.083 1.042.8 1.738 1.81 1.765 8.13.219 14.935-.552 23.19-1.386a1.5 1.5 0 1 1 .296 2.985l-2.657.266c-7.312.74-13.433 1.331-20.91 1.134zM379.268 525.029a1.5 1.5 0 0 1 1.37-1.62c.302-.025.603-.043.907-.062.902-.058 3.24-.184 6.518-.456.515-8.485-.896-20.44-1.134-25.358a1.5 1.5 0 0 1 1.426-1.57 1.495 1.495 0 0 1 1.57 1.425c.05 1.024.27 3.791.464 6.233.51 6.407 1.118 14.35.571 20.781a1.5 1.5 0 0 1-1.361 1.368c-2.427.215-4.871.394-7.475.546-.575.036-.907.056-1.236.083-.043.004-1.55-.535-1.62-1.37zm10.198-.754h.01-.01z" fill="#ffffff" class="colorffffff svgShape"></path><path d="M352.643 527.79c-1.472-.053-2.827-.723-3.705-1.84a4.535 4.535 0 0 1-.944-3.235c.12-1.184.41-2.297.86-3.32l.051-.121.054-.119c.753-1.579 2.264-3.194 4.616-4.936 2.322-1.737 4.428-2.825 7.266-3.75 2.507-.83 4.977-1.572 7.467-1.618-.015-.708-.003-2.272.01-3.993.017-2.39.039-5.364-.016-6.327a1.5 1.5 0 0 1 1.413-1.582 1.484 1.484 0 0 1 1.583 1.412c.06 1.06.039 3.835.02 6.52-.01 1.216-.04 4.136.025 5.47a1.5 1.5 0 0 1-1.68 1.563c-2.457-.299-5.134.493-7.886 1.405-2.51.818-4.365 1.776-6.41 3.307-2.4 1.777-3.337 3.059-3.7 3.821a8.01 8.01 0 0 0-.687 2.56c-.047.504.146.872.316 1.09.326.413.874.674 1.464.695 8.147.343 14.954-.328 23.213-1.035a1.507 1.507 0 0 1 1.619 1.37 1.5 1.5 0 0 1-1.371 1.62l-2.746.233c-7.074.608-13.462 1.123-20.832.81z" fill="#ffffff" class="colorffffff svgShape"></path><ellipse cx="385.004" cy="330.981" rx="7.56" ry="7.316" transform="rotate(-.635 385.005 330.983)" fill="#ffffff" class="colorffffff svgShape"></ellipse><path d="M375.945 331.082c-.055-4.936 4.024-8.861 8.961-8.916 4.914-.069 9.103 3.79 9.158 8.714.026 2.365-.898 4.595-2.602 6.28-1.69 1.674-3.95 2.61-6.36 2.636-4.913.069-9.102-3.79-9.157-8.714zm9.053 5.715c1.61 0 3.173-.6 4.354-1.769 3.718-3.68.98-9.863-4.341-9.863-1.61 0-3.173.6-4.354 1.769-1.12 1.109-.98 9.863 4.341 9.863z" fill="#ffffff" class="colorffffff svgShape"></path><path d="M515.892 287.61c-.16-4.09-.31-7.95-1.01-12.27-.03-.15-3.11-15.86-6.41-17.88-9.006-5.522-19.138-9.8-28.14-15.3a1.498 1.498 0 1 0-1.56 2.56c9.157 5.605 19.074 9.753 28.11 15.28 1.49 1.19 4.42 12.02 5.04 15.82.866 5.347.866 10.104 1.13 15.43.37 7.52.78 21.88-.59 33.57-.36 3.04-1.02 6.15-1.65 9.16-2.568 12.188-1.01 9.358-6.58 29.49-1.21 4.35-2.45 8.82-3.52 13.44-13.984-9.033-19.241-10.84-36-14.36l-18.76-3.94c-1.27-.27-2.58-.6-3.96-.95-4.03-1.03-8.19-2.09-12.24-1.71-10.444.995-20.722.754-31.45 1.19-1.85.07-3.82.08-5.85.09-12.99-.31-24.82.73-39 .59-8.03-.08-17.24.36-22.27 6.62-4.06 5.04-5.3 12.43-5.35 18.9-.277 39.963-2.282 79.042-.31 118.85 9.92-.1 19.84-.19 29.76-.29-.055-13.307-.246-55.922-.44-94.23 0-.99-.01-1.99-.01-3-.01-3.2-.03-6.48-.04-9.87-.02-3.32-.03-7.08 1.57-10.4 1.63-3.38 4.91-6.11 9.22-7.67 3.76-1.36 7.73-1.72 11.57-2.07.55-.04 1.04.36 1.09.91.05.55-.36 1.04-.91 1.09-3.71.33-7.55.68-11.06 1.95-3.82 1.39-6.7 3.75-8.11 6.66-1.4 2.91-1.39 6.42-1.37 9.52.01 3.39.03 6.67.04 9.86 0 1.01.01 2.01.01 3 .279 55.237.298 63.577.46 96.94 12.024.398 24.508-.976 36.34-.56.77.03 1.46-.55 1.55-1.32l10.04-87.02c.15-1.23.19-2.8.23-4.61.03-1.24.07-2.61.15-3.99.01-.35.04-.7.06-1.05 2.13-1.51 5.95-1.44 8.12-1.41 38.872.37 45.944.947 54.99-1.26.145-.145 4.001-.744 8.5-3.29 4.83-2.74 8.58-6.95 11.69-11.49.08-.13.26-.43.51-.85 3.31-2.87 6.14-6.01 8.14-9.25 1.1.7 2.19 1.41 3.27 2.11.41.27.93.31 1.39.13.45-.19.78-.59.89-1.07 2.75-12.74 7.183-24.596 9.19-37.82.86-5.579 2.414-11.03 3.07-16.67 1.465-12.372.97-25.894.46-37.56zm-174.51 160.86c-2.22 3.26-2.33 7.47-2.26 12.22l.37 22.47c.01.55-.43 1.01-.98 1.02h-.02c-.54 0-.99-.44-1-.99-.243-25.175-1.442-30.433 2.23-35.84a1 1 0 1 1 1.66 1.12zm-4.41-59.82c1.75-2.48 1.5-5.9 1.26-9.21.052-.559-1.314-9.043 3.96-12.13a1.01 1.01 0 0 1 1.37.37c.28.47.12 1.09-.36 1.36-2.9 1.69-3.26 5.92-3.05 9.16l.08 1.1c.25 3.48.53 7.43-1.62 10.5-.19.28-.5.43-.82.43-.2 0-.4-.06-.57-.18-.45-.32-.56-.94-.25-1.4zm77.23-9.72c17.178 2.249 35.988 4.507 51.28-4.86a.988.988 0 0 1 1.37.33c.29.47.14 1.08-.33 1.37-8.74 5.369-19.064 7.16-29.28 7.16-7.84 0-15.68-1.02-23.29-2.01-.55-.08-.94-.58-.87-1.13.07-.54.57-.94 1.12-.86zm41.9 15.78-1.18 2.35a.999.999 0 0 1-1.81-.04c-.28-.66-1.08-1.08-1.78-.96-.7.13-1.3.82-1.33 1.53-.026.543-.498.95-1 .95-.31 0-.61-.15-.81-.41-.45-.61-1.5-.78-2.11-.34-.45.32-1.08.22-1.4-.23-.32-.45-.21-1.08.23-1.4 1.04-.74 2.44-.79 3.57-.28 1.109-1.883 3.509-2.454 5.34-1.08l.49-.99c.25-.49.85-.69 1.34-.44.5.24.7.84.45 1.34zm-68.54 94.35c-.96.61-1.78 1.18-2.1 1.96-.211.499.005 1.379.44 1.41.55.08.93.58.86 1.13a1 1 0 0 1-.99.86h-.13c-.77-.11-1.42-.56-1.83-1.27-.5-.87-.58-1.98-.2-2.9.43-1.05 1.27-1.78 2.06-2.34-.32-.84-.3-1.81.07-2.63-1.02-1.5-1.16-3.56-.29-5.17.26-.49.86-.67 1.35-.41s.67.87.41 1.36c-.59 1.08-.38 2.57.48 3.46.36.37.37.95.03 1.35-.38.44-.37 1.23.03 1.66.21.22.3.51.27.81-.04.29-.21.56-.46.72zm-3.5-81.73c-7.091 18.426-1.465 39.025-3.62 58.44-.05.51-.49.89-.99.89-.04 0-.07-.01-.11-.01a.992.992 0 0 1-.88-1.1c2.106-19.055-3.397-39.475 3.46-58.19.37-1.04.78-2.05 1.21-3.02 1.06-2.34 2.3-4.51 3.72-6.53.32-.45.95-.56 1.4-.24.45.32.56.94.24 1.39a36.32 36.32 0 0 0-3.13 5.36c-.47.97-.9 1.97-1.3 3.01z" fill="#ffffff" class="colorffffff svgShape"></path><path d="M359.352 340.302a1.5 1.5 0 0 1-1.2-2.398c.322-.432.221-1.347-.278-2.512l-.16-.369c-.56-1.278-1.256-2.87-.84-4.587.106-.434.27-.838.416-1.194.114-.279.305-.744.295-.9-.02.029-.22-.102-.358-.19-.434-.278-1.028-.66-1.4-1.365-.895-1.698.387-3.402.31-3.906-.027-.078-.205-.297-.324-.442a7.207 7.207 0 0 1-.445-.585c-.903-1.356-1.021-3.215-.317-4.973.558-1.391 1.504-2.504 2.339-3.486a1.501 1.501 0 0 1 2.285 1.943c-.72.847-1.463 1.722-1.839 2.66-.327.815-.315 1.675.028 2.192.288.433.944 1.005 1.184 1.967.348 1.386-.426 2.611-.536 3.243.37.29 1.188.648 1.684 1.496.986 1.683-.189 3.349-.406 4.246-.178.735.235 1.68.672 2.679l.17.39c.973 2.271.946 4.118-.078 5.489a1.496 1.496 0 0 1-1.202.602zm-.846-14.83h.01-.01zM359.662 347.608a1.5 1.5 0 0 1-.03-2.121l.167-.17a1.5 1.5 0 0 1 2.14 2.103l-.156.16a1.5 1.5 0 0 1-2.12.028zM477.442 333.652a8.677 8.677 0 0 0-2.247-4.274 1.5 1.5 0 1 1 2.157-2.086 11.73 11.73 0 0 1 3.032 5.767 1.5 1.5 0 0 1-2.942.593zM453.285 346.706a12.69 12.69 0 0 1-2.302-.19c-1.986-.365-3.63-1.326-4.631-2.705-.08-.11-.16-.226-.238-.343a5.732 5.732 0 0 0-.297-.412c-.061.025-.175.061-.26.089-.157.05-.315.1-.471.139a4.5 4.5 0 0 1-4.644-1.637 1.5 1.5 0 0 1 2.397-1.805c.33.438.984.667 1.513.533.096-.025.194-.057.29-.088.473-.15 1.116-.358 1.88-.184 1.108.25 1.692 1.114 2.078 1.686.06.088.119.176.18.26.737 1.016 2.036 1.386 2.745 1.516 1.25.23 2.63.13 3.965.034a1.51 1.51 0 0 1 1.605 1.388 1.5 1.5 0 0 1-1.388 1.604c-.765.056-1.582.115-2.422.115zM493.631 306.54a1.5 1.5 0 0 1-1.17-1.77 59.984 59.984 0 0 1 5.092-14.761 1.499 1.499 0 1 1 2.683 1.339 56.99 56.99 0 0 0-4.836 14.022 1.5 1.5 0 0 1-1.769 1.17zM482.955 298.072c-2.108-1.642-4.396-1.444-4.295-1.427a1.5 1.5 0 0 1-.023-3c2.238-.014 4.41.695 6.162 2.06a1.5 1.5 0 0 1-1.844 2.367zM437.752 288.082c-1.03-1.255.407-3.034 1.852-2.284a1.5 1.5 0 0 1 .806 2.828 2.166 2.166 0 0 1-2.658-.544zM433.433 270.43a1.5 1.5 0 0 1-1.014-1.864c.796-2.7 3.867-3.403 5.151-4.224 1.443-.921 1.72-2.282 2.686-4.033 1.063-1.918 2.556-3.062 4.202-3.224a1.5 1.5 0 0 1 .293 2.985c-1.16.114-1.961 1.827-2.422 2.793-.788 1.654-1.486 2.948-3.143 4.007-1.483.947-3.554 1.403-3.89 2.546a1.5 1.5 0 0 1-1.863 1.014zM489.794 264.98a8.242 8.242 0 0 0-4.535-3.985 1.5 1.5 0 1 1 1.008-2.826c2.659.948 4.92 2.934 6.2 5.45a1.5 1.5 0 1 1-2.673 1.361zM482.937 265.532l-.33-.485a1.5 1.5 0 0 1 2.478-1.691l.33.484a1.5 1.5 0 0 1-2.478 1.692zM497.11 369.767a1.5 1.5 0 0 1-1.415-1.58 11.995 11.995 0 0 1 1.433-5.04 1.5 1.5 0 1 1 2.635 1.436 8.948 8.948 0 0 0-1.072 3.77 1.5 1.5 0 0 1-1.58 1.414zM330.84 501.391a1.5 1.5 0 0 1-1.5-1.483l-.041-3.658a1.5 1.5 0 0 1 1.483-1.517h.017a1.5 1.5 0 0 1 1.5 1.484l.04 3.658a1.5 1.5 0 0 1-1.482 1.516h-.017zM344.364 515.227h-.005a1.5 1.5 0 0 1-1.495-1.505 43.53 43.53 0 0 0-.463-6.474 1.5 1.5 0 0 1 2.97-.437c.335 2.284.501 4.613.493 6.921a1.5 1.5 0 0 1-1.5 1.495zM460.686 526.989h-65.484a1.5 1.5 0 0 1 0-3h65.484a1.5 1.5 0 0 1 0 3zM510.143 438.554a1.5 1.5 0 0 1-.795-2.773c17.73-11.057 27.781-33.186 24.444-53.812a1.5 1.5 0 1 1 2.961-.48c3.525 21.786-7.092 45.159-25.817 56.838a1.496 1.496 0 0 1-.793.227zM536.747 428.644a1.5 1.5 0 0 1-.09-2.12c4.357-4.74 6.708-11.405 6.29-17.829a1.501 1.501 0 0 1 1.399-1.594 1.507 1.507 0 0 1 1.594 1.4c.471 7.225-2.173 14.721-7.074 20.053a1.5 1.5 0 0 1-2.119.09zM542.883 267.447c-.973-19.535-7.77-39.058-19.14-54.973a1.5 1.5 0 0 1 2.442-1.744c11.699 16.376 18.693 36.466 19.694 56.567a1.5 1.5 0 1 1-2.996.15zM553.751 251.413a64.308 64.308 0 0 0-7.042-26.954 1.5 1.5 0 0 1 2.668-1.373 67.332 67.332 0 0 1 7.372 28.22 1.5 1.5 0 0 1-2.998.107zM487.538 511.961a1.5 1.5 0 0 1-1.5-1.5V408.308a1.5 1.5 0 0 1 3 0V510.46a1.5 1.5 0 0 1-1.5 1.5zM187.865 314.901a1.5 1.5 0 0 1 1.33-1.652l85.022-9.18a1.5 1.5 0 0 1 .322 2.982l-85.021 9.18a1.5 1.5 0 0 1-1.653-1.33zM120.874 287.149a4.522 4.522 0 0 1-3.046-1.182 4.522 4.522 0 0 1-1.467-3.328V108.047c0-1.263.536-2.476 1.467-3.328a4.53 4.53 0 0 1 3.447-1.164l164.269 14.554a1.5 1.5 0 1 1-.266 2.989l-164.27-14.555a1.51 1.51 0 0 0-1.647 1.504V282.64c0 .429.175.825.492 1.114.316.29.72.428 1.154.39l201.018-18.023a2.74 2.74 0 0 0 2.51-2.744V126.17c0-.787-.592-1.433-1.376-1.503l-26.096-2.34a1.5 1.5 0 1 1 .267-2.989l26.097 2.34a4.487 4.487 0 0 1 4.107 4.492v137.206c0 3-2.253 5.465-5.24 5.732l-201.02 18.023a4.593 4.593 0 0 1-.4.018z" fill="#ffffff" class="colorffffff svgShape"></path><path d="M207.255 313.46a1.5 1.5 0 0 1-1.5-1.5l-.005-33.228a1.5 1.5 0 0 1 3 0l.005 33.229a1.5 1.5 0 0 1-1.5 1.5zM240.27 308.407a1.5 1.5 0 0 1-1.5-1.495l-.099-31.625a1.5 1.5 0 0 1 1.495-1.505h.005a1.5 1.5 0 0 1 1.5 1.495l.099 31.625a1.5 1.5 0 0 1-1.496 1.505h-.004zM218.125 293.435c-1.009-1.217-1.75-2.851-2.089-4.603a40.893 40.893 0 0 1-.554-11.935 1.5 1.5 0 1 1 2.984.299 37.894 37.894 0 0 0 .515 11.062c.246 1.27.761 2.427 1.453 3.261 1.99 2.392 6.1.702 7.4-3.325.962-2.973 1.119-9.155.984-12.283a1.5 1.5 0 0 1 1.435-1.563c.852-.048 1.527.607 1.563 1.434.146 3.424-.012 9.89-1.128 13.334-.842 2.612-2.462 4.55-4.814 5.762-2.723 1.402-5.901.778-7.749-1.443zM109.471 266.675c-.03 3.889-.048 7.856 1.383 11.556 1.432 3.701 3.76 5.947 8.208 7.1-3.115-2.95-2.465-6.051-2.477-9.984l-.445-144.713c-.008-2.752-1.063-25.336 3.833-25.379-3.697.033-6.885 2.482-8.281 5.34-1.222 2.501-1.198 5.1-1.167 7.747.582 49.439-.66 98.878-1.054 148.333z" fill="#ffffff" class="colorffffff svgShape"></path><path d="M119.062 286.831c-.125 0-.251-.016-.377-.048-4.712-1.222-7.559-3.693-9.23-8.01-1.548-4.001-1.514-8.31-1.484-12.11.125-15.674.339-31.615.546-47.032 1.087-81.211.506-91.972.515-100.587-.038-3.257-.134-6.147 1.312-9.107 1.49-3.048 5.04-6.142 9.616-6.182h.013a1.5 1.5 0 0 1 .012 3c-.02 0-.085.037-.177.133-2.824 2.914-2.177 20.921-2.167 23.741l.444 144.713c.002.618-.012 1.216-.025 1.796-.072 3.05-.12 5.065 2.033 7.104a1.499 1.499 0 0 1-1.031 2.59zm-7.546-67.16c-.206 15.413-.42 31.35-.545 47.016-.03 3.705-.059 7.536 1.283 11.003.747 1.933 1.738 3.346 3.143 4.386-.415-1.622-.376-3.29-.336-5.009.012-.554.026-1.125.024-1.715-.283-161.058-1.253-160.26.912-167.359-1.352.875-2.388 2.094-2.958 3.261-1.072 2.195-1.044 4.563-1.015 7.07-.008 8.844.589 19.51-.508 101.347zM287.368 253.901a1.5 1.5 0 0 1-.093-2.997l34.466-2.166a1.51 1.51 0 0 1 1.591 1.403 1.5 1.5 0 0 1-1.403 1.591l-34.466 2.166a1.534 1.534 0 0 1-.095.003z" fill="#ffffff" class="colorffffff svgShape"></path><path d="M116.66 264.634a1.5 1.5 0 0 1-.097-2.997l156.62-10.464c.78-.066 1.54.57 1.597 1.397a1.5 1.5 0 0 1-1.397 1.597L116.762 264.63a1.392 1.392 0 0 1-.102.004z" fill="#ffffff" class="colorffffff svgShape"></path><ellipse cx="135.92" cy="119.965" rx="4.397" ry="4.572" transform="rotate(-87.765 135.92 119.965)" fill="#ffffff" class="colorffffff svgShape"></ellipse><ellipse cx="150.667" cy="120.892" rx="4.397" ry="4.572" transform="rotate(-87.765 150.667 120.892)" fill="#ffffff" class="colorffffff svgShape"></ellipse><ellipse cx="167.29" cy="122.552" rx="4.397" ry="4.572" transform="rotate(-17.422 167.29 122.552)" fill="#ffffff" class="colorffffff svgShape"></ellipse><path d="m305.12 142.495-.067-.001c-27.301-1.187-55.683-3.015-83.13-4.784-30.929-1.993-62.91-4.053-94.23-5.269-.828-.032-1.473-.729-1.441-1.557s.693-1.445 1.558-1.44c31.357 1.217 63.359 3.278 94.306 5.272 27.432 1.768 55.797 3.595 83.068 4.78a1.5 1.5 0 0 1-.065 3zM246.152 208.452l-.158-.21c-4.594-6.067-3.394-14.741 2.673-19.336l19.206-14.543c6.068-4.594 14.741-3.395 19.337 2.673l.157.207c4.595 6.07 3.397 14.743-2.672 19.338l-19.206 14.543c-6.066 4.594-14.722 3.422-19.337-2.672zm9.527 2.369c2.853.394 5.7-.347 8-2.089l19.206-14.543a10.797 10.797 0 0 0 2.09-15.134l-.157-.207a10.797 10.797 0 0 0-15.134-2.093l-19.206 14.543c-4.75 3.596-5.687 10.385-2.091 15.134.111.1 2.374 3.71 7.292 4.389z" fill="#ffffff" class="colorffffff svgShape"></path><path d="m217.248 230.78-.158-.209c-4.595-6.069-3.397-14.743 2.67-19.338l19.208-14.543c6.066-4.594 14.742-3.395 19.336 2.672l.159.21c2.225 2.938 3.173 6.568 2.668 10.22s-2.401 6.89-5.34 9.116l-19.207 14.542c-6.075 4.601-14.726 3.416-19.336-2.67zm30.04-33.884c-2.273 0-4.562.711-6.51 2.186l-19.207 14.543c-4.748 3.596-5.686 10.385-2.09 15.134l.158.207v.002c3.601 4.757 10.375 5.696 15.135 2.09l19.206-14.542c2.3-1.742 3.785-4.276 4.18-7.134s-.347-5.7-2.09-8l-.159-.211a10.793 10.793 0 0 0-8.624-4.275zM305.139 217.787h-33.877a1.5 1.5 0 0 1 0-3h33.877a1.5 1.5 0 0 1 0 3zM296.3 232.694h-20.742a1.5 1.5 0 0 1 0-3H296.3a1.5 1.5 0 0 1 0 3zM190.9 151.578a1.5 1.5 0 0 0-1.369-1.466l-53.9-4.715A1.497 1.497 0 0 0 134 146.89v61.985a1.503 1.503 0 0 0 1.56 1.499l54.953-2.233a1.5 1.5 0 0 0 1.44-1.528l-1.053-55.036zm-28.503 6.244c3.731-.473 7.353 3.42 8.31 6.408 1.41 4.4-1.25 9.722-6.662 9.724-4.7 0-8.568-3.95-8.56-8.282.006-3.594 3.366-7.41 6.912-7.85zm-17.462 37.512c.473-3.589 1.926-6.333 3.958-9.33 2.032-2.996 6.894-5.99 10.42-6.815 4.845-1.133 10.908.581 14.731 3.767 3.823 3.187 6.962 7.8 8.174 12-11.832-.47-25.473-.482-37.283.378zM208.266 156.997h58.954v8.422h-58.954z" fill="#ffffff" class="colorffffff svgShape"></path><path d="M267.22 166.919h-58.954a1.5 1.5 0 0 1-1.5-1.5v-8.422a1.5 1.5 0 0 1 1.5-1.5h58.954a1.5 1.5 0 0 1 1.5 1.5v8.422a1.5 1.5 0 0 1-1.5 1.5zm-57.454-3h55.954v-5.422h-55.954v5.422zM206.245 178.22h25.94v8.422h-25.94z" fill="#ffffff" class="colorffffff svgShape"></path><path d="M232.185 188.142h-25.94a1.5 1.5 0 0 1-1.5-1.5v-8.422a1.5 1.5 0 0 1 1.5-1.5h25.94a1.5 1.5 0 0 1 1.5 1.5v8.422a1.5 1.5 0 0 1-1.5 1.5zm-24.44-3h22.94v-5.422h-22.94v5.422zM134.315 245.005a1.5 1.5 0 0 1-1.499-1.426l-.917-18.506a1.5 1.5 0 0 1 1.424-1.572l65.61-3.252c.851-.057 1.532.597 1.573 1.424l.918 18.505a1.502 1.502 0 0 1-1.424 1.573l-65.611 3.252-.074.002zm.655-18.582.768 15.51 62.616-3.104-.77-15.51-62.614 3.104z" fill="#ffffff" class="colorffffff svgShape"></path><path fill="#ffffff" d="M45.345 241.406c-4.054-8.44-2.134-19.55 4.975-25.644-2.646 11.272 3.277 23.98 13.611 29.2 6.475 3.272 12.718 2.505 19.559 1.657 2.04 7.429-13.644 8.886-18.16 8.403-8.324-.89-16.319-5.985-19.985-13.616z" class="colorcccccc svgShape"></path><path d="M74.018 205.842a1.5 1.5 0 0 1-1.298-1.679l2.708-21.126a14.368 14.368 0 0 1 8.772-11.44l27.546-11.32a1.5 1.5 0 1 1 1.14 2.775l-27.545 11.32a11.361 11.361 0 0 0-6.937 9.047l-2.708 21.126a1.5 1.5 0 0 1-1.678 1.297z" fill="#ffffff" class="colorffffff svgShape"></path><path d="M76.288 196.307c-15.054-1.933-28.805 8.695-30.737 23.754-.933 7.278 1.024 14.483 5.51 20.289 5.265 6.812 13.244 10.676 21.792 10.676 13.484 0 25.397-10 27.19-23.981 1.93-15.056-8.693-28.808-23.755-30.738zm13.025 21.227c-6.24 4.992-12.856 10.706-19.155 15.746a1 1 0 0 1-1.455-.223L61.3 222.036a1 1 0 0 1 1.66-1.116l6.796 10.118c6.026-4.856 12.281-10.243 18.307-15.065a1 1 0 1 1 1.25 1.561z" fill="#ffffff" class="colorffffff svgShape"></path><path fill="#ffffff" d="M345.023 163.011c3.063 1.892 6.774 2.444 10.374 2.833 10.71 1.154 21.556 1.233 32.251-.031 3.605-.426 7.318-1.051 10.335-3.025 3.016-1.974 5.155-5.64 4.237-9.075.504 2.179-.965 4.428-2.923 5.578-1.958 1.15-4.306 1.44-6.58 1.67-12.454 1.263-25.081 1.485-37.464-.348-3.495-.517-7.073-1.24-10-3.177-2.928-1.938-5.077-5.37-4.483-8.774-.92 5.274-.939 11.142 4.253 14.35z" class="colorcccccc svgShape"></path><path d="M356.765 163.43c-3.841-.338-9.593-1.165-11.972-4.194-1.456-1.846-1.589-3.93-1.579-6.29 0 .1.17-42.886.287-70.12.018-4.083.155-8.214 3.668-10.609 3.201-2.176 7.847-1.672 11.937-1.45 4.374.193 6.294.316 8.177.429 2.454.134 4.637.089 7.149.244 15.335.826 13.105.597 15.735.947.82.11 1.398.863 1.29 1.684a1.505 1.505 0 0 1-1.686 1.29c-3.029-.403-3.921-.296-6.996-.445-25.568-1.362 1.365.12-25.409-1.236-1.943-.107-4.196-.242-6.091.103-4.481.842-4.754 4.185-4.775 8.75l-.002.76c-.34 76.256-.369 71.28-.073 72.536.32 1.326 1.012 2.256 3.05 3.091 1.768.724 4.31 1.236 7.551 1.522 11.928 1.037 27.028 1.05 35.125.03a1.5 1.5 0 1 1 .375 2.977c-9.673 1.218-25.878.842-35.761-.019zM396.08 161.054a1.5 1.5 0 0 1 1.275-1.697c3.222-.457 3.607-3.591 3.755-7.333.906-22.831 1.029-42.507.413-65.793-.084-3.19-.196-7.461-3.358-9.06-.984-.498-2.068-.889-3.315-1.196a1.5 1.5 0 0 1 .718-2.913c7.293 1.799 8.755 5.5 8.952 13.02.62 23.424.497 43.16-.412 66.061-.13 3.264-.37 9.338-6.332 10.185a1.5 1.5 0 0 1-1.696-1.274z" fill="#ffffff" class="colorffffff svgShape"></path><path d="M358.238 72.131c.246.05.523.123.593.146l1.261.068-.42-.05c-.455-.052-.936-.11-1.434-.164zM341.083 155.703c1.176 3.068 6.416 5.34 9.227 5.52-.949-.156-1.94-.703-2.815-1.49-.002 0-.002-.004-.005-.005-1.172-1.056-2.136-2.539-2.51-4.084-.457-1.878-.054-5.02-.046-7.666.205-66.388.288-67.443 1.1-71.2.457-2.103 1.751-3.696 3.248-4.491.003 0 .008 0 .01-.003 1.283-.643 3.099-.457 4.65-.21-3.105-1.008-9.438.538-11.162 3.526-1.517 2.63-1.553 7.889-1.586 11.112-.233 21.398-.718 39.887-.952 61.285-.036 3.384-.334 4.634.841 7.706z" fill="#ffffff" class="colorffffff svgShape"></path><path d="m395.597 86.434-45.349-1.543a1.5 1.5 0 0 1-1.448-1.55c.027-.828.747-1.465 1.55-1.448l45.348 1.543a1.5 1.5 0 1 1-.101 2.998zM396.611 150.3h-.027l-46.333-.816a1.5 1.5 0 0 1 .025-3h.028l46.333.816a1.5 1.5 0 0 1-.026 3z" fill="#ffffff" class="colorffffff svgShape"></path><ellipse cx="374.823" cy="155.142" rx="3.812" ry="2.355" transform="rotate(-88.991 374.823 155.142)" fill="#ffffff" class="colorffffff svgShape"></ellipse><path d="M366.568 120.622c-2.095-4.023-1.496-9.51 1.644-12.783 3.14-3.274 8.426-4.256 12.532-2.329l.192-9.027c-7.41-2.137-15.988.635-20.747 6.704-3.155 4.025-4.5 9.334-3.933 14.391.167 1.487 1.64 6.783 2.153 6.89.957.199 3.26-1.374 4.028-1.82 1.314-.765 2.693-1.533 4.131-2.026z" fill="#ffffff" class="colorffffff svgShape"></path><path d="M375.528 127.303c-6.722-.053-12.122-5.536-12.069-12.261l1.5.011-1.5-.011a12.177 12.177 0 0 1 12.262-12.07c6.709.053 12.123 5.554 12.07 12.262a12.177 12.177 0 0 1-12.263 12.07zm-6.436-5.736a9.108 9.108 0 0 0 6.46 2.736h.073c5.02 0 9.125-4.063 9.165-9.093.04-5.053-4.039-9.198-9.093-9.238-8.035-.16-12.357 9.749-6.605 15.595z" fill="#ffffff" class="colorffffff svgShape"></path><path d="M375.457 136.264c-11.65-.093-21.052-9.645-20.959-21.294.092-11.638 9.642-21.059 21.294-20.958 11.676.093 21.051 9.616 20.958 21.293a20.99 20.99 0 0 1-6.306 14.89 20.99 20.99 0 0 1-14.987 6.069zm-19.459-21.282 1.5.012c-.079 9.995 7.987 18.19 17.983 18.27a18.069 18.069 0 0 0 12.859-5.208 18.008 18.008 0 0 0 5.41-12.775c.079-10.018-7.962-18.19-17.981-18.27-10.028-.108-18.192 7.988-18.27 17.983l-1.5-.012z" fill="#ffffff" class="colorffffff svgShape"></path><path d="M393.84 120.503a65.16 65.16 0 0 1-7.832-1.391c-.579 2.707-2.959 4.742-5.602 5.566.627 2.886 1.396 5.94 2.023 8.826 5.149-2.244 9.944-7.58 11.41-13z" fill="#ffffff" class="colorffffff svgShape"></path></svg>
