<svg xmlns="http://www.w3.org/2000/svg" data-name="Layer 1" viewBox="0 0 500 500" id="website-ui-ux-development"><path fill="#fff" d="M459.89 314.71a1.09 1.09 0 0 1-.73 1.19c-.25.74-.64 1.18-1.19 1.11a1.11 1.11 0 0 1-.81-.69 2.37 2.37 0 0 0-.36.09 24.14 24.14 0 0 1-6.78.48 76.76 76.76 0 0 1-10.83.19c-5.4-.06-10.68-1.42-16.08-1.37-12.91-.11-25.77 1-38.62 1.93a10.8 10.8 0 0 1-2.66.77c-5.84.51-11.77.27-17.55 1-7.87.07-15.86.48-23.67.79-12.8-.35-25.46-.34-38.21-.19-.21.89-1.26.73-2 .8a72.72 72.72 0 0 1-10.12 0c-6.06-.25-12-.43-18-.23a1.7 1.7 0 0 0-.31.06c-1.28.16-2.54.27-3.81.32a5 5 0 0 0-1.47.78.41.41 0 0 1-.57-.05 1 1 0 0 1 .32-.7 158.12 158.12 0 0 0-17.95.49c-11.84.85-23.73 1.1-35.59 1.65-5.87.14-11.79.84-17.65.59-.88 0-1.86.12-2.79.12a16 16 0 0 1-1.81.22 88.44 88.44 0 0 1-9.2.48 104.69 104.69 0 0 1-14.8-1.05c-3.2.12-6.59.06-9.76-.07-5.88-.17-11.76-.8-17.64-.16a84 84 0 0 1-9.52.16c-9.74-.71-19.47 2.11-29.09.27a.94.94 0 0 1-.58-.41c-7.26.74-14.69.89-21.94 1.08-5.38.11-10.73.8-16.11.8-3.28.07-6.48-.67-9.7-1.13a13.75 13.75 0 0 1-3.8-.94.91.91 0 0 1-1-.15c-4-3.87-3.65-10-4.24-15.16-.87-8.43-.14-16.95-.67-25.37a.87.87 0 0 1-.2-.46c-1.73-9.53-.61-19.23-1.21-28.85-1.18-21.87-.8-43.76-.71-65.65.16-5.56-.13-11.13-.45-16.67-.09-5.22.2-10.45.37-15.68.07-2 .11-4.07.3-6.1-.43-10.94 0-21.93-.34-32.87-.45-.34-.42-.92-.44-1.43a84.59 84.59 0 0 1-.23-9.42.91.91 0 0 1-.9-.89c-.12-2.71 0-5.42 0-8.12a106.27 106.27 0 0 1 2-22.37v-2.83c0-.35 0-.71-.06-1V69.5a2.8 2.8 0 0 0 0-.29v-.23c-.09-1.17-.13-2.36-.18-3.55-.06-1.34-.11-2.69-.15-4v-3.8c0-1.25-.14-2.49-.19-3.73S40 51.11 40 49.76c0-1.16 0-2.32.07-3.48 0-.66.07-1.31.13-2s.11-1.23.21-1.83c.11-.76.22-1.52.35-2.27s.36-1.77.58-2.64c.11-.43.23-.85.35-1.27s.18-.56.29-.83a.43.43 0 0 1-.16-.31.47.47 0 0 1 .44-.49c1.31-.25 2.64-.46 4-.65a17.29 17.29 0 0 1 6.21-.99h1.32c1.41-.21 2.83-.45 4.23-.72 3.89-1 7.9-.95 11.88-1.25 7.84-.84 15.67-1.9 23.55-2.31 13.1-.64 26.1-2.64 39.23-2.79 7.95.12 15.87-.14 23.79-.18a.78.78 0 0 1 .6-.34l5.4-.14c12-1.16 24.16.31 36.19-.23 3.87-.15 7.77-.18 11.66-.13a81.74 81.74 0 0 1 13.45-.72c.94.22 3.93-.06 5.55.42 5.45.09 10.93.86 16.35 1.07.51-1.15 2.25-.61 3.26-.71 3.42.15 6.83.5 10.24.76 7 .39 13.93 0 20.91 0l2.53.06c6.32-.36 12.66-.69 19-.75 9.74.25 19.49 1 29.19 1.85a.62.62 0 0 1 .5-.62c3.87-.73 7.85-.26 11.72 0a203.63 203.63 0 0 1 23 .46c7.82.49 15.62.78 23.41.77 6.86-.7 13.77-.69 20.64-.89 7.2-.09 14.44.92 21.63 1.11 5.29.11 10.53-.5 15.81.16a12.73 12.73 0 0 1 3.92 1.05v-.2a.76.76 0 0 1 .86-.42.67.67 0 0 1 .46.85.61.61 0 0 1-.16.28v.36c0 .12.17.19.26.3.31.74.22 1.23-.08 1.53.84 9.29.53 18.64 1.19 28 .11 12.56-.68 25.1-.31 37.65.09 9.36 1 18.69 1.47 28 .3 10.41 0 20.83.25 31.24.05 8.73-.06 17.51.45 26.22.56 7.35 1.12 14.67 1.22 22V207.3c.1 3.15.08 6.3 0 9.44v2c-.08 5.19-.18 10.38.1 15.57.41 12.82 2.06 25.55 1.71 38.39.18 11.33.29 22.67.67 34a70.24 70.24 0 0 1-.1 7.4 1.14 1.14 0 0 1 .47.61ZM443.66 401.34c.55 4.34.76 8.86-1.25 12.89a54.45 54.45 0 0 0-4.55 7.59 16.7 16.7 0 0 1-1.86 2.28 7.29 7.29 0 0 1 3.91 3.66 48.52 48.52 0 0 1 1.25 9.9c.17 4.45 1.47 8.76 1.59 13.21.19 9.17-1.36 22.69-13.17 22.71-6.5-1.4-5.22-7-6-12-1.11-6.5-2.58-13-4.18-19.31l-3.79-.4a.69.69 0 0 1-.5.15 70.76 70.76 0 0 1 .3 8.11c.34 5.5 0 11.6-3.5 16.1a14 14 0 0 1-3.37 4.4c-1.3 1.46-3.18 1.9-4.92 2.53-3.3 1.74-7.15 2.05-10.82 1.9-2-.31-4.36-.31-5.57-2.13-.46-.61-1.05-1.31-.68-2.11-2.14-2.09 1.14-3.31 2.83-3.77a8.1 8.1 0 0 0 2.1-1.58c3.19-4.46 2.83-10.1 2.53-15.3.47-2.66-.27-5.18-.4-7.79v-.45a10.07 10.07 0 0 1-2.66 1q.57 3.42.81 6.87c0 1.24 0 2.66-.89 3.61-2.11 2-5.22 2.79-8.16 2.8a.75.75 0 0 1-.13.25c-1.42 1.38-3.58.52-3.26-1.57-10.83 1.51-20.39 5.19-30.95 7.53-2.79.59-5.58 1.14-8.37 1.69a.78.78 0 0 1-.76-.32 76.73 76.73 0 0 1-14.24 1.34c-4.48-.05-9.5-.65-12.88-3.88-2.52-2.09-5.21-5.26-4.2-8.76a52.25 52.25 0 0 1 6.27-14.12 19 19 0 0 1 3.8-4.89c.66-.48 1.48-1.73 2.34-2 2.29-2.31 5-4.22 7.34-6.48 8.84-8.7 18.31-16.77 27.89-24.65 5.69-4.65 11.73-8.93 16.78-14.29.47-.49.93-1 1.41-1.49a.9.9 0 0 1 .61-1.12.89.89 0 0 1 .62 0l.21-.16a.8.8 0 0 1 1 .08.86.86 0 0 1 .23.5c7.84 2.24 14.9 6.51 22.75 8.67a47.27 47.27 0 0 0 20.57 0 76.86 76.86 0 0 0 19.9-8.53 1 1 0 0 1 1.2.62.84.84 0 0 1 0 .27 1.57 1.57 0 0 1 .28.44 56.06 56.06 0 0 1 2.54 16ZM92.32 403.77a3 3 0 0 1-1.78-1.92c-1-2.68-1.77-5.46-2.69-8.18a40.89 40.89 0 0 1-1.69-5.83c0-.76-.7-1.79-.29-2.41.6-.43 1 .43 1.19.86a.61.61 0 0 1 .37.74 68.38 68.38 0 0 0 3.45 9.14c.47 1.25 4.98 8.57 1.44 7.6Z"></path><path fill="#fff" d="M149.35 364.07c.45 1.47-.64 3-1.55 4.06a15.82 15.82 0 0 0-.83 3.47 26.28 26.28 0 0 1-1.67 4.08 192.65 192.65 0 0 1-7.93 19.08c-.65 1.44-1.14 2.76-1.64 4.23-.39.78-.67 2.36-1.15 3.66l1.58.14c2.1.15 4.19.45 6.29.61 1-.11 2.28.51 1.75 1.51 1 2.18 1.29 7.23.09 8.29a55.65 55.65 0 0 1-.27 9.57c.22 2.87-.82 5.58-1.1 8.34-.7 4.41-.7 8.89-1.34 13.3.12 7-1.2 13.92-.62 20.87a2.57 2.57 0 0 0 .15.47.91.91 0 0 1-.33 1.24.76.76 0 0 1-.33.11 3.32 3.32 0 0 1-.77.4 36.41 36.41 0 0 1-11.82 1.68c-8-.24-15.93-1-23.93-1.11-6.68-.11-13.4.34-20-.76a.8.8 0 0 1-.76.79 3.23 3.23 0 0 1-1.07-.12 4.51 4.51 0 0 1-2.23-1.63c-.5-.24-.81-.55-.7-1a.6.6 0 0 1 .09-.13c-.83-2-.7-4.63-.66-6.73 0-4 .43-8.06.07-12.08-.45-5.7 0-11.35-.42-17-.49-6.37.1-12.69-.37-19 0-2 .31-3.59 1.8-4.27a.8.8 0 0 1-.15-.43.85.85 0 0 1 .81-.87c2.14-.05 4.29-.09 6.36-.31 3.53-.48 7.06-.51 10.6-.82 4.42-.28 8.86-.63 13.3-.92a1.89 1.89 0 0 1 0-.75c.26-1.84.62-3.8.84-5.6a370.15 370.15 0 0 1 3-38.51.59.59 0 0 1-.35-.59c.19-1.87.56-3.72.93-5.57a3 3 0 0 1-.46-1.8c.5-1.13 2-.56 2 .56.19.77.82 1.28.87 2.1a45.62 45.62 0 0 1-.26 7.84 143.66 143.66 0 0 0-2.43 25.34c-.14 3.16-.54 6.31-.67 9.48-.19 1.73.16 5.54-1 7.35 3-.17 5.91-.3 8.87-.36a1.67 1.67 0 0 1 .14-.53 129.36 129.36 0 0 1 3.14-13.35c2.3-8.12 4.49-16.36 7-24.38.4-1.49.77-3 1.08-4.51a.77.77 0 0 1 .49-.56 1.27 1.27 0 0 1 2.23-.75 1.41 1.41 0 0 1 .25 1.14c-.16 2.05-1.26 3.89-1.45 5.9-.66 3.48-1.24 7-2.79 10.21a45.47 45.47 0 0 0-3.2 9c-.9 3.42-2 6.74-2.74 10.19-.49 1.46-.89 5.57-2 7.62 2.25 0 4.49 0 6.74.12.1-.28.21-.56.29-.82.49-.87.74-2 1.54-2.59 5-10.15 7.37-21.4 12.45-31.54.6-1.3 1.38-2.52 1.9-3.86a.61.61 0 0 1 .75-.41h.1a1.06 1.06 0 0 1 1.52.84Zm-69.24 43.64Z"></path><path fill="#fff" d="M102.62 364.1c.69.3 1 1.54 1 2.23a3.9 3.9 0 0 1-1.37 3c-1.17 1.59-2.77 3.38-5 3a.87.87 0 0 1-.47-.25c-2.86 1.68-6 3-8.58 5.1-5.52 4.27-11.38 8-17.13 11.93-.9.6-1.77 1.24-2.58 1.88a3 3 0 0 1-2.13.92 3.14 3.14 0 0 1-2.93-2.15c-1.09-3-2.88-6-2.77-9.29-.12-.46.4-1 .76-.46a.49.49 0 0 1 .16.05c7.52-4.68 14.48-10.13 22.16-14.55 2.86-1.7 6-3 8.88-4.55 2-1 4.07-2.42 6.32-2.85.92.12 1.47 1 1.93 1.71a10.15 10.15 0 0 1 1.5 3.85c0 .13.07.26.1.39ZM170.14 418.35c-1.93-.35-.8-2.9-.93-4.24.13-1.18-.66-5.7 1.59-4.71a1.22 1.22 0 0 1 .45 1 27.2 27.2 0 0 1 .18 4.42c.07 1.18.57 3.5-1.29 3.53ZM176.92 411.76c-2.08-.52-.75-6.33.24-7.57a1.14 1.14 0 0 1 2.24-.23 18.32 18.32 0 0 1-.25 6.13c0 .8-.6 1.81-1.52 1.39a.87.87 0 0 1-.71.28ZM190.06 402a1 1 0 0 1-.18-1.12c.47-1.26.92-2.52 1.51-3.73.6-.93 1.41-4.09 2.86-2.59.47.76 0 1.69-.11 2.49-.51 1.44-.61 4.55-2.6 4.52a.93.93 0 0 1-1.17.6.94.94 0 0 1-.31-.17ZM197.8 411a1 1 0 0 1-.61-.35 1.23 1.23 0 0 1-.28-.71c-.68-1 .19-2.63.54-3.64a19.66 19.66 0 0 1 3.09-4.78 1 1 0 0 1 1.28-.69 1.07 1.07 0 0 1 .52.35c.43.75 0 1.65-.21 2.4 1.09 1.04-2.8 8.69-4.33 7.42ZM237.12 430.43a1.2 1.2 0 0 1-.37-.82 24.4 24.4 0 0 1 1.33-4.87c.55-1.69.19-3.43.64-5.11a16.35 16.35 0 0 1 1.16-3.32 7.47 7.47 0 0 1 .36-3.18 46.17 46.17 0 0 1 3-7.59.69.69 0 0 1 .73-.62 1.08 1.08 0 0 1 .88 0 1.1 1.1 0 0 1 .35.3 3 3 0 0 0 .89 0c.42.07.7.38 1.09.52h.11a1 1 0 0 1 .8.38c2.85.72-.21 5.32-.76 7-1 2.83-1.52 5.9-3.05 8.5-.55.74-1.09 2.1-2.22 1.82a1.25 1.25 0 0 1-.3.26l-.12.06c-.73 1.56-2.02 8.46-4.52 6.67ZM236.42 401.6c.63-.9 1.55-.43 1.58.58-.38 2.93-1 6-1.35 8.88-.24 1.8-.54 3.69-.84 5.46a.79.79 0 0 1-.83.61c-.67-.14-.77-.72-.66-1.4a7.66 7.66 0 0 1-.83 0c-2.92.17-5.82.53-8.72.84-1.34.12-2.76.41-4-.17-3.13-1.25-2.77-9.91-2.75-12.92a.75.75 0 0 1 .94-1.1c1.17-.86 2.86-.54 4.18-.6a41.62 41.62 0 0 0 4.74-.12c1.84.15 6.53-1.11 8.34.17Z"></path><path fill="#fff" d="M244.83 461.77a27.42 27.42 0 0 1 0 4.62 1 1 0 0 1-1.09.64c-1.63 1.22-4 1.32-6 1.33-2.78-.24-5.44-.8-8.21-.89a17.88 17.88 0 0 1-5.06-1 57.51 57.51 0 0 1-7.19.09 3.3 3.3 0 0 1-2.46.27c-.83-.38-.67-1.59-.63-2.32s.08-1.59.16-2.38c.89-6.78-.41-13.73 0-20.52.41-3.23.18-6.59.94-9.75a.64.64 0 0 1-.14-.35.65.65 0 0 1 .46-.62.66.66 0 0 1 .81-.06 4 4 0 0 0 1 0c2.46-.28 4.93-.44 7.42-.5.08-2 .21-4 .26-6 .06-.85-.05-1.65 0-2.47a.59.59 0 0 1 .75-.34.58.58 0 0 1 .33.32 6.54 6.54 0 0 0 .08-.88.85.85 0 0 1 .74-.96c.87-.14 1.09.78 1 1.46a.82.82 0 0 1 .43.85 25.85 25.85 0 0 0 0 4.31 29.32 29.32 0 0 0 .33 3 1.46 1.46 0 0 1 .1.65c3.23.06 6.44.26 9.63.55 1.11.12 5.33-.8 4.48 1.25a6.37 6.37 0 0 1 .86 2.38c.3 4.38-.9 8.94.17 13.27.81 4.67.64 9.35.83 14.05ZM194.23 433.29c1 1.23.4 2.78.39 4.2 0 3.26-.42 6.44-.62 9.66-.46 3.6 0 7.17.12 10.75.34 2.59.06 6.48-2.86 7.37a15.24 15.24 0 0 1-9 1.47 71.5 71.5 0 0 1-12-2c-2.78.1-6.68 0-7.32-3.39-.75-4.51.06-9.14-.2-13.69a96.87 96.87 0 0 1 0-9.79c.07-1.93-.13-4.52 1.79-5.64.2-.54.82-.65 1.32-.7 4.83-1 9.76-.65 14.64-.26 4.37.6 10.2-.89 13.74 2.02Z"></path><path fill="#b6d8d6" d="m392.3 405.45 2.71.68a16.44 16.44 0 0 0 3 .4c1.42.09 2.84.15 4.26.15h1.37c1 0 1.94-.08 2.91-.16a26.64 26.64 0 0 0 2.83-.33 15.55 15.55 0 0 0 1.93-.48 9 9 0 0 0 1.33-.54 2.5 2.5 0 0 0 1.2-.61 1.93 1.93 0 0 0-.05-2.73 1.79 1.79 0 0 0-.59-.39 2.42 2.42 0 0 0-1.19-.15l-.44.11h-.19a9 9 0 0 0-1.46.18c-.84.18-1.69.39-2.55.54a49.76 49.76 0 0 1-5.72.48h-3.48q-1.74 0-3.48-.06c-.51-.07-1-.14-1.52-.23a2 2 0 0 0-.83-.52 1.89 1.89 0 1 0-1.1 3.62 1.69 1.69 0 0 0 .89 0ZM320 465.84c-1.85-.18-3.38-1.27-5-2.16s-3.5-1.72-4.86-3.13c0-.27-.08-.54-.11-.82a27.9 27.9 0 0 1-.09-3.17 37.92 37.92 0 0 1 .58-5.21 20.91 20.91 0 0 1 .68-2.21 26.57 26.57 0 0 1 1.28-2.56c1.11-1.7 2.27-3.37 3.53-5 1.1-1.21 2.23-2.39 3.3-3.63 1-1.08 2-2.07 3.09-3.07s2.35-2.31 3.52-3.48l3.74-3.72c1.16-1.15 2.37-2.26 3.55-3.41l.07-.07.2-.19 1.08-1.05c3-2.89 6.1-5.62 9.1-8.48 2.61-2.49 5.06-5.15 7.79-7.5 1.55-1.26 3.13-2.47 4.64-3.78s3-2.55 4.47-3.81 3.17-2.76 4.81-4.06 3.38-2.91 5-4.41c1-.86 2-1.66 3-2.52s1.75-1.71 2.63-2.54l.46-.34.17-.11c.56-.24 1.12-.51 1.66-.8a2.61 2.61 0 0 0 .46-.34 34.28 34.28 0 0 1 7 2.75c1.15.81 2.33 1.6 3.54 2.35 2.44.35 6 1.86 7.07 2a45.88 45.88 0 0 0 5.46 1.23 82.69 82.69 0 0 0 17.65-.48c4.47-.65 9-1.35 13-3.48 2-1.26 3.79-2.83 5.83-4a16.31 16.31 0 0 0 .6 2.94c.33 1.08.69 2.16 1 3.25.19.79.34 1.58.49 2.37.19 1 .45 2 .73 3s.39 1.92.54 2.88v-.27c.23 1.85.42 3.72.48 5.59 0 .8 0 1.6-.08 2.4s-.18 1.64-.32 2.46-.48 1.64-.77 2.44-.58 1.43-.9 2.14-.76 1.38-1.18 2a1.43 1.43 0 0 0 .14-.2c-.62.9-1.23 1.83-1.83 2.75q-.51.75-1.08 1.47c-.37.37-.75.72-1.13 1.08-.92.78-1.83 1.59-2.8 2.31-.35.24-.72.46-1.1.68s-.57.26-.87.38c-1.55.55-3.1 1.08-4.67 1.57s-2.85.84-4.29 1.21c-.83.18-1.66.37-2.5.49s-1.53.2-2.28.35l-2.4.49a5.88 5.88 0 0 0-.7-2.72c-1.32-.44-2.61-.74-3.93-1.1a.57.57 0 0 1-.77-.27.36.36 0 0 1 0-.11c-1.21 0-2.44 0-3.57-.1-3.42-.22-6.72.75-10.11.77-2.05.3-4.13.89-6.19 1.29-.49.5-.91 1.07-1.35 1.61 0 .17.07.33.11.5-.28-.59-.55-1.18-.85-1.75a12.23 12.23 0 0 0-1.3-2.17c-.81-1-1.4-2.36-2.71-2.79a6.32 6.32 0 0 0-2-.28 6.83 6.83 0 0 0-4.75 1.43 4.47 4.47 0 0 0-.8.71 2.34 2.34 0 0 0-.29.41 1.8 1.8 0 0 0-2 1.56 1.75 1.75 0 0 0 .08.79l-.09.05a1.89 1.89 0 0 0-.37.32l-.57.16c-1.09.3-2.19.65-3.25 1s-2.16.86-3.25 1.27-2 .57-2.93.9l.15-.05-.82.27h-.25c-.94.32-1.84.74-2.74 1.14s-2 .9-3 1.31l-1.58.64c-.48.2-.94.44-1.41.66-.92.43-1.81.94-2.71 1.42l-.17.08h-.06l-.27.13-.32.16a16 16 0 0 1-1.62.63l-.52.14a1 1 0 0 0-.34 0 .84.84 0 0 0-.71.95 1 1 0 0 0 .15.36c.33.49 1.06.36 1.52.24.76-.2 1.52-.4 2.25-.67 1.41-.5 2.76-1.11 4.15-1.68s2.88-1.1 4.3-1.72c.63-.28 1.27-.57 1.91-.84s1.37-.54 2.07-.78c1.08-.3 2.15-.57 3.23-.83s2.27-.61 3.4-1l-.17.06.36-.12-.17.06c.7-.22 1.41-.43 2.12-.61a18.19 18.19 0 0 1 1.77-.42H373l.16.36c.22.48.44 1 .65 1.45.46 1.22.85 2.47 1.24 3.72s.65 2.69.94 4c.14.66.3 1.32.42 2s.23 1.42.34 2.14v-.25l.07.52v-.25l.06.4a.28.28 0 0 0 0 .09v.24c.15 1 .32 2.08.49 3.13.15 1.54.3 3.07.39 4.62a11.47 11.47 0 0 1 0 1.17c0 .44-.05.89-.08 1.34v.21c-1 .09-1.93.16-2.86.34a50.84 50.84 0 0 0-8.84 2.3 120 120 0 0 1-19.37 5.17c-6.65 2.13-13.57 3.66-20.57 3.1a1.23 1.23 0 0 1-.54 0 20.15 20.15 0 0 1-4.17.43 5.4 5.4 0 0 1-1.33.18ZM392.62 405.31h.08-.06ZM392.63 405.31ZM412.67 405.13h-.07ZM412.7 405.13Z"></path><path fill="#b6d8d6" d="M382.84 450.36a40.23 40.23 0 0 0-.43-4.78 43 43 0 0 0-.8-4.51c-.39-1.52-.79-3-1.29-4.53-.2-.63-.41-1.26-.64-1.88s-.53-1.3-.79-2c-.33-.92-.59-1.86-.87-2.79-.15-.49-.29-1-.46-1.47a7.65 7.65 0 0 0-.54-1.29l-.3-.56-.1-.21v-.12c0-.03 0-.28-.06-.41v-.05h.09c.36-.15.74-.28 1.1-.44l-.18.08a12.62 12.62 0 0 1 1.6-.56 5.4 5.4 0 0 1 .58-.11c.62 0 1.25-.07 1.88-.06h.24l.09.1c.39.47.77 1 1.12 1.46.11.17.21.34.31.52.22.45.42.9.6 1.38a.56.56 0 0 1 0-.12v.15l.11.33c0-.06-.05-.13-.07-.2.36 1.14.63 2.31 1.06 3.44s.8 2.12 1.19 3.19.59 1.84.81 2.78a89.45 89.45 0 0 1 1.67 9.59c0 .46.05.91.05 1.36 0 1-.08 2-.13 3s-.12 2-.22 3c0 .19-.05.39-.07.58a12.11 12.11 0 0 1-3.26.66 11.3 11.3 0 0 0-2.46.89 40.58 40.58 0 0 0 .17-6.42Z"></path><path fill="#b6d8d6" d="M388.44 454.73a.5.5 0 0 1 0 .12s-.01-.08 0-.12ZM384 428.23ZM349.18 435.93ZM376.24 426.63l-.06.1ZM376.81 443.79v.07ZM347.48 437.08ZM347.37 436.93ZM350.07 435.51ZM374.71 429l-.06.07ZM374.63 429.09ZM374.65 429.08zM374.65 429.08v-.01.01zM333.34 424.25ZM370.69 390.76l-.14.13ZM269.3 214.42c-5.35-.67-8-1.56-10.82-6.44-.33-.84-1.6-2.12-.4-2.78-.06-1.17 1.26-1.2 2-.68h.24l1.16-.19c.19-.74 1.15-.76 1.76-.86a25 25 0 0 1 6.47.22c1.71.28 3.92.63 4.48 2.54a6.41 6.41 0 0 0 .74 1.05c1.61.23 2.37 3.17 1.71 4.48.23 1-.88 1.57-1.71 1.68-1.56 1.18-3.74 1.17-5.63.98ZM64.66 148c-.78-.17-1.85-.56-2.1-1.36a.39.39 0 0 1 .39-.4H63c.19.05.27.26.47.26h.82c-.24-.24-.47-.47-.72-.68a3.64 3.64 0 0 1-1.88-.93c-1.5-3-1.2-6.6-1-9.85a76.78 76.78 0 0 0-.41-9.71c-.81-6.83-2.13-13.59-2.81-20.43a17.23 17.23 0 0 1 .2-5.73c.87-.1 1.72-.22 2.58-.36 1.67-.28 3.33-.47 5-.67h-.1c1.6-.19 3.2-.41 4.8-.61 2.84-.32 5.68-.49 8.52-.83a56.91 56.91 0 0 1 5.69-.46c1.09 0 2.19.07 3.28 0a25.44 25.44 0 0 0 3.29-.24c2.24-.34 4.47-.68 6.72-1 1.65-.16 3.3-.29 5-.43s3.2-.36 4.79-.55c2.08-.16 4.16-.28 6.22-.51s4.25-.51 6.36-.79c1.54-.16 3.08-.31 4.63-.42 1.76-.12 3.51-.29 5.26-.43s3.3-.14 5-.18l4.95-.16c2 .07 4 .23 6 .27h6.12a47.45 47.45 0 0 1 5.06.56c.35.06.7.12 1 .21l.23.08c.23.12.46.23.69.36.41.27.8.55 1.18.85l.69.57a.19.19 0 0 0 0 .08 30.53 30.53 0 0 1 .58 3.55c.06.52.08 1 .09 1.54-.07 1.34-.21 2.67-.21 4v3.78c-.11 4.08-.08 8.15-.12 12.23v.24c-.07 3.37-.14 6.73-.11 10.1v-.43c0 1.43 0 2.86.08 4.3.07 1.22.22 2.44.39 3.65.07.46.13.9.2 1.35-4.37.16-8.73.66-13.11.87-5.94.08-11.92-.07-17.8.9a141.85 141.85 0 0 0-15.9 2.14c-6.16.36-12.32 1.26-18.5 1.11l-1-.07c-1.32.12-2.64.21-4 .33-3.64.36-7.22 1.07-10.87 1.32-4 .63-9.37 2.6-13.94 2.6a13.14 13.14 0 0 1-1.75-.02ZM79.57 91.36c6.63-.88 13.17-2.52 19.9-2.66 2.83-.19 5.66-.26 8.49-.28l-.82.07c-1.33.12-2.66.31-4 .49-2.19.23-4.39.36-6.57.64s-4.62.66-6.94 1h-.51c-.73.07-1.44.12-2.18.13H85.12c-1.37.07-2.72.29-4.07.49-2.65.4-5.29.85-7.94 1.18-1.15.14-2.24.46-3.37.69-.9.18-1.79.34-2.69.49 4.15-.83 8.31-1.6 12.52-2.24ZM188.57 142.61c-1.81-.5-1.22-2.61-1.09-4 0-2.5.71-4.89 1.09-7.28.72-5.12.12-10.22.28-15.34.43-6.31.34-12.64.53-18.93.29-2.82.18-5.73.62-8.56h2.79c2.78 0 5.56-.06 8.34-.12 2.94-.07 5.87-.16 8.81-.27 2.57-.09 5.15-.13 7.72-.2 1.55-.05 3.11-.12 4.64-.31 1.28-.16 2.56-.36 3.84-.5 2.4-.22 4.81-.39 7.22-.44 2.57 0 5.15.06 7.71 0s5.36-.35 8-.55c4.2-.29 8.41-.53 12.61-.59 4-.06 8-.13 11.95-.17h-.4 1.87-.4.77-.41a137.8 137.8 0 0 1 14.34 1.4h.4-.17l9 1.07c.2.24.4.49.59.74a9.35 9.35 0 0 1 .49.82c.12.27.24.54.35.81l.18.66c0 .11 0 .23.05.35.11 1.65.19 3.31.21 5-.12 2.28-.28 4.55-.4 6.83-.06 1.06-.14 2.11-.18 3.17s0 2.11-.07 3.16c-.11 1.94-.21 3.88-.18 5.83 0 1 0 2 .07 2.93s.13 1.82.14 2.73 0 1.91.11 2.88.18 1.69.26 2.54c.16 1.86.21 3.73.32 5.6a22 22 0 0 0 1.16 6h-.87a1.11 1.11 0 0 1-.72-.51 135.29 135.29 0 0 1-25.34 1.82 63.54 63.54 0 0 0-6.49.51.59.59 0 0 1-.56-.45.55.55 0 0 1 0-.22h-2.3c-5.94.26-11.89 1-17.82.89-1.18-.11-2.36-.15-3.54-.21-4.42 1-8.89.66-13.38.35a72.61 72.61 0 0 0-8.6-.27c-9 .72-18 2.34-27.1 2.11-.78 0-1.56-.08-2.34-.1a10.54 10.54 0 0 1-3.5.79 4.21 4.21 0 0 1-.6.03ZM289.42 86.81ZM191.15 83.67a2 2 0 0 0 1 .41 25.24 25.24 0 0 0 2.88.14h1l-2.31.25a38.91 38.91 0 0 1-3.89.28 2 2 0 0 1 1.32-1.08ZM333.6 138.62c-2.82-.48-8.24.26-9.41-3 .92-6.67-.28-13.57.43-20.3.19-5.3.83-10.48.78-15.77.08-2.84.37-5.68.65-8.51 1.2-.45 2.39-.92 3.58-1.39a44.37 44.37 0 0 1 4.37-1.39 30.44 30.44 0 0 1 3-.49c1.24-.08 2.46-.14 3.7-.15 2.17.12 4.33.31 6.5.42l6.47.33c4.32.21 8.64.09 12.95.17l2.37.09c6 .18 12 .09 17.93-.18q4.71-.21 9.42-.34c2.91-.08 5.81-.08 8.71-.11H405h10.11c2.94.07 5.88.22 8.82.39l2.2.19v1.11c0 .5-.05 1-.08 1.5 0 .56-.06 1.11-.08 1.67V93a1.93 1.93 0 0 1 0 .24c-.05 1.09-.09 2.18-.12 3.28-.1 4-.14 8.11-.44 12.15-.15 2.14-.23 4.29-.23 6.43v14.82c0 1.04.09 2.2.19 3.29v-.3c.07.87.15 1.74.25 2.61-.55 0-1.11 0-1.66-.05-.76 0-1.51-.07-2.26 0-13.71-.08-27.38-1.17-41.08-1.58-5.32 0-10.69.14-16 .51a.74.74 0 0 1 .31.61c-.49 1.9-9.22.85-12.88.85l-1.93.35a.58.58 0 0 1-.27-.22c-5.29.42-10.27 2.66-15.59 2.66ZM327.21 84.73l-.6.24a.52.52 0 0 1 .6-.24ZM328.39 83.77a3.37 3.37 0 0 1 1.75-.14c-.67.23-1.33.48-2 .73h.11l-1 .41a3.2 3.2 0 0 1 1.14-1Z"></path><path fill="#b6d8d6" d="M425.93 93.29a.66.66 0 0 1 0-.14.76.76 0 0 1 0 .15ZM116 53.65a2 2 0 1 0 1.86-2.08 2 2 0 0 0-1.86 2.08Zm4.5 7.62c-5.64-.31-9.5-2.8-8.87-8.94-1-.89-.82-2.46-.6-3.66.35-2.13 2-3.69 3.58-5a12.28 12.28 0 0 1 3-2.08c1.62.54 3.22 1.13 4.82 1.77.72.34 1.42.68 2.12 1.06s1.13.72 1.67 1.14c.39.33.77.67 1.13 1s.67.73 1 1.11c.54.72 1.05 1.45 1.55 2.2.21.36.42.72.62 1.09s.23.56.34.84l.09.3c0 .22.07.43.1.65s0 .53 0 .79c0 .59-.08 1.18-.15 1.77a11.28 11.28 0 0 1-.76 1.18 8 8 0 0 1-4.14 3.66 13.72 13.72 0 0 1-4.62 1.2 5.47 5.47 0 0 1-.9-.08ZM84.13 57.19a.62.62 0 0 0 .64.57.62.62 0 0 0 .57-.64.63.63 0 0 0-.65-.57.6.6 0 0 0-.56.64Zm2.4 6.81c-5.37-.58-9.2-7.82-7.87-12.8a13.23 13.23 0 0 1 3.15-4.72l.69-.23c.73-.2 1.45-.39 2.2-.52.41-.05.82-.08 1.24-.1s.69 0 1 0c.59.09 1.18.22 1.77.36l.45.14.47.23c.43.28.85.57 1.27.87s.64.53 1 .81.48.53.71.81c.36.5.68 1 1 1.51.18.32.36.65.52 1s.18.49.25.72c.17.69.33 1.37.48 2.07.14.93.27 1.85.34 2.79v1.4c0 .47-.08.84-.14 1.26s-.16.69-.25 1-.19.53-.3.8-.31.59-.48.87c-.08.12-.16.23-.23.35A19.28 19.28 0 0 1 86.88 64ZM49.26 58.78a2.59 2.59 0 1 0 2.55-2.62 2.62 2.62 0 0 0-2.55 2.62Zm7.92 6.81a12.44 12.44 0 0 1-6.12-2.44c-1.74-2.41-3.77-5.28-3.57-8.38a13.11 13.11 0 0 1 6.33-9.38c.48 0 1 0 1.46.07s1.15.19 1.72.32c.83.23 1.65.48 2.46.78.36.15.71.32 1.06.5a13.69 13.69 0 0 1 1.22.82c.45.35.89.72 1.31 1.11s.54.59.8.9.48.69.71 1.06.55 1 .8 1.52a12.38 12.38 0 0 1 .46 1.2c.22.75.38 1.51.54 2.27a14.62 14.62 0 0 1 .2 1.48v.86c0 .29-.06.65-.11 1s-.19.83-.31 1.25c-.23.64-.46 1.29-.68 1.93-2.34 1.7-5.24 3.16-8.18 3.16ZM66.51 59a.36.36 0 0 0 0 .1.36.36 0 0 1 0-.1ZM61.84 47.94a1.41 1.41 0 0 0 .18.14 1.24 1.24 0 0 1-.18-.14ZM60.28 46.92h.08Z"></path><path d="M44.63 318.38a1.19 1.19 0 0 1-.23.75 1.29 1.29 0 0 1-.16.17.91.91 0 0 1-.23.15h-.25a1.18 1.18 0 0 1-.82-.15 1.1 1.1 0 0 1-.41-.42.88.88 0 0 1-.1-.36c-2-18-1.89-36.15-2.48-54.24-.76-24.09-.36-48.2-.63-72.3-.68-30.53-.26-61.07-1-91.59 0-16.34.69-32.69.78-49q0-6.33-.08-12.66c-.55 0-.55-.73-.23-1 .9-.88 1.22.72 1.22 1.44.16 2.35.3 4.7.4 7.06.59 13.25.25 26.56 0 39.82.16 33.58.61 67.16.92 100.73.39 30.16 0 60.32 1.13 90.47.29 9.45.6 18.94 1 28.37.24 3.46.58 6.91.9 10.36.07.77.15 1.54.21 2.31a.22.22 0 0 1 .06.09ZM461.69 311.33a1 1 0 0 1-2 .27 76.21 76.21 0 0 1-1.33-18.09c-.23-11.79-.15-23.6-.63-35.37-.93-18-1.36-36-1.45-54-.65-23.93-1.1-47.87-1.08-71.81-.17-12.16-1.31-24.28-1.7-36.42-.28-10.24-.1-20.48-.24-30.71v-1.51c0-1.59-.06-3.17-.11-4.76.08-9.14-1.3-18.36-.94-27.46v-.07a.87.87 0 0 1 .34-.5.51.51 0 0 1 .16-.09.92.92 0 0 1 .61-.09.59.59 0 0 1 .19.05h.06a1 1 0 0 1 .33 1.33l-.06.08v1.18c.05 2.37.16 4.74.29 7.11.47 8.17 1.27 16.32 1.27 24.52.42 12-.08 24 .59 35.92 1.19 18.17 1.82 36.35 1.57 54.56.19 21.05 1 42.08 1.14 63.13.47 27.26 2.2 54.5 1.88 81.79-.11 3.72.8 7.3 1.11 10.94ZM412.61 235.1c.41.12 1 .45.79 1s-.56.38-.89.26a1 1 0 0 0-1 .55 5.3 5.3 0 0 0-.53 1.49q0 .24-.09.42c1.48.3.91 2.17.21 3a.61.61 0 0 1-.77.41.7.7 0 0 1-.33-.26c-.32-.82.86-1.47.82-2.34-1.67.58-.47-3.11 0-3.65a1.47 1.47 0 0 1 1.79-.88Z"></path><path d="M410.4 238.11a.69.69 0 0 1 .05-.92.7.7 0 0 1 .65-.19c1.8-.79 2.3 1.89.33 1.18a.71.71 0 0 1-1 0ZM408.27 222.49ZM399.72 196.02l-.01.01.01-.01zM397.88 193.6ZM396.22 220l-.38-.24a1.69 1.69 0 0 0-.9-.27l.59.27Zm5.5 4.9a3.09 3.09 0 0 1-1.61-.9 19.77 19.77 0 0 0-4.91-2.66 4.07 4.07 0 0 1-2-1.27 1.37 1.37 0 0 1 1.51-2.07c3 .32 5.27 2.59 7.2 4.69.52.53 1 2.23-.16 2.21Z"></path><path d="M397.71 221.55c-1.2-.47-2.34-1.11-3.5-1.69-.95-.28-.24-1.24.54-1.06 1 .22 4.25 1.08 3.79 2.43a.68.68 0 0 1-.83.32ZM396.75 227.29c-.47-.84-.48-2-1.09-2.68a3.65 3.65 0 0 0-2.27-.78.44.44 0 0 1-.4-.46.43.43 0 0 1 .42-.4 6.27 6.27 0 0 1 1.22.16 3.31 3.31 0 0 1 2.22 1.49 11.25 11.25 0 0 1 .71 2.47.42.42 0 0 1-.81.2Z"></path><path d="M392.23 228.2a4.37 4.37 0 0 1 .82-4.58c.32-.7 1.35 0 .81.56a15.82 15.82 0 0 1-1.26 3.38.57.57 0 0 0 .07.22c.27.28-.18.71-.44.42Z"></path><path d="M395.43 224.42a1.36 1.36 0 0 1-.22.78c-.26 1.19-1.08 3.9-2.74 3.2a.5.5 0 0 1-.17-.15.6.6 0 0 1-.14-.21 1.17 1.17 0 0 1-.1-.26 4.88 4.88 0 0 1 1.05-4.07 1.13 1.13 0 0 1 .63-.3 1 1 0 0 1 .38.07.72.72 0 0 1 .91.31.54.54 0 0 1 .05.11.63.63 0 0 1 .35.52ZM395.47 239.32c.25.48-.29.75-.61 1a5.7 5.7 0 0 1-3.8 1 3.78 3.78 0 0 1-2.41-.86c-.2-.14-.46-.31-.43-.58a.46.46 0 0 1 .85-.23 11.33 11.33 0 0 0 4 .13c.74-.07 1.77-1.16 2.4-.46ZM453.76 27.82a.88.88 0 0 1 0 .36 1.16 1.16 0 0 1-.15.43.81.81 0 0 1-.25.27.65.65 0 0 1-.22.11 1.42 1.42 0 0 1-.54.05h-.38c-.33-.05-.68-.13-1-.15h-.21c-9-.51-18.05-.56-27.07-.69-13.49-1-26.78-.36-40.26-.29-19.51-1.14-39.12-.24-58.62-1.48-9.06-.24-18.11.28-27.17.26-13.5-.32-27-.36-40.5-.3-13.2-.29-26.41-1-39.62-.42q-24.08.12-48.17.26c-15.61-.59-31.21-.3-46.81.54-9 .29-18 1.16-27 2.05-10.44.94-20.89 1.68-31.25 3.31-5.14.75-10.37.88-15.49 1.82-2.14.31-4.18 1.14-6.29 1.52-.31.06-.62.11-.93.14a.6.6 0 0 1-.44-.72.61.61 0 0 1 .73-.44h.11c.69-.25 1.39-.47 2.09-.68 6-1.81 12.32-2.34 18.59-3 13.57-2.22 27.31-3.08 41-4.5a542.33 542.33 0 0 1 61.13-2c15.46.19 30.91-.33 46.36-.13 16.14-.6 32.25 0 48.39.3 19.57-.27 39.12.57 58.69-.09 9.06-.08 18.09.76 27.13.82 13.65-.15 27.3 0 40.94.66a336.18 336.18 0 0 1 35.92.17c7.14.11 14.28.21 21.41.49a48.8 48.8 0 0 1 9.19.61 1 1 0 0 1 .69.72Z"></path><path d="M44.33 33.77a.59.59 0 0 1 .36.76c-.4.35-1 .37-1.5.59l-.4.27a3.34 3.34 0 0 0-1.1 1.31 21.67 21.67 0 0 1-1 2.06c-.14 2.48 0 5-.24 7.44v.06a.6.6 0 0 1-.29.52c0 1.51-.3 3-.46 4.49a.3.3 0 0 1-.32.28.3.3 0 0 1-.28-.28c-.42-2.7-.18-5.44-.57-8.15-.55-3.52-.33-8.68 4-9.41a3.5 3.5 0 0 1 1.8.06ZM453.55 30.79c.1.91.18 2.17-.24 2.28h-.12a.73.73 0 0 1-.35-.2 2.89 2.89 0 0 1-.13-1c0-.12 0-.24-.06-.35s-.08-.4-.13-.59a4.18 4.18 0 0 1-.15-1.11 2.46 2.46 0 0 0-.12-.76.58.58 0 0 0-.2-.31c-.32-.24-.76-.29-1.09-.52a.46.46 0 0 1-.41-.27.5.5 0 0 1 .19-.69h.06a2.16 2.16 0 0 1 1.63.37l.09.14.08.1a4.67 4.67 0 0 1 .27.49c.11.23.21.46.3.7s.19.64.26 1c0 .1.05.3.08.55s.02.07.04.17Z"></path><path d="M453.4 31.37a5.67 5.67 0 0 1 0 1.09 1 1 0 0 1-.07.35.68.68 0 0 1-.12.26.4.4 0 0 1-.3.24.37.37 0 0 1-.28-.19 16.37 16.37 0 0 1-.43-1.67 5.6 5.6 0 0 0-1.13-2.59 2.37 2.37 0 0 0-.28-.27.47.47 0 0 1-.25-.61v-.06a.46.46 0 0 1 .48-.26 1.53 1.53 0 0 1 1.18.76l.06.08a6.65 6.65 0 0 1 .36.56 5.76 5.76 0 0 1 .66 1.65 3.79 3.79 0 0 1 .12.66Z"></path><path d="M454.46 29.63a34.43 34.43 0 0 1-.2 5.08 28.83 28.83 0 0 1-.08 4c0 .47.25 1.31 0 1.76a.61.61 0 0 1-.43.3.45.45 0 0 1-.44-.29 10.68 10.68 0 0 1-.17-3.24 10.88 10.88 0 0 1 .15-2.79v-1.74a11.6 11.6 0 0 1 .09-1.44.8.8 0 0 1 0-.15c0-.15 0-.31.05-.47v-.26a3.65 3.65 0 0 0-.12-1.61 1.53 1.53 0 0 0-.39-.58h-.13a.39.39 0 0 1-.39-.37.13.13 0 0 1 0-.06.45.45 0 0 1 0-.16.42.42 0 0 1 .76-.1 1.46 1.46 0 0 1 .48.21 2.21 2.21 0 0 1 .82 1.91Z"></path><path d="M454.15 32.86a.65.65 0 0 1-.27.55.74.74 0 0 1-.56.14.65.65 0 0 1-.43-.24.66.66 0 0 1-.16-.35 6.74 6.74 0 0 1-.08-1.49v-.68a6.76 6.76 0 0 0-.1-1.74s0 0 0-.05a.62.62 0 0 1-.36-.59.74.74 0 0 1 .28-.54.41.41 0 0 1 .11-.07.67.67 0 0 1 .92.49 3 3 0 0 1 .12.32 15.18 15.18 0 0 1 .53 4.25ZM379.39 318.63a1 1 0 0 1-.9 1c-6.26.3-12.57.84-18.83.78-23.59-.3-47.07 1.4-70.61 1.83-13.28-.16-26.44.59-39.69 1.27-21.26.3-42.57 1.48-63.83 1.66-27.8.5-55.64-1.3-83.42-.42a253.21 253.21 0 0 0-25.84.85c-2.84.19-5.68.4-8.53.58h-6.95c-1.43 0-2.85 0-4.27.07s-3 .12-4.52.24h-.21a.37.37 0 0 1-.18 0 .46.46 0 0 1-.29-.38.43.43 0 0 1 .2-.4.5.5 0 0 1 .2-.08l1.31-.09c3.26-.21 6.53-.26 9.79-.37 1.83 0 3.66-.14 5.48-.28l.82-.06c4.07-.34 8.13-.85 12.2-1.2 2.37-.21 4.73-.36 7.11-.42 12.19-.05 24.35-.87 36.55-.58 20.15.33 40.45.74 60.57.4 21.78-.26 43.52-1.29 65.31-1.68 14.71-.93 29.51-1.15 44.22-1.34 21.51-.72 43.11-2 64.63-1.76 6.27.12 12.5-.61 18.76-.55a1 1 0 0 1 .92.93Z"></path><path d="M80.26 324.55a.32.32 0 0 1 0 .14.31.31 0 0 1-.25.18c-1.24.15-2.47.5-3.71.76a11.41 11.41 0 0 1-2.6.31 42.56 42.56 0 0 1-9.76.57c-2.74-.07-5.51-.11-8.24-.1-1.2.07-2.44.14-3.67.12h-.39c-2.62-.11-5.15-.71-7-2.77a8.12 8.12 0 0 1-1.15-2 6.86 6.86 0 0 1-.48-2.37 5.65 5.65 0 0 1 .16-1.48.36.36 0 0 1 .3-.43h.08a.35.35 0 0 1 .22.08c.14.12.14.37.2.56.1.4.21.8.34 1.21a12.68 12.68 0 0 0 .69 1.87 2.25 2.25 0 0 0 .19.45 3.68 3.68 0 0 0 .39.58 8.21 8.21 0 0 0 2.09 1.62c2.11 1.44 4.8 1 7.22 1.13h.49c2.07-.17 4.14-.21 6.21-.21 2.26 0 4.5.05 6.75.06h.81c1.33 0 2.66 0 4-.07 1.94 0 3.9-.37 5.83-.43.38.1 1.12-.33 1.28.22Z"></path><path d="M85.28 323.78a.31.31 0 0 1 .25.35c0 .26-.31.27-.54.25-1.59 0-3.18.16-4.76.31a44.24 44.24 0 0 1-7 .31c-4.16.22-8.29.9-12.44 1.22-.82.07-1.65.12-2.47.15-.57 0-1.17 0-1.8-.08a32.27 32.27 0 0 1-5-.55 9.49 9.49 0 0 1-5.89-3.14.83.83 0 0 1-.12-.16 5.64 5.64 0 0 1-.44-.71 9.07 9.07 0 0 1-1.13-2.24q-.13-.4-.24-.81c-.11-.4-.2-.81-.27-1.22l-.09-.56a.34.34 0 0 1 0-.24.4.4 0 0 1 .24-.18h.1c.36 0 .31.49.42.75s.32.77.49 1.16a21.21 21.21 0 0 0 2.17 3.93 22.59 22.59 0 0 0 8.6 2.68l.94.13a40.43 40.43 0 0 0 5.27-.34c1.56-.18 3.12-.41 4.68-.6a44.27 44.27 0 0 1 6.41-.46 19.19 19.19 0 0 0 3.39 0c1.76 0 3.52-.07 5.27-.07 1.31-.01 2.68.02 3.96.12Z"></path><path d="M50.68 324.08a.32.32 0 0 1 .22.38.3.3 0 0 1-.34.22l-2.37-.63a.3.3 0 1 1 .18-.58Z"></path><path d="M68.31 324.85a.13.13 0 0 1 0 .06.29.29 0 0 1-.27.26c-2.14.05-4.26.32-6.39.51l-1.32.1c-.72 0-1.43.07-2.14.07-1.58-.14-3.38-.14-5.15-.28-2.93-.23-5.8-.88-7.47-3.3a2.2 2.2 0 0 1-.21-.32c-.07-.09-.12-.18-.18-.26a10 10 0 0 1-1.14-2.2c-.12-.33-.23-.67-.32-1s-.15-.65-.21-1-.08-.53-.1-.8a3 3 0 0 1 0-.42.86.86 0 0 1 0-.16.55.55 0 0 1 1-.21.58.58 0 0 1 0 .14c.38.86.46 1.75.77 2.62 1.14 1.87 2.12 4.18 4.34 4.95a31.21 31.21 0 0 0 7.94.84c2.95-.08 5.85-.34 8.78-.24h.78a5.86 5.86 0 0 1 1 .33.31.31 0 0 1 .29.31Z"></path><path d="M45.63 322.6c.09.28-.15.71-.57.46a3.36 3.36 0 0 1-1.64-1.31 5.33 5.33 0 0 1-.89-2.79 3.84 3.84 0 0 1 0-.48A12.19 12.19 0 0 0 43 317c0-.29 0-.76.39-.79h.06a.32.32 0 0 1 .31.24 3.05 3.05 0 0 1 0 .74v1.47a8.12 8.12 0 0 0 .07.85 7.63 7.63 0 0 0 .21 1.16 3.19 3.19 0 0 0 .96 1.61l.08.05h.06a.4.4 0 0 1 .3.07.26.26 0 0 1 .12.15ZM453.67 64.27a.93.93 0 0 1-.41.91c-1.44 1-6.1.65-7.25.9-7.09.69-14.27.57-21.39 1-7.52.21-15-.21-22.55-.49-11.51.23-23 .7-34.52.46-8.27 0-16.51.76-24.77.72-11.91-.29-23.95.18-35.83.24-14.06.26-28.1.63-42.15.51-10.92.7-21.83.27-32.75.12-6.29 0-12.56.65-18.85 1-8.63.18-17.27-.17-25.88.58-12 .57-24.06 1-36.08 1.42-8.26 0-16.52-.63-24.78-.22-13.23.42-26.46 1.23-39.62 2.58-9.39.63-18.79 1.32-28.12 2.59q-7.69-.37-15.38-.46c-.46 0-1.06.1-1.39-.3A.68.68 0 1 1 43 75c5 0 10 .05 15 0 7.44-1 14.87-1.89 22.37-2.35 23.32-2 46.68-3.72 70.1-3q22.71-.86 45.42-2c11.26.1 22.43-.34 33.65-1.07 11.76-.11 23.53.58 35.29-.26 9.58-.15 19.17.22 28.74-.27 19.77-.58 39.54-.42 59.31-.84 13.08-.88 26.24-.05 39.3-.66 13.78-.75 27.58 1 41.36-.16 6.09-.2 12.18-.27 18.22-.74a2.15 2.15 0 0 1 1.5 0 .85.85 0 0 1 .41.62ZM69.51 50.16c1.22 3.89-.14 7.87-2.29 11.15a11.07 11.07 0 0 1-4.56 4.36 15.23 15.23 0 0 1-4.79.56c-2.21-.07-4.56-.24-6.43-1.51a.79.79 0 0 1-.33-.65 11.53 11.53 0 0 1 3-20.36c3.49-1.15 7.49-1.86 10.5.79 2.39 1.26 4.47 2.91 4.9 5.66Zm-1.29 4c0-2.15-.36-4.57-1.7-6.31a21.68 21.68 0 0 0-5.36-3.18 12.85 12.85 0 0 0-11.11 4.13c-1.94 2.62-3 6.31-1.82 9.43.72 1.52 1.24 3.26 2.57 4.28.48.09 1.18.14 1.25.75A14.26 14.26 0 0 0 59.83 65c4.96-.16 8.11-6.47 8.39-10.84ZM95.8 43.24c4.33 3.76 6.17 11.24 2.53 16-2 4-5.94 4.87-10.09 4.38a.35.35 0 0 1-.29-.42.36.36 0 0 1 .25-.28c.86-.16 1.71-.31 2.57-.43a9.09 9.09 0 0 0 4-1.3 11.35 11.35 0 0 0 3.64-7c.07-4.38-1.75-9.77-6.49-10.84-5.11-.36-10.83 3-12.65 7.83A9 9 0 0 0 80.34 59a9.26 9.26 0 0 0 2.76 3.33 30.22 30.22 0 0 0 3.15.79.76.76 0 0 1 .58.92.78.78 0 0 1-.93.59 21.1 21.1 0 0 1-3.9-1.19 11.92 11.92 0 0 1-3.25-3.74 10.18 10.18 0 0 1-1-10.49c3.15-5.69 12.33-10.7 18.05-5.97ZM129.89 41.56c2.4 1.75 4.12 4.19 3.93 7.27a15.78 15.78 0 0 1-1.67 7.26c-.78 1-1.76 1.88-2.6 2.84a7.88 7.88 0 0 1-4.92 2 15.76 15.76 0 0 1-4.53.6c-.61-.08-1.59.07-1.91-.57a12.39 12.39 0 0 1-4.19-1.18c-1.22-.77-1.83-2.16-2.62-3.32a10.21 10.21 0 0 1 1.5-12.75c4.35-4.19 12.05-6.46 17.01-2.15Zm1.37 12.13c.69-2.55 1.07-5.44.07-7.95a11.31 11.31 0 0 0-5.08-4.06c-5.25-1.55-11.68 1.32-13.93 6.24-.59 2.34-1 4.92.39 7.06.89 1.26 1.39 2.83 2.54 3.89a10.72 10.72 0 0 0 3.18 1.43c.63-.23 1.35.15 2-.14a.3.3 0 0 1 .3.14 13.56 13.56 0 0 0 3.37-.3c1.1-.63 2.41-.73 3.45-1.49 1.45-1.42 3.13-2.86 3.71-4.82ZM168.72 121.73a106.53 106.53 0 0 1-.48 14.62 2.6 2.6 0 0 1-2.31 2.87h-.22c-3.83.54-7.52.8-11.32 1-7.07 0-14.2.49-21.14 1.16-14.93 1.3-29.83 2.69-44.75 4.31-8 .75-15.89 2.67-23.9 3.3-7-.33-4.47-14.37-5.28-19.2-1.07-10.09-2.68-20.15-2.31-30.31.23-.89-.36-2.83.92-2.88a.69.69 0 0 1 .6.76c-.48 9.94.89 19.83 2.44 29.62 1.1 6.17-.19 12.8 1.73 18.77.06.22.14.44.22.66a1.74 1.74 0 0 0 .85.92 1.54 1.54 0 0 0 .5.16c3.75.26 7.46-.9 11.16-1.36 15.11-2.53 30.44-3.85 45.69-5.15 10-.85 19.89-2.13 29.88-2.08 4.47.1 8.93-.38 13.39-.67.9-.18 2.46-.16 2.64-1.29.13-4.49.77-9 .6-13.47-.35-4.78-1-9.43-1.12-14.21a90.78 90.78 0 0 0-1.1-14.07 40 40 0 0 1-1-8h-.32l-.8-.06c-8.26-.54-16.56.73-24.81 1.2-8.06.52-16.15.7-24.2 1.32-9.37.82-18.84.76-28.19 1.46-8.09 1.13-16.2 2.31-24.04 4.64 10.43 3.29 21.3 5 31.81 8.08 8.62 2.1 17.09 4.78 25.59 7.32l2.78.84 2.49.72c4.24 1.27 8.63 2.16 12.67 4 4.35 2.13 8.78 4.16 12.9 6.69 4.58 3.82 8.35 8.58 13.77 11.34a3.85 3.85 0 0 1 1.24 1 .78.78 0 0 1-.15 1.08.81.81 0 0 1-.74.1 15.34 15.34 0 0 1-2.82-1.45c-4.51-2.86-8.14-7.06-12.12-10.49a78.51 78.51 0 0 0-22.89-9.84q-3.37-1-6.73-2l-2.73-.81c-9.6-2.85-19.19-5.72-28.93-8.14-8.75-2.65-17.84-4-26.54-6.86-1.21-.39-2.47-.52-3.69-.84a.82.82 0 0 1-.43-1.07A.8.8 0 0 1 58 95a6.47 6.47 0 0 1 2.62-.74c8.92-2.66 18.23-4 27.46-5.13 17.35-.67 34.68-1.9 52-2.63 8.13-.4 16.3-1.38 24.44-.86a1.44 1.44 0 0 1 1.58 1.31 1.75 1.75 0 0 1 0 .46c0 3.57 1 7 1.42 10.54.86 7.88.3 15.91 1.2 23.78Z"></path><path d="M164.24 87.27a.7.7 0 0 1-.12 1 46 46 0 0 1-4.33 3.41C154 96.22 147.37 99.15 140.7 102c-6.25 3.15-12.22 6.81-18.47 10l-2.38 1.16-.68.32C104.78 120.9 90.29 128 76.63 136.7c-3.38 2.86-7 5.41-10.42 8.27-.83.77-1.65 1.56-2.44 2.37l-.23.23a.93.93 0 0 1-1.2.09c-.65-.52-.31-1.21.36-1.9.93-1 2.52-1.94 3-2.47 4.07-2.73 7.45-6.25 11.48-9 7.32-4.82 15.11-9 22.85-13.12 5.68-3 11.4-5.93 17.13-8.84l2.32-1.19c6.42-3.27 12.82-6.56 19.14-10 5.47-2.42 11-4.63 16.12-7.84 2-1.54 4.1-3 6.28-4.35.78-.54 1.52-1.15 2.26-1.77l.08-.06a.71.71 0 0 1 .8.07.6.6 0 0 1 .08.08ZM306.33 82c3.42.61 1.26 11.2 1.13 13.85-.55 4.6-.68 9.29-1.08 13.9a131 131 0 0 0 .08 15.6 43.11 43.11 0 0 1 0 11.79c-.83 1-2.47.75-3.66.84-6.87 0-13.61 1.35-20.45 1.6-13.38-.09-26.73 1.31-40.11 1.22-8.77 0-17.54-.57-26.31-.24-8.1.5-16.09 2.19-24.21 2.35-1.24-.14-2.62 0-3.75-.54-2.17-2-1.19-5.56-1.17-8.21.76-6.81.67-13.62.82-20.44.16-7.65 1-15.27 1.47-22.9.11-2-.09-4.12.15-6.15a1.4 1.4 0 0 1 .57-1c4-1.67 8.53-.75 12.74-1.2 9.07-1 18.18-2.37 27.26-3.19 16.78-1.34 33.55 1.07 50.33 1.32 8.7.3 17.49.21 26.19 1.4Zm-.53 12.78c.24-3.71 1.34-7.55.41-11.21-13.57-1.61-27.34-.89-40.95-1.82-10.77-.61-21.53-1.37-32.29-.88-9.46.71-18.8 1.85-28.2 3.11a114.66 114.66 0 0 1-11.72.56c-1.34 0 2.49 1.11 2.54 1.22 7.93 4.11 16.62 5.91 25.08 8.54 11.33 4.3 22.32 9.47 33.47 14.22l1.61.68 1.72.72A186.86 186.86 0 0 1 286.91 127a140.17 140.17 0 0 1 13 7.21 3.37 3.37 0 0 0 1.33.68c2.49.09 2 2.46-.44 1.56-5.41-2.86-10.94-5.57-16.23-8.62a169.61 169.61 0 0 0-31.34-17.55l-.54-.24-1-.44c-10.48-4.47-20.76-9.49-31.5-13.32-5-1.64-10.08-2.82-15.05-4.49-5.06-1.92-9.91-4.37-15-6.24.55 6.4-.1 12.76-.56 19.14-.46 8.65.09 17.34-.85 26-.09 3.53-1.3 7.32-.22 10.76.08.29.47.34.69.38a15.9 15.9 0 0 0 2.49.23c7.75-.6 15.39-2.17 23.17-2.57 10-.49 20 .08 30 0 16.24-.34 32.54.19 48.7-1.8 3.4-.1 6.8-.16 10.21-.29a7.81 7.81 0 0 0 1.73-.69 79.23 79.23 0 0 0-.42-12.32 147.06 147.06 0 0 1-.14-16.53c.26-4.41.35-8.77.86-13.09Z"></path><path d="M304.39 85.55a.84.84 0 0 1-.18 1.18.72.72 0 0 1-.21.12c-9.07 3.58-17.34 8.69-26.14 12.82-7.33 3.28-14.74 6.37-22.11 9.52l-2.48 1.06c-6.56 2.83-13.09 5.74-19.5 8.9-8.22 4.22-16.24 8.78-24.42 13-4.1 2.22-8.19 4.48-12.3 6.67a14.05 14.05 0 0 1-6.4 1.87.2.2 0 0 1-.11 0 .29.29 0 0 1-.27-.33.34.34 0 0 1 .4-.27h.1c2.31-.31 4.46-1.6 6.45-2.78 2.89-1.76 5.89-3.35 8.82-5 10.71-5.76 21.31-11.82 32.38-16.88 4.39-2 8.83-4 13.26-5.88l2.46-1.06c10-4.32 20-8.6 29.77-13.42 5.72-2.92 11.15-6.38 17.16-8.71 1.03-.36 2.32-1.69 3.32-.81ZM433 89.18c0 8-1.05 15.88-1.64 23.81-.16 6-.49 11.93-.85 17.89-.17 2.11.25 5.8-2.71 5.84-7.17.1-14.37-.1-21.55-.05-6.62-.24-13.27-1.27-19.88-1.4-18.71.64-37.45 1.58-56 3.8a16.39 16.39 0 0 1-6.54-1.37 1.15 1.15 0 0 1-.33-.45c-.37-3.81 0-7.69.07-11.53 0-11.39.77-22.61 1.8-33.92.14-2.22.23-4.46.3-6.69a.72.72 0 0 1 .77-.67h.2c.08-2 3.5-1.47 4.87-1.63 5.08.11 10-.31 15.08-.11 7.73.58 15.64 1 23.34.94 14.07.27 28.07-1.28 42.07-.9 6.55.45 13.38-.23 19.79 1.24 1.53 1.1.93 3.55 1.21 5.2ZM429.76 110c.74-8.13 1.73-16.4 1.05-24.55l-.92-.1-1.73-.17c-17.12-1.58-34.42 0-51.57.42-15.92.4-31.59-1.47-47.42-.6 3.11 2.67 7.33 3.64 11.22 4.49a118.28 118.28 0 0 1 15.53 3.76c9.89 3.5 19.75 7.15 29.31 11.5a.84.84 0 0 0 .14.06l2.24.92a72.87 72.87 0 0 1 12.39 6.46c4 2.21 7.66 5 11.44 7.46a26.71 26.71 0 0 1 6.28 4.7c3.48 3.59 7.89 6.27 10.59 10.58 1.2-7.82.95-16.93 1.45-24.93Zm-23.13 24.92c6.52.05 13.05-.18 19.56.24-3.69-4.34-8.32-7.77-12.41-11.7-6.91-4.52-13.79-9.22-21-13.16q-3.75-1.76-7.55-3.4l-2.3-1c-8.41-3.6-16.94-6.87-25.56-10A106.37 106.37 0 0 0 343 92c-5.58-1.14-11.67-2.42-15.91-6.46-.82 17.1-2.08 34-2.56 51.31a14.2 14.2 0 0 0 4.95.93c6.54-.41 12.88-2.07 19.42-2.45 13-1 26.05-1.62 39.08-1.86 6.23.36 12.43 1.18 18.67 1.4Z"></path><path d="M325.05 136.76a.58.58 0 0 1 .36-.74c1.83-.54 3.61-1.33 5.36-2 11-5 21.3-11.21 31.74-17.22 13.29-7.83 27.36-14.15 41.15-21 3.62-1.52 7.25-3.48 10.82-5 4.54-1.86 9.24-3.41 13.65-5.56.65-.32 1.61-.41 1.89.43a1 1 0 0 1-.67 1.29h-.06c-6.14 3.06-12.75 4.75-18.85 7.9-15.59 7.48-31.37 14.62-46.46 23.09-9.07 5-17.94 10.21-27.19 14.81a59.43 59.43 0 0 1-11 4.4.59.59 0 0 1-.74-.4ZM268.61 170.48a.8.8 0 0 1 .72-.86c10.73-.46 21.45-1.1 32.18-1.69 23.12-1 46.22-3.07 69.37-3.19h-.14c15.55-.47 31.09-.84 46.58-2.27a1.1 1.1 0 0 1 .19 2.2c-10.78.71-21.77 1.76-32.55 1.66-10.31.52-20.69.55-31 .74-16.24 1-33.42 1.84-49.68 2.46-11.62.51-23.23 1.19-34.85 1.68a.81.81 0 0 1-.82-.73ZM277.49 186.64a.91.91 0 0 1 .83-1c5.79-.39 11.6-.67 17.4-1.08 9.17-1.07 18.42-1.16 27.63-1.32 6.78-.34 13.53-1.13 20.33-.84 7.81.23 15.64-.06 23.44.55 8.27.83 16.43 2.61 24.71 1.2a.77.77 0 0 1 .82.61c.34 1.35-3.48 1.51-4.41 1.87-6.29 1.1-12.58-.6-18.83-1.22-8.48-1.05-17.06-.65-25.59-.92-7.84-.34-15.54.8-23.35 1-5.84.14-11.7-.12-17.53.48-8.14.72-16.32.92-24.47 1.48a.92.92 0 0 1-.98-.81ZM342.78 203.18c-10.72.2-21.43-.22-32.14-.72-6.82-.08-13.5.5-20.25-.59a.8.8 0 0 1 .28-1.57 50.08 50.08 0 0 0 9.79.44h-.06c9.35-.58 18.69.13 28 .43 5.75.06 11.5-.19 17.26 0 7.48.16 15 .22 22.44-.19 2.52-.09 5-.11 7.54 0a.7.7 0 0 1 .68.72.69.69 0 0 1-.64.67q-4 .51-8.08.7c-8.24.51-16.53.29-24.82.11ZM355.44 217.47c-5.93-.08-11.73-1.57-17.62-1.35-.78-.1-2.09.68-2.47-.29-.23-2 11.17-.92 12.82-.79 8.51.87 17-.19 25.52-.17 4.75 2.81-17 2.59-18.25 2.6ZM193.61 178.16a1.88 1.88 0 0 1 .16-2.28 27.94 27.94 0 0 1 3.92-3.69c2.74-1.94 5.44-4 6.6-7.26-4 1.56-10.12 4.39-13.5.41-4.46.15-8.74 1.55-13.15 2-3.31.45-6.39-1-9.63-1.24-4.73.69-9.46 3.58-14.3 1.61-6.39-3.84-12 3.12-18.58 2.08-2.7-.25-5.23-2.37-8-1.53-4.67 1.51-10.32 6.87-15.07 2.94-1.77-1.36-2.77-4.88-5.53-4-4.14 2-7.16 6.3-12.34 5.61-7.19-1-12.59-5-18.42 1.71-.6.44-.55 1.41-1.45 1.17-1.27-.59.17-2 .76-2.57 5.67-6.41 10.46-4.43 17.7-2.58a8.47 8.47 0 0 0 6.53-.81c3.27-2 6.93-6.79 11-3.67 1.62 1.32 2.36 3.82 4.49 4.48 3.75.46 7-2.09 10.21-3.62 3-1.75 6.33-.5 9.33.58a10.12 10.12 0 0 0 5.24-.1c3.75-1 7.35-3.59 11.38-2.82 2.89.84 5.67 2.34 8.78 1.6 2.7-.42 5.19-1.74 7.91-2 3.68-.07 7.24 1.85 11 1 4-.72 8-1.79 12.1-2a2.27 2.27 0 0 1 1.11.26c.75.43 1.1 1.44 2 1.6 3.57.66 7.08-.91 10.32-2.17 3.85-2.08 2.52 1.78 1.4 3.79 3.37-1.72 8.11-4.25 11.6-1.6.58.44 1.06 1.21 1.67 1.58a2.44 2.44 0 0 0 1.68.2c5.75-1.46 10.77-5.28 16.92-5.26 1.43-.06 7.81-.67 7.4 1.42a1 1 0 0 1-1.18.83 24.29 24.29 0 0 0-14.67 1.65c-3.22 1.23-6.24 3.36-9.75 3.29-1.58-.1-2.56-1.44-3.7-2.32-4.06-1.56-9 2-12.39 4-1.59 1.88-6.91 10.04-9.55 7.71ZM73.62 194.39a1.4 1.4 0 0 1 .72-.81 34.82 34.82 0 0 1 7.47-2.1c6.35-1.1 12.77-1.65 19.19-2.2 7.8-.47 15.59.52 23.4.6 7.29-.14 14.5 1 21.74 1.39a179.05 179.05 0 0 0 39-2.88c8.41-1 16.92-.76 25.37-.63q3 .11 6 .26a.89.89 0 0 1-.08 1.78c-9.51.15-19.11-.31-28.58.46-11.2 1.71-22.64 3.29-34 3.18-6.79.2-13.6-.76-20.31-1.44-5.37-.39-10.77-.28-16.14-.62a123.51 123.51 0 0 0-25.43.21c-5.76.6-11.9.63-17.26 3a.58.58 0 0 1-.66.5.59.59 0 0 1-.5-.67ZM82.06 215l-2.71-.44a.66.66 0 0 1-.54-.77.67.67 0 0 1 .77-.55c5 1.1 10-.41 15-.73 6.4-.68 12.82-1.08 19.22-1.83 15.5-1.56 31.12-1.65 46.69-1.92h-.12c7.62-.31 15.2-.07 22.81-.16 8.66-.47 17.34-1.55 26-1.37a123 123 0 0 1 20.49.32.93.93 0 0 1 .87.95c-.13 1.6-3.41.53-4.53.71-9.81-.52-19.66.09-29.47.39-6.44.49-12.89 1.17-19.35.9-18.93-.22-37.76.42-56.63 1.26-12.83 1.05-25.67 2.41-38.5 3.24ZM74.19 237.43a.73.73 0 0 1 .69-.76c6.39-.08 12.76-.64 19.14-1.08a42.92 42.92 0 0 0 6.16-1c7.79-.93 15.64-1.2 23.46-1.79 11.18-.26 22.31-1.34 33.49-1.35 22-1.29 44.09-1.18 66.13-2.08 8.87.15 17.65.47 26.49.14 8.15.45 16.28.53 24.43.39a20.78 20.78 0 0 1 4.44.58.8.8 0 0 1 .62.83c-.12 1.32-3 .5-3.88.68-8.74.27-17.64.11-26.32-.38-8.33.4-16.71 0-25-.16q-24.9.81-49.81 1.12c-13.34.78-26.69.82-40 1.65-11.36.36-22.79.87-34.07 2.12-6.18 1.27-12.54 1.1-18.82 1.58-2.11.07-4.23.17-6.33.18a.74.74 0 0 1-.82-.67ZM87.28 305.82c-3.63-.37-8.11.05-11.12-2.26-2.22-2.29-1.8-5.62-1.87-8.54a50.16 50.16 0 0 0-1.46-9.51c-2.09-9.67-.61-19.66-.88-29.44 0-2.59 0-16.81 2.59-17a.55.55 0 0 1 .24.73.57.57 0 0 1-.26.25c-2 7.84-.86 16.07-1 24.07-.29 8.26-.09 16.38 1.79 24.44a46.17 46.17 0 0 1 .53 8.87c-.07 1.91.24 4.12 1.68 5.49 6.92 2.73 14.71.9 21.94.85 5.28-.27 10.57.18 15.85 0 5-.23 10.09-.81 15.15-.74a192 192 0 0 0 24-.3c10.63 0 21.23-.65 31.85-.88 10.37-.2 20.74-.06 31.11-.24a230 230 0 0 1 25.32-.13c13.46-.42 26.92.08 40.34-1.17 3.23-.14 6.47 0 9.57.12 6.63-.23 13.25-.45 19.87-.82 1-.05 2-.14 3-.21a.86.86 0 0 1 .2 1.71c-7.1 1.06-14.34.48-21.47 1.1-12.49-.57-24.84 1.29-37.33.81-8.7.3-17.45.32-26.14-.08-9.62.27-19.22.7-28.85.51-19.93 0-39.84.79-59.75 1.51a197.84 197.84 0 0 0-27.11.39c-9.26-.12-18.52.25-27.79.47Z"></path><path d="M79.69 261.28a36.93 36.93 0 0 1-7-.33.59.59 0 1 1 .31-1.15.44.44 0 0 1 .16.06c2.7.66 5.52.27 8.28.33 20-1.13 40-2.24 60.08-2.9 18.59.09 37.25-.52 55.83-.35 7.09.17 14.18-.43 21.26-.56 7.24.12 14.47-.15 21.7-.48 7-.23 14 .25 21 .18a124.38 124.38 0 0 1 13.79.1c5.4.41 10.82.56 16.22.66a.88.88 0 0 1 .2 1.75c-7.17.55-14.52-.5-21.68-.73-10.15.39-20.21-.27-30.28 0-11 .64-22.09.24-33.12.88-8.36.28-16.7-.28-25.05.11-14.88.12-29.61 0-44.47.19-19.09.85-38.16 1.72-57.23 2.24Z"></path><path d="M194.25 300.84a.84.84 0 0 1-.76-.78c-.57-5.27-.65-10.47-1-15.75.27-8.46-2.44-16.71-1.81-25.19 0-8.06-.33-16.12-.42-24.18a.66.66 0 0 1 1.31-.06c.44 11.9.14 23.89 1.39 35.74.56 3.88 1.49 7.7 1.25 11.65 0 3.72.68 7.41.55 11.14-.35 1.65 1.63 7.28-.51 7.43ZM85.28 253c-1.54-.66-2.14-2.56-2.39-4.09-.7-3.53 3.85-6.37 6.76-4.32a4.62 4.62 0 0 1 .65 7.41c-1.3 1.2-3.3 1.23-5.02 1ZM104.81 252.7a4.14 4.14 0 0 1-3.23-2.33c-3.14-4 1.89-8.49 6.09-7 6.33 1.69 2.33 9.78-2.86 9.33ZM204.71 252.24c-1.37-.09-3.15-.26-4-1.42a3.4 3.4 0 0 1 .06-1.49c.43-2.83.87-5.66 1.3-8.5a.59.59 0 1 1 1.16.24c-.42 3.06-1 6.06-1.25 9.12 2.42 1 5.12.05 7.66.4a9.07 9.07 0 0 0 4.42-.18c1.36-.55 1.2-2.38 1.48-3.56 0-1.87.45-3.79-.09-5.59a5 5 0 0 0-.16-.77c-1.54-1-3.51-.69-5.23-.49-1.52.19-3.06 0-4.57.23-.86.1-2.51.91-2.75-.42a.83.83 0 0 1 .79-.85.45.45 0 0 1 .16 0 15.23 15.23 0 0 1 5.51-.17c1.74-.1 3.55-.49 5.27.09.7.29 1.66.53 1.92 1.33a15.83 15.83 0 0 1 .1 8.92 3.85 3.85 0 0 1-3.63 2.65c-2.67.67-5.45.27-8.15.46ZM234.1 250.6c2.27.14 4.55.29 6.82.47a3.41 3.41 0 0 0 2.16-.14c1.22-1.11.93-2.94.84-4.43a56.61 56.61 0 0 0-.28-6.25c-.38-2-2.93-1.37-4.37-1.25-3.38.3-6.81.55-10.13 1 4.92 2.43 9.11 6.21 13 10a.67.67 0 0 1-.86 1 9.55 9.55 0 0 1-.9-.62c-4.16-3.41-8.15-7.09-13.09-9.37a50.26 50.26 0 0 0-.85 8.91c2.47.86 5.07.7 7.66.68Zm5.75 1.79q-4.59-.19-9.16 0c-1.87-.31-4.22-.18-5.66-1.56-1-3.15.34-6.83 1-9.93a.71.71 0 0 1 .5-.88h.08c.26-1.36 1.9-1.5 3-1.54q3.63-.41 7.27-.49c2.4 0 5.32-1.09 7.31.72 1.44 2.16.82 5 .87 7.48.6 4.18-.43 6.81-5.21 6.2Z"></path><path d="M226.73 250.36a.54.54 0 0 1-.42-.56c.1-.6.95-.61 1.35-1 3.59-2.58 8-4 11.23-7 .93-.66 2.64-3.59 3.81-2.65a.68.68 0 0 1-.07 1c-1.14.93-2 2.17-3.06 3.16-1.85 1.89-4.34 2.87-6.65 4.06-2.09.88-4.06 2.28-6.19 2.99ZM212.37 250.72c-1.22-1-1.81-2.55-2.77-3.79a41.33 41.33 0 0 0-5.12-5.37.35.35 0 0 1-.43.23.34.34 0 0 1-.24-.3.73.73 0 0 1 .53-.63c.43-.07.82.25 1.16.45a23.9 23.9 0 0 1 5.13 4.81c.94 1.27 1.59 2.67 2.48 4a.5.5 0 0 1-.74.64Z"></path><path d="M200.58 251.12c-.55-.69.11-1.35.74-1.63a30.49 30.49 0 0 1 3.35-2.18 36.62 36.62 0 0 0 6.49-4.56c1.4-1.12 2.93-2.6 4.78-2.72a.66.66 0 0 1-.41 1.24 9.34 9.34 0 0 0-1.45.88v-.05a77.34 77.34 0 0 1-6.57 5.41 30.09 30.09 0 0 0-5.12 3.31c-.45.4-1.25.97-1.81.3ZM402.45 410.37a29.35 29.35 0 0 0 5.72-1.18c1.86-.55 4-.79 5.51-2a33.39 33.39 0 0 0 .35-4.68c-3.74.68-7.37 1.41-11.14 1.85a65.89 65.89 0 0 1-11.9-.87 23.33 23.33 0 0 1-.63 3.1 6.88 6.88 0 0 0-.48 2c3.81 1.76 8.4 1.89 12.57 1.78Zm-4.37 1.82c-2.77-.52-8.72-.14-10-3-.35-1.65.76-3.1 1-4.67a12.81 12.81 0 0 1 .64-2.58 1.23 1.23 0 0 1 1.59 0c3.85.56 7.72.37 11.6.51 4-.46 8.14-1.38 12.15-1.34.93.83.41 2.55.54 3.69-.18 1.38.14 3.11-1.22 4-5 2.25-10.67 4-16.26 3.48ZM453.23 318.89c-.67.16-6.53-1.13-4.53-2.07 2.76-.17 5.63.65 8.33 0 1.21-.11 1.55-1.08 2.08-2a.85.85 0 0 1 .33-1.14.87.87 0 0 1 .8 0 1.34 1.34 0 0 1 .56 1.67c-.37.72-.84 1.34-1.23 2-1.59 1.66-4.22 1.54-6.36 1.52ZM111.35 438.37a14.28 14.28 0 0 0 10-2.79c3.4-2.07 7-4 9.59-7.13 6-7 7.49-16.35 11-24.62-11.05-.34-22.14-.72-33.18-.62-9.26 1.09-18.61 1.57-27.88 2.64 9.55 11.81 11.4 32.57 30.47 32.52Zm-14.5 29.42c4.39.38 8.78-.52 13.14-.15 9.86.32 20 .85 29.66-1 1.51-.46 1-2.55 1.1-3.78a27.37 27.37 0 0 1 .06-7.67c1.67-12 2.54-24.09 3-36.21.19-4.41.16-8.9.13-13.3 0-.48-.1-.95-.5-.65-2.83 8.62-5.09 17.9-11 25-2.71 3.26-6.4 5.26-10 7.36-2.32 1.47-4.84 2.81-7.64 2.92-8.18.61-16.74-2.08-21.56-9.05-5.52-7.61-8.11-17.21-14.21-24.38 0 16.64.69 33.25.54 49.89-.06 1.91-.25 3.82-.28 5.74-.15 1.46 0 3 1.42 3.85 2 1.08 4.34.75 6.5.93 3.23.21 6.43.32 9.64.5Zm27 1.83c-6.49.16-13-.4-19.43-.31-5.62.41-11.25-.32-16.8-.64-13.78.4-9.3-6.5-10-16.28.1-15.45-.88-31.13.08-46.47a1 1 0 0 1 .76-1.72 37.32 37.32 0 0 1 7.59-1c7.5-.78 15-1.2 22.46-2 11.7-.14 23.41.41 35.11.76.54 0 1.19-.08 1.61.35.75 1.43.65 3.28.71 4.88.14 8.93-.41 17.85-.77 26.78-1 10.54-2.88 21-3.16 31.58-.19 2.23-2.39 3-4.33 3.18a64.94 64.94 0 0 1-13.92.91Z"></path><path d="M112.1 438.64v-.18h-.82l-.45.06a11.38 11.38 0 0 0 1.27.12Zm-1.22 3.45c-2.8-.32-3.75-1-3-3.92a.92.92 0 0 1 .43-1 3 3 0 0 0 1.45-.37 14.5 14.5 0 0 1 4.69-.28c1.5-.13 2.91-.91 4.43-.57.47.11 1 .16 1.27.64a5.69 5.69 0 0 1 .28 1.35 3.74 3.74 0 0 1-.43 2.56c-2.42 2.32-6 1.61-9.09 1.56ZM109.47 402a141.19 141.19 0 0 0 .47-14.4c1.35-9.25 2-18.58 2.87-27.88.35-2.63.68-5.24 1-7.87.19-.87.14-3.9 1.58-2.65a.76.76 0 0 1-.08 1.19c-.46 6.15-1.09 12.33-1.46 18.47-.49 8.48-2.24 16.82-2.17 25.33-.16 2.6-.53 5.23-.77 7.81a.71.71 0 0 1-.83.6.73.73 0 0 1-.61-.6Z"></path><path d="M113.38 401.48c.37-13.53 2-27 3.18-40.44a66.41 66.41 0 0 0 .71-8 4.73 4.73 0 0 0-1.92-2.82c-.27.11-.45-.14-.5-.35a.31.31 0 0 1 0-.58c.25-.12.53.14.75.21a2.78 2.78 0 0 1 2.3 1.05c1.74 2.33.65 5.24.46 7.87-.63 4.48-.78 9-1.22 13.47-.55 7.34-1 14.61-1.85 21.89a63.07 63.07 0 0 1-.48 7.77.69.69 0 0 1-1.38-.1ZM124.69 402.71c-2.43-.59 3-14.8 3.58-17a256.86 256.86 0 0 0 7-26.46.77.77 0 0 0 0-.15 2.06 2.06 0 0 0-1.08.34 4 4 0 0 0-.61 1.22c-1.29 3.92-2.32 7.95-3.28 12-2.24 8-4.34 16.11-6.08 24.21-.36 1.63-.72 3.21-1.12 4.83a.75.75 0 0 1-.9.51c-1-.34-.25-1.53-.18-2.19a211.79 211.79 0 0 1 6.1-26.29c.9-3.71 1.79-7.42 3-11 .53-2 1.05-4.77 3.45-5.1 4-.4.84 5.84.72 7.91-1 6.79-3.63 13.18-5.45 19.78-1.51 5.32-3.22 10.59-4 16.07-.22.52-.3 1.42-1.15 1.32ZM134.42 402.42c-1.54-.69 1.66-7.49 2.3-8.77 3-6 5.43-12.24 8-18.41 1.16-3.21 2.61-6.32 3.95-9.45a1.69 1.69 0 0 0-.12-1.34 1.1 1.1 0 0 0-.64-.82c-3.13 4.38-4.3 9.87-6.36 14.8-2.1 5.8-5 11.26-7.1 17.08-.4 1-2.81 7.57-4 5.81a.58.58 0 0 1 .06-.54c1.9-2.67 2.57-6 3.72-9 1.35-3.77 3.08-7.38 4.55-11.1 1.64-2.92 5.87-20.73 10.07-18.14 2 1.75.38 4.57-.41 6.56-1.27 3.08-2.31 6.24-3.52 9.34-1.78 4.11-3.21 8.35-4.87 12.51-1.4 3.19-3.08 6.27-4 9.65-.26.76-.58 2.17-1.63 1.82ZM65.76 391.2c5.53-2.48 10.38-6 15.13-9.75 3.51-2.31 7.24-4.29 10.8-6.52a67 67 0 0 0 8.6-5.18c1.06-.77 2.21-1.37 2.73-2.57a12.64 12.64 0 0 0-3.7-8.18c-7.24 2.39-13.69 6.55-20.17 10.44a197.42 197.42 0 0 0-18.08 11.45c.93 2.38 1.6 4.88 2.75 7.21.54 1.05.81 2.52 1.94 3.1Zm-.49 1.8c-1.93-.73-2.58-3-3.36-4.75a42.17 42.17 0 0 1-1.77-5.37 9.88 9.88 0 0 1-.14-1.18c-.21-.37-.3-1 .16-1.2a.81.81 0 0 1 .21-1c2.29-1.59 4.45-3.38 6.75-5 6.6-4.3 13.34-8.39 20.22-12.21A42.25 42.25 0 0 1 98 357.5a2.35 2.35 0 0 1 2.89.47c2.14 2.77 4.53 6.46 3.46 10.09a9.25 9.25 0 0 1-3 3 59.41 59.41 0 0 1-7.81 5q-5.57 3.48-11.26 6.76c-4.11 2.93-8.08 6-12.51 8.32-1.46.64-2.79 2.1-4.48 1.9Z"></path><path d="M90.87 404.22c-1.88-3.1-2.71-6.84-4.15-10.2-.7-2.62-2.43-5.26-2.19-8 1.47-1.92 4.11-3 6-4.35 3.56-2.81 7.65-4.89 11.29-7.49 1.93-1.49 4.25-3.28 4.76-5.76 0-2.54-.32-5.56-2-7.53a2.11 2.11 0 0 0-1.19-.18.69.69 0 0 1-1 .15.67.67 0 0 1-.28-.64 1.09 1.09 0 0 1 .91-.81c4.44-1.48 6 7.58 5 10.48-2.44 5.25-8.41 7.66-13 10.62a102.21 102.21 0 0 1-8.74 6.13c1.33 4.68 3.29 9.28 4.83 13.9.38.86.62 1.82.92 2.7a.77.77 0 0 1-1.13 1Z"></path><path d="M93.36 403.34c-1.42-2.85-2.2-5.92-3.46-8.83a49.81 49.81 0 0 1-2.74-8.93.67.67 0 0 1 1.32-.15c1.93 5.69 4.91 11 6.36 16.84a.91.91 0 0 1-1.48 1.07ZM179.33 465.2c3.45-.14 7.08.08 10.49-.23 3.66-.68 3.86-3.32 3.81-6.5 0-3.34 0-6.67.08-10 .08-2.43.29-4.86.59-7.27.07-2.26 1.6-6.91-.64-8.16a29.49 29.49 0 0 0-9.57-1.14c-6.41-.09-12.81.12-19.22.36.47.73-.54 1-.92 1.44a12.91 12.91 0 0 0-.32 1.86c-.15 6.58-.69 13.17-.44 19.76.25 3-.13 6.33 1.85 8.72 4.83-1.24 9.45 1.41 14.29 1.16Zm-1.52 1.8c-3.55.26-6.76-1.82-10.29-1.41-1 0-2.07.54-3.07.25-1.19-.67-1.69-2.12-2.1-3.35-1.27-6.56-.57-13.4-.26-20a60.22 60.22 0 0 0 .41-6.58c0-1.42-.07-3.23 1.5-3.82-.83-1.49 1.9-.87 2.63-1.06 2.77-.14 5.62-.6 8.34-.74 6.77-.29 13.9-1.43 20.15 1.72 2.19 2.08 1.08 5.6 1 8.27-.35 2.92-.54 5.85-.64 8.78-.1 3.22-.09 6.44-.1 9.65 0 2-.09 4.27-1.31 5.89a11.44 11.44 0 0 1-8.36 2.23c-2.65.02-5.27.26-7.9.17Z"></path><path d="M177.3 430.47a.69.69 0 0 1-.29-.9c0-2.52 0-5-.12-7.54-.09-3.48-1.4-7.44.07-10.7a.68.68 0 0 1 1-.1.65.65 0 0 1 .24.42c-.19 6.19 1.87 12.91-.21 18.82a.66.66 0 0 1-.69 0ZM184.3 431.45a1.05 1.05 0 0 1-.74-1.29 68.16 68.16 0 0 0 1.83-6.87c1.73-7.08 2.71-14.23 4.65-21.23a1 1 0 0 1 1.8 0c-.07 3.21-1.27 6.43-1.8 9.61-1.06 5.09-2.12 10.17-3.36 15.22-.5 1.18-.68 4.97-2.38 4.56ZM189.85 430.33c1.59-6.85 4.26-13.52 6.33-20.26 4.72-3.6-4.17 16.87-4.45 18.12-.23.68-.48 1.25-.66 1.87a.62.62 0 0 1-.4.73.59.59 0 0 1-.78-.32.57.57 0 0 1-.04-.14ZM170.1 430.46c-.08-2.34-.18-4.68-.31-7 0-1.38-1-6.22 1-6.23a.89.89 0 0 1 .77.88c-.1 2.21.27 4.4.29 6.61.07 1.89.16 3.79.23 5.69a1 1 0 0 1-2 0Z"></path><path d="M178.2 410.9a7.61 7.61 0 0 0 0-6.65c-1.61 1.66-2.32 4.85-.54 6.62a.8.8 0 0 1 .55 0Zm-.52 2.38a.66.66 0 0 1-.27-.81v-.08c-4.12-1.44-3.54-7.76-.21-9.79a.86.86 0 0 1 .75-1h.09a1.48 1.48 0 0 1 1.14.77 11.53 11.53 0 0 1 1.6 4.9c.24 1.47-1.32 6.39-3.14 6ZM191.05 401.34a.88.88 0 0 1 .26.25c1.33-1.74 2.44-4 2.08-6.25-1 1.9-3 3.61-2.36 6Zm-.21 2.11a.84.84 0 0 1-.31-.63c-.72-.1-.74-1-1-1.5-1-3 1.23-5.58 3.14-7.61.24-.37.51-1 1-.58 1.81 2.55 1 6.11-.54 8.63-.55.7-1.31 2.33-2.38 1.69ZM198.32 412.1c-1.13-1.06 1.21-2.56 1.63-3.61a10.59 10.59 0 0 0 1.67-7.08 15.8 15.8 0 0 0-2.93 3.58 9.81 9.81 0 0 0-1 4.55.7.7 0 0 1-.87 1.09c-.81-.87-.73-2.26-.62-3.38a8.37 8.37 0 0 1 4.34-6.77c3.25-2.3 2.39 4.86 2 6.44-.28 1.23-2.7 6.26-4.22 5.18ZM169.81 418.93a.31.31 0 0 1-.16-.4.34.34 0 0 1 .09-.12 7.91 7.91 0 0 1-2.2-5c-.17-1.81.09-4.51 2.15-5.09 3.63.38 2.77 6.69 2.23 9.22a.85.85 0 0 1-1.65-.34c.31-2.14.72-4.43.08-6.51a1.46 1.46 0 0 0-.32-.52c-1.11 2.14-.43 4.74.09 7 .13.59.74 1.83-.31 1.76Z"></path><path d="M191 432.17c-1.66-.39 1.09-6.3 1.41-7.57q2.14-5.57 4-11.24a.72.72 0 0 1-.27-1 .68.68 0 0 1 .57-.36c.62-.39.75-1.15 1.3-1.6a.68.68 0 0 1 1 .08.56.56 0 0 1 .13.24c-1.21 3.59-2 7.49-3.6 11a84.85 84.85 0 0 0-3 8.17c-.38.84-.39 2.48-1.54 2.28ZM238.19 466.49A32.85 32.85 0 0 0 244 466a.88.88 0 0 1 0-.16c-.16-7.57-.49-15.18-.58-22.74a53.72 53.72 0 0 1-.13-11c-7.71-1.35-15.5-.36-23.25-.73-1.11 0-2.33-.08-3.38 0a.85.85 0 0 1-.77-.48.8.8 0 0 1-.13.19c-.57 7.13.09 14.24-.16 21.38-.05 3.24-.18 6.26-.48 9.41 0 1.41-.66 2.86-.09 4.06 2.84.65 5.55-.21 8.37-.27 4.92.46 9.86.87 14.79.83Zm-2.53 1.91c-4.89-.2-10.85-.82-15.57-.5-3.46 0-7.9 1-6.9-4.13 1.15-10.88.18-22 1.35-32.83-.2-.84.82-1.68 1.3-.69.37-.85 1.5-.56 2.25-.62 1.67.1 3.21 0 4.85.17 6.94-.2 14.1-.44 20.92.92 1.4.69.85 2.76.9 3.95 0 3.8.59 7.5.68 11.28a208.54 208.54 0 0 1-.09 20.92.91.91 0 0 1-1 .83h-.15a25 25 0 0 1-8.54.72Z"></path><path d="M215 436c0-.48.49-.67.87-.7a97.92 97.92 0 0 1 18.61-2.2c1.7.06 8.6-1.52 8.89.59a.91.91 0 0 1-.77.88c-7.13.64-14.3.44-21.39 1.38-1.86.23-3.74.32-5.58.7a.65.65 0 0 1-.63-.65ZM223.46 430.07c.13-3.1.26-6.19.18-9.29a1 1 0 0 1 1-.95 1 1 0 0 1 .6.23c.61.9.33 2.17.47 3.21.14 2.38-.24 4.49-.23 6.8a1 1 0 0 1-2 0ZM227.7 428.45c-.06-2.27.38-4.32.22-6.55a.73.73 0 1 1 1.08-.9.68.68 0 0 1 .17.56c.19 2.3.42 4.62.38 6.94a.94.94 0 1 1-1.88 0Z"></path><path d="M228.05 422.27a9.82 9.82 0 0 1-2.2-.85.49.49 0 0 1-.25-.63.48.48 0 0 1 .51-.28c.65.11 1.4.31 2 .4 1.71.06 3.11-1.18 4.53-2 1.93-1.41 2.57-4.15 3.2-6.28.49-3.52.81-7.08 1-10.62-6.23.42-12.84-.87-18.77 1.5.33 2.72 0 5.51.84 8.19a12.22 12.22 0 0 0 2 5.9 11.09 11.09 0 0 0 2.47.71.82.82 0 0 1 .91.74.15.15 0 0 1 0 .07c-.19 1.44-2 .54-2.9.35s-1.7-.24-2.06-1.09c-3.17-4.06-2.06-9.56-2.43-14.36-1.24-1.12.66-2.1 1.58-2.54 2.48-1.16 5.36-1 8-1.26a60.24 60.24 0 0 1 11.39.54.78.78 0 0 1 .26.73 33.39 33.39 0 0 1-.06 7.61 21.41 21.41 0 0 1-2.73 9.53 6.11 6.11 0 0 1-2.59 2.16c-1.45.78-2.99 1.78-4.7 1.48Z"></path><path d="M222.25 417.15a21.53 21.53 0 0 0-2.41 0 .37.37 0 0 1-.38-.33.49.49 0 0 1 0-.12c.14-.41.7-.32 1.05-.4 3.84-.53 7.71-1.32 11.59-1.2 1 .22 2.65-.24 2.93.89-.08 1.67-2.66.87-3.77 1.06-3-.12-6 .2-9.01.1Z"></path><path d="M227.55 420.39h.13-1.07.27-.14c.26-.02.54.01.81 0Zm-1.08 2a8.42 8.42 0 0 1-5.61-2.55 1.13 1.13 0 0 1-.76-.81.58.58 0 0 1-.22-.78.5.5 0 0 1 .12-.25c-1.44-2.78 3.3-2.06 4.75-1.74 2.9.44 6.05-.76 8.85.32 1.73-.13 1.65 2.21.36 2.79-2.42 1.14-4.65 3.43-7.52 2.94Z"></path><path d="M222.26 416.84c-.4-2.09 0-4.25-.14-6.37a.54.54 0 1 1 1.08 0c0 2 .05 4.1.17 6.14a.57.57 0 0 1-.5.63.58.58 0 0 1-.61-.4ZM224.76 417c-.16-2.12.09-4.25.05-6.38a.54.54 0 0 1 1.08 0v3.17a24.82 24.82 0 0 1-.17 3.22.48.48 0 0 1-1 0ZM227.34 417.05c0-1.75.31-4.45.51-6.51a.63.63 0 0 1 1.24.17c-.21 2.15-.16 4.29-.54 6.42a.62.62 0 0 1-.68.53.6.6 0 0 1-.53-.61ZM230.16 416.23c0-1.65.27-3.16.32-4.8a.39.39 0 0 1 .39-.39.41.41 0 0 1 .4.39 37.67 37.67 0 0 1-.05 4.87.53.53 0 0 1-1.06-.07ZM232.2 416.93a.45.45 0 0 1-.37-.49c.23-1.83.6-3.66.67-5.5a.53.53 0 0 1 1.06 0 27.21 27.21 0 0 1-.88 5.67.45.45 0 0 1-.48.32ZM235.75 430.41c.41-2.65.66-5.56 2.17-7.85 1.33-1 1.31 1.08 1 1.9-.73 2-1.35 4-1.9 6v-.09a.63.63 0 0 1-1.25-.07ZM239 431.62c-1-.47-.08-1.72.07-2.39.56-1.6.84-3.29 1.48-4.86a.81.81 0 0 1 .73-.49c1.73.34.25 2.76.05 3.82-.39 1.18-.83 2.33-1.27 3.49a.82.82 0 0 1-1.06.43Z"></path><path d="M242.49 422.83a14 14 0 0 0 2.77-5c-1.57-1-3.43-.59-5.15-.85a39.85 39.85 0 0 0-.62 5 5 5 0 0 0 3 .85Zm-2.07 1.74a5.8 5.8 0 0 1-.95-.59l-.16-.13a1 1 0 0 1-1.88-.78 30.83 30.83 0 0 1 .8-6c.15-.68.3-1.63 1.1-1.8 1.87-.07 8.13-.05 7.25 2.95-.21 2-1.38 3.61-2.31 5.31a3.16 3.16 0 0 1-3.86 1Z"></path><path d="M244.67 417.83c-1-.83.72-2.43 1-3.37 1.21-2 2.1-4.24 3.37-6.25-1.76-1.17-3.53-2.65-5.72-2.49-.73 3.08-2.43 6-3 9.12.37.22 0 .72-.33.57-1.41-.94 1.56-10.06 3-10.77 2-1 8.37 1.14 7.79 3.77-1.27 2.5-2.48 5.06-4 7.43-.55.66-.98 2.44-2.11 1.99Z"></path><path d="M241.58 415.38a.56.56 0 0 1-.39-.69c.5-1.49 1.14-3 1.61-4.48a.61.61 0 0 1 .75-.4.6.6 0 0 1 .41.72c-.51 1.53-1.09 3-1.72 4.52a.56.56 0 0 1-.66.33Z"></path><path d="M242.47 415.68a.54.54 0 0 1-.3-.63c.42-1.19 1.26-2.2 1.62-3.39.22-.45.11-1.28.77-1.31a.53.53 0 0 1 .53.53 9.7 9.7 0 0 1-2 4.64.54.54 0 0 1-.62.16ZM244.21 415.85a.56.56 0 0 1-.29-.72 20.94 20.94 0 0 0 1.34-2.93c-.45-.61.65-1.2.94-.53.26 1.38-.77 2.66-1.26 3.9a.57.57 0 0 1-.73.28ZM445.39 205.18c3.79 4.91 4.59 12 2.57 17.84-1.27 3.78-4.67 6.17-8.06 7.95 10.26 6.09 2.49 25.26-8.57 24.94-2.11-.12-4-1.36-5.84-2.23a6 6 0 0 1-3.15 1.8 26.72 26.72 0 0 0-.54 4.89 31.72 31.72 0 0 0 0 3.9c2.93.69 10.36 7.45 11.38 8.84 12.45 11.58 13.72 29.56 13.64 45.54.41 12-.38 23.87-.91 35.81-.15 3.38-.42 6.76-.44 10.15v1.17c0 .45.15 1.13-.2 1.48a6.42 6.42 0 0 0 .11 1.16c.47 2.77.25 5.6.49 8.39 0 2 .38 4.69-1.43 6.05a2.6 2.6 0 0 1-1.37.74c-.32.16-.63.33-.93.5.54 1.29.64 2.85 1.14 4.17 1.36 6.09 2.93 12.31 2.25 18.59s-3.14 12.4-7.23 16.84c1.94.57 3.11 4.66 3.39 6.27a163.76 163.76 0 0 1 1.25 26.65c-.33 4.28-1 8.79-3.22 12.51a13.84 13.84 0 0 1-9.84 4.85c-6.92-.19-7.09-7.51-6.92-12.78a.49.49 0 0 1 0-.11c-1.33-6.12-2.93-12.21-4-18.35h-.12a22.32 22.32 0 0 0-3.06 0c.2 3.06.18 6 .46 9.07.13 3.79.53 7.88-1.08 11.38a26.35 26.35 0 0 1-5 7.35c-5.14 3.58-11.4 6.32-17.77 5.3-2.27-.31-4.87-.92-6-3.13-.28-.61-.94-1.11-.71-1.83a.49.49 0 0 1 .45-.38 2.66 2.66 0 0 1 .23-3.77.46.46 0 0 1 .07-.07c2-1.54 4.75-2.38 6.12-4.6a25.91 25.91 0 0 0 .77-3.6c.64-5-.31-10.27.31-15.33a.68.68 0 0 1 .17-.35 12.92 12.92 0 0 1-1.75.24h-.33c.21 3.19 0 6.33 0 9.54.15 2.79-2.73 3.84-5 4.24-1.3.4-2.62.77-3.92 1.2-.75.22-1.45.7-2.24.47a2.89 2.89 0 0 1-2.25-3c-3.69 1.2-7.54 2.13-11.23 3-5.39 1.76-11 3-16.45 4.39-7.09 1.79-14.24 3.81-21.61 3.82-17.1.38-28.1-7.18-18.77-24.69 8.1-12.77 20.38-22.12 31.35-32.26 8.78-8.63 19.1-15.43 28.11-23.76a42.26 42.26 0 0 1 4.55-3.31 1.69 1.69 0 0 1 .31-.13 2.74 2.74 0 0 1 .09-.39c1.12-4 1.23-8.11 1.92-12.15.74-5.33 1.88-10.63 2.4-16 1.25-12.19 2.37-24.19 3.29-36.37.25-1.11 0-6.49.62-8.83-6.13-.11-12.27-.14-18.4-.32-4.53-.09-9.22-.08-13.56-1.56a3.52 3.52 0 0 1-1.66-2.28 1.44 1.44 0 0 1-.87 0c-7.6-1.63-15.63-3-22.3-7.26-5.83-3.92-10.1-9.59-14.53-14.94-9.27-11.07-14.69-24.51-20.55-37.53a58.31 58.31 0 0 1-2.49-6.47.58.58 0 0 1 .14-.58l-.06-.08c-1.5-2.3-3.56-4.19-4.89-6.62-1.05-2.4-1.9-5.44-.67-7.92.35-.74.77-1.46 1.11-2.2a.48.48 0 0 1-.26.18 1.19 1.19 0 0 1-.92.17c-2.12-.05-2.54-2.67-2.46-4.35a5.24 5.24 0 0 1 1.81-3.85c-1.5-.07-3-.33-4.48-.48a.48.48 0 0 1-.23-.07c-.83 1.79-5.58 2.46-7.07 2.41a18.74 18.74 0 0 1-9.55-3.14 14.24 14.24 0 0 1-3.71-5.41 3.93 3.93 0 0 0-1.72-1.23.32.32 0 0 1-.26-.39c.41-.5 1.27-.21 1.84-.45a19.06 19.06 0 0 1 6.05-1.67c3.46-.13 7.37 0 10.2 2.23a7.2 7.2 0 0 1 3.78 4.65.58.58 0 0 1 .83 0 6.75 6.75 0 0 1 2.41.14c2 .21 4.05.54 6.06.73a2.71 2.71 0 0 1 2.55-.52.51.51 0 0 1 .34-.17c.42-.85 1.45-.85 2.28-.86a3.5 3.5 0 0 1 2.36.67.47.47 0 0 1 .4 0 10.75 10.75 0 0 1 4.76 3.34 231.12 231.12 0 0 0 32 6.84 18.68 18.68 0 0 0 2.47.52.52.52 0 0 1 .42.45.56.56 0 0 1 .42.56c.38 2-.45 3.73-2.7 3.43-1.35-.31-2.72-.43-4.1-.64-3-.57-6-1.52-9.07-1.92-5.67-1.55-11.49-2.45-17.18-3.9.11.76.17 1.52.23 2.27-.09 3.39-1.31 6.71-1.58 10.07-.11 1.21.13 2.35.07 3.54a301.23 301.23 0 0 0 20.09 25c7 7.63 14.78 15.45 25.13 18.14.58.1 1.24.26 1.8.35a1.78 1.78 0 0 1 1 .23c.09-.61.2-1.22.34-1.82.28-1.73 2.15-1.93 3.58-2.1 14.79-1.26 29-5.18 43.63-7.47a3.69 3.69 0 0 1 1.05-.14c-.08-1.25.13-2.4.09-3.66.1-2.68 0-5.37.13-8-4.43-.83-10.47-2.47-11.69-5.52-1.56-3.58.09-7.69 0-11.41 0-1.6.41-3.51-.61-4.88-.6-.53-1.39-.91-1.74-1.68a2.77 2.77 0 0 1 .18-3.15c1.08-1 2.8-.72 3.89-1.65 1.58-1.35 1.95-3.63 2.64-5.51.69-1.33 1.82-7.13 3.4-9.27v-.19c-3.41-.64-5.37-4.34-6.1-7.49-.65-3.41.65-6.72 1.72-9.9 2.63-5.79 10.61-8.46 16.09-5.12.53.43 1.89.89 2.58 1.52a14 14 0 0 1 2.07-1.15c4.82-2.27 11.63-2.26 15.47 1.83 2.08 2.32 2.19 5.57 2.94 8.44a3.09 3.09 0 0 0 3.23 2.1c5.15-.39 10.94-1.18 14.33 3.5Zm-.49 11.11a13.19 13.19 0 0 0-.11-2.59 8.7 8.7 0 0 0-.23-1.13 5 5 0 0 0-.37-1 2.07 2.07 0 0 0-.27-.41l-.31-.39a10.22 10.22 0 0 0-.9-1 5 5 0 0 0-.76-.62c-.14-.09-.26-.15-.41-.23h-.06a.66.66 0 0 0-.94-.12.68.68 0 0 0-.11 1 .67.67 0 0 0 .49.25.66.66 0 0 0 .36-.08l.08.06.45.39a7.57 7.57 0 0 1 .53.6 8.21 8.21 0 0 1 .67 1 1.09 1.09 0 0 1 .08.15c.07.18.12.34.18.51a11.28 11.28 0 0 1 .26 1.26c.07.66.12 1.32.13 2a7.87 7.87 0 0 1 0 .84c0 .25-.06.49-.11.74a5.48 5.48 0 0 1-.22.72m0 0c-.16.41-.34.83-.54 1.23l-.81 1.49-.54 1a.3.3 0 0 0 .13.41.23.23 0 0 0 .14 0 .31.31 0 0 0 .22-.09 23.75 23.75 0 0 0 1.51-2c.21-.32.41-.65.59-1a11.3 11.3 0 0 0 .51-1.12 5.36 5.36 0 0 0 .27-1 8.09 8.09 0 0 0 .14-1Zm-2.57 198.2c5-9.83 2.2-20.78.14-31 0-.15-.07-.3-.11-.45-2.37 1.49-4.61 3.18-7.23 4.15-8.3 2.72-17.11 5.85-25.95 4.9-4.3-.63-8.6-1.19-12.85-2-4.84-1.39-9.28-4-13.74-6.17a38.62 38.62 0 0 0-5.77-1.62.93.93 0 0 1-.41-.26.76.76 0 0 1-.18-.09c-8.49 8.39-18.23 15.53-27.36 23.23-11.41 10.52-23.81 20.13-33.4 32.41-3.94 5.63-8.55 15-2.94 20.92 5.16 5.08 14 4.47 20.74 4.42 14.58-1.84 29.08-6.77 43.34-10.27a17.92 17.92 0 0 1 4-.78.66.66 0 0 1 .34.06.43.43 0 0 1 0-.16 39 39 0 0 0-.58-8.29c-.4-3.62-1.66-7.22-2.28-10.77a22.22 22.22 0 0 0-2.34-7.13.61.61 0 0 1-.18-.54l-.11.05c-6.88 2.44-13.82 4.48-20.46 7.51-2.47 1.05-4.79 2.39-7.22 3.52a.52.52 0 0 1-.69-.28.53.53 0 0 1 .28-.69c3.64-1.7 6.83-4.22 10.62-5.6a131.88 131.88 0 0 1 16-5.78 5 5 0 0 1 1.16-.13 2.06 2.06 0 0 1 .86-2.45c1.35-1 3-1.17 4.55-1.65a6.35 6.35 0 0 1 4.07-.46c2.57.75 2.88 3.87 4.23 5.87 2.11-1.4 4.69-1.52 7.12-2a2.86 2.86 0 0 1 1.64 0 8.26 8.26 0 0 1 2.67-1 19.89 19.89 0 0 1 3.62-.08c2.18.05 6.25-.69 8.27.79 1.94-.46 4.35.49 4.24 2.75 0 1.06 0 2.12.08 3.19 11.14-2.5 20.7-2 25.78-14.17Zm-2.1 50.91c3.4-7.89 2.6-16.91 1.95-25.25-.43-5.32.21-11-2.17-16-.18-.32-.36-.74-.73-.86a.87.87 0 0 1-.71-.24 19.26 19.26 0 0 1-10.56 5c-1.28.22-2.55.48-3.82.75a.55.55 0 0 1-.32.33 29.4 29.4 0 0 0 .51 9.07c.56 6.1 1.34 12.25 1.51 18.37.52 4.33-1.24 9.81 2.69 12.93 3.82 2.23 9.54-.67 11.61-4.16Zm1.13-248.75a.55.55 0 0 0 .53-.56c0-.64 0-1.3-.06-1.95a12.34 12.34 0 0 0-.14-1.48 7.66 7.66 0 0 0-.21-.95c-.09-.26-.18-.51-.29-.77a.45.45 0 0 0-.58-.23.44.44 0 0 0-.23.58c.07.16.14.32.2.48a3.57 3.57 0 0 1 .1.35c.06.28.1.56.14.84V217.96a.55.55 0 0 0 .51.6h.05Zm-.36 23a9.53 9.53 0 0 0 .05-1.51 9.41 9.41 0 0 0-.15-1.3 7.22 7.22 0 0 0-.91-2.29 8.35 8.35 0 0 0-1.86-2.07 10.27 10.27 0 0 0-2.28-1.4.68.68 0 0 0-.9.31.67.67 0 0 0 .3.9 9.4 9.4 0 0 1 1 .51 10.06 10.06 0 0 1 .86.59c.26.21.5.43.74.66s.36.41.53.62a5.94 5.94 0 0 1 .38.59 9.23 9.23 0 0 1 .42.9c.07.2.13.4.19.6s.1.45.14.69a11 11 0 0 1 .09 1.4 5.93 5.93 0 0 1-.06.84 5.55 5.55 0 0 1-.13.71c-.07.27-.14.52-.23.77a11 11 0 0 1-.54 1.15 13 13 0 0 1-.74 1.18c-.29.4-.6.78-.92 1.15l-.48.54-.64.72a2.44 2.44 0 0 1-.27.29.35.35 0 0 0 0 .47.31.31 0 0 0 .24.1.36.36 0 0 0 .2-.06c.4-.28.79-.56 1.18-.86.14-.12.3-.23.44-.36a9.88 9.88 0 0 0 1-1 11.66 11.66 0 0 0 1.56-2.26 7.65 7.65 0 0 0 .54-1.29 8.29 8.29 0 0 0 .3-1.38Zm-5.43 1.3a4.28 4.28 0 0 0 .09-1.13 8.17 8.17 0 0 0-.18-1.29c-.09-.41-.2-.83-.31-1.24a.62.62 0 0 0-1.19.35c.11.43.23.87.33 1.31.05.23.08.47.11.71v.32a5 5 0 0 1-.06.54 2.38 2.38 0 0 1-.05.26 6.49 6.49 0 0 1-.26.74.61.61 0 0 0 .35.78.63.63 0 0 0 .75-.28 4.4 4.4 0 0 0 .4-1.1Zm-12.76 188.69c0-.19.06-.39.1-.57-1 .21-2 .42-2.94.61a.3.3 0 0 1-.14.41.33.33 0 0 1-.24 0c.38 1.75.13 3.66.52 5.4 0 .63.55 2.16.62 3.27a3.66 3.66 0 0 1 .66 0c1.15.42.88 1.25.19 1.72a54.83 54.83 0 0 1 2.49 9.41c-.21-6.77-2.1-13.52-1.26-20.25Zm.11-175.95c-4 .39-8.63-2.3-7.63-6.73-1.73 0-2-2.27-1.84-3.61a2.2 2.2 0 0 1 .28-.79 4.21 4.21 0 0 1-2.76.66.6.6 0 0 1-.6-.61.59.59 0 0 1 .43-.57 6 6 0 0 0 3.11-1.27c2.49-2.65 3.51-7.55 1.08-10.52-3-.05-3.83 2.87-4.51 5.22.36.72-1 1.25-1.11.43a18.12 18.12 0 0 1 .9-4 1.52 1.52 0 0 1-.68-.47 4.72 4.72 0 0 1-.37-.61c-.45-.48-.84-1.06-1.3-1.5a24.31 24.31 0 0 1-2.57-.5c-2.2-.62-2.45-3.17-1.71-5 .44-1.16 1.2-2.2 1.22-3.43a4.67 4.67 0 0 0-2.17-3.94c-2.54-1.14-5.78-1.6-7.32-4.18-.07-.15-.14-.3-.2-.45-.44 1.28-.55 2.7-.9 4-.89 3.27-1.51 7-3.77 9.61a6.31 6.31 0 0 1-4.43 1.66c-.79.21-.24 1.27 0 1.72a5.53 5.53 0 0 1 2.47 5.69c-.05 3.83-1.46 7.86-.46 11.6-.07 4.12 17.72 5.07 13.7 7.1-.53-.08-1.18-.17-1.88-.29.32 1.82.06 5 .21 5.82-.22 1.07.31 4.42-.27 5.88v.1c2.78 2.46 6.64 1.73 10 1.76 4.16.21 8.19-1.16 12-2.7.17-.19.29-.49.56-.57a.63.63 0 0 1-.09-.53 24.22 24.22 0 0 1 .61-8.98Zm-3.94 185.48c0-.1 0-.2-.05-.3-.43-2.62-.94-5.36-.33-8 .11-.34.2-.68.3-1l-.73.13a12.1 12.1 0 0 1-1.59.19c.13 3.11.36 6.23.61 9.27a7.72 7.72 0 0 0 1.79-.29Zm-4.92 24.06c4.35-6.75 2.26-15.39 1.73-22.9-.7-5-.6-10.15-.9-15.16.11-1.18-.91-1.24-1.79-1.42.05.12.1.25.14.38 0 9.85 1.13 19.68.78 29.53a39.53 39.53 0 0 1-1 7.18c-.2.65-.27 1.92-1.21 1.75s-.36-1.07-.21-1.63c.28-1 .41-2.2.67-3.21 1.29-11.19-.61-22.48-.5-33.69-2.25-.83-4.77-.58-7.14-.72-2.14 0-4.34-.42-6.42.16a36.21 36.21 0 0 1 3.92 2.57 7.8 7.8 0 0 1 3.07 4.95c.14 2.88-1.52 5.36-3.53 7.25a4.65 4.65 0 0 1-2.48 1.31 9 9 0 0 1-3.21 1.16.6.6 0 0 1 .38.77c-.63 6.66 1.64 14-1.48 20.18a14.62 14.62 0 0 1-4.14 3.15c-.87.54-2.51 1.08-2.31 2.32 1.94 2.5 5.41 2.18 8.24 2.26a33.32 33.32 0 0 0 14.36-6.23.44.44 0 0 1 .57.65 12.86 12.86 0 0 1-6.22 4.67 8.41 8.41 0 0 1-3.28 1.25c-2.29.47-4.41 1.22-6.75 1.05s-4.76-.09-6.69-1.4a12.05 12.05 0 0 0 1.66 1.69c1.11.39 2.3.44 3.41.83a19.78 19.78 0 0 0 13.1-2.49 34.81 34.81 0 0 0 4.07-2.33 28.45 28.45 0 0 0 3.17-3.92Zm-.68-239.29a.77.77 0 0 0 .44-1 12 12 0 0 1-.54-1.41.14.14 0 0 1 0-.06.78.78 0 0 0-.73-.57.44.44 0 0 0-.16 0 .74.74 0 0 0-.56.89c.17.57.36 1.12.58 1.67a.79.79 0 0 0 .72.49.86.86 0 0 0 .25-.01Zm-2.52-.81a.51.51 0 0 0 0-.68l-.28-.25c-.11-.1-.21-.21-.3-.31l-.05-.07-.11-.2-.09-.24-.09-.42v-.39a.51.51 0 0 0-.49-.46.51.51 0 0 0-.46.55c.06.39.1.79.17 1.18a1.88 1.88 0 0 0 .1.47 2 2 0 0 1 .1.21 1.43 1.43 0 0 0 .14.2 3.24 3.24 0 0 0 .85.66.64.64 0 0 0 .27.07.49.49 0 0 0 .4-.2Zm-11.66 214.58c3-1.43 6-5.64 3.6-8.7a9.32 9.32 0 0 0-2.61-2.27c-1.08-.66-1.8-1.85-3-2.26a3.91 3.91 0 0 1-.75.26 15.86 15.86 0 0 1 2.95 12.31c-.06.19-.11.42-.19.66Zm2.87-243.92a.68.68 0 0 0 .38-.85.64.64 0 0 0-.61-.41.85.85 0 0 0-.23 0 4.44 4.44 0 0 0-1.71 1 4.34 4.34 0 0 0-.56.72.94.94 0 0 0-.1.23.85.85 0 0 0-.11.26.64.64 0 0 0 .52.74h.33a.67.67 0 0 0 .41-.76l.07-.09.24-.22.23-.16.28-.15m0 0a7.64 7.64 0 0 1 .8-.29Zm-.32-3a.56.56 0 0 0 .31-.74.55.55 0 0 0-.53-.35h-.1c-.51.11-1 .25-1.52.4a5.55 5.55 0 0 0-1.93 1 10.84 10.84 0 0 0-1.63 1.76 4.52 4.52 0 0 0-.9 1.67.61.61 0 0 0 .46.74h.06a.11.11 0 0 0 .08 0 .6.6 0 0 0 .6-.61V196.71c.07-.14.15-.27.23-.41.22-.31.45-.6.69-.9a7.27 7.27 0 0 1 .68-.68c.18-.16.37-.3.57-.45l.45-.26a9.16 9.16 0 0 1 1-.4c.51-.17 1-.35 1.48-.54Zm-3.09 245.64a15.12 15.12 0 0 0-2.45-11.69.28.28 0 0 1-.1-.09c-1.17.21-2.39.28-2.9.34a8.43 8.43 0 0 0-2.89.6c2.05 4 2.69 8.69 3.58 13.08 0 .34.08.68.11 1 1.57-.41 3-1.18 4.63-1.46-.46-.44 0-1.36.07-1.84Zm-6.56 15.18c1.07-.5 1-1.83 1.19-2.83a48.66 48.66 0 0 0-1.7-12.25c-.93-4.12-1.69-8.39-4-12-.92-1.4-1.07-3.73-2.91-4a10.4 10.4 0 0 0-3.61.71c-1.5.42-4.31.46-4.16 2.59a1.6 1.6 0 0 1 .1.31.63.63 0 0 1 .52.27c2.71 4.78 3.47 10.35 4.77 15.62.11 1.61 2.1 11.73 0 12.06a.82.82 0 0 1 .09.38c0 .51.05 1 .11 1.53a4.57 4.57 0 0 0 .8.31c2.9-1.2 6.07-1.41 8.84-2.7Zm-40.78-150.4c-.13-.91-.18-1.85-.33-2.64a84.76 84.76 0 0 1-1-9.26c.16-4.25-.05-8.58.49-12.81a1.27 1.27 0 0 1-.94.09c-18.57-2.15-37.68-29.07-47.5-44.07a.64.64 0 0 1-.65-.29c-1.06-4.83 1.25-9.69 1.11-14.5-.47-2.83-.65-4.76-1.6-6.29a.48.48 0 0 1-.31-.45 6.87 6.87 0 0 0-1.94-1.7c.59.76 1.25 1.8.45 2.41a.65.65 0 0 1-.82-.24c-.86-2.17-3.23-4.26-5.66-3.39v.06a8 8 0 0 1 2.35 1.85 7 7 0 0 1 1.3 2.52.37.37 0 0 1-.2.45.39.39 0 0 1-.5-.18 5.82 5.82 0 0 0-3.12-3.48c-1.06-.54-2.54-.74-3.39.13a4.14 4.14 0 0 1 3.14 1.8 8.16 8.16 0 0 1 1.73 3.52.38.38 0 0 1-.21.41c-.61.15-.81-.79-1.14-1.16-1-1.58-2.21-3.24-4.18-3.33-.51 0-.88.37-1.32.56a4.42 4.42 0 0 0-1.85 1.18c-1.33 1.23-1.26 3.49-.78 5a2.11 2.11 0 0 0 1.36 1.1c.33-.5.84 0 .73.34a5.78 5.78 0 0 0 .6-2.77.13.13 0 0 1 0 .06 1.32 1.32 0 0 0-.25-.9.77.77 0 0 0-.38.17.81.81 0 0 1-1.12-.26.8.8 0 0 1-.08-.69 1.81 1.81 0 0 1 2.48-.59 1.84 1.84 0 0 1 .63.67c1.76 3.63-2.26 6.95-1.64 10.59a12.46 12.46 0 0 0 2.71 6.28 24.67 24.67 0 0 1 2.36 3.7.5.5 0 0 1 0 .58.56.56 0 0 1 .2.28 49.25 49.25 0 0 0 2.54 6.27c2.65 5.74 5.3 11.45 8.27 17 3.26 8 8.29 15.13 13.75 21.76 7.07 8.78 11.79 14.24 23 17.4a84.36 84.36 0 0 0 10.19 2.45 11.92 11.92 0 0 1 1.56.37Zm-15.83-80a3.74 3.74 0 0 0 .29-2.16c-2.21-.73-4.65-.68-7-1.14-6.41-1.08-12.78-2-19.06-3.73a59 59 0 0 1-7.36-2.25 7 7 0 0 1 1.26 2.66.81.81 0 0 1 .34.24c10.18 2.59 20.57 4.74 30.93 6.5a1 1 0 0 0 .58-.12Zm-47.38-11.77a3.68 3.68 0 0 1 .23-.44c-2.43 0-4.89-.71-7.3-.76a.31.31 0 0 0-.27.18 3.13 3.13 0 0 0-.26 1.24c1.83.26 3.66.39 5.5.47a6 6 0 0 1 2.1-.69Zm-9.24.8a18.68 18.68 0 0 1-.39-2.58c-.27-2.24-2.23-3.64-4.08-4.55a22.32 22.32 0 0 0-8.48-1.42c-.29 0-.57.07-.85.12.4 0 .79.06 1.19.12a30.89 30.89 0 0 1 3.69.74.42.42 0 0 1 .31.5.41.41 0 0 1-.47.31 35.91 35.91 0 0 0-8.12-1h-.07c1.53.38 3.1.56 4.62 1 .54.31 6.9 1.3 4.92 2.06-3.66-.54-7.2-1.68-10.78-2.53 2.56 1 5.11 2 7.71 2.9.45.26 4.68 1.18 3 1.69-3.9-.66-7.45-2.51-11-4 1.68 1.53 2.56 3.84 4.37 5.28a17.59 17.59 0 0 0 9.37 2.76 13.12 13.12 0 0 0 5.1-1.37Z"></path></svg>