<?xml version="1.0" encoding="utf-8"?>
<!-- Generator: Adobe Illustrator 27.7.0, SVG Export Plug-In . SVG Version: 6.00 Build 0)  -->
<svg version="1.1" id="Layer_1" xmlns="http://www.w3.org/2000/svg" xmlns:xlink="http://www.w3.org/1999/xlink" x="0px" y="0px"
	 viewBox="0 0 600 600" style="enable-background:new 0 0 600 600;" xml:space="preserve">
<style type="text/css">
	.st0{fill:#FFFFFF;}
</style>
<circle class="st0" cx="300" cy="300" r="300"/>
<path d="M85.6,427.8V189.6c0-4.4,0.3-8.7,1.1-13c4.2-23.7,23-92.4,102.6-104.9c0,0,58-7.3,102.1,36.8c0.6,0.6,0.6,1.7,0,2.3
	l-44.5,44.5c-0.6,0.6-1.7,0.6-2.3,0c-4-4.2-18.6-17-47.3-17c-32.7,0-43.2,37.8-43.9,40.8c0,0.2-0.1,0.2-0.1,0.4v240.7
	c0,4.2,1,8.2,3.1,11.9c5.2,9.2,18,24.9,43.5,24.9h0.1c1.1,0.1,20.7,1.3,39.6-17.7l83.6-84.4c5.2-5.2,8.5-12,9.6-19.2l0,0
	c0.2-1.5,0.3-3,0.3-4.5v-66.8c0-3.7-1.1-7.3-3.1-10.4c-3.1-4.8-9.9-13.6-15.7-18.8c-0.7-0.6-0.7-1.7-0.1-2.4l46.9-46.9
	c0.6-0.6,1.6-0.6,2.3-0.1c5.2,4.4,24,20.4,35.6,50.4c2.6,6.7,3.5,14.3,3.5,22v72c0,24.4-9.1,47.9-25.7,65.8
	c-1.1,1.2-2.3,2.4-3.5,3.6l-94.3,94.6c-27.8,27.8-68.1,39.8-106.3,30.5c-7-1.7-14.3-4.2-21.8-7.5h-0.1c-1.2-0.4-34.6-13.2-58.3-60.8
	C87.9,447.6,85.6,437.8,85.6,427.8z"/>
<path d="M514.1,171.3v238.3c0,4.4-0.3,8.7-1.1,13c-4.2,23.7-23,92.4-102.6,104.9c0,0-58,7.3-102.1-36.8c-0.6-0.6-0.6-1.7,0-2.3
	l44.5-44.5c0.6-0.6,1.7-0.6,2.3,0c4,4.2,18.6,17,47.3,17c32.7,0,43.2-37.8,43.9-40.8c0-0.2,0.1-0.2,0.1-0.4V178.9
	c0-4.2-1-8.2-3.1-11.9c-5.2-9.2-18-24.9-43.5-24.9h-0.1c-1.1-0.1-20.7-1.3-39.6,17.7l-83.6,84.4c-5.2,5.2-8.5,12-9.6,19.2l0,0
	c-0.2,1.5-0.3,3-0.3,4.5v66.8c0,3.7,1.1,7.3,3.1,10.4c3.1,4.8,9.9,13.6,15.7,18.8c0.7,0.6,0.7,1.7,0.1,2.4l-46.9,46.9
	c-0.6,0.6-1.6,0.6-2.3,0.1c-5.2-4.4-24-20.4-35.6-50.4c-2.6-6.7-3.5-14.3-3.5-22v-72c0-24.4,9.1-47.9,25.7-65.8
	c1.1-1.2,2.3-2.4,3.5-3.6l94.4-94.5c27.8-27.8,68.1-39.8,106.3-30.5c7,1.7,14.3,4.2,21.8,7.5h0.1c1.2,0.4,34.6,13.2,58.3,60.8
	C511.8,151.5,514.1,161.3,514.1,171.3z"/>
</svg>
