<?xml version="1.0" encoding="utf-8"?>
<!-- Generator: Adobe Illustrator 27.7.0, SVG Export Plug-In . SVG Version: 6.00 Build 0)  -->
<svg version="1.1" id="Layer_1" xmlns="http://www.w3.org/2000/svg" xmlns:xlink="http://www.w3.org/1999/xlink" x="0px" y="0px"
	 viewBox="0 0 550.4 545.3" style="enable-background:new 0 0 550.4 545.3;" xml:space="preserve">
<path d="M23.1,430.5V143.3c0-5.2,0.4-10.5,1.3-15.6c5-28.2,27.3-108.4,120.5-123c0,0,68.2-8.6,120,43.2c0.8,0.8,0.8,2,0,2.8
	L212.6,103c-0.8,0.8-2,0.8-2.8,0c-4.7-4.9-21.9-19.9-55.6-19.9c-38.4,0-50.7,44.3-51.6,48c0,0.1-0.1,0.3-0.1,0.4v288.8
	c0,0.2,0,0.4,0.1,0.7c1.3,3.7,14.6,36.7,54.6,36.8h0.1c1.2,0.1,24.3,1.4,46.5-20.8l103.8-104.8c0.1-0.1,0.2-0.2,0.2-0.3
	c0.8-1.2,4.6-8,5.7-19.6c0-0.1,0-0.1,0-0.2v-80.4c0-4.3-1.2-8.6-3.7-12.3c-3.7-5.6-11.7-16-18.5-22.2c-0.8-0.8-0.9-2-0.1-2.8
	l55.1-55.1c0.7-0.7,1.9-0.8,2.7-0.1c7.8,6.5,46,40.4,46,85.2v103.3c0,3.1-0.3,6.1-1.1,9.1c-2.5,9.7-10.1,30.7-33.2,53.8l-127,126.9
	c-4.1,4.1-9,7.6-14.4,10.1c-19.1,8.8-66.3,25.1-120,0.8h-0.1c-1.6-0.6-44.8-17.3-72.5-80.2C24.3,442.5,23.1,436.5,23.1,430.5z"/>
<path d="M527.4,114.7v287.2c0,5.2-0.4,10.5-1.3,15.6c-5,28.2-27.3,108.4-120.5,123c0,0-68.2,8.6-120-43.2c-0.8-0.8-0.8-2,0-2.8
	l52.2-52.2c0.8-0.8,2-0.8,2.8,0c4.7,4.9,21.9,19.9,55.6,19.9c38.4,0,50.7-44.3,51.6-48c0-0.1,0.1-0.3,0.1-0.4V125
	c0-0.2,0-0.4-0.1-0.7c-1.3-3.7-14.6-36.7-54.6-36.8h-0.1c-1.2-0.1-24.3-1.4-46.5,20.8L242.8,213.2c-0.1,0.1-0.2,0.2-0.2,0.3
	c-0.8,1.2-4.6,8-5.7,19.6c0,0.1,0,0.1,0,0.2v80.4c0,4.3,1.2,8.6,3.7,12.3c3.7,5.6,11.7,16,18.5,22.2c0.8,0.8,0.9,2,0.1,2.8
	L204,406.2c-0.7,0.7-1.9,0.8-2.7,0.1c-7.8-6.5-46-40.4-46-85.2V217.8c0-3.1,0.3-6.1,1.1-9.1c2.5-9.7,10.1-30.7,33.2-53.8l127-127
	c4.1-4.1,9-7.6,14.4-10.1c19.1-8.8,66.3-25.1,120-0.8h0.1c1.6,0.6,44.8,17.3,72.5,80.2C526.1,102.7,527.4,108.7,527.4,114.7z"/>
</svg>
