<?xml version="1.0" encoding="utf-8"?>
<!-- Generator: Adobe Illustrator 27.7.0, SVG Export Plug-In . SVG Version: 6.00 Build 0)  -->
<svg version="1.1" id="Layer_1" xmlns="http://www.w3.org/2000/svg" xmlns:xlink="http://www.w3.org/1999/xlink" x="0px" y="0px"
	 viewBox="0 0 2809.6 545.3" style="enable-background:new 0 0 2809.6 545.3;" xml:space="preserve">
<style type="text/css">
	.st0{enable-background:new    ;}
</style>
<path d="M81.3,373.8v-184c0-3.4,0.3-6.7,0.9-10c3.2-18.1,17.5-69.5,77.3-78.8c0,0,43.7-5.5,76.9,27.7c0.5,0.5,0.5,1.3,0,1.8
	L202.7,164c-0.5,0.5-1.3,0.5-1.8,0c-3-3.1-14.1-12.8-35.6-12.8c-24.6,0-32.5,28.4-33.1,30.8c0,0.1-0.1,0.2-0.1,0.3v185.1
	c0,0.1,0,0.3,0.1,0.4c0.9,2.4,9.4,23.5,35,23.6h0.1c0.8,0.1,15.6,0.9,29.8-13.4l66.5-67.2c0.1-0.1,0.1-0.1,0.1-0.2
	c0.5-0.8,2.9-5.1,3.6-12.6c0-0.1,0-0.1,0-0.1v-51.6c0-2.8-0.8-5.5-2.4-7.9c-2.4-3.6-7.5-10.3-11.9-14.2c-0.5-0.5-0.6-1.3-0.1-1.8
	l35.3-35.3c0.4-0.4,1.2-0.5,1.7-0.1c5,4.1,29.5,25.9,29.5,54.6v66.2c0,2-0.2,3.9-0.7,5.9c-1.6,6.2-6.5,19.7-21.3,34.5L216,429.5
	c-2.6,2.6-5.8,4.9-9.2,6.5c-12.2,5.6-42.5,16.1-76.9,0.5h-0.1c-1-0.4-28.7-11.1-46.5-51.4C82.1,381.5,81.3,377.7,81.3,373.8z"/>
<path d="M404.5,171.5v184.1c0,3.4-0.3,6.7-0.9,10c-3.2,18.1-17.5,69.5-77.3,78.8c0,0-43.7,5.5-76.9-27.7c-0.5-0.5-0.5-1.3,0-1.8
	l33.5-33.5c0.5-0.5,1.3-0.5,1.8,0c3,3.1,14.1,12.8,35.6,12.8c24.6,0,32.5-28.4,33.1-30.8c0-0.1,0.1-0.2,0.1-0.3V178
	c0-0.1,0-0.3-0.1-0.4c-0.9-2.4-9.4-23.5-35-23.6h-0.1c-0.8-0.1-15.6-0.9-29.8,13.4L222,234.6c-0.1,0.1-0.1,0.1-0.1,0.2
	c-0.5,0.8-2.9,5.1-3.6,12.6c0,0.1,0,0.1,0,0.1v51.6c0,2.8,0.8,5.5,2.4,7.9c2.4,3.6,7.5,10.3,11.9,14.2c0.5,0.5,0.6,1.3,0.1,1.8
	l-35.3,35.3c-0.4,0.4-1.2,0.5-1.7,0.1c-5-4.1-29.5-25.9-29.5-54.6v-66.2c0-2,0.2-3.9,0.7-5.9c1.6-6.2,6.5-19.7,21.3-34.5l81.4-81.4
	c2.6-2.6,5.8-4.9,9.2-6.5c12.2-5.6,42.5-16.1,76.9-0.5h0.1c1,0.4,28.7,11.1,46.5,51.4C403.6,163.8,404.5,167.6,404.5,171.5z"/>
<g class="st0">
	<path d="M902.3,214.2c-12.1-13.4-27.4-20.1-45.7-20.1c-18.4,0-33.4,6.7-45.2,20.1c-8.5,9.5-13.6,21.6-15.2,36.4
		c-1.6,14.7-2.5,46-2.5,93.9c0.3,21.6,0.5,39.5,0.5,53.6H748c0-14.1,0-31.9,0-53.6c0.3-47.8-0.3-79.1-2-93.9
		c-1.6-14.7-6.7-26.9-15.2-36.4c-12.1-13.4-27.2-20.1-45.2-20.1c-18.4,0-33.6,6.7-45.7,20.1c-8.5,9.5-13.6,21.6-15.2,36.4
		c-1.6,14.7-2.3,46-2,93.9c0,22.3,0,40.1,0,53.6h-45.2c0-21.9-0.2-50.4-0.5-85.5c0-31.4,0.1-51.3,0.2-59.5
		c0.2-8.2,1.1-15.4,2.7-21.6c6.2-26.9,19.4-47.5,39.6-61.9c20.1-14.4,42-21.8,65.6-22.1c31.1,0.3,57,11,77.6,31.9l8.4,8.4l7.9-8.4
		c21-21,46.8-31.6,77.6-31.9c23.9,0.3,45.9,7.7,66.1,22.1c20.1,14.4,33.3,35.2,39.6,62.4c1.3,5.9,2.1,12.9,2.5,21.1
		c0.3,8.2,0.5,28,0.5,59.5c-0.3,32.8-0.5,61.3-0.5,85.5h-45.2c0-13.4,0-31.3,0-53.6c0.3-47.8-0.3-79.1-2-93.9
		C915.9,235.8,910.8,223.7,902.3,214.2z"/>
	<path d="M1256.6,272.7V398h-45.7V272.7c0-21.9-7.8-40.7-23.3-56.3c-15.6-15.6-34.3-23.3-56.3-23.3c-22,0-40.7,7.8-56.3,23.3
		c-15.6,15.6-23.3,34.3-23.3,56.3c0,22,7.8,40.7,23.3,56.3c15.6,15.6,34.3,23.3,56.3,23.3c7.5,0,15.1-1,22.6-2.9V396
		c-7.5,1.3-15.1,2-22.6,2c-34.7,0-64.3-12.2-88.7-36.6c-24.4-24.4-36.6-53.9-36.6-88.5c0-34.6,12.2-64.1,36.6-88.7
		c24.4-24.6,53.9-36.9,88.5-36.9c34.6,0,64.1,12.3,88.7,36.9C1244.3,208.8,1256.6,238.3,1256.6,272.7z"/>
	<path d="M1354.3,147.4v261.9c0,33.1-11.3,61.7-33.9,85.7c-22.6,24.1-50.1,37.3-82.6,39.6v-45.7c20-2.3,36.8-11,50.4-26
		c13.6-15.1,20.4-32.9,20.4-53.6V147.4H1354.3z M1312.8,86.2c-5.1-5.1-7.6-11.2-7.6-18.4c0-7.2,2.5-13.3,7.6-18.4
		c5.1-5.1,11.3-7.6,18.7-7.6c7.4,0,13.6,2.5,18.7,7.6c5.1,5.1,7.6,11.2,7.6,18.4c0,7.2-2.5,13.4-7.6,18.4
		c-5.1,5.1-11.3,7.6-18.7,7.6C1324.1,93.8,1317.9,91.3,1312.8,86.2z"/>
	<path d="M1573.5,336.1l36.9,29c-6.6,6.2-14.4,11.8-23.6,16.7l-4.4,2.9c-17.7,8.8-36.5,13.3-56.5,13.3c-27.8,0-52.9-8.4-75.2-25.1
		c-22.3-16.7-37.3-38.5-45.2-65.4l-1-3.4c-2.6-10.2-3.9-20.6-3.9-31.5c0-34.4,12.2-63.9,36.6-88.5c24.4-24.6,54-36.9,88.7-36.9
		c21.3,0,41.3,5.2,60,15.7l1.5,0.5c16.7,9.5,30.6,22.3,41.8,38.3l-71.7,92.4l-35.9-28l46.7-60l-11.3-6.9c-7.9-4.3-18.2-6.4-31-6.4
		c-22,0-40.7,7.8-56.3,23.3c-15.6,15.6-23.3,34.3-23.3,56.3c0,19,6.1,35.9,18.2,50.6c12.1,14.7,27.5,23.9,46.2,27.5
		c2.3,0.7,5.6,1.2,9.8,1.5c2.6,0,5.2,0,7.9,0C1545,351.6,1560.1,346.2,1573.5,336.1z"/>
	<path d="M1852.1,324.3c0,20.3-7.1,37.7-21.4,52.1c-14.3,14.4-31.5,21.6-51.8,21.6h-114v-45.2h114c7.9,0,14.6-2.8,20.1-8.4
		c5.6-5.6,8.4-12.3,8.4-20.1s-2.8-14.6-8.4-20.1c-5.6-5.6-12.3-8.4-20.1-8.4h-45.2h-2.5c-20,0-37.1-7.2-51.4-21.6
		c-14.2-14.4-21.4-31.6-21.4-51.6c0-20.3,7.1-37.7,21.4-52.1c14.3-14.4,31.5-21.6,51.8-21.6h103.7V194h-103.2
		c-7.9,0-14.6,2.8-20.1,8.4c-5.6,5.6-8.4,12.3-8.4,20.1s2.8,14.6,8.4,20.1c5.6,5.6,12.3,8.4,20.1,8.4h45.2h2
		c20.3,0,37.5,7.2,51.6,21.6C1845.1,287.1,1852.1,304.3,1852.1,324.3z"/>
	<path d="M2017.2,398c-34.7,0-64.3-12.2-88.7-36.6c-24.4-24.4-36.6-54-36.6-88.7V79.1h45.7v102.7h68.3V227h-68.3v45.7
		c0,22,7.8,40.7,23.3,56.3c15.6,15.6,34.3,23.3,56.3,23.3c7.5,0,15.1-1,22.6-2.9V396C2032.3,397.3,2024.8,398,2017.2,398z"/>
	<path d="M2084.3,86.2c-5.1-5.1-7.6-11.2-7.6-18.4c0-7.2,2.5-13.3,7.6-18.4c5.1-5.1,11.2-7.6,18.4-7.6c7.2,0,13.4,2.5,18.7,7.6
		c5.2,5.1,7.9,11.2,7.9,18.4c0,7.2-2.6,13.4-7.9,18.4c-5.2,5.1-11.5,7.6-18.7,7.6C2095.5,93.8,2089.4,91.3,2084.3,86.2z M2080.1,398
		V147.4h45.7V398H2080.1z"/>
	<path d="M2208.1,361.4c-24.4-24.4-36.6-53.9-36.6-88.5c0-34.6,12.2-64.1,36.6-88.7c24.4-24.6,54-36.9,88.7-36.9
		c30.1,0,56.8,9.7,80.1,29l-32.4,32.4c-14.1-10.5-30-15.7-47.7-15.7c-22,0-40.7,7.8-56.3,23.3c-15.6,15.6-23.3,34.3-23.3,56.3
		c0,22,7.8,40.7,23.3,56.3c15.6,15.6,34.3,23.3,56.3,23.3c17.7,0,33.6-5.2,47.7-15.7l32.4,32.4c-23.3,19.3-50,29-80.1,29
		C2262.1,398,2232.5,385.8,2208.1,361.4z"/>
	<path d="M2431.2,184.2c24.4-24.6,53.9-36.9,88.5-36.9c34.6,0,64.1,12.3,88.7,36.9c24.6,24.6,36.9,54.1,36.9,88.7
		c0,34.6-12.3,64.1-36.9,88.5c-24.6,24.4-54.1,36.6-88.7,36.6c-34.6,0-64.1-12.2-88.5-36.6c-24.4-24.4-36.6-53.9-36.6-88.5
		C2394.6,238.4,2406.8,208.8,2431.2,184.2z M2576.2,328.9c15.6-15.6,23.3-34.3,23.3-56.3c0-25.9-10.2-46.7-30.5-62.4
		c-4.9-3.9-10.2-7.2-15.7-9.8c-2-1-3.9-1.8-5.9-2.5c-8.8-3.3-18-4.9-27.5-4.9c-22,0-40.7,7.8-56.3,23.3
		c-15.6,15.6-23.3,34.3-23.3,56.3c0,25.9,10.2,46.9,30.5,62.9c14.4,11.1,30.8,16.7,49.1,16.7
		C2541.9,352.3,2560.6,344.5,2576.2,328.9z"/>
</g>
</svg>
